<svg xmlns="http://www.w3.org/2000/svg" xmlns:svg="http://www.w3.org/2000/svg" id="svg5" width="596" height="290" version="1.1" viewBox="0 0 157.692 76.729"><defs id="defs2"><clipPath id="clip0"><rect id="rect8398" width="611" height="290" x="148" y="204"/></clipPath></defs><g id="layer1"><rect style="fill:#fff;stroke-width:.264583" id="rect53" width="157.692" height="76.729" x="0" y="0"/></g><g id="layer2"><g id="g8563" clip-path="url(#clip0)" transform="matrix(0.26458333,0,0,0.26458333,-40.800866,-55.01346)"><path id="path8403" fill="#fff" fill-rule="evenodd" d="M 482,301 H 616 V 449 H 482 Z"/><path id="path8405" fill="#b3b2b3" fill-opacity=".4" fill-rule="evenodd" d="M 455,236 H 565 V 491 H 455 Z"/><path id="path8407" fill="#fff" fill-rule="evenodd" d="M 226,235 H 390 V 492 H 226 Z"/><path id="path8409" fill="#0078d4" fill-opacity=".349" fill-rule="evenodd" d="M 226,235 H 390 V 492 H 226 Z"/><path id="path8411" fill="#fff" fill-rule="evenodd" d="M 389.584,235.608 V 491.392 H 226.416 V 235.608 H 389.584 M 390,235 H 226 v 257 h 164 z"/><path id="path8413" fill="#fff" fill-rule="evenodd" d="m 249,248 h 118 v 39 H 249 Z"/><path id="path8415" fill="#b3b2b3" fill-opacity=".4" fill-rule="evenodd" d="m 249,248 h 118 v 39 H 249 Z"/><path id="path8417" fill="none" fill-rule="evenodd" stroke="#fff" stroke-miterlimit="8" d="m 249.5,248.5 h 118 v 39 h -118 z"/><path id="path8419" fill="#fff" fill-rule="evenodd" d="m 249,296 h 118 v 40 H 249 Z"/><path id="path8421" fill="#b3b2b3" fill-opacity=".4" fill-rule="evenodd" d="m 249,296 h 118 v 40 H 249 Z"/><path id="path8423" fill="none" fill-rule="evenodd" stroke="#fff" stroke-miterlimit="8" d="m 249.5,296.5 h 118 v 40 h -118 z"/><path id="path8425" fill="#fff" fill-rule="evenodd" d="m 249,345 h 118 v 39 H 249 Z"/><path id="path8427" fill="#b3b2b3" fill-opacity=".4" fill-rule="evenodd" d="m 249,345 h 118 v 39 H 249 Z"/><path id="path8429" fill="none" fill-rule="evenodd" stroke="#fff" stroke-miterlimit="8" d="m 249.5,345.5 h 118 v 39 h -118 z"/><text id="text8439" font-family="Calibri, Calibri_MSFontService, sans-serif" font-size="13" font-weight="400" transform="translate(157.415,271)">Partition 0<tspan id="tspan8431" x=".225" y="49" font-size="13">Partition 1</tspan><tspan id="tspan8433" x="1.214" y="97" font-size="13">Partition 2</tspan><tspan id="tspan8435" x="479.559" y="90" font-size="13">Maximum degree of</tspan><tspan id="tspan8437" x="505.059" y="106" font-size="13">parallelism</tspan></text><path id="path8441" fill="#005ca1" fill-rule="evenodd" d="m 264,254 h -7 v 26 h 7 z"/><path id="path8443" fill="#005ca1" fill-rule="evenodd" d="m 275,255 h -7 v 26 h 7 z"/><path id="path8445" fill="#005ca1" fill-rule="evenodd" d="m 285,255 h -7 v 26 h 7 z"/><path id="path8447" fill="#005ca1" fill-rule="evenodd" d="m 296,254 h -7 v 26 h 7 z"/><path id="path8449" fill="#005ca1" fill-rule="evenodd" d="m 306,254 h -7 v 26 h 7 z"/><path id="path8451" fill="#005ca1" fill-rule="evenodd" d="m 317,254 h -7 v 26 h 7 z"/><path id="path8453" fill="#005ca1" fill-rule="evenodd" d="m 328,255 h -7 v 26 h 7 z"/><path id="path8455" fill="#005ca1" fill-rule="evenodd" d="m 338,255 h -7 v 26 h 7 z"/><path id="path8457" fill="#005ca1" fill-rule="evenodd" d="m 349,254 h -7 v 26 h 7 z"/><path id="path8459" fill="#005ca1" fill-rule="evenodd" d="m 266,303 h -7 v 26 h 7 z"/><path id="path8461" fill="#005ca1" fill-rule="evenodd" d="m 277,303 h -7 v 26 h 7 z"/><path id="path8463" fill="#005ca1" fill-rule="evenodd" d="m 287,303 h -7 v 26 h 7 z"/><path id="path8465" fill="#005ca1" fill-rule="evenodd" d="m 298,303 h -7 v 26 h 7 z"/><path id="path8467" fill="#005ca1" fill-rule="evenodd" d="m 308,303 h -7 v 26 h 7 z"/><path id="path8469" fill="#005ca1" fill-rule="evenodd" d="m 319,303 h -7 v 26 h 7 z"/><path id="path8471" fill="#005ca1" fill-rule="evenodd" d="m 330,303 h -7 v 26 h 7 z"/><path id="path8473" fill="#005ca1" fill-rule="evenodd" d="m 266,352 h -6 v 26 h 6 z"/><path id="path8475" fill="#005ca1" fill-rule="evenodd" d="m 277,352 h -6 v 26 h 6 z"/><path id="path8477" fill="#005ca1" fill-rule="evenodd" d="m 288,352 h -7 v 26 h 7 z"/><path id="path8479" fill="#005ca1" fill-rule="evenodd" d="m 298,351 h -6 v 26 h 6 z"/><path id="path8481" fill="#005ca1" fill-rule="evenodd" d="m 309,351 h -7 v 26 h 7 z"/><path id="path8483" fill="#005ca1" fill-rule="evenodd" d="m 319,352 h -6 v 26 h 6 z"/><path id="path8485" fill="#005ca1" fill-rule="evenodd" d="m 330,352 h -6 v 26 h 6 z"/><path id="path8487" fill="#005ca1" fill-rule="evenodd" d="m 341,352 h -7 v 26 h 7 z"/><path id="path8489" fill="#fff" fill-rule="evenodd" d="m 249,393 h 118 v 40 H 249 Z"/><path id="path8491" fill="#b3b2b3" fill-opacity=".4" fill-rule="evenodd" d="m 249,393 h 118 v 40 H 249 Z"/><path id="path8493" fill="none" fill-rule="evenodd" stroke="#fff" stroke-miterlimit="8" d="m 249.5,393.5 h 118 v 40 h -118 z"/><path id="path8495" fill="#fff" fill-rule="evenodd" d="m 249,442 h 118 v 39 H 249 Z"/><path id="path8497" fill="#b3b2b3" fill-opacity=".4" fill-rule="evenodd" d="m 249,442 h 118 v 39 H 249 Z"/><path id="path8499" fill="none" fill-rule="evenodd" stroke="#fff" stroke-miterlimit="8" d="m 249.5,442.5 h 118 v 39 h -118 z"/><text id="text8503" font-family="Calibri, Calibri_MSFontService, sans-serif" font-size="13" font-weight="400" transform="translate(158.453,419)">Partition 3<tspan id="tspan8501" x="-.604" y="45" font-size="13">Partition 4</tspan></text><path id="path8505" fill="#005ca1" fill-rule="evenodd" d="m 267,400 h -7 v 26 h 7 z"/><path id="path8507" fill="#005ca1" fill-rule="evenodd" d="m 278,400 h -7 v 26 h 7 z"/><path id="path8509" fill="#005ca1" fill-rule="evenodd" d="m 288,400 h -7 v 26 h 7 z"/><path id="path8511" fill="#005ca1" fill-rule="evenodd" d="m 299,399 h -7 v 26 h 7 z"/><path id="path8513" fill="#005ca1" fill-rule="evenodd" d="m 309,399 h -6 v 26 h 6 z"/><path id="path8515" fill="#005ca1" fill-rule="evenodd" d="m 320,400 h -7 v 26 h 7 z"/><path id="path8517" fill="#005ca1" fill-rule="evenodd" d="m 331,400 h -7 v 26 h 7 z"/><path id="path8519" fill="#005ca1" fill-rule="evenodd" d="m 264,447 h -7 v 26 h 7 z"/><path id="path8521" fill="#005ca1" fill-rule="evenodd" d="m 275,447 h -7 v 26 h 7 z"/><path id="path8523" fill="#005ca1" fill-rule="evenodd" d="m 285,448 h -7 v 26 h 7 z"/><path id="path8525" fill="#005ca1" fill-rule="evenodd" d="m 296,447 h -7 v 26 h 7 z"/><path id="path8527" fill="#005ca1" fill-rule="evenodd" d="m 306,447 h -7 v 26 h 7 z"/><path id="path8529" fill="#005ca1" fill-rule="evenodd" d="m 317,447 h -7 v 26 h 7 z"/><path id="path8531" fill="#005ca1" fill-rule="evenodd" d="m 328,447 h -7 v 26 h 7 z"/><path id="path8533" fill="#005ca1" fill-rule="evenodd" d="m 338,448 h -7 v 26 h 7 z"/><path id="path8535" fill="#005ca1" fill-rule="evenodd" d="m 349,447 h -7 v 26 h 7 z"/><path id="path8537" fill="#1b8ab3" fill-opacity=".6" fill-rule="evenodd" d="m 497,253 h 28 v 26 h -28 z"/><path id="path8539" d="M 0.00306201,-0.333319 118.65,0.756621 118.644,1.42326 -0.00306201,0.333319 Z M 117.351,-2.92214 l 7.962,4.07332 -8.036,3.92634 z" transform="matrix(-1,0,0,1,497.814,266.5)"/><path id="path8541" fill="none" fill-rule="evenodd" stroke="#000" stroke-miterlimit="8" stroke-width=".667" d="m 593.5,236.5 c 8.284,0 15,1.119 15,2.5 v 123.5 c 0,1.381 6.716,2.5 15,2.5 -8.284,0 -15,1.119 -15,2.5 V 491 c 0,1.381 -6.716,2.5 -15,2.5"/><text id="text8545" font-family="Calibri, Calibri_MSFontService, sans-serif" font-size="13" font-weight="400" transform="translate(257.642,220)">Partitioned stream<tspan id="tspan8543" x="209.862" y="0" font-size="13">Consumer group</tspan></text><path id="path8547" fill="#1b8ab3" fill-opacity=".6" fill-rule="evenodd" d="m 498,301 h 27 v 25 h -27 z"/><path id="path8549" fill="#1b8ab3" fill-opacity=".6" fill-rule="evenodd" d="m 498,350 h 27 v 25 h -27 z"/><path id="path8551" fill="#1b8ab3" fill-opacity=".6" fill-rule="evenodd" d="m 497,399 h 28 v 25 h -28 z"/><path id="path8553" fill="#1b8ab3" fill-opacity=".6" fill-rule="evenodd" d="m 497,446 h 28 v 25 h -28 z"/><path id="path8555" d="M 0.00306201,-0.333319 118.65,0.756621 118.644,1.42326 -0.00306201,0.333319 Z M 117.351,-2.92214 l 7.962,4.07332 -8.036,3.92634 z" transform="matrix(-1,0,0,1,497.814,315.5)"/><path id="path8557" d="M 0.00306201,-0.333319 118.65,0.756621 118.644,1.42326 -0.00306201,0.333319 Z M 117.351,-2.92214 l 7.962,4.07332 -8.036,3.92634 z" transform="matrix(-1,0,0,1,497.814,363.5)"/><path id="path8559" d="M 0.00306201,-0.333319 118.65,0.756621 118.644,1.42326 -0.00306201,0.333319 Z M 117.351,-2.92214 l 7.962,4.07332 -8.036,3.92634 z" transform="matrix(-1,0,0,1,496.814,410.5)"/><path id="path8561" d="M 0.00306201,-0.333319 118.65,0.756621 118.644,1.42326 -0.00306201,0.333319 Z M 117.351,-2.92214 l 7.962,4.07332 -8.036,3.92634 z" transform="matrix(-1,0,0,1,497.814,457.5)"/></g></g></svg>