<svg xmlns="http://www.w3.org/2000/svg" xmlns:svg="http://www.w3.org/2000/svg" id="svg1101" width="640" height="370" version="1.1" viewBox="0 0 169.333 97.896"><defs id="defs1098"><clipPath id="clip0"><rect id="rect7032" width="670" height="286" x="56" y="169"/></clipPath><clipPath id="clip1"><rect id="rect7035" width="24" height="24" x="663" y="208"/></clipPath><clipPath id="clip2"><rect id="rect7038" width="24" height="24" x="663" y="208"/></clipPath><clipPath id="clip3"><rect id="rect7041" width="24" height="24" x="663" y="208"/></clipPath><clipPath id="clip4"><rect id="rect7044" width="24" height="24" x="661" y="397"/></clipPath><clipPath id="clip5"><rect id="rect7047" width="24" height="24" x="661" y="397"/></clipPath><clipPath id="clip6"><rect id="rect7050" width="24" height="24" x="661" y="397"/></clipPath><clipPath id="clip0-4"><rect id="rect5771" width="656" height="370" x="323" y="134"/></clipPath><clipPath id="clip1-3"><rect id="rect5774" width="16" height="16" x="807" y="176"/></clipPath><clipPath id="clip2-2"><rect id="rect5777" width="16" height="16" x="807" y="176"/></clipPath><clipPath id="clip3-0"><rect id="rect5780" width="16" height="16" x="807" y="176"/></clipPath></defs><g id="layer1"><rect style="fill:#fff;stroke-width:.27653" id="rect1149" width="169.333" height="97.896" x="0" y="0"/></g><g id="layer4"><g id="g6335" clip-path="url(#clip0-4)" transform="matrix(0.26458333,0,0,0.26458333,-85.363856,-36.901493)"><path id="path5785" fill="#fff" fill-rule="evenodd" d="m 751,198 h 32 v 275 h -32 z"/><path id="path5787" fill="#b3b2b3" fill-opacity=".4" fill-rule="evenodd" d="m 751,198 h 32 v 275 h -32 z"/><path id="path5789" fill="none" fill-rule="evenodd" stroke="#fff" stroke-miterlimit="8" d="m 751.5,198.5 h 32 v 275 h -32 z"/><path id="path5791" fill="#fff" fill-rule="evenodd" d="m 814,198 h 77 v 305 h -77 z"/><path id="path5793" fill="#b3b2b3" fill-opacity=".4" fill-rule="evenodd" d="m 814,198 h 77 v 305 h -77 z"/><path id="path5795" fill="none" fill-rule="evenodd" stroke="#fff" stroke-miterlimit="8" d="m 814.5,198.5 h 77 v 305 h -77 z"/><path id="path5797" fill="#fff" fill-rule="evenodd" d="M 525,197 H 721 V 471 H 525 Z"/><path id="path5799" fill="#0078d4" fill-opacity=".349" fill-rule="evenodd" d="M 525,197 H 721 V 471 H 525 Z"/><path id="path5801" fill="#fff" fill-rule="evenodd" d="m 721.5,197.651 v 273.698 h -196 V 197.651 h 196 M 722,197 H 525 v 275 h 197 z"/><path id="path5803" fill="#fff" fill-rule="evenodd" d="m 548,202 h 152 v 21 H 548 Z"/><path id="path5805" fill="#b3b2b3" fill-opacity=".4" fill-rule="evenodd" d="m 548,202 h 152 v 21 H 548 Z"/><text id="text5807" font-family="Calibri, Calibri_MSFontService, sans-serif" font-size="13" font-weight="400" transform="translate(633.148,217)">Partition 1</text><path id="path5809" fill="none" fill-rule="evenodd" stroke="#fff" stroke-miterlimit="8" d="m 548.5,202.5 h 152 v 21 h -152 z"/><path id="path5811" fill="#76bc43" fill-rule="evenodd" d="m 571,177.478 c 0.011,0.27 -0.193,0.501 -0.462,0.522 h -4.018 c -0.269,0.011 -0.499,-0.194 -0.519,-0.464 v -3.013 c -0.013,-0.271 0.192,-0.503 0.461,-0.522 h 4.018 c 0.269,-0.013 0.5,0.193 0.52,0.463 z"/><path id="path5813" fill="#76bc43" fill-rule="evenodd" d="m 578,180.475 c 0.011,0.272 -0.193,0.504 -0.462,0.525 h -4.018 c -0.269,0.011 -0.499,-0.195 -0.52,-0.467 v -3.008 c -0.01,-0.271 0.194,-0.503 0.462,-0.525 h 4.017 c 0.269,-0.011 0.499,0.195 0.52,0.467 z"/><path id="path5815" fill="#76bc43" fill-rule="evenodd" d="m 571,183.477 c 0.012,0.271 -0.193,0.503 -0.462,0.523 h -4.018 c -0.269,0.012 -0.5,-0.194 -0.519,-0.464 v -3.013 c -0.013,-0.271 0.192,-0.502 0.461,-0.522 h 4.018 c 0.269,-0.013 0.5,0.193 0.52,0.463 z"/><path id="path5817" fill="#8bc63f" fill-rule="evenodd" d="m 564,174.506 c 0.011,0.255 -0.181,0.474 -0.434,0.493 h -4.056 c -0.258,0.013 -0.48,-0.178 -0.51,-0.437 v -3.087 c 0.008,-0.251 0.204,-0.456 0.453,-0.475 h 3.942 c 0.415,0 0.604,0.206 0.604,0.515 z"/><path id="path5819" fill="#76bc43" fill-rule="evenodd" d="m 563.998,180.487 c 0.022,0.261 -0.17,0.49 -0.43,0.513 h -4.058 c -0.27,0.011 -0.499,-0.201 -0.51,-0.473 0,-10e-4 0,-10e-4 0,-10e-4 v -3.033 c -10e-4,-0.258 0.197,-0.473 0.453,-0.493 h 3.941 c 0.415,0 0.603,0.205 0.603,0.493 z"/><path id="path5821" fill="#76bc43" fill-rule="evenodd" d="m 563.998,186.49 c 0.023,0.259 -0.169,0.487 -0.429,0.51 0,0 -10e-4,0 -10e-4,0 h -4.058 c -0.264,0.01 -0.489,-0.19 -0.51,-0.453 v -3.057 c -0.01,-0.26 0.192,-0.479 0.452,-0.49 h 3.942 c 0.415,0 0.603,0.189 0.603,0.49 z"/><path id="path5823" fill="#999" fill-rule="evenodd" d="M 552.92,165 H 555 v 6.478 c 0,0.289 -0.209,0.522 -0.467,0.522 h -2.064 c -0.258,0 -0.468,-0.233 -0.468,-0.522 v -5.397 c -0.027,-0.566 0.363,-1.048 0.869,-1.078 10e-4,0 0.002,0 0.003,0 z"/><path id="path5825" fill="#999" fill-opacity=".502" fill-rule="evenodd" d="M 552.92,165 H 555 v 6.478 c 0,0.289 -0.209,0.522 -0.467,0.522 h -2.064 c -0.258,0 -0.468,-0.233 -0.468,-0.522 v -5.397 c -0.027,-0.566 0.363,-1.048 0.869,-1.078 10e-4,0 0.002,0 0.003,0 z"/><path id="path5827" fill="#999" fill-rule="evenodd" d="m 580.016,165 h 2.07 c 0.505,0 0.914,0.463 0.914,1.034 v 5.44 c 0,0.291 -0.208,0.526 -0.465,0.526 0,0 -10e-4,0 -10e-4,0 h -2.068 c -0.257,0 -0.465,-0.235 -0.466,-0.526 V 165 Z"/><path id="path5829" fill="#999" fill-opacity=".502" fill-rule="evenodd" d="m 580.016,165 h 2.07 c 0.505,0 0.914,0.463 0.914,1.034 v 5.44 c 0,0.291 -0.208,0.526 -0.465,0.526 0,0 -10e-4,0 -10e-4,0 h -2.068 c -0.257,0 -0.465,-0.235 -0.466,-0.526 V 165 Z"/><path id="path5831" fill="#949494" fill-rule="evenodd" d="M 583,165.939 V 168 h -31 v -2.061 c 0,-0.518 0.465,-0.939 1.039,-0.939 h 28.94 c 0.567,0.009 1.021,0.427 1.021,0.939 z"/><path id="path5833" fill="#999" fill-rule="evenodd" d="m 552.462,185 h 2.072 c 0.258,0 0.466,0.267 0.466,0.596 V 193 h -2.085 C 552.41,193 552,192.475 552,191.828 v -6.34 c 0.041,-0.285 0.236,-0.491 0.462,-0.488 z"/><path id="path5835" fill="#999" fill-opacity=".502" fill-rule="evenodd" d="m 552.462,185 h 2.072 c 0.258,0 0.466,0.267 0.466,0.596 V 193 h -2.085 C 552.41,193 552,192.475 552,191.828 v -6.34 c 0.041,-0.285 0.236,-0.491 0.462,-0.488 z"/><path id="path5837" fill="#999" fill-rule="evenodd" d="m 580.452,185 h 2.08 c 0.258,-0.001 0.467,0.268 0.468,0.6 0,0 0,0 0,0.001 v 0 6.218 c 0,0.652 -0.412,1.181 -0.919,1.181 H 580 v -7.508 c 0.04,-0.281 0.229,-0.487 0.452,-0.492 z"/><path id="path5839" fill="#999" fill-opacity=".502" fill-rule="evenodd" d="m 580.452,185 h 2.08 c 0.258,-0.001 0.467,0.268 0.468,0.6 0,0 0,0 0,0.001 v 0 6.218 c 0,0.652 -0.412,1.181 -0.919,1.181 H 580 v -7.508 c 0.04,-0.281 0.229,-0.487 0.452,-0.492 z"/><path id="path5841" fill="#949494" fill-rule="evenodd" d="M 552,191.748 V 189 h 31 v 2.748 c 0,0.691 -0.465,1.252 -1.039,1.252 H 553.039 C 552.465,193 552,192.439 552,191.748 Z"/><path id="path5843" fill="#005ca1" fill-rule="evenodd" d="m 557,208 h -2 v 12 h 2 z"/><path id="path5845" fill="#005ca1" fill-rule="evenodd" d="m 561,208 h -3 v 12 h 3 z"/><path id="path5847" fill="#005ca1" fill-rule="evenodd" d="m 565,208 h -3 v 12 h 3 z"/><path id="path5849" fill="#005ca1" fill-rule="evenodd" d="m 569,208 h -3 v 12 h 3 z"/><path id="path5851" fill="#005ca1" fill-rule="evenodd" d="M 572.996,208 H 570 v 12 h 3 z"/><path id="path5853" fill="#005ca1" fill-rule="evenodd" d="m 577,208 h -3 v 12 h 3 z"/><path id="path5855" fill="#005ca1" fill-rule="evenodd" d="m 581,208 h -3 v 12 h 3 z"/><path id="path5857" fill="#fff" fill-rule="evenodd" d="m 548,229 h 152 v 21 H 548 Z"/><path id="path5859" fill="#b3b2b3" fill-opacity=".4" fill-rule="evenodd" d="m 548,229 h 152 v 21 H 548 Z"/><text id="text5861" font-family="Calibri, Calibri_MSFontService, sans-serif" font-size="13" font-weight="400" transform="translate(633.148,243)">Partition 2</text><path id="path5863" fill="none" fill-rule="evenodd" stroke="#fff" stroke-miterlimit="8" d="m 548.5,229.5 h 152 v 21 h -152 z"/><path id="path5865" fill="#005ca1" fill-rule="evenodd" d="m 557,234 h -2 v 12 h 2 z"/><path id="path5867" fill="#005ca1" fill-rule="evenodd" d="m 561,234 h -3 v 12 h 3 z"/><path id="path5869" fill="#005ca1" fill-rule="evenodd" d="m 565,234 h -3 v 12 h 3 z"/><path id="path5871" fill="#005ca1" fill-rule="evenodd" d="m 569,234 h -3 v 12 h 3 z"/><path id="path5873" fill="#005ca1" fill-rule="evenodd" d="m 573,234 h -3 v 12 h 3 z"/><path id="path5875" fill="#005ca1" fill-rule="evenodd" d="m 577,234 h -3 v 12 h 2.999 z"/><path id="path5877" fill="#005ca1" fill-rule="evenodd" d="m 581,234 h -3 v 12 h 3 z"/><path id="path5879" fill="#005ca1" fill-rule="evenodd" d="m 584,234 h -2 v 12 h 2 z"/><path id="path5881" fill="#005ca1" fill-rule="evenodd" d="m 588,234 h -2 v 12 h 2 z"/><path id="path5883" fill="#005ca1" fill-rule="evenodd" d="m 592,234 h -3 v 12 h 3 z"/><path id="path5885" fill="#fff" fill-rule="evenodd" d="m 548,255 h 152 v 21 H 548 Z"/><path id="path5887" fill="#b3b2b3" fill-opacity=".4" fill-rule="evenodd" d="m 548,255 h 152 v 21 H 548 Z"/><text id="text5889" font-family="Calibri, Calibri_MSFontService, sans-serif" font-size="13" font-weight="400" transform="translate(633.148,269)">Partition 3</text><path id="path5891" fill="none" fill-rule="evenodd" stroke="#fff" stroke-miterlimit="8" d="m 548.5,255.5 h 152 v 21 h -152 z"/><path id="path5893" fill="#005ca1" fill-rule="evenodd" d="m 557,260 h -2 v 12 h 2 z"/><path id="path5895" fill="#005ca1" fill-rule="evenodd" d="m 561,260 h -3 v 12 h 3 z"/><path id="path5897" fill="#005ca1" fill-rule="evenodd" d="m 565,260 h -3 v 12 h 3 z"/><path id="path5899" fill="#005ca1" fill-rule="evenodd" d="m 569,260 h -3 v 12 h 3 z"/><path id="path5901" fill="#005ca1" fill-rule="evenodd" d="M 572.996,260 H 570 v 12 h 3"/><path id="path5903" fill="#fff" fill-rule="evenodd" d="m 548,281 h 152 v 21 H 548 Z"/><path id="path5905" fill="#b3b2b3" fill-opacity=".4" fill-rule="evenodd" d="m 548,281 h 152 v 21 H 548 Z"/><text id="text5907" font-family="Calibri, Calibri_MSFontService, sans-serif" font-size="13" font-weight="400" transform="translate(633.148,296)">Partition 4</text><path id="path5909" fill="none" fill-rule="evenodd" stroke="#fff" stroke-miterlimit="8" d="m 548.5,281.5 h 152 v 21 h -152 z"/><path id="path5911" fill="#005ca1" fill-rule="evenodd" d="m 557,286 h -2 v 12 h 2 z"/><path id="path5913" fill="#005ca1" fill-rule="evenodd" d="m 561,286 h -2 v 12 h 2 z"/><path id="path5915" fill="#005ca1" fill-rule="evenodd" d="m 565,286 h -3 v 12 h 3 z"/><path id="path5917" fill="#005ca1" fill-rule="evenodd" d="m 569,286 h -3 v 12 h 3 z"/><path id="path5919" fill="#005ca1" fill-rule="evenodd" d="m 573,286 h -3 v 12 h 3 z"/><path id="path5921" fill="#005ca1" fill-rule="evenodd" d="m 577,286 h -3 v 12 h 3 z"/><path id="path5923" fill="#005ca1" fill-rule="evenodd" d="m 581,286 h -3 v 12 h 3 z"/><path id="path5925" fill="#005ca1" fill-rule="evenodd" d="m 585,286 h -3 v 12 h 3 z"/><path id="path5927" fill="#5e9741" fill-rule="evenodd" d="m 329,298 h 10 v 10 h -10 z"/><path id="path5929" fill="#5e9741" fill-rule="evenodd" d="m 343,298 h 10 v 10 h -10 z"/><path id="path5931" fill="#5e9741" fill-rule="evenodd" d="m 357,298 h 10 v 10 h -10 z"/><path id="path5933" fill="#5e9741" fill-rule="evenodd" d="m 371,298 h 10 v 10 h -10 z"/><path id="path5935" fill="#5e9741" fill-rule="evenodd" d="m 385,298 h 10 v 10 h -10 z"/><path id="path5937" fill="#5e9741" fill-rule="evenodd" d="m 399,298 h 10 v 10 h -10 z"/><path id="path5939" fill="#5e9741" fill-rule="evenodd" d="m 413,298 h 10 v 10 h -10 z"/><path id="path5941" fill="#5e9741" fill-rule="evenodd" d="m 329,311 h 10 v 10 h -10 z"/><path id="path5943" fill="#5e9741" fill-rule="evenodd" d="m 343,311 h 10 v 10 h -10 z"/><path id="path5945" fill="#5e9741" fill-rule="evenodd" d="m 357,311 h 10 v 10 h -10 z"/><path id="path5947" fill="#5e9741" fill-rule="evenodd" d="m 371,311 h 10 v 10 h -10 z"/><path id="path5949" fill="#5e9741" fill-rule="evenodd" d="m 385,311 h 10 v 10 h -10 z"/><path id="path5951" fill="#5e9741" fill-rule="evenodd" d="m 399,311 h 10 v 10 h -10 z"/><path id="path5953" fill="#5e9741" fill-rule="evenodd" d="m 413,311 h 10 v 10 h -10 z"/><path id="path5955" fill="#5e9741" fill-rule="evenodd" d="m 329,324 h 10 v 10 h -10 z"/><path id="path5957" fill="#5e9741" fill-rule="evenodd" d="m 343,324 h 10 v 10 h -10 z"/><path id="path5959" fill="#5e9741" fill-rule="evenodd" d="m 357,324 h 10 v 10 h -10 z"/><path id="path5961" fill="#5e9741" fill-rule="evenodd" d="m 371,324 h 10 v 10 h -10 z"/><path id="path5963" fill="#5e9741" fill-rule="evenodd" d="m 385,324 h 10 v 10 h -10 z"/><path id="path5965" fill="#5e9741" fill-rule="evenodd" d="m 399,324 h 10 v 10 h -10 z"/><path id="path5967" fill="#5e9741" fill-rule="evenodd" d="m 413,324 h 10 v 10 h -10 z"/><path id="path5969" fill="#5e9741" fill-rule="evenodd" d="m 329,337 h 10 v 10 h -10 z"/><path id="path5971" fill="#5e9741" fill-rule="evenodd" d="m 343,337 h 10 v 10 h -10 z"/><path id="path5973" fill="#5e9741" fill-rule="evenodd" d="m 357,337 h 10 v 10 h -10 z"/><path id="path5975" fill="#5e9741" fill-rule="evenodd" d="m 371,337 h 10 v 10 h -10 z"/><path id="path5977" fill="#5e9741" fill-rule="evenodd" d="m 385,337 h 10 v 10 h -10 z"/><path id="path5979" fill="#5e9741" fill-rule="evenodd" d="m 399,337 h 10 v 10 h -10 z"/><path id="path5981" fill="#5e9741" fill-rule="evenodd" d="m 413,337 h 10 v 10 h -10 z"/><path id="path5983" fill="#5e9741" fill-rule="evenodd" d="m 329,350 h 10 v 10 h -10 z"/><path id="path5985" fill="#5e9741" fill-rule="evenodd" d="m 343,350 h 10 v 10 h -10 z"/><path id="path5987" fill="#5e9741" fill-rule="evenodd" d="m 357,350 h 10 v 10 h -10 z"/><path id="path5989" fill="#5e9741" fill-rule="evenodd" d="m 371,350 h 10 v 10 h -10 z"/><path id="path5991" fill="#5e9741" fill-rule="evenodd" d="m 385,350 h 10 v 10 h -10 z"/><path id="path5993" fill="#5e9741" fill-rule="evenodd" d="m 399,350 h 10 v 10 h -10 z"/><path id="path5995" fill="#5e9741" fill-rule="evenodd" d="m 413,350 h 10 v 10 h -10 z"/><path id="path5997" fill="#5e9741" fill-rule="evenodd" d="m 329,364 h 10 v 10 h -10 z"/><path id="path5999" fill="#5e9741" fill-rule="evenodd" d="m 343,364 h 10 v 10 h -10 z"/><path id="path6001" fill="#5e9741" fill-rule="evenodd" d="m 357,364 h 10 v 10 h -10 z"/><path id="path6003" fill="#5e9741" fill-rule="evenodd" d="m 371,364 h 10 v 10 h -10 z"/><path id="path6005" fill="#5e9741" fill-rule="evenodd" d="m 385,364 h 10 v 10 h -10 z"/><path id="path6007" fill="#5e9741" fill-rule="evenodd" d="m 399,364 h 10 v 10 h -10 z"/><path id="path6009" fill="#5e9741" fill-rule="evenodd" d="m 413,364 h 10 v 10 h -10 z"/><path id="path6011" fill="#979797" fill-rule="evenodd" d="m 521,335.5 -10.477,-7.479 V 334 H 440.89 v -42.5 c 0,-0.828 -0.543,-1.5 -1.213,-1.5 H 429 v 3 h 9.464 v 85 H 429 v 3 h 10.677 c 0.67,0 1.213,-0.672 1.213,-1.5 V 337 h 69.633 v 5.98 z"/><path id="path6013" fill="#e17a26" fill-rule="evenodd" d="m 817,202 h 71 v 21 h -71 z"/><text id="text6015" font-family="Calibri, Calibri_MSFontService, sans-serif" font-size="13" font-weight="400" transform="translate(832.322,217)">Lease 1</text><path id="path6017" fill="#231f20" fill-rule="evenodd" d="m 455.803,346.038 v 0 c -0.258,-0.266 -0.613,-0.415 -0.982,-0.414 -0.368,-0.001 -0.721,0.148 -0.977,0.414 h -0.006 c -0.26,0.268 -0.403,0.627 -0.4,1 -0.005,0.373 0.139,0.733 0.4,1 l 0.006,0.007 c 0.257,0.263 0.609,0.41 0.977,0.408 0.369,0.002 0.722,-0.145 0.982,-0.408 v -0.007 c 0.261,-0.267 0.405,-0.627 0.4,-1 0.003,-0.373 -0.14,-0.732 -0.4,-1 z m -0.982,19.325 v 0 c 0.369,-10e-4 0.722,-0.149 0.982,-0.412 v -0.007 c 0.26,-0.265 0.403,-0.622 0.4,-0.994 0.003,-0.373 -0.14,-0.732 -0.4,-1 v 0 c -0.258,-0.266 -0.613,-0.416 -0.982,-0.414 -0.369,-0.002 -0.722,0.148 -0.977,0.414 h -0.006 c -0.26,0.268 -0.403,0.627 -0.4,1 -0.003,0.372 0.14,0.729 0.4,0.994 l 0.006,0.007 c 0.257,0.263 0.609,0.412 0.977,0.412 z m 7.553,-4.278 v 0 c 0.357,-0.095 0.662,-0.331 0.843,-0.656 l 0.026,-0.05 v 0 c 0.164,-0.315 0.203,-0.68 0.109,-1.022 -0.091,-0.361 -0.324,-0.671 -0.646,-0.859 l -0.02,-0.013 c -0.664,-0.371 -1.503,-0.133 -1.875,0.531 -0.385,0.674 -0.16,1.534 0.507,1.932 v 0 c 0.319,0.186 0.699,0.235 1.054,0.137 z m -6.132,-7.038 v 0 c -0.762,-0.786 -2.014,-0.805 -2.799,-0.042 -0.014,0.014 -0.028,0.028 -0.042,0.042 -0.378,0.386 -0.587,0.904 -0.585,1.444 -0.002,0.541 0.208,1.062 0.585,1.451 0.769,0.785 2.028,0.797 2.813,0.027 0.01,-0.008 0.019,-0.018 0.028,-0.027 0.378,-0.389 0.588,-0.91 0.587,-1.451 0.002,-0.54 -0.209,-1.059 -0.587,-1.444 z m -0.8,-2.406 v 0 c 0.795,0.135 1.525,0.521 2.086,1.1 v 0 c 0.088,0.09 0.173,0.188 0.253,0.287 l 1.385,-0.816 c -0.439,-1.361 0.12,-2.847 1.348,-3.579 l 0.023,-0.015 c 0.679,-0.395 1.488,-0.5 2.245,-0.293 0.771,0.212 1.425,0.723 1.817,1.421 v 0 c 0.396,0.7 0.504,1.528 0.3,2.307 -0.201,0.777 -0.702,1.443 -1.394,1.85 l -0.19,0.113 h -0.019 c -0.642,0.311 -1.373,0.379 -2.061,0.192 -0.56,-0.153 -1.064,-0.465 -1.449,-0.901 l -1.382,0.814 c 0.163,0.44 0.246,0.906 0.246,1.376 0,0.472 -0.083,0.94 -0.246,1.384 l 1.382,0.81 c 0.383,-0.437 0.887,-0.751 1.449,-0.901 0.767,-0.213 1.587,-0.102 2.27,0.307 l 0.045,0.022 v 0 c 0.669,0.411 1.153,1.066 1.349,1.826 0.204,0.778 0.096,1.606 -0.3,2.306 l -0.025,0.05 v 0 0 c -0.396,0.668 -1.035,1.156 -1.783,1.364 -0.766,0.209 -1.584,0.101 -2.27,-0.3 v -0.006 c -1.227,-0.732 -1.787,-2.216 -1.348,-3.577 l -1.385,-0.813 c -0.079,0.1 -0.164,0.192 -0.253,0.282 v 0 c -0.561,0.577 -1.292,0.959 -2.086,1.09 v 1.633 c 0.568,0.123 1.088,0.41 1.494,0.826 v 0 0 c 1.169,1.194 1.169,3.107 0,4.301 v 0.008 0 c -1.14,1.168 -3.01,1.19 -4.177,0.05 -0.017,-0.016 -0.033,-0.033 -0.05,-0.05 v 0 -0.008 c -1.172,-1.194 -1.172,-3.107 0,-4.301 v 0 0 c 0.405,-0.416 0.923,-0.703 1.491,-0.826 v -1.629 c -0.793,-0.131 -1.523,-0.513 -2.083,-1.09 v 0 c -1.499,-1.531 -1.499,-3.979 0,-5.51 v 0 c 0.56,-0.579 1.289,-0.965 2.083,-1.1 v -1.621 c -0.567,-0.127 -1.085,-0.414 -1.491,-0.829 v 0 0 c -1.17,-1.195 -1.17,-3.105 0,-4.301 v 0 0 c 1.133,-1.168 2.999,-1.195 4.167,-0.06 0.02,0.019 0.04,0.04 0.06,0.06 v 0 0 c 1.168,1.196 1.168,3.106 0,4.301 v 0 c -0.408,0.415 -0.927,0.702 -1.494,0.829 z m 7.775,-1.082 -0.011,-0.017 c -0.183,-0.314 -0.482,-0.544 -0.832,-0.64 -0.356,-0.099 -0.737,-0.048 -1.056,0.14 v 0 c -0.322,0.188 -0.556,0.497 -0.649,0.858 -0.095,0.362 -0.044,0.747 0.14,1.073 l 0.006,0.008 c 0.182,0.318 0.484,0.551 0.838,0.645 0.355,0.101 0.735,0.051 1.051,-0.138 l 0.018,-0.009 c 0.312,-0.19 0.537,-0.494 0.628,-0.847 0.097,-0.362 0.049,-0.747 -0.135,-1.073 v 0"/><path id="path6019" fill="#231f20" fill-rule="evenodd" d="m 469,351 h 1.645 v 4.324 l 2.37,-2.259 h 1.975 l -2.862,2.617 L 475,359 h -1.883 l -2.47,-2.964 V 359 H 469 v -8"/><path id="path6021" fill="#231f20" fill-rule="evenodd" d="m 476.699,356.528 c -0.019,1.083 0.815,1.977 1.865,1.998 0.014,0 0.028,0 0.043,0 0.711,0.026 1.368,-0.39 1.668,-1.054 0.141,-0.287 0.224,-0.602 0.24,-0.923 0.012,-0.318 -0.047,-0.635 -0.172,-0.926 -0.295,-0.72 -0.986,-1.18 -1.744,-1.16 -1.052,0.003 -1.902,0.887 -1.898,1.972 0,0.026 10e-4,0.051 0.002,0.077 z m 5.301,3.263 h -1.497 v -0.944 c -0.445,0.755 -1.257,1.197 -2.113,1.15 -1.872,0 -3.39,-1.566 -3.39,-3.497 0,-1.932 1.518,-3.497 3.39,-3.497 0.858,-0.043 1.67,0.403 2.113,1.163 v -0.96 H 482 v 6.583"/><path id="path6023" fill="#231f20" fill-rule="evenodd" d="M 483.949,353.653 H 483 v -1.206 h 0.949 v -0.369 c 0,-1.948 1.735,-2.065 3.051,-2.078 v 1.203 c -0.463,0 -1.217,0 -1.217,0.922 v 0.322 H 487 v 1.206 h -1.217 V 359 h -1.834 v -5.347"/><path id="path6025" fill="#231f20" fill-rule="evenodd" d="m 488.004,351 h 1.369 v 4.324 l 1.975,-2.259 h 1.643 l -2.385,2.617 L 493,359 h -1.571 l -2.059,-2.964 V 359 H 488 v -8"/><path id="path6027" fill="#231f20" fill-rule="evenodd" d="m 494.944,356.531 c -0.023,1.082 0.93,1.977 2.13,1.998 0.016,0 0.033,0 0.049,0 0.812,0.025 1.562,-0.39 1.905,-1.054 0.164,-0.287 0.258,-0.602 0.275,-0.923 0.014,-0.318 -0.054,-0.635 -0.196,-0.926 -0.337,-0.72 -1.127,-1.181 -1.992,-1.16 -1.202,0.004 -2.174,0.887 -2.17,1.972 0,0.026 0.002,0.051 0.003,0.077 z m 6.056,3.263 h -1.71 v -0.945 c -0.51,0.756 -1.438,1.196 -2.417,1.147 -2.139,0 -3.873,-1.565 -3.873,-3.496 0,-1.932 1.734,-3.497 3.873,-3.497 0.981,-0.043 1.908,0.403 2.415,1.163 v -0.96 h 1.71 v 6.583"/><path id="path6029" fill="#fff" fill-rule="evenodd" d="m 548,307 h 152 v 21 H 548 Z"/><path id="path6031" fill="#b3b2b3" fill-opacity=".4" fill-rule="evenodd" d="m 548,307 h 152 v 21 H 548 Z"/><text id="text6033" font-family="Calibri, Calibri_MSFontService, sans-serif" font-size="13" font-weight="400" transform="translate(633.148,322)">Partition 5</text><path id="path6035" fill="none" fill-rule="evenodd" stroke="#fff" stroke-miterlimit="8" d="m 548.5,307.5 h 152 v 21 h -152 z"/><path id="path6037" fill="#005ca1" fill-rule="evenodd" d="m 557,312 h -2 v 13 h 2 z"/><path id="path6039" fill="#005ca1" fill-rule="evenodd" d="m 561,312 h -3 v 13 h 3 z"/><path id="path6041" fill="#005ca1" fill-rule="evenodd" d="m 565,312 h -3 v 13 h 3 z"/><path id="path6043" fill="#005ca1" fill-rule="evenodd" d="m 569,312 h -3 v 13 h 3 z"/><path id="path6045" fill="#005ca1" fill-rule="evenodd" d="M 572.996,312 H 570 v 13 h 3"/><path id="path6047" fill="#fff" fill-rule="evenodd" d="m 548,333 h 152 v 22 H 548 Z"/><path id="path6049" fill="#b3b2b3" fill-opacity=".4" fill-rule="evenodd" d="m 548,333 h 152 v 22 H 548 Z"/><text id="text6051" font-family="Calibri, Calibri_MSFontService, sans-serif" font-size="13" font-weight="400" transform="translate(633.148,348)">Partition 6</text><path id="path6053" fill="none" fill-rule="evenodd" stroke="#fff" stroke-miterlimit="8" d="m 548.5,333.5 h 152 v 22 h -152 z"/><path id="path6055" fill="#005ca1" fill-rule="evenodd" d="m 557,338 h -2 v 13 h 2 z"/><path id="path6057" fill="#005ca1" fill-rule="evenodd" d="m 561,338 h -3 v 13 h 3 z"/><path id="path6059" fill="#005ca1" fill-rule="evenodd" d="m 565,338 h -3 v 13 h 3 z"/><path id="path6061" fill="#005ca1" fill-rule="evenodd" d="m 569,338 h -3 v 13 h 3 z"/><path id="path6063" fill="#005ca1" fill-rule="evenodd" d="m 573,338 h -3 v 13 h 3 z"/><path id="path6065" fill="#005ca1" fill-rule="evenodd" d="m 577,338 h -3 v 13 h 2.999 z"/><path id="path6067" fill="#005ca1" fill-rule="evenodd" d="m 581,338 h -3 v 13 h 3 z"/><path id="path6069" fill="#005ca1" fill-rule="evenodd" d="m 584,338 h -2 v 13 h 2 z"/><path id="path6071" fill="#005ca1" fill-rule="evenodd" d="m 588,338 h -2 v 13 h 2 z"/><path id="path6073" fill="#005ca1" fill-rule="evenodd" d="m 592,338 h -3 v 13 h 3 z"/><path id="path6075" fill="#fff" fill-rule="evenodd" d="m 548,360 h 152 v 21 H 548 Z"/><path id="path6077" fill="#b3b2b3" fill-opacity=".4" fill-rule="evenodd" d="m 548,360 h 152 v 21 H 548 Z"/><text id="text6079" font-family="Calibri, Calibri_MSFontService, sans-serif" font-size="13" font-weight="400" transform="translate(633.148,374)">Partition 7</text><path id="path6081" fill="none" fill-rule="evenodd" stroke="#fff" stroke-miterlimit="8" d="m 548.5,360.5 h 152 v 21 h -152 z"/><path id="path6083" fill="#005ca1" fill-rule="evenodd" d="m 557,364 h -2 v 13 h 2 z"/><path id="path6085" fill="#005ca1" fill-rule="evenodd" d="m 561,364 h -2 v 13 h 2 z"/><path id="path6087" fill="#005ca1" fill-rule="evenodd" d="m 565,364 h -3 v 13 h 3 z"/><path id="path6089" fill="#005ca1" fill-rule="evenodd" d="m 569,364 h -3 v 13 h 3 z"/><path id="path6091" fill="#005ca1" fill-rule="evenodd" d="m 573,364 h -3 v 13 h 3 z"/><path id="path6093" fill="#005ca1" fill-rule="evenodd" d="m 577,364 h -3 v 13 h 3 z"/><path id="path6095" fill="#005ca1" fill-rule="evenodd" d="m 581,364 h -3 v 13 h 3 z"/><path id="path6097" fill="#005ca1" fill-rule="evenodd" d="m 585,364 h -3 v 13 h 3 z"/><path id="path6099" fill="#fff" fill-rule="evenodd" d="m 548,386 h 152 v 21 H 548 Z"/><path id="path6101" fill="#b3b2b3" fill-opacity=".4" fill-rule="evenodd" d="m 548,386 h 152 v 21 H 548 Z"/><text id="text6103" font-family="Calibri, Calibri_MSFontService, sans-serif" font-size="13" font-weight="400" transform="translate(633.148,401)">Partition 8</text><path id="path6105" fill="none" fill-rule="evenodd" stroke="#fff" stroke-miterlimit="8" d="m 548.5,386.5 h 152 v 21 h -152 z"/><path id="path6107" fill="#005ca1" fill-rule="evenodd" d="m 557,391 h -2 v 12 h 2 z"/><path id="path6109" fill="#005ca1" fill-rule="evenodd" d="m 561,391 h -3 v 12 h 3 z"/><path id="path6111" fill="#005ca1" fill-rule="evenodd" d="m 565,391 h -3 v 12 h 3 z"/><path id="path6113" fill="#005ca1" fill-rule="evenodd" d="m 569,391 h -3 v 12 h 3 z"/><path id="path6115" fill="#005ca1" fill-rule="evenodd" d="M 572.996,391 H 570 v 12 h 3"/><path id="path6117" fill="#fff" fill-rule="evenodd" d="m 548,412 h 152 v 21 H 548 Z"/><path id="path6119" fill="#b3b2b3" fill-opacity=".4" fill-rule="evenodd" d="m 548,412 h 152 v 21 H 548 Z"/><text id="text6121" font-family="Calibri, Calibri_MSFontService, sans-serif" font-size="13" font-weight="400" transform="translate(633.148,427)">Partition 9</text><path id="path6123" fill="none" fill-rule="evenodd" stroke="#fff" stroke-miterlimit="8" d="m 548.5,412.5 h 152 v 21 h -152 z"/><path id="path6125" fill="#005ca1" fill-rule="evenodd" d="m 557,417 h -2 v 12 h 2 z"/><path id="path6127" fill="#005ca1" fill-rule="evenodd" d="m 561,417 h -3 v 12 h 3 z"/><path id="path6129" fill="#005ca1" fill-rule="evenodd" d="m 565,417 h -3 v 12 h 3 z"/><path id="path6131" fill="#005ca1" fill-rule="evenodd" d="m 569,417 h -3 v 12 h 3 z"/><path id="path6133" fill="#005ca1" fill-rule="evenodd" d="m 573,417 h -3 v 12 h 3 z"/><path id="path6135" fill="#005ca1" fill-rule="evenodd" d="m 577,417 h -3 v 12 h 2.999 z"/><path id="path6137" fill="#005ca1" fill-rule="evenodd" d="m 581,417 h -3 v 12 h 3 z"/><path id="path6139" fill="#005ca1" fill-rule="evenodd" d="m 584,417 h -2 v 12 h 2 z"/><path id="path6141" fill="#005ca1" fill-rule="evenodd" d="m 588,417 h -2 v 12 h 2 z"/><path id="path6143" fill="#005ca1" fill-rule="evenodd" d="m 592,417 h -3 v 12 h 3 z"/><path id="path6145" fill="#fff" fill-rule="evenodd" d="m 548,438 h 152 v 22 H 548 Z"/><path id="path6147" fill="#b3b2b3" fill-opacity=".4" fill-rule="evenodd" d="m 548,438 h 152 v 22 H 548 Z"/><text id="text6149" font-family="Calibri, Calibri_MSFontService, sans-serif" font-size="13" font-weight="400" transform="translate(626.315,453)">Partition 10</text><path id="path6151" fill="none" fill-rule="evenodd" stroke="#fff" stroke-miterlimit="8" d="m 548.5,438.5 h 152 v 22 h -152 z"/><path id="path6153" fill="#005ca1" fill-rule="evenodd" d="m 557,443 h -2 v 12 h 2 z"/><path id="path6155" fill="#005ca1" fill-rule="evenodd" d="m 561,443 h -3 v 12 h 3 z"/><path id="path6157" fill="#005ca1" fill-rule="evenodd" d="m 565,443 h -3 v 12 h 3 z"/><path id="path6159" fill="#005ca1" fill-rule="evenodd" d="m 569,443 h -3 v 12 h 3 z"/><path id="path6161" fill="#005ca1" fill-rule="evenodd" d="M 572.996,443 H 570 v 12 h 3"/><text id="text6171" font-family="Calibri, Calibri_MSFontService, sans-serif" font-size="13" font-weight="400" transform="translate(332.187,278)">Event Producers<tspan id="tspan6163" x="127.981" y="25" font-size="13">HTTPs</tspan><tspan id="tspan6165" x="127.981" y="41" font-size="13">AMQP</tspan><tspan id="tspan6167" x="265.353" y="-95" font-size="13">Azure Event Hubs</tspan><tspan id="tspan6169" x="564.758" y="-61" font-size="13">Function_1</tspan></text><path id="path6173" fill="#3c3c41" fill-rule="evenodd" d="m 812,217 6,-3.999 -6,-4.001 z"/><path id="path6175" fill="none" fill-rule="evenodd" stroke="#000" stroke-miterlimit="8" d="M 707.5,213.5 H 812.456"/><path id="path6177" fill="#3c3c41" fill-rule="evenodd" d="m 707,209 -7,3.999 7,4.001 z"/><path id="path6179" fill="#e17a26" fill-rule="evenodd" d="m 817,229 h 71 v 21 h -71 z"/><text id="text6183" font-family="Calibri, Calibri_MSFontService, sans-serif" font-size="13" font-weight="400" transform="translate(832.322,243)">Lease 2<tspan id="tspan6181" x="64.623" y="0" font-size="13">Function_2</tspan></text><path id="path6185" fill="#e17a26" fill-rule="evenodd" d="m 817,255 h 71 v 21 h -71 z"/><text id="text6189" font-family="Calibri, Calibri_MSFontService, sans-serif" font-size="13" font-weight="400" transform="translate(832.322,270)">Lease 3<tspan id="tspan6187" x="64.623" y="-1" font-size="13">Function_3</tspan></text><path id="path6191" fill="#e17a26" fill-rule="evenodd" d="m 817,281 h 71 v 22 h -71 z"/><text id="text6195" font-family="Calibri, Calibri_MSFontService, sans-serif" font-size="13" font-weight="400" transform="translate(832.322,296)">Lease 4<tspan id="tspan6193" x="64.623" y="-1" font-size="13">Function_4</tspan></text><path id="path6197" fill="#e17a26" fill-rule="evenodd" d="m 817,308 h 71 v 21 h -71 z"/><text id="text6201" font-family="Calibri, Calibri_MSFontService, sans-serif" font-size="13" font-weight="400" transform="translate(832.322,322)">Lease 5<tspan id="tspan6199" x="64.623" y="-1" font-size="13">Function_5</tspan></text><path id="path6203" fill="#e17a26" fill-rule="evenodd" d="m 817,334 h 71 v 21 h -71 z"/><text id="text6207" font-family="Calibri, Calibri_MSFontService, sans-serif" font-size="13" font-weight="400" transform="translate(832.322,349)">Lease 6<tspan id="tspan6205" x="64.623" y="-1" font-size="13">Function_6</tspan></text><path id="path6209" fill="#e17a26" fill-rule="evenodd" d="m 817,360 h 71 v 22 h -71 z"/><text id="text6213" font-family="Calibri, Calibri_MSFontService, sans-serif" font-size="13" font-weight="400" transform="translate(832.322,375)">Lease 7<tspan id="tspan6211" x="64.623" y="-1" font-size="13">Function_7</tspan></text><path id="path6215" fill="#e17a26" fill-rule="evenodd" d="m 817,387 h 71 v 21 h -71 z"/><text id="text6219" font-family="Calibri, Calibri_MSFontService, sans-serif" font-size="13" font-weight="400" transform="translate(832.322,401)">Lease 8<tspan id="tspan6217" x="64.623" y="-1" font-size="13">Function_8</tspan></text><path id="path6221" fill="#e17a26" fill-rule="evenodd" d="m 817,413 h 71 v 21 h -71 z"/><text id="text6225" font-family="Calibri, Calibri_MSFontService, sans-serif" font-size="13" font-weight="400" transform="translate(832.322,428)">Lease 9<tspan id="tspan6223" x="64.623" y="-2" font-size="13">Function_9</tspan></text><path id="path6227" fill="#e17a26" fill-rule="evenodd" d="m 817,440 h 70 v 21 h -70 z"/><text id="text6231" font-family="Calibri, Calibri_MSFontService, sans-serif" font-size="13" font-weight="400" transform="translate(828.689,454)">Lease 10<tspan id="tspan6229" x="64.84" y="-2" font-size="13">Function_10</tspan></text><path id="path6233" fill="#3c3c41" fill-rule="evenodd" d="m 811,243 6,-3.999 -6,-4.001 z"/><path id="path6235" fill="#3c3c41" fill-rule="evenodd" d="m 707,235 -7,3.999 7,4.001 z"/><path id="path6237" fill="#3c3c41" fill-rule="evenodd" d="m 811,269 6,-3.999 -6,-4.001 z"/><path id="path6239" fill="#3c3c41" fill-rule="evenodd" d="m 707,261 -7,3.999 7,4.001 z"/><path id="path6241" fill="#3c3c41" fill-rule="evenodd" d="m 812,295 6,-3.999 -6,-4.001 z"/><path id="path6243" fill="#3c3c41" fill-rule="evenodd" d="m 707,287 -7,3.999 7,4.001 z"/><path id="path6245" fill="#3c3c41" fill-rule="evenodd" d="m 811,323 6,-3.5 -6,-3.5 z"/><path id="path6247" fill="#3c3c41" fill-rule="evenodd" d="m 707,316 -7,3.5 7,3.5 z"/><path id="path6249" fill="#3c3c41" fill-rule="evenodd" d="m 811,347 6,-3.999 -6,-4.001 z"/><path id="path6251" fill="#3c3c41" fill-rule="evenodd" d="m 707,339 -7,3.999 7,4.001 z"/><path id="path6253" fill="#3c3c41" fill-rule="evenodd" d="m 812,375 6,-3.5 -6,-3.5 z"/><path id="path6255" fill="#3c3c41" fill-rule="evenodd" d="m 707,368 -7,3.5 7,3.5 z"/><path id="path6257" fill="#3c3c41" fill-rule="evenodd" d="m 812,401 6,-3.999 -6,-4.001 z"/><path id="path6259" fill="#3c3c41" fill-rule="evenodd" d="m 707,393 -7,3.999 7,4.001 z"/><path id="path6261" fill="#3c3c41" fill-rule="evenodd" d="m 811,427 7,-3.999 -7,-4.001 z"/><path id="path6263" fill="#3c3c41" fill-rule="evenodd" d="m 707,419 -7,3.999 7,4.001 z"/><path id="path6265" fill="#3c3c41" fill-rule="evenodd" d="m 811,453 7,-3.5 -7,-3.5 z"/><path id="path6267" fill="#3c3c41" fill-rule="evenodd" d="m 707,446 -7,3.5 7,3.5 z"/><path id="path6269" fill="#e17a26" fill-rule="evenodd" d="m 817,475 h 70 v 21 h -70 z"/><text id="text6275" font-family="Calibri, Calibri_MSFontService, sans-serif" font-size="9" font-weight="400" transform="translate(833.807,484)">Ready for <tspan id="tspan6271" x="7.5" y="11" font-size="9">Lease</tspan><tspan id="tspan6273" x="65.539" y="5" font-size="13">Function_N</tspan></text><path id="path6277" fill="none" fill-rule="evenodd" stroke="#000" stroke-dasharray=".667 .667" stroke-miterlimit="8" stroke-width=".667" d="m 852.5,462.5 v 11.14"/><path id="path6279" fill="none" fill-rule="evenodd" stroke="#000" stroke-dasharray=".667 .667" stroke-miterlimit="8" stroke-width=".667" d="m 925.5,462.5 v 11.14"/><text id="text6281" font-family="Calibri, Calibri_MSFontService, sans-serif" font-size="13" font-weight="400" transform="translate(823.921,187)">Function App</text><g id="g6295" clip-path="url(#clip1-3)"><g id="g6293" clip-path="url(#clip2-2)"><g id="g6291" clip-path="url(#clip3-0)"><path id="path6283" fill="#000" fill-opacity=".1" d="m 814.577,185.949 h -2.81 c -0.082,0.003 -0.152,-0.06 -0.157,-0.142 0,-0.02 0.006,-0.04 0.015,-0.058 l 3.368,-6.666 c 0.029,-0.053 0.086,-0.085 0.146,-0.083 h 3.323 c 0.082,-0.003 0.152,0.06 0.157,0.142 0,0.028 -0.01,0.056 -0.027,0.078 l -3.956,5.215 h 3.858 c 0.082,-0.003 0.151,0.06 0.156,0.142 10e-4,0.037 -0.013,0.074 -0.04,0.1 l -6.41,6.665 c -0.06,0.036 -0.488,0.391 -0.278,-0.148 v 0 z"/><path id="path6285" fill="#50e6ff" d="m 812.294,186.763 c 0.083,0.081 0.084,0.214 0.003,0.297 -10e-4,0.001 -0.002,0.002 -0.003,0.003 v 0 l -0.459,0.46 c -0.081,0.081 -0.213,0.082 -0.294,0.001 0,0 -0.001,-0.001 -0.001,-0.001 l -3.409,-3.4 c -0.162,-0.163 -0.162,-0.427 0,-0.59 l 0.461,-0.463 z m 9.578,-3.229 -0.458,-0.46 -3.7,3.694 c -0.081,0.082 -0.081,0.213 0,0.295 l 0.459,0.46 c 0.082,0.081 0.213,0.081 0.295,0 l 3.409,-3.4 c 0.161,-0.164 0.159,-0.428 -0.005,-0.589 z m -0.46,-0.461 z"/><path id="path6287" fill="#1490df" d="m 812.224,180.631 c 0.081,0.082 0.081,0.213 0,0.295 l -3.639,3.65 -0.462,-0.461 c -0.163,-0.162 -0.164,-0.425 -0.002,-0.588 10e-4,-10e-4 10e-4,-10e-4 0.002,-0.002 l 3.344,-3.355 c 0.082,-0.081 0.213,-0.081 0.295,0 z m 9.654,2.892 -3.345,-3.355 c -0.08,-0.083 -0.213,-0.085 -0.296,-0.004 -10e-4,0.001 -0.003,0.002 -0.004,0.004 l -0.462,0.46 c -0.083,0.08 -0.085,0.213 -0.005,0.296 0.002,0.001 0.003,0.003 0.005,0.004 l 3.639,3.649 0.462,-0.46 v 0 c 0.166,-0.159 0.171,-0.423 0.012,-0.588 -0.002,-0.002 -0.004,-0.004 -0.006,-0.006 z"/><path id="path6289" fill="#fea11b" d="m 814.577,184.551 h -2.81 c -0.082,0.003 -0.152,-0.06 -0.157,-0.142 0,-0.021 0.006,-0.041 0.015,-0.059 l 3.368,-6.665 c 0.029,-0.053 0.085,-0.086 0.146,-0.085 h 3.323 c 0.082,-0.003 0.151,0.059 0.157,0.141 0,0.029 -0.01,0.056 -0.027,0.079 l -3.956,5.217 h 3.858 c 0.082,-0.004 0.152,0.059 0.156,0.141 10e-4,0.037 -0.014,0.074 -0.04,0.1 l -6.41,6.665 c -0.06,0.036 -0.488,0.392 -0.278,-0.148 v 0 z"/></g></g></g><path id="path6297" fill="#2e76bc" fill-rule="evenodd" d="m 774.016,186 c 0.536,0.006 0.975,-0.377 0.982,-0.856 0,0 0,-0.001 0,-0.001 v -0.011 c 0.006,-0.049 -0.003,-0.098 -0.024,-0.143 -0.381,-2.747 -2.137,-4.989 -5.478,-4.989 -3.342,0 -5.147,1.935 -5.492,4.989 -0.05,0.484 0.344,0.915 0.885,0.967 h 9.127 z"/><path id="path6299" fill="#fff" fill-opacity=".8" fill-rule="evenodd" d="M 769.519,180.454 C 768.98,180.458 768.451,180.3 768,180 l 1.511,4 1.489,-3.966 c -0.446,0.275 -0.959,0.42 -1.481,0.42 z"/><path id="path6301" fill="#2e76bc" fill-rule="evenodd" d="m 773,177 c 0,1.657 -1.343,3 -3,3 -1.657,0 -3,-1.343 -3,-3 0,-1.657 1.343,-3 3,-3 1.657,0 3,1.343 3,3 z"/><path id="path6303" fill="#50c8e9" fill-rule="evenodd" d="m 767.666,189 c 0.734,0 1.33,-0.656 1.33,-1.465 0.005,-0.057 0.005,-0.115 0,-0.172 -0.527,-4.614 -2.912,-8.363 -7.461,-8.363 -4.548,0 -7.031,3.182 -7.529,8.326 -0.072,0.81 0.464,1.532 1.2,1.615 h 12.435 z"/><path id="path6305" fill="#fff" fill-opacity=".8" fill-rule="evenodd" d="M 761.501,180.685 C 760.612,180.68 759.745,180.442 759,180 l 2.501,6 2.499,-5.954 c -0.753,0.42 -1.618,0.642 -2.499,0.639 z"/><path id="path6307" fill="#50c8e9" fill-rule="evenodd" d="m 766,176 c 0,2.209 -2.015,4 -4.5,4 -2.485,0 -4.5,-1.791 -4.5,-4 0,-2.209 2.015,-4 4.5,-4 2.485,0 4.5,1.791 4.5,4 z"/><path id="path6309" fill="#2e76bc" fill-rule="evenodd" d="m 780.461,183 c 0.297,0 0.539,0 0.539,0 v 11 c 0,0 -0.242,0 -0.539,0 h -13.922 c -0.297,0 -0.539,0 -0.539,0 v -11 c 0,0 0.241,0 0.539,0 z"/><path id="path6311" fill="#d3e9f9" fill-opacity=".902" fill-rule="evenodd" d="m 779.735,184 c 0.146,0 0.265,0 0.265,0 v 9 c 0,0 -0.119,0 -0.265,0 h -12.47 c -0.146,0 -0.265,0 -0.265,0 v -9 c 0,0 0.119,0 0.265,0 z"/><text id="text6315" font-family="Calibri, Calibri_MSFontService, sans-serif" font-size="13" font-weight="400" transform="translate(742.246,151)">Consumer <tspan id="tspan6313" x="5.753" y="16" font-size="13">Group 1</tspan></text><path id="path6317" fill="none" fill-rule="evenodd" stroke="#000" stroke-miterlimit="8" d="M 706.5,239.5 H 811.456"/><path id="path6319" fill="none" fill-rule="evenodd" stroke="#000" stroke-miterlimit="8" d="M 706.5,265.5 H 811.456"/><path id="path6321" fill="none" fill-rule="evenodd" stroke="#000" stroke-miterlimit="8" d="M 707.5,291.5 H 812.456"/><path id="path6323" fill="none" fill-rule="evenodd" stroke="#000" stroke-miterlimit="8" d="M 706.5,319.5 H 811.456"/><path id="path6325" fill="none" fill-rule="evenodd" stroke="#000" stroke-miterlimit="8" d="M 706.5,343.5 H 811.456"/><path id="path6327" fill="none" fill-rule="evenodd" stroke="#000" stroke-miterlimit="8" d="M 707.5,371.5 H 812.456"/><path id="path6329" fill="none" fill-rule="evenodd" stroke="#000" stroke-miterlimit="8" d="M 707.5,397.5 H 812.456"/><path id="path6331" fill="none" fill-rule="evenodd" stroke="#000" stroke-miterlimit="8" d="M 707.5,423.5 H 812.456"/><path id="path6333" fill="none" fill-rule="evenodd" stroke="#000" stroke-miterlimit="8" d="M 707.5,449.5 H 812.456"/></g></g></svg>