<svg xmlns="http://www.w3.org/2000/svg" xmlns:svg="http://www.w3.org/2000/svg" id="svg3858" width="508" height="238" version="1.1" viewBox="0 0 134.408 62.971"><defs id="defs3855"><clipPath id="clip0"><rect id="rect3442" width="358" height="203" x="389" y="107"/></clipPath><clipPath id="clip0-1"><rect id="rect3218" width="492" height="204" x="77" y="235"/></clipPath></defs><g id="layer1"><rect style="fill:#fff;stroke-width:.264583" id="rect4986" width="134.408" height="62.971" x="0" y="0"/></g><g id="layer3"><g id="g3321" clip-path="url(#clip0-1)" transform="matrix(0.31049518,0,0,0.31809138,-26.553964,-73.69314)"><path id="path3223" fill="#fff" fill-rule="evenodd" d="M 155,235 H 319 V 398 H 155 Z"/><path id="path3225" fill="#0078d4" fill-opacity=".349" fill-rule="evenodd" d="M 155,235 H 319 V 398 H 155 Z"/><path id="path3227" fill="#fff" fill-rule="evenodd" d="M 319.582,235.386 V 397.614 H 155.418 V 235.386 H 319.582 M 320,235 H 155 v 163 h 165 z"/><path id="path3229" fill="#fff" fill-rule="evenodd" d="m 178,248 h 118 v 39 H 178 Z"/><path id="path3231" fill="#b3b2b3" fill-opacity=".4" fill-rule="evenodd" d="m 178,248 h 118 v 39 H 178 Z"/><path id="path3233" fill="none" fill-rule="evenodd" stroke="#fff" stroke-miterlimit="8" d="m 178.5,248.5 h 118 v 39 h -118 z"/><path id="path3235" fill="#fff" fill-rule="evenodd" d="m 178,296 h 118 v 40 H 178 Z"/><path id="path3237" fill="#b3b2b3" fill-opacity=".4" fill-rule="evenodd" d="m 178,296 h 118 v 40 H 178 Z"/><path id="path3239" fill="none" fill-rule="evenodd" stroke="#fff" stroke-miterlimit="8" d="m 178.5,296.5 h 118 v 40 h -118 z"/><path id="path3241" fill="#fff" fill-rule="evenodd" d="m 178,345 h 118 v 39 H 178 Z"/><path id="path3243" fill="#b3b2b3" fill-opacity=".4" fill-rule="evenodd" d="m 178,345 h 118 v 39 H 178 Z"/><path id="path3245" fill="none" fill-rule="evenodd" stroke="#fff" stroke-miterlimit="8" d="m 178.5,345.5 h 118 v 39 h -118 z"/><path id="path3247" d="m 476.909,317.594 -145.744,-0.727 0.003,-0.667 145.744,0.728 z m -144.429,2.946 -7.98,-4.04 8.02,-3.96 z"/><text id="text3253" font-family="Calibri, Calibri_MSFontService, sans-serif" font-size="13" font-weight="400" transform="translate(86.4581,271)">Partition 0<tspan id="tspan3249" x=".225" y="49" font-size="13">Partition 1</tspan><tspan id="tspan3251" x="1.214" y="97" font-size="13">Partition 2</tspan></text><path id="path3255" d="m 155.5,421.167 h 158.884 v 0.666 H 155.5 Z m 157.55,-3.667 8,4 -8,4 z"/><text id="text3259" font-family="Calibri, Calibri_MSFontService, sans-serif" font-size="13" font-weight="400" transform="translate(105.668,426)">Old<tspan id="tspan3257" x="232.354" y="0" font-size="13">New</tspan></text><path id="path3261" d="M 0.0976082,-0.318722 148.175,45.0296 147.979,45.6671 -0.0976082,0.318722 Z M 147.974,41.1333 l 6.478,6.1673 -8.821,1.482 z" transform="matrix(-1,0,0,1,476.952,317.5)"/><path id="path3263" d="m 475.637,317.721 -148.892,-47.863 0.204,-0.635 148.892,47.863 z M 326.892,273.756 320.5,267.5 l 8.84,-1.36 z"/><text id="text3265" font-family="Calibri, Calibri_MSFontService, sans-serif" font-size="13" font-weight="400" transform="translate(481.38,321)">Writes</text><path id="path3267" fill="#005ca1" fill-rule="evenodd" d="m 193,254 h -7 v 26 h 7 z"/><path id="path3269" fill="#005ca1" fill-rule="evenodd" d="m 204,255 h -7 v 26 h 7 z"/><path id="path3271" fill="#005ca1" fill-rule="evenodd" d="m 214,255 h -7 v 26 h 7 z"/><path id="path3273" fill="#005ca1" fill-rule="evenodd" d="m 225,254 h -7 v 26 h 7 z"/><path id="path3275" fill="#005ca1" fill-rule="evenodd" d="m 235,254 h -7 v 26 h 7 z"/><path id="path3277" fill="#005ca1" fill-rule="evenodd" d="m 246,254 h -7 v 26 h 7 z"/><path id="path3279" fill="#005ca1" fill-rule="evenodd" d="m 257,255 h -7 v 26 h 7 z"/><path id="path3281" fill="#005ca1" fill-rule="evenodd" d="m 267,255 h -7 v 26 h 7 z"/><path id="path3283" fill="#005ca1" fill-rule="evenodd" d="m 278,254 h -7 v 26 h 7 z"/><path id="path3285" fill="#005ca1" fill-rule="evenodd" d="m 195,303 h -7 v 26 h 7 z"/><path id="path3287" fill="#005ca1" fill-rule="evenodd" d="m 206,303 h -7 v 26 h 7 z"/><path id="path3289" fill="#005ca1" fill-rule="evenodd" d="m 216,303 h -7 v 26 h 7 z"/><path id="path3291" fill="#005ca1" fill-rule="evenodd" d="m 227,303 h -7 v 26 h 7 z"/><path id="path3293" fill="#005ca1" fill-rule="evenodd" d="m 237,303 h -7 v 26 h 7 z"/><path id="path3295" fill="#005ca1" fill-rule="evenodd" d="m 248,303 h -7 v 26 h 7 z"/><path id="path3297" fill="#005ca1" fill-rule="evenodd" d="m 259,303 h -7 v 26 h 7 z"/><path id="path3299" fill="#005ca1" fill-rule="evenodd" d="m 196,352 h -7 v 26 h 7 z"/><path id="path3301" fill="#005ca1" fill-rule="evenodd" d="m 207,352 h -7 v 26 h 7 z"/><path id="path3303" fill="#005ca1" fill-rule="evenodd" d="m 217,352 h -7 v 26 h 7 z"/><path id="path3305" fill="#005ca1" fill-rule="evenodd" d="m 228,351 h -7 v 26 h 7 z"/><path id="path3307" fill="#005ca1" fill-rule="evenodd" d="m 238,351 h -7 v 26 h 7 z"/><path id="path3309" fill="#005ca1" fill-rule="evenodd" d="m 248,352 h -6 v 26 h 6 z"/><path id="path3311" fill="#005ca1" fill-rule="evenodd" d="m 259,352 h -6 v 26 h 6 z"/><path id="path3313" fill="#005ca1" fill-rule="evenodd" d="m 270,352 h -7 v 26 h 7 z"/><path id="path3315" fill="#fff" fill-rule="evenodd" stroke="#000" stroke-dasharray="1 1" stroke-miterlimit="8" d="m 280.5,351.5 h -7 v 26 h 7 z"/><path id="path3317" fill="#fff" fill-rule="evenodd" stroke="#000" stroke-dasharray="1 1" stroke-miterlimit="8" d="m 269.5,303.5 h -7 v 26 h 7 z"/><path id="path3319" fill="#fff" fill-rule="evenodd" stroke="#000" stroke-dasharray="1 1" stroke-miterlimit="8" d="m 289.5,254.5 h -7 v 26 h 7 z"/></g></g></svg>