<svg xmlns="http://www.w3.org/2000/svg" xmlns:svg="http://www.w3.org/2000/svg" id="svg5" width="640" height="340" version="1.1" viewBox="0 0 169.333 89.958"><defs id="defs2"><clipPath id="clip0-9"><rect id="rect2660" width="654" height="340" x="323" y="134"/></clipPath><clipPath id="clip1-5"><rect id="rect2663" width="16" height="16" x="807" y="176"/></clipPath><clipPath id="clip2-5"><rect id="rect2666" width="16" height="16" x="807" y="176"/></clipPath><clipPath id="clip3-7"><rect id="rect2669" width="16" height="16" x="807" y="176"/></clipPath></defs><g id="layer1"><rect style="fill:#fff;stroke-width:.264583" id="rect31" width="169.333" height="89.958" x="0" y="0"/></g><g id="layer2"><g id="g3144" clip-path="url(#clip0-9)" transform="matrix(0.26458333,0,0,0.26458333,-85.69284,-36.470592)"><path id="path2674" fill="#fff" fill-rule="evenodd" d="m 814,198 h 77 v 275 h -77 z"/><path id="path2676" fill="#b3b2b3" fill-opacity=".4" fill-rule="evenodd" d="m 814,198 h 77 v 275 h -77 z"/><path id="path2678" fill="none" fill-rule="evenodd" stroke="#fff" stroke-miterlimit="8" d="m 814.5,198.5 h 77 v 275 h -77 z"/><path id="path2680" fill="#fff" fill-rule="evenodd" d="M 525,197 H 721 V 471 H 525 Z"/><path id="path2682" fill="#0078d4" fill-opacity=".349" fill-rule="evenodd" d="M 525,197 H 721 V 471 H 525 Z"/><path id="path2684" fill="#fff" fill-rule="evenodd" d="m 721.5,197.651 v 273.698 h -196 V 197.651 h 196 M 722,197 H 525 v 275 h 197 z"/><path id="path2686" fill="#fff" fill-rule="evenodd" d="m 548,203 h 152 v 21 H 548 Z"/><path id="path2688" fill="#b3b2b3" fill-opacity=".4" fill-rule="evenodd" d="m 548,203 h 152 v 21 H 548 Z"/><text id="text2690" font-family="Calibri, Calibri_MSFontService, sans-serif" font-size="13" font-weight="400" transform="translate(633.148,218)">Partition 1</text><path id="path2692" fill="none" fill-rule="evenodd" stroke="#fff" stroke-miterlimit="8" d="m 548.5,203.5 h 152 v 21 h -152 z"/><path id="path2694" fill="#fff" fill-rule="evenodd" d="m 758,198 h 32 v 275 h -32 z"/><path id="path2696" fill="#b3b2b3" fill-opacity=".4" fill-rule="evenodd" d="m 758,198 h 32 v 275 h -32 z"/><path id="path2698" fill="none" fill-rule="evenodd" stroke="#fff" stroke-miterlimit="8" d="m 758.5,198.5 h 32 v 275 h -32 z"/><path id="path2700" fill="#2e76bc" fill-rule="evenodd" d="m 779.105,186 c 0.487,0.006 0.887,-0.377 0.894,-0.856 0,0 0,-0.001 0,-0.001 v -0.011 c 0.004,-0.049 -0.003,-0.098 -0.022,-0.143 -0.347,-2.747 -1.944,-4.989 -4.981,-4.989 -3.037,0 -4.679,1.935 -4.992,4.989 -0.046,0.484 0.312,0.915 0.804,0.967 h 8.297 z"/><path id="path2702" fill="#fff" fill-opacity=".8" fill-rule="evenodd" d="M 775.519,180.454 C 774.98,180.458 774.451,180.3 774,180 l 1.511,4 1.489,-3.966 c -0.446,0.275 -0.959,0.42 -1.481,0.42 z"/><path id="path2704" fill="#2e76bc" fill-rule="evenodd" d="m 778,177 c 0,1.657 -1.343,3 -3,3 -1.657,0 -3,-1.343 -3,-3 0,-1.657 1.343,-3 3,-3 1.657,0 3,1.343 3,3 z"/><path id="path2706" fill="#50c8e9" fill-rule="evenodd" d="m 773.577,189 c 0.783,0 1.419,-0.656 1.419,-1.465 0.006,-0.057 0.006,-0.115 0,-0.172 -0.562,-4.614 -3.107,-8.363 -7.958,-8.363 -4.852,0 -7.5,3.182 -8.031,8.326 -0.077,0.81 0.495,1.532 1.279,1.615 h 13.264 z"/><path id="path2708" fill="#fff" fill-opacity=".8" fill-rule="evenodd" d="M 767.501,180.685 C 766.612,180.68 765.745,180.442 765,180 l 2.501,6 2.499,-5.954 c -0.753,0.42 -1.618,0.642 -2.499,0.639 z"/><path id="path2710" fill="#50c8e9" fill-rule="evenodd" d="m 772,176 c 0,2.209 -2.015,4 -4.5,4 -2.485,0 -4.5,-1.791 -4.5,-4 0,-2.209 2.015,-4 4.5,-4 2.485,0 4.5,1.791 4.5,4 z"/><path id="path2712" fill="#2e76bc" fill-rule="evenodd" d="m 786.461,183 c 0.297,0 0.539,0 0.539,0 v 11 c 0,0 -0.242,0 -0.539,0 h -13.922 c -0.297,0 -0.539,0 -0.539,0 v -11 c 0,0 0.241,0 0.539,0 z"/><path id="path2714" fill="#d3e9f9" fill-opacity=".902" fill-rule="evenodd" d="m 785.715,184 c 0.157,0 0.285,0 0.285,0 v 9 c 0,0 -0.128,0 -0.285,0 h -13.429 c -0.158,0 -0.286,0 -0.286,0 v -9 c 0,0 0.128,0 0.286,0 z"/><path id="path2716" fill="#76bc43" fill-rule="evenodd" d="m 571,177.478 c 0.011,0.27 -0.193,0.501 -0.462,0.522 h -4.018 c -0.269,0.011 -0.499,-0.194 -0.519,-0.464 v -3.013 c -0.013,-0.271 0.192,-0.503 0.461,-0.522 h 4.018 c 0.269,-0.013 0.5,0.193 0.52,0.463 z"/><path id="path2718" fill="#76bc43" fill-rule="evenodd" d="m 578,180.475 c 0.011,0.272 -0.193,0.504 -0.462,0.525 h -4.018 c -0.269,0.011 -0.499,-0.195 -0.52,-0.467 v -3.008 c -0.01,-0.271 0.194,-0.503 0.462,-0.525 h 4.017 c 0.269,-0.011 0.499,0.195 0.52,0.467 z"/><path id="path2720" fill="#76bc43" fill-rule="evenodd" d="m 571,183.477 c 0.012,0.271 -0.193,0.503 -0.462,0.523 h -4.018 c -0.269,0.012 -0.5,-0.194 -0.519,-0.464 v -3.013 c -0.013,-0.271 0.192,-0.502 0.461,-0.522 h 4.018 c 0.269,-0.013 0.5,0.193 0.52,0.463 z"/><path id="path2722" fill="#8bc63f" fill-rule="evenodd" d="m 564,174.506 c 0.011,0.255 -0.181,0.474 -0.434,0.493 h -4.056 c -0.258,0.013 -0.48,-0.178 -0.51,-0.437 v -3.087 c 0.008,-0.251 0.204,-0.456 0.453,-0.475 h 3.942 c 0.415,0 0.604,0.206 0.604,0.515 z"/><path id="path2724" fill="#76bc43" fill-rule="evenodd" d="m 563.998,180.487 c 0.022,0.261 -0.17,0.49 -0.43,0.513 h -4.058 c -0.27,0.011 -0.499,-0.201 -0.51,-0.473 0,-10e-4 0,-10e-4 0,-10e-4 v -3.033 c -10e-4,-0.258 0.197,-0.473 0.453,-0.493 h 3.941 c 0.415,0 0.603,0.205 0.603,0.493 z"/><path id="path2726" fill="#76bc43" fill-rule="evenodd" d="m 563.998,186.49 c 0.023,0.259 -0.169,0.487 -0.429,0.51 0,0 -10e-4,0 -10e-4,0 h -4.058 c -0.264,0.01 -0.489,-0.19 -0.51,-0.453 v -3.057 c -0.01,-0.26 0.192,-0.479 0.452,-0.49 h 3.942 c 0.415,0 0.603,0.189 0.603,0.49 z"/><path id="path2728" fill="#999" fill-rule="evenodd" d="M 552.92,165 H 555 v 6.478 c 0,0.289 -0.209,0.522 -0.467,0.522 h -2.064 c -0.258,0 -0.468,-0.233 -0.468,-0.522 v -5.397 c -0.027,-0.566 0.363,-1.048 0.869,-1.078 10e-4,0 0.002,0 0.003,0 z"/><path id="path2730" fill="#999" fill-opacity=".502" fill-rule="evenodd" d="M 552.92,165 H 555 v 6.478 c 0,0.289 -0.209,0.522 -0.467,0.522 h -2.064 c -0.258,0 -0.468,-0.233 -0.468,-0.522 v -5.397 c -0.027,-0.566 0.363,-1.048 0.869,-1.078 10e-4,0 0.002,0 0.003,0 z"/><path id="path2732" fill="#999" fill-rule="evenodd" d="m 580.016,165 h 2.07 c 0.505,0 0.914,0.463 0.914,1.034 v 5.44 c 0,0.291 -0.208,0.526 -0.465,0.526 0,0 -10e-4,0 -10e-4,0 h -2.068 c -0.257,0 -0.465,-0.235 -0.466,-0.526 V 165 Z"/><path id="path2734" fill="#999" fill-opacity=".502" fill-rule="evenodd" d="m 580.016,165 h 2.07 c 0.505,0 0.914,0.463 0.914,1.034 v 5.44 c 0,0.291 -0.208,0.526 -0.465,0.526 0,0 -10e-4,0 -10e-4,0 h -2.068 c -0.257,0 -0.465,-0.235 -0.466,-0.526 V 165 Z"/><path id="path2736" fill="#949494" fill-rule="evenodd" d="M 583,165.939 V 168 h -31 v -2.061 c 0,-0.518 0.465,-0.939 1.039,-0.939 h 28.94 c 0.567,0.009 1.021,0.427 1.021,0.939 z"/><path id="path2738" fill="#999" fill-rule="evenodd" d="m 552.462,185 h 2.072 c 0.258,0 0.466,0.267 0.466,0.596 V 193 h -2.085 C 552.41,193 552,192.475 552,191.828 v -6.34 c 0.041,-0.285 0.236,-0.491 0.462,-0.488 z"/><path id="path2740" fill="#999" fill-opacity=".502" fill-rule="evenodd" d="m 552.462,185 h 2.072 c 0.258,0 0.466,0.267 0.466,0.596 V 193 h -2.085 C 552.41,193 552,192.475 552,191.828 v -6.34 c 0.041,-0.285 0.236,-0.491 0.462,-0.488 z"/><path id="path2742" fill="#999" fill-rule="evenodd" d="m 580.452,185 h 2.08 c 0.258,-0.001 0.467,0.268 0.468,0.6 0,0 0,0 0,0.001 v 0 6.218 c 0,0.652 -0.412,1.181 -0.919,1.181 H 580 v -7.508 c 0.04,-0.281 0.229,-0.487 0.452,-0.492 z"/><path id="path2744" fill="#999" fill-opacity=".502" fill-rule="evenodd" d="m 580.452,185 h 2.08 c 0.258,-0.001 0.467,0.268 0.468,0.6 0,0 0,0 0,0.001 v 0 6.218 c 0,0.652 -0.412,1.181 -0.919,1.181 H 580 v -7.508 c 0.04,-0.281 0.229,-0.487 0.452,-0.492 z"/><path id="path2746" fill="#949494" fill-rule="evenodd" d="M 552,191.748 V 189 h 31 v 2.748 c 0,0.691 -0.465,1.252 -1.039,1.252 H 553.039 C 552.465,193 552,192.439 552,191.748 Z"/><path id="path2748" fill="#005ca1" fill-rule="evenodd" d="m 557,208 h -2 v 12 h 2 z"/><path id="path2750" fill="#005ca1" fill-rule="evenodd" d="m 561,208 h -3 v 12 h 3 z"/><path id="path2752" fill="#005ca1" fill-rule="evenodd" d="m 565,208 h -3 v 12 h 3 z"/><path id="path2754" fill="#005ca1" fill-rule="evenodd" d="m 569,208 h -3 v 12 h 3 z"/><path id="path2756" fill="#005ca1" fill-rule="evenodd" d="M 572.996,208 H 570 v 12 h 3 z"/><path id="path2758" fill="#005ca1" fill-rule="evenodd" d="m 577,208 h -3 v 12 h 3 z"/><path id="path2760" fill="#005ca1" fill-rule="evenodd" d="m 581,208 h -3 v 12 h 3 z"/><path id="path2762" fill="#fff" fill-rule="evenodd" d="m 548,229 h 152 v 22 H 548 Z"/><path id="path2764" fill="#b3b2b3" fill-opacity=".4" fill-rule="evenodd" d="m 548,229 h 152 v 22 H 548 Z"/><text id="text2766" font-family="Calibri, Calibri_MSFontService, sans-serif" font-size="13" font-weight="400" transform="translate(633.148,244)">Partition 2</text><path id="path2768" fill="none" fill-rule="evenodd" stroke="#fff" stroke-miterlimit="8" d="m 548.5,229.5 h 152 v 22 h -152 z"/><path id="path2770" fill="#005ca1" fill-rule="evenodd" d="m 557,234 h -2 v 12 h 2 z"/><path id="path2772" fill="#005ca1" fill-rule="evenodd" d="m 561,234 h -3 v 12 h 3 z"/><path id="path2774" fill="#005ca1" fill-rule="evenodd" d="m 565,234 h -3 v 12 h 3 z"/><path id="path2776" fill="#005ca1" fill-rule="evenodd" d="m 569,234 h -3 v 12 h 3 z"/><path id="path2778" fill="#005ca1" fill-rule="evenodd" d="m 573,234 h -3 v 12 h 3 z"/><path id="path2780" fill="#005ca1" fill-rule="evenodd" d="m 577,234 h -3 v 12 h 2.999 z"/><path id="path2782" fill="#005ca1" fill-rule="evenodd" d="m 581,234 h -3 v 12 h 3 z"/><path id="path2784" fill="#005ca1" fill-rule="evenodd" d="m 584,234 h -2 v 12 h 2 z"/><path id="path2786" fill="#005ca1" fill-rule="evenodd" d="m 588,234 h -2 v 12 h 2 z"/><path id="path2788" fill="#005ca1" fill-rule="evenodd" d="m 592,234 h -3 v 12 h 3 z"/><path id="path2790" fill="#fff" fill-rule="evenodd" d="m 548,256 h 152 v 21 H 548 Z"/><path id="path2792" fill="#b3b2b3" fill-opacity=".4" fill-rule="evenodd" d="m 548,256 h 152 v 21 H 548 Z"/><text id="text2794" font-family="Calibri, Calibri_MSFontService, sans-serif" font-size="13" font-weight="400" transform="translate(633.148,270)">Partition 3</text><path id="path2796" fill="none" fill-rule="evenodd" stroke="#fff" stroke-miterlimit="8" d="m 548.5,256.5 h 152 v 21 h -152 z"/><path id="path2798" fill="#005ca1" fill-rule="evenodd" d="m 557,260 h -2 v 12 h 2 z"/><path id="path2800" fill="#005ca1" fill-rule="evenodd" d="m 561,260 h -3 v 12 h 3 z"/><path id="path2802" fill="#005ca1" fill-rule="evenodd" d="m 565,260 h -3 v 12 h 3 z"/><path id="path2804" fill="#005ca1" fill-rule="evenodd" d="m 569,260 h -3 v 12 h 3 z"/><path id="path2806" fill="#005ca1" fill-rule="evenodd" d="M 572.996,260 H 570 v 12 h 3"/><path id="path2808" fill="#fff" fill-rule="evenodd" d="m 548,282 h 152 v 21 H 548 Z"/><path id="path2810" fill="#b3b2b3" fill-opacity=".4" fill-rule="evenodd" d="m 548,282 h 152 v 21 H 548 Z"/><text id="text2812" font-family="Calibri, Calibri_MSFontService, sans-serif" font-size="13" font-weight="400" transform="translate(633.148,296)">Partition 4</text><path id="path2814" fill="none" fill-rule="evenodd" stroke="#fff" stroke-miterlimit="8" d="m 548.5,282.5 h 152 v 21 h -152 z"/><path id="path2816" fill="#005ca1" fill-rule="evenodd" d="m 557,286 h -2 v 12 h 2 z"/><path id="path2818" fill="#005ca1" fill-rule="evenodd" d="m 561,286 h -2 v 12 h 2 z"/><path id="path2820" fill="#005ca1" fill-rule="evenodd" d="m 565,286 h -3 v 12 h 3 z"/><path id="path2822" fill="#005ca1" fill-rule="evenodd" d="m 569,286 h -3 v 12 h 3 z"/><path id="path2824" fill="#005ca1" fill-rule="evenodd" d="m 573,286 h -3 v 12 h 3 z"/><path id="path2826" fill="#005ca1" fill-rule="evenodd" d="m 577,286 h -3 v 12 h 3 z"/><path id="path2828" fill="#005ca1" fill-rule="evenodd" d="m 581,286 h -3 v 12 h 3 z"/><path id="path2830" fill="#005ca1" fill-rule="evenodd" d="m 585,286 h -3 v 12 h 3 z"/><path id="path2832" fill="#5e9741" fill-rule="evenodd" d="m 329,298 h 10 v 10 h -10 z"/><path id="path2834" fill="#5e9741" fill-rule="evenodd" d="m 343,298 h 10 v 10 h -10 z"/><path id="path2836" fill="#5e9741" fill-rule="evenodd" d="m 357,298 h 10 v 10 h -10 z"/><path id="path2838" fill="#5e9741" fill-rule="evenodd" d="m 371,298 h 10 v 10 h -10 z"/><path id="path2840" fill="#5e9741" fill-rule="evenodd" d="m 385,298 h 10 v 10 h -10 z"/><path id="path2842" fill="#5e9741" fill-rule="evenodd" d="m 399,298 h 10 v 10 h -10 z"/><path id="path2844" fill="#5e9741" fill-rule="evenodd" d="m 413,298 h 10 v 10 h -10 z"/><path id="path2846" fill="#5e9741" fill-rule="evenodd" d="m 329,311 h 10 v 10 h -10 z"/><path id="path2848" fill="#5e9741" fill-rule="evenodd" d="m 343,311 h 10 v 10 h -10 z"/><path id="path2850" fill="#5e9741" fill-rule="evenodd" d="m 357,311 h 10 v 10 h -10 z"/><path id="path2852" fill="#5e9741" fill-rule="evenodd" d="m 371,311 h 10 v 10 h -10 z"/><path id="path2854" fill="#5e9741" fill-rule="evenodd" d="m 385,311 h 10 v 10 h -10 z"/><path id="path2856" fill="#5e9741" fill-rule="evenodd" d="m 399,311 h 10 v 10 h -10 z"/><path id="path2858" fill="#5e9741" fill-rule="evenodd" d="m 413,311 h 10 v 10 h -10 z"/><path id="path2860" fill="#5e9741" fill-rule="evenodd" d="m 329,324 h 10 v 10 h -10 z"/><path id="path2862" fill="#5e9741" fill-rule="evenodd" d="m 343,324 h 10 v 10 h -10 z"/><path id="path2864" fill="#5e9741" fill-rule="evenodd" d="m 357,324 h 10 v 10 h -10 z"/><path id="path2866" fill="#5e9741" fill-rule="evenodd" d="m 371,324 h 10 v 10 h -10 z"/><path id="path2868" fill="#5e9741" fill-rule="evenodd" d="m 385,324 h 10 v 10 h -10 z"/><path id="path2870" fill="#5e9741" fill-rule="evenodd" d="m 399,324 h 10 v 10 h -10 z"/><path id="path2872" fill="#5e9741" fill-rule="evenodd" d="m 413,324 h 10 v 10 h -10 z"/><path id="path2874" fill="#5e9741" fill-rule="evenodd" d="m 329,337 h 10 v 10 h -10 z"/><path id="path2876" fill="#5e9741" fill-rule="evenodd" d="m 343,337 h 10 v 10 h -10 z"/><path id="path2878" fill="#5e9741" fill-rule="evenodd" d="m 357,337 h 10 v 10 h -10 z"/><path id="path2880" fill="#5e9741" fill-rule="evenodd" d="m 371,337 h 10 v 10 h -10 z"/><path id="path2882" fill="#5e9741" fill-rule="evenodd" d="m 385,337 h 10 v 10 h -10 z"/><path id="path2884" fill="#5e9741" fill-rule="evenodd" d="m 399,337 h 10 v 10 h -10 z"/><path id="path2886" fill="#5e9741" fill-rule="evenodd" d="m 413,337 h 10 v 10 h -10 z"/><path id="path2888" fill="#5e9741" fill-rule="evenodd" d="m 329,350 h 10 v 10 h -10 z"/><path id="path2890" fill="#5e9741" fill-rule="evenodd" d="m 343,350 h 10 v 10 h -10 z"/><path id="path2892" fill="#5e9741" fill-rule="evenodd" d="m 357,350 h 10 v 10 h -10 z"/><path id="path2894" fill="#5e9741" fill-rule="evenodd" d="m 371,350 h 10 v 10 h -10 z"/><path id="path2896" fill="#5e9741" fill-rule="evenodd" d="m 385,350 h 10 v 10 h -10 z"/><path id="path2898" fill="#5e9741" fill-rule="evenodd" d="m 399,350 h 10 v 10 h -10 z"/><path id="path2900" fill="#5e9741" fill-rule="evenodd" d="m 413,350 h 10 v 10 h -10 z"/><path id="path2902" fill="#5e9741" fill-rule="evenodd" d="m 329,364 h 10 v 10 h -10 z"/><path id="path2904" fill="#5e9741" fill-rule="evenodd" d="m 343,364 h 10 v 10 h -10 z"/><path id="path2906" fill="#5e9741" fill-rule="evenodd" d="m 357,364 h 10 v 10 h -10 z"/><path id="path2908" fill="#5e9741" fill-rule="evenodd" d="m 371,364 h 10 v 10 h -10 z"/><path id="path2910" fill="#5e9741" fill-rule="evenodd" d="m 385,364 h 10 v 10 h -10 z"/><path id="path2912" fill="#5e9741" fill-rule="evenodd" d="m 399,364 h 10 v 10 h -10 z"/><path id="path2914" fill="#5e9741" fill-rule="evenodd" d="m 413,364 h 10 v 10 h -10 z"/><path id="path2916" fill="#979797" fill-rule="evenodd" d="m 521,335.5 -10.477,-7.479 V 334 H 440.89 v -42.5 c 0,-0.828 -0.543,-1.5 -1.213,-1.5 H 429 v 3 h 9.464 v 85 H 429 v 3 h 10.677 c 0.67,0 1.213,-0.672 1.213,-1.5 V 337 h 69.633 v 5.98 z"/><path id="path2918" fill="#e17a26" fill-rule="evenodd" d="m 817,203 h 70 v 264 h -70 z"/><text id="text2924" font-family="Calibri, Calibri_MSFontService, sans-serif" font-size="13" font-weight="400" transform="translate(837.086,331)">Lease <tspan id="tspan2920" x="3" y="16" font-size="13">1</tspan><tspan id="tspan2922" x="9.833" y="16" font-size="13">-</tspan>10</text><path id="path2926" fill="none" fill-rule="evenodd" stroke="#3c3c41" stroke-miterlimit="8" d="m 705.5,213.5 h 36.032 c 1.085,0.005 1.965,1.48 1.968,3.301 v 229.398 c -0.003,1.821 -0.883,3.296 -1.968,3.301 H 705.5"/><path id="path2928" fill="#3c3c41" fill-rule="evenodd" d="m 706,217 -6,-3.5 6,-3.5 z"/><path id="path2930" fill="#3c3c41" fill-rule="evenodd" d="m 706,445 -6,3.999 6,4.001 z"/><path id="path2932" fill="none" fill-rule="evenodd" stroke="#3c3c41" stroke-miterlimit="8" d="m 744.5,240.5 h -39"/><path id="path2934" fill="#3c3c41" fill-rule="evenodd" d="m 707,236 -7,3.999 7,4.001 z"/><path id="path2936" fill="none" fill-rule="evenodd" stroke="#3c3c41" stroke-miterlimit="8" d="m 744.5,266.5 h -39"/><path id="path2938" fill="#3c3c41" fill-rule="evenodd" d="m 707,263 -7,3.5 7,3.5 z"/><path id="path2940" fill="#231f20" fill-rule="evenodd" d="m 455.803,346.038 v 0 c -0.258,-0.266 -0.613,-0.415 -0.982,-0.414 -0.368,-0.001 -0.721,0.148 -0.977,0.414 h -0.006 c -0.26,0.268 -0.403,0.627 -0.4,1 -0.005,0.373 0.139,0.733 0.4,1 l 0.006,0.007 c 0.257,0.263 0.609,0.41 0.977,0.408 0.369,0.002 0.722,-0.145 0.982,-0.408 v -0.007 c 0.261,-0.267 0.405,-0.627 0.4,-1 0.003,-0.373 -0.14,-0.732 -0.4,-1 z m -0.982,19.325 v 0 c 0.369,-10e-4 0.722,-0.149 0.982,-0.412 v -0.007 c 0.26,-0.265 0.403,-0.622 0.4,-0.994 0.003,-0.373 -0.14,-0.732 -0.4,-1 v 0 c -0.258,-0.266 -0.613,-0.416 -0.982,-0.414 -0.369,-0.002 -0.722,0.148 -0.977,0.414 h -0.006 c -0.26,0.268 -0.403,0.627 -0.4,1 -0.003,0.372 0.14,0.729 0.4,0.994 l 0.006,0.007 c 0.257,0.263 0.609,0.412 0.977,0.412 z m 7.553,-4.278 v 0 c 0.357,-0.095 0.662,-0.331 0.843,-0.656 l 0.026,-0.05 v 0 c 0.164,-0.315 0.203,-0.68 0.109,-1.022 -0.091,-0.361 -0.324,-0.671 -0.646,-0.859 l -0.02,-0.013 c -0.664,-0.371 -1.503,-0.133 -1.875,0.531 -0.385,0.674 -0.16,1.534 0.507,1.932 v 0 c 0.319,0.186 0.699,0.235 1.054,0.137 z m -6.132,-7.038 v 0 c -0.762,-0.786 -2.014,-0.805 -2.799,-0.042 -0.014,0.014 -0.028,0.028 -0.042,0.042 -0.378,0.386 -0.587,0.904 -0.585,1.444 -0.002,0.541 0.208,1.062 0.585,1.451 0.769,0.785 2.028,0.797 2.813,0.027 0.01,-0.008 0.019,-0.018 0.028,-0.027 0.378,-0.389 0.588,-0.91 0.587,-1.451 0.002,-0.54 -0.209,-1.059 -0.587,-1.444 z m -0.8,-2.406 v 0 c 0.795,0.135 1.525,0.521 2.086,1.1 v 0 c 0.088,0.09 0.173,0.188 0.253,0.287 l 1.385,-0.816 c -0.439,-1.361 0.12,-2.847 1.348,-3.579 l 0.023,-0.015 c 0.679,-0.395 1.488,-0.5 2.245,-0.293 0.771,0.212 1.425,0.723 1.817,1.421 v 0 c 0.396,0.7 0.504,1.528 0.3,2.307 -0.201,0.777 -0.702,1.443 -1.394,1.85 l -0.19,0.113 h -0.019 c -0.642,0.311 -1.373,0.379 -2.061,0.192 -0.56,-0.153 -1.064,-0.465 -1.449,-0.901 l -1.382,0.814 c 0.163,0.44 0.246,0.906 0.246,1.376 0,0.472 -0.083,0.94 -0.246,1.384 l 1.382,0.81 c 0.383,-0.437 0.887,-0.751 1.449,-0.901 0.767,-0.213 1.587,-0.102 2.27,0.307 l 0.045,0.022 v 0 c 0.669,0.411 1.153,1.066 1.349,1.826 0.204,0.778 0.096,1.606 -0.3,2.306 l -0.025,0.05 v 0 0 c -0.396,0.668 -1.035,1.156 -1.783,1.364 -0.766,0.209 -1.584,0.101 -2.27,-0.3 v -0.006 c -1.227,-0.732 -1.787,-2.216 -1.348,-3.577 l -1.385,-0.813 c -0.079,0.1 -0.164,0.192 -0.253,0.282 v 0 c -0.561,0.577 -1.292,0.959 -2.086,1.09 v 1.633 c 0.568,0.123 1.088,0.41 1.494,0.826 v 0 0 c 1.169,1.194 1.169,3.107 0,4.301 v 0.008 0 c -1.14,1.168 -3.01,1.19 -4.177,0.05 -0.017,-0.016 -0.033,-0.033 -0.05,-0.05 v 0 -0.008 c -1.172,-1.194 -1.172,-3.107 0,-4.301 v 0 0 c 0.405,-0.416 0.923,-0.703 1.491,-0.826 v -1.629 c -0.793,-0.131 -1.523,-0.513 -2.083,-1.09 v 0 c -1.499,-1.531 -1.499,-3.979 0,-5.51 v 0 c 0.56,-0.579 1.289,-0.965 2.083,-1.1 v -1.621 c -0.567,-0.127 -1.085,-0.414 -1.491,-0.829 v 0 0 c -1.17,-1.195 -1.17,-3.105 0,-4.301 v 0 0 c 1.133,-1.168 2.999,-1.195 4.167,-0.06 0.02,0.019 0.04,0.04 0.06,0.06 v 0 0 c 1.168,1.196 1.168,3.106 0,4.301 v 0 c -0.408,0.415 -0.927,0.702 -1.494,0.829 z m 7.775,-1.082 -0.011,-0.017 c -0.183,-0.314 -0.482,-0.544 -0.832,-0.64 -0.356,-0.099 -0.737,-0.048 -1.056,0.14 v 0 c -0.322,0.188 -0.556,0.497 -0.649,0.858 -0.095,0.362 -0.044,0.747 0.14,1.073 l 0.006,0.008 c 0.182,0.318 0.484,0.551 0.838,0.645 0.355,0.101 0.735,0.051 1.051,-0.138 l 0.018,-0.009 c 0.312,-0.19 0.537,-0.494 0.628,-0.847 0.097,-0.362 0.049,-0.747 -0.135,-1.073 v 0"/><path id="path2942" fill="#231f20" fill-rule="evenodd" d="m 469,351 h 1.645 v 4.324 l 2.37,-2.259 h 1.975 l -2.862,2.617 L 475,359 h -1.883 l -2.47,-2.964 V 359 H 469 v -8"/><path id="path2944" fill="#231f20" fill-rule="evenodd" d="m 476.699,356.528 c -0.019,1.083 0.815,1.977 1.865,1.998 0.014,0 0.028,0 0.043,0 0.711,0.026 1.368,-0.39 1.668,-1.054 0.141,-0.287 0.224,-0.602 0.24,-0.923 0.012,-0.318 -0.047,-0.635 -0.172,-0.926 -0.295,-0.72 -0.986,-1.18 -1.744,-1.16 -1.052,0.003 -1.902,0.887 -1.898,1.972 0,0.026 10e-4,0.051 0.002,0.077 z m 5.301,3.263 h -1.497 v -0.944 c -0.445,0.755 -1.257,1.197 -2.113,1.15 -1.872,0 -3.39,-1.566 -3.39,-3.497 0,-1.932 1.518,-3.497 3.39,-3.497 0.858,-0.043 1.67,0.403 2.113,1.163 v -0.96 H 482 v 6.583"/><path id="path2946" fill="#231f20" fill-rule="evenodd" d="M 483.949,353.653 H 483 v -1.206 h 0.949 v -0.369 c 0,-1.948 1.735,-2.065 3.051,-2.078 v 1.203 c -0.463,0 -1.217,0 -1.217,0.922 v 0.322 H 487 v 1.206 h -1.217 V 359 h -1.834 v -5.347"/><path id="path2948" fill="#231f20" fill-rule="evenodd" d="m 488.004,351 h 1.369 v 4.324 l 1.975,-2.259 h 1.643 l -2.385,2.617 L 493,359 h -1.571 l -2.059,-2.964 V 359 H 488 v -8"/><path id="path2950" fill="#231f20" fill-rule="evenodd" d="m 494.944,356.531 c -0.023,1.082 0.93,1.977 2.13,1.998 0.016,0 0.033,0 0.049,0 0.812,0.025 1.562,-0.39 1.905,-1.054 0.164,-0.287 0.258,-0.602 0.275,-0.923 0.014,-0.318 -0.054,-0.635 -0.196,-0.926 -0.337,-0.72 -1.127,-1.181 -1.992,-1.16 -1.202,0.004 -2.174,0.887 -2.17,1.972 0,0.026 0.002,0.051 0.003,0.077 z m 6.056,3.263 h -1.71 v -0.945 c -0.51,0.756 -1.438,1.196 -2.417,1.147 -2.139,0 -3.873,-1.565 -3.873,-3.496 0,-1.932 1.734,-3.497 3.873,-3.497 0.981,-0.043 1.908,0.403 2.415,1.163 v -0.96 h 1.71 v 6.583"/><path id="path2952" fill="#fff" fill-rule="evenodd" d="m 548,308 h 152 v 21 H 548 Z"/><path id="path2954" fill="#b3b2b3" fill-opacity=".4" fill-rule="evenodd" d="m 548,308 h 152 v 21 H 548 Z"/><text id="text2956" font-family="Calibri, Calibri_MSFontService, sans-serif" font-size="13" font-weight="400" transform="translate(633.148,322)">Partition 5</text><path id="path2958" fill="none" fill-rule="evenodd" stroke="#fff" stroke-miterlimit="8" d="m 548.5,308.5 h 152 v 21 h -152 z"/><path id="path2960" fill="#005ca1" fill-rule="evenodd" d="m 557,312 h -2 v 13 h 2 z"/><path id="path2962" fill="#005ca1" fill-rule="evenodd" d="m 561,312 h -3 v 13 h 3 z"/><path id="path2964" fill="#005ca1" fill-rule="evenodd" d="m 565,312 h -3 v 13 h 3 z"/><path id="path2966" fill="#005ca1" fill-rule="evenodd" d="m 569,312 h -3 v 13 h 3 z"/><path id="path2968" fill="#005ca1" fill-rule="evenodd" d="M 572.996,312 H 570 v 13 h 3"/><path id="path2970" fill="#fff" fill-rule="evenodd" d="m 548,334 h 152 v 21 H 548 Z"/><path id="path2972" fill="#b3b2b3" fill-opacity=".4" fill-rule="evenodd" d="m 548,334 h 152 v 21 H 548 Z"/><text id="text2974" font-family="Calibri, Calibri_MSFontService, sans-serif" font-size="13" font-weight="400" transform="translate(633.148,348)">Partition 6</text><path id="path2976" fill="none" fill-rule="evenodd" stroke="#fff" stroke-miterlimit="8" d="m 548.5,334.5 h 152 v 21 h -152 z"/><path id="path2978" fill="#005ca1" fill-rule="evenodd" d="m 557,338 h -2 v 13 h 2 z"/><path id="path2980" fill="#005ca1" fill-rule="evenodd" d="m 561,338 h -3 v 13 h 3 z"/><path id="path2982" fill="#005ca1" fill-rule="evenodd" d="m 565,338 h -3 v 13 h 3 z"/><path id="path2984" fill="#005ca1" fill-rule="evenodd" d="m 569,338 h -3 v 13 h 3 z"/><path id="path2986" fill="#005ca1" fill-rule="evenodd" d="m 573,338 h -3 v 13 h 3 z"/><path id="path2988" fill="#005ca1" fill-rule="evenodd" d="m 577,338 h -3 v 13 h 2.999 z"/><path id="path2990" fill="#005ca1" fill-rule="evenodd" d="m 581,338 h -3 v 13 h 3 z"/><path id="path2992" fill="#005ca1" fill-rule="evenodd" d="m 584,338 h -2 v 13 h 2 z"/><path id="path2994" fill="#005ca1" fill-rule="evenodd" d="m 588,338 h -2 v 13 h 2 z"/><path id="path2996" fill="#005ca1" fill-rule="evenodd" d="m 592,338 h -3 v 13 h 3 z"/><path id="path2998" fill="#fff" fill-rule="evenodd" d="m 548,360 h 152 v 21 H 548 Z"/><path id="path3000" fill="#b3b2b3" fill-opacity=".4" fill-rule="evenodd" d="m 548,360 h 152 v 21 H 548 Z"/><text id="text3002" font-family="Calibri, Calibri_MSFontService, sans-serif" font-size="13" font-weight="400" transform="translate(633.148,375)">Partition 7</text><path id="path3004" fill="none" fill-rule="evenodd" stroke="#fff" stroke-miterlimit="8" d="m 548.5,360.5 h 152 v 21 h -152 z"/><path id="path3006" fill="#005ca1" fill-rule="evenodd" d="m 557,364 h -2 v 13 h 2 z"/><path id="path3008" fill="#005ca1" fill-rule="evenodd" d="m 561,364 h -2 v 13 h 2 z"/><path id="path3010" fill="#005ca1" fill-rule="evenodd" d="m 565,364 h -3 v 13 h 3 z"/><path id="path3012" fill="#005ca1" fill-rule="evenodd" d="m 569,364 h -3 v 13 h 3 z"/><path id="path3014" fill="#005ca1" fill-rule="evenodd" d="m 573,364 h -3 v 13 h 3 z"/><path id="path3016" fill="#005ca1" fill-rule="evenodd" d="m 577,364 h -3 v 13 h 3 z"/><path id="path3018" fill="#005ca1" fill-rule="evenodd" d="m 581,364 h -3 v 13 h 3 z"/><path id="path3020" fill="#005ca1" fill-rule="evenodd" d="m 585,364 h -3 v 13 h 3 z"/><path id="path3022" fill="#fff" fill-rule="evenodd" d="m 548,386 h 152 v 21 H 548 Z"/><path id="path3024" fill="#b3b2b3" fill-opacity=".4" fill-rule="evenodd" d="m 548,386 h 152 v 21 H 548 Z"/><text id="text3026" font-family="Calibri, Calibri_MSFontService, sans-serif" font-size="13" font-weight="400" transform="translate(633.148,401)">Partition 8</text><path id="path3028" fill="none" fill-rule="evenodd" stroke="#fff" stroke-miterlimit="8" d="m 548.5,386.5 h 152 v 21 h -152 z"/><path id="path3030" fill="#005ca1" fill-rule="evenodd" d="m 557,391 h -2 v 12 h 2 z"/><path id="path3032" fill="#005ca1" fill-rule="evenodd" d="m 561,391 h -3 v 12 h 3 z"/><path id="path3034" fill="#005ca1" fill-rule="evenodd" d="m 565,391 h -3 v 12 h 3 z"/><path id="path3036" fill="#005ca1" fill-rule="evenodd" d="m 569,391 h -3 v 12 h 3 z"/><path id="path3038" fill="#005ca1" fill-rule="evenodd" d="M 572.996,391 H 570 v 12 h 3"/><path id="path3040" fill="#fff" fill-rule="evenodd" d="m 548,412 h 152 v 21 H 548 Z"/><path id="path3042" fill="#b3b2b3" fill-opacity=".4" fill-rule="evenodd" d="m 548,412 h 152 v 21 H 548 Z"/><text id="text3044" font-family="Calibri, Calibri_MSFontService, sans-serif" font-size="13" font-weight="400" transform="translate(633.148,427)">Partition 9</text><path id="path3046" fill="none" fill-rule="evenodd" stroke="#fff" stroke-miterlimit="8" d="m 548.5,412.5 h 152 v 21 h -152 z"/><path id="path3048" fill="#005ca1" fill-rule="evenodd" d="m 557,417 h -2 v 12 h 2 z"/><path id="path3050" fill="#005ca1" fill-rule="evenodd" d="m 561,417 h -3 v 12 h 3 z"/><path id="path3052" fill="#005ca1" fill-rule="evenodd" d="m 565,417 h -3 v 12 h 3 z"/><path id="path3054" fill="#005ca1" fill-rule="evenodd" d="m 569,417 h -3 v 12 h 3 z"/><path id="path3056" fill="#005ca1" fill-rule="evenodd" d="m 573,417 h -3 v 12 h 3 z"/><path id="path3058" fill="#005ca1" fill-rule="evenodd" d="m 577,417 h -3 v 12 h 2.999 z"/><path id="path3060" fill="#005ca1" fill-rule="evenodd" d="m 581,417 h -3 v 12 h 3 z"/><path id="path3062" fill="#005ca1" fill-rule="evenodd" d="m 584,417 h -2 v 12 h 2 z"/><path id="path3064" fill="#005ca1" fill-rule="evenodd" d="m 588,417 h -2 v 12 h 2 z"/><path id="path3066" fill="#005ca1" fill-rule="evenodd" d="m 592,417 h -3 v 12 h 3 z"/><path id="path3068" fill="#fff" fill-rule="evenodd" d="m 548,438 h 152 v 22 H 548 Z"/><path id="path3070" fill="#b3b2b3" fill-opacity=".4" fill-rule="evenodd" d="m 548,438 h 152 v 22 H 548 Z"/><text id="text3072" font-family="Calibri, Calibri_MSFontService, sans-serif" font-size="13" font-weight="400" transform="translate(626.315,453)">Partition 10</text><path id="path3074" fill="none" fill-rule="evenodd" stroke="#fff" stroke-miterlimit="8" d="m 548.5,438.5 h 152 v 22 h -152 z"/><path id="path3076" fill="#005ca1" fill-rule="evenodd" d="m 557,443 h -2 v 12 h 2 z"/><path id="path3078" fill="#005ca1" fill-rule="evenodd" d="m 561,443 h -3 v 12 h 3 z"/><path id="path3080" fill="#005ca1" fill-rule="evenodd" d="m 565,443 h -3 v 12 h 3 z"/><path id="path3082" fill="#005ca1" fill-rule="evenodd" d="m 569,443 h -3 v 12 h 3 z"/><path id="path3084" fill="#005ca1" fill-rule="evenodd" d="M 572.996,443 H 570 v 12 h 3"/><text id="text3090" font-family="Calibri, Calibri_MSFontService, sans-serif" font-size="13" font-weight="400" transform="translate(332.187,278)">Event Producers<tspan id="tspan3086" x="127.981" y="25" font-size="13">HTTPs</tspan><tspan id="tspan3088" x="127.981" y="41" font-size="13">AMQP</tspan></text><path id="path3092" fill="#3c3c41" fill-rule="evenodd" d="m 707,297 -7,-4.001 7,-3.999 z"/><path id="path3094" fill="none" fill-rule="evenodd" stroke="#3c3c41" stroke-miterlimit="8" d="m 743.5,318.5 h -37"/><path id="path3096" fill="#3c3c41" fill-rule="evenodd" d="m 707,315 -7,3.5 7,3.5 z"/><path id="path3098" fill="none" fill-rule="evenodd" stroke="#3c3c41" stroke-miterlimit="8" d="m 743.5,344.5 h -38"/><path id="path3100" fill="#3c3c41" fill-rule="evenodd" d="m 706,340 -6,3.999 6,4.001 z"/><path id="path3102" fill="none" fill-rule="evenodd" stroke="#3c3c41" stroke-miterlimit="8" d="m 744.5,293.5 h -39"/><path id="path3104" fill="#3c3c41" fill-rule="evenodd" d="m 707,372 -7,-4.001 7,-3.999 z"/><path id="path3106" fill="none" fill-rule="evenodd" stroke="#3c3c41" stroke-miterlimit="8" d="m 743.5,393.5 h -37"/><path id="path3108" fill="#3c3c41" fill-rule="evenodd" d="m 707,389 -7,3.999 7,4.001 z"/><path id="path3110" fill="none" fill-rule="evenodd" stroke="#3c3c41" stroke-miterlimit="8" d="m 743.5,423.5 h -38"/><path id="path3112" fill="#3c3c41" fill-rule="evenodd" d="m 707,419 -7,3.999 7,4.001 z"/><path id="path3114" fill="none" fill-rule="evenodd" stroke="#3c3c41" stroke-miterlimit="8" d="m 744.5,368.5 h -39"/><text id="text3122" font-family="Calibri, Calibri_MSFontService, sans-serif" font-size="13" font-weight="400" transform="translate(749.079,151)">Consumer <tspan id="tspan3116" x="5.753" y="16" font-size="13">Group 1</tspan><tspan id="tspan3118" x="-151.539" y="32" font-size="13">Azure Event Hubs</tspan><tspan id="tspan3120" x="148.833" y="184" font-size="13">Function_1</tspan></text><path id="path3124" fill="#3c3c41" fill-rule="evenodd" d="m 811,337 6,-3.5 -6,-3.5 z"/><path id="path3126" fill="none" fill-rule="evenodd" stroke="#000" stroke-miterlimit="8" d="m 743.5,333.5 h 67.722"/><text id="text3128" font-family="Calibri, Calibri_MSFontService, sans-serif" font-size="13" font-weight="400" transform="translate(823.921,187)">Function App</text><g id="g3142" clip-path="url(#clip1-5)"><g id="g3140" clip-path="url(#clip2-5)"><g id="g3138" clip-path="url(#clip3-7)"><path id="path3130" fill="#000" fill-opacity=".1" d="m 814.577,185.949 h -2.81 c -0.082,0.003 -0.152,-0.06 -0.157,-0.142 0,-0.02 0.006,-0.04 0.015,-0.058 l 3.368,-6.666 c 0.029,-0.053 0.086,-0.085 0.146,-0.083 h 3.323 c 0.082,-0.003 0.152,0.06 0.157,0.142 0,0.028 -0.01,0.056 -0.027,0.078 l -3.956,5.215 h 3.858 c 0.082,-0.003 0.151,0.06 0.156,0.142 10e-4,0.037 -0.013,0.074 -0.04,0.1 l -6.41,6.665 c -0.06,0.036 -0.488,0.391 -0.278,-0.148 v 0 z"/><path id="path3132" fill="#50e6ff" d="m 812.294,186.763 c 0.083,0.081 0.084,0.214 0.003,0.297 -10e-4,0.001 -0.002,0.002 -0.003,0.003 v 0 l -0.459,0.46 c -0.081,0.081 -0.213,0.082 -0.294,0.001 0,0 -0.001,-0.001 -0.001,-0.001 l -3.409,-3.4 c -0.162,-0.163 -0.162,-0.427 0,-0.59 l 0.461,-0.463 z m 9.578,-3.229 -0.458,-0.46 -3.7,3.694 c -0.081,0.082 -0.081,0.213 0,0.295 l 0.459,0.46 c 0.082,0.081 0.213,0.081 0.295,0 l 3.409,-3.4 c 0.161,-0.164 0.159,-0.428 -0.005,-0.589 z m -0.46,-0.461 z"/><path id="path3134" fill="#1490df" d="m 812.224,180.631 c 0.081,0.082 0.081,0.213 0,0.295 l -3.639,3.65 -0.462,-0.461 c -0.163,-0.162 -0.164,-0.425 -0.002,-0.588 10e-4,-10e-4 10e-4,-10e-4 0.002,-0.002 l 3.344,-3.355 c 0.082,-0.081 0.213,-0.081 0.295,0 z m 9.654,2.892 -3.345,-3.355 c -0.08,-0.083 -0.213,-0.085 -0.296,-0.004 -10e-4,0.001 -0.003,0.002 -0.004,0.004 l -0.462,0.46 c -0.083,0.08 -0.085,0.213 -0.005,0.296 0.002,0.001 0.003,0.003 0.005,0.004 l 3.639,3.649 0.462,-0.46 v 0 c 0.166,-0.159 0.171,-0.423 0.012,-0.588 -0.002,-0.002 -0.004,-0.004 -0.006,-0.006 z"/><path id="path3136" fill="#fea11b" d="m 814.577,184.551 h -2.81 c -0.082,0.003 -0.152,-0.06 -0.157,-0.142 0,-0.021 0.006,-0.041 0.015,-0.059 l 3.368,-6.665 c 0.029,-0.053 0.085,-0.086 0.146,-0.085 h 3.323 c 0.082,-0.003 0.151,0.059 0.157,0.141 0,0.029 -0.01,0.056 -0.027,0.079 l -3.956,5.217 h 3.858 c 0.082,-0.004 0.152,0.059 0.156,0.141 10e-4,0.037 -0.014,0.074 -0.04,0.1 l -6.41,6.665 c -0.06,0.036 -0.488,0.392 -0.278,-0.148 v 0 z"/></g></g></g></g></g></svg>