<svg xmlns="http://www.w3.org/2000/svg" xmlns:svg="http://www.w3.org/2000/svg" id="svg3858" width="567" height="318" version="1.1" viewBox="0 0 150.019 84.138"><defs id="defs3855"><clipPath id="clip0"><rect id="rect3442" width="358" height="203" x="389" y="107"/></clipPath></defs><g id="layer1"><rect style="fill:#fff;stroke-width:.264583" id="rect4323" width="150.019" height="84.137" x="0" y="0"/></g><g id="layer2"><g id="g3507" clip-path="url(#clip0)" transform="matrix(0.4445,0,0,0.4445,-170.79382,-49.678168)"><path id="path3447" fill="#fff" fill-rule="evenodd" d="m 390,180 h 214 v 56 H 390 Z"/><path id="path3449" fill="#0078d4" fill-opacity=".349" fill-rule="evenodd" d="m 390,180 h 214 v 56 H 390 Z"/><path id="path3451" fill="#fff" fill-rule="evenodd" d="m 604.452,180.133 v 55.734 H 389.548 V 180.133 H 604.452 M 605,180 H 389 v 56 h 216 z"/><path id="path3453" fill="#fff" fill-rule="evenodd" d="m 397,187 h 199 v 39 H 397 Z"/><path id="path3455" fill="#b3b2b3" fill-opacity=".4" fill-rule="evenodd" d="m 397,187 h 199 v 39 H 397 Z"/><path id="path3457" fill="none" fill-rule="evenodd" stroke="#fff" stroke-miterlimit="8" d="m 397.5,187.5 h 199 v 39 h -199 z"/><path id="path3459" fill="#005ca1" fill-rule="evenodd" d="m 410,193 h -7 v 26 h 7 z"/><path id="path3461" fill="#005ca1" fill-rule="evenodd" d="m 421,193 h -7 v 26 h 7 z"/><path id="path3463" fill="#005ca1" fill-rule="evenodd" d="m 431,193 h -7 v 26 h 7 z"/><path id="path3465" fill="#005ca1" fill-rule="evenodd" d="m 442,193 h -7 v 26 h 7 z"/><path id="path3467" fill="#005ca1" fill-rule="evenodd" d="m 452,193 h -7 v 26 h 7 z"/><path id="path3469" fill="#005ca1" fill-rule="evenodd" d="m 463,193 h -7 v 26 h 7 z"/><path id="path3471" fill="#005ca1" fill-rule="evenodd" d="m 474,193 h -7 v 26 h 7 z"/><path id="path3473" fill="#005ca1" fill-rule="evenodd" d="m 484,193 h -7 v 26 h 7 z"/><path id="path3475" fill="#005ca1" fill-rule="evenodd" d="m 495,193 h -7 v 26 h 7 z"/><path id="path3477" fill="#005ca1" fill-rule="evenodd" d="m 505,193 h -7 v 26 h 7 z"/><path id="path3479" fill="#005ca1" fill-rule="evenodd" d="m 516,193 h -7 v 26 h 7 z"/><path id="path3481" fill="#005ca1" fill-rule="evenodd" d="m 527,193 h -7 v 26 h 7 z"/><path id="path3483" fill="#005ca1" fill-rule="evenodd" d="m 537,193 h -7 v 26 h 7 z"/><path id="path3485" fill="#005ca1" fill-rule="evenodd" d="m 548,193 h -7 v 26 h 7 z"/><path id="path3487" fill="#005ca1" fill-rule="evenodd" d="m 558,193 h -7 v 26 h 7 z"/><path id="path3489" fill="#005ca1" fill-rule="evenodd" d="m 569,193 h -7 v 26 h 7 z"/><path id="path3491" fill="#005ca1" fill-rule="evenodd" d="m 580,193 h -7 v 26 h 7 z"/><path id="path3493" d="M 0.333333,-7.80218e-7 0.333423,38.187 H -0.333244 L -0.333333,7.80218e-7 Z M 4.00009,36.8536 1.04987e-4,44.8536 -3.99991,36.8537 Z" transform="matrix(1,0,0,-1,470.5,283.354)"/><text id="text3495" font-family="Calibri, Calibri_MSFontService, sans-serif" font-size="13" font-weight="400" transform="translate(437.074,298)">Consumer 1</text><path id="path3497" d="M 0.333324,-0.00254566 0.634327,39.4103 -0.0323206,39.4153 -0.333324,0.00254566 Z M 4.2907,38.049 0.351916,46.0793 -3.70906,38.11 Z" transform="matrix(-1,0,0,1,523.852,131.5)"/><text id="text3499" font-family="Calibri, Calibri_MSFontService, sans-serif" font-size="13" font-weight="400" transform="translate(491.295,123)">Consumer 2</text><path id="path3501" d="m 663.875,209.986 -48.717,-1.014 0.014,-0.666 48.717,1.014 z m -47.46,2.68 -7.915,-4.166 8.082,-3.833 z"/><text id="text3503" font-family="Calibri, Calibri_MSFontService, sans-serif" font-size="13" font-weight="400" transform="translate(668.437,213)">Producer</text><path id="path3505" fill="#fff" fill-rule="evenodd" stroke="#000" stroke-dasharray="1 1" stroke-miterlimit="8" d="m 590.5,193.5 h -6 v 26 h 6 z"/></g></g></svg>