<svg xmlns="http://www.w3.org/2000/svg" xmlns:ev="http://www.w3.org/2001/xml-events" xmlns:xlink="http://www.w3.org/1999/xlink" width="701.059" height="118.845" class="st6" color-interpolation-filters="sRGB" viewBox="0 0 525.794 89.134" xml:space="preserve"><style type="text/css">.st1{stroke-linecap:round;stroke-linejoin:round;stroke-width:1}.st1,.st2{stroke:#000}.st2,.st3{stroke-linecap:round;stroke-linejoin:round}.st2,.st3{fill:#000;stroke-width:.75}.st3{fill:#fff;stroke:#d8d8d8}.st4{fill:#000;font-family:Segoe UI;font-size:.666664em}.st5{font-size:1em}.st6{fill:none;fill-rule:evenodd;font-size:12px;overflow:visible;stroke-linecap:square;stroke-miterlimit:3}</style><g><title>Page-1</title><g id="shape1457-1" transform="translate(34.5221,-50.384)"><title>Sheet.1457</title><path d="M0 89.13 C49.3 89.13 95.39 89.13 140.69 89.13 C242.71 89.13 340.77 89.13 459 89.13" class="st1"/></g><g id="shape1458-4" transform="translate(21.0221,-40.384)"><title>Sheet.1458</title><ellipse cx="11.25" cy="78.447" class="st2" rx="11.25" ry="10.688"/></g><g id="shape1459-6" transform="translate(133.522,-40.384)"><title>Sheet.1459</title><ellipse cx="11.25" cy="78.447" class="st2" rx="11.25" ry="10.688"/></g><g id="shape1460-8" transform="translate(246.022,-40.384)"><title>Sheet.1460</title><ellipse cx="11.25" cy="78.447" class="st2" rx="11.25" ry="10.688"/></g><g id="shape1461-10" transform="translate(358.522,-40.384)"><title>Sheet.1461</title><ellipse cx="11.25" cy="78.447" class="st2" rx="11.25" ry="10.688"/></g><g id="shape1462-12" transform="translate(482.272,-40.384)"><title>Sheet.1462</title><ellipse cx="11.25" cy="78.447" class="st2" rx="11.25" ry="10.688"/></g><g id="shape1463-14" transform="translate(0.375,-0.375)"><title>Sheet.1463</title><desc>Monthly 6 TB</desc><rect width="63.794" height="33.009" x="0" y="56.125" class="st3"/><text x="17.17" y="70.23" class="st4">Monthly<tspan x="24.26" class="st5" dy="1.2em">6 TB</tspan></text></g><g id="shape1464-18" transform="translate(112.875,-0.375)"><title>Sheet.1464</title><desc>Quarterly 18 TB</desc><rect width="63.794" height="33.009" x="0" y="56.125" class="st3"/><text x="15.45" y="70.23" class="st4">Quarterly<tspan x="22.1" class="st5" dy="1.2em">18 TB</tspan></text></g><g id="shape1465-22" transform="translate(225.375,-0.375)"><title>Sheet.1465</title><desc>Yearly 72 TB</desc><rect width="63.794" height="33.009" x="0" y="56.125" class="st3"/><text x="21.26" y="70.23" class="st4">Yearly<tspan x="22.1" class="st5" dy="1.2em">72 TB</tspan></text></g><g id="shape1466-26" transform="translate(337.875,-0.375)"><title>Sheet.1466</title><desc>2 Years 144 TB</desc><rect width="63.794" height="33.009" x="0" y="56.125" class="st3"/><text x="19.22" y="70.23" class="st4">2 Years<tspan x="19.94" class="st5" dy="1.2em">144 TB</tspan></text></g><g id="shape1467-30" transform="translate(461.625,-0.375)"><title>Sheet.1467</title><desc>3 Years 216 TB</desc><rect width="63.794" height="33.009" x="0" y="56.125" class="st3"/><text x="19.22" y="70.23" class="st4">3 Years<tspan x="19.94" class="st5" dy="1.2em">216 TB</tspan></text></g><g id="shape1468-34" transform="translate(206.493,-68.759)"><title>Sheet.1468</title><desc>Data Growth</desc><rect width="101.558" height="20" x="0" y="69.134" class="st3"/><text x="28.47" y="81.53" class="st4">Data Growth</text></g></g></svg>