<svg xmlns="http://www.w3.org/2000/svg" xmlns:ev="http://www.w3.org/2001/xml-events" xmlns:xlink="http://www.w3.org/1999/xlink" width="936" height="2in" class="st12" color-interpolation-filters="sRGB" viewBox="0 0 702 144" xml:space="preserve"><style type="text/css">.st1{fill:#fff;stroke:none;stroke-width:.25}.st2{stroke:#000;stroke-width:.75}.st2,.st3{fill:none}.st4{stroke:#000;stroke-linecap:butt;stroke-width:1.25}.st5{fill:#000;font-family:Segoe UI;font-size:1.00001em}.st6{stroke:#000;stroke-linecap:round;stroke-linejoin:round;stroke-width:1.5}.st7{fill:#fff;stroke:none;stroke-width:.75}.st8,.st9{stroke:#000}.st8{marker-end:url(#mrkr4-23);stroke-linecap:round;stroke-linejoin:round;stroke-width:1.5}.st9{fill:#000;fill-opacity:1;stroke-opacity:1;stroke-width:.37313432835821}.st10{fill:#000;font-family:Segoe UI;font-size:1.00001em;font-style:italic}.st11{marker-start:url(#mrkr4-42);stroke:#000;stroke-linecap:round;stroke-linejoin:round;stroke-width:1.5}.st12{fill:none;fill-rule:evenodd;font-size:12px;overflow:visible;stroke-linecap:square;stroke-miterlimit:3}</style><defs id="Markers"><g id="lend4"><path d="M 2 1 L 0 0 L 2 -1 L 2 1" style="stroke:none"/></g><marker id="mrkr4-23" class="st9" markerUnits="strokeWidth" orient="auto" overflow="visible" refX="-5.36"><use transform="scale(-2.68,-2.68)" xlink:href="#lend4"/></marker><marker id="mrkr4-42" class="st9" markerUnits="strokeWidth" orient="auto" overflow="visible" refX="5.12"><use transform="scale(2.68)" xlink:href="#lend4"/></marker></defs><g><title>VBackground-1</title><g id="shape1000-1"><title>Solid.1000</title><rect width="702" height="144" x="0" y="0" class="st1"/></g></g><g><title>application</title><g id="shape1000-3" transform="translate(97.3125,-82.125)"><title>Sheet.1000</title><rect width="125.438" height="36" x="0" y="108" class="st2"/></g><g id="shape1001-5" transform="translate(313.312,-82.125)"><title>Sheet.1001</title><rect width="125.438" height="36" x="0" y="108" class="st2"/></g><g id="shape1008-7" transform="translate(528.75,-75.375)"><title>Datastore.1008</title><desc>State</desc><path d="M0 102.37 L0 136.12 A31.5 7.875 -180 1 0 63 136.12 L63 102.37 A31.5 7.875 -180 0 0 0 102.37 Z" class="st3"/><path d="M0 102.37 L0 136.12 A31.5 7.875 -180 1 0 63 136.12 L63 102.37 A31.5 7.875 -180 0 0 0 102.37" class="st4"/><path d="M0 102.37 A31.5 7.875 -180 1 0 63 102.37" class="st4"/><text x="18.06" y="126.79" class="st5">State</text></g><g id="shape1017-12" transform="translate(614.25,243) rotate(180)"><title>Bracket.1017</title><path d="M0 144 A5.09365 5.09365 0 0 1 4.5 139.5 L50.46 139.5 A5.09365 5.09365 -180 0 0 54.96 135 A5.09365 5.09365 -180 0 0 59.46 139.5 L103.5 139.5 A5.09365 5.09365 0 0 1 108 144" class="st6"/></g><g id="shape1019-15" transform="translate(524.531,0)"><title>Sheet.1019</title><desc>Data tier</desc><rect width="71.438" height="27" x="0" y="117" class="st7"/><text x="13.02" y="134.1" class="st5">Data tier</text></g><g id="shape1020-18" transform="translate(621,-99)"><title>Sheet.1020</title><path d="M0 144 L63.96 144" class="st8"/></g><g id="shape1021-24" transform="translate(621.281,-63)"><title>Sheet.1021</title><desc>Responses</desc><rect width="71.438" height="27" x="0" y="117" class="st7"/><text x="9.44" y="134.1" class="st10">Responses</text></g><g id="shape1022-27" transform="translate(450,-99)"><title>Sheet.1022</title><path d="M0 144 L63.96 144" class="st8"/></g><g id="shape1023-32" transform="translate(234,-108)"><title>Sheet.1023</title><path d="M0 144 L63.96 144" class="st8"/></g><g id="shape1024-37" transform="translate(234,-90)"><title>Sheet.1024</title><path d="M7.68 144 L8.04 144 L72 144" class="st11"/></g><g id="shape1025-43" transform="translate(9,-99)"><title>Sheet.1025</title><path d="M0 144 L63.96 144" class="st8"/></g><g id="shape1026-48" transform="translate(9.28125,-67.5)"><title>Sheet.1026</title><desc>Traffic</desc><rect width="71.438" height="27" x="0" y="117" class="st7"/><text x="19.47" y="134.1" class="st10">Traffic</text></g><g id="shape1027-51" transform="translate(436.5,243) rotate(180)"><title>Bracket.1027</title><path d="M0 144 A5.09365 5.09365 0 0 1 4.5 139.5 L167.26 139.5 A5.09365 5.09365 -180 0 0 171.76 135 A5.09365 5.09365 -180 0 0 176.26 139.5 L333 139.5 A5.09365 5.09365 0 0 1 337.5 144" class="st6"/></g><g id="shape1028-54" transform="translate(213.75,0)"><title>Sheet.1028</title><desc>Business logic tier</desc><rect width="108" height="27" x="0" y="117" class="st7"/><text x="6.82" y="134.1" class="st5">Business logic tier</text></g></g></svg>