<svg xmlns="http://www.w3.org/2000/svg" xmlns:ev="http://www.w3.org/2001/xml-events" xmlns:xlink="http://www.w3.org/1999/xlink" width="1008" height="648" class="st13" color-interpolation-filters="sRGB" viewBox="0 0 756 486" xml:space="preserve"><style type="text/css">.st1{fill:#fff;stroke:none;stroke-width:.25}.st2{fill:none;stroke:#000;stroke-width:.75}.st3{fill:#000;font-family:Segoe UI;font-size:1.00001em}.st4{fill:none}.st5,.st6,.st7{stroke:#000;stroke-linecap:butt;stroke-width:1.25}.st6,.st7{stroke-linecap:round;stroke-linejoin:round;stroke-width:1.5}.st7{stroke-dasharray:4.5,4.5}.st8{fill:#fff;stroke:none;stroke-width:.75}.st9{fill:#000;font-family:Segoe UI;font-size:1.00001em;font-weight:700}.st10{marker-end:url(#mrkr4-73);stroke:#000;stroke-linecap:round;stroke-linejoin:round;stroke-width:1.5}.st11{fill:#000;fill-opacity:1;stroke:#000;stroke-opacity:1;stroke-width:.37313432835821}.st12{fill:#000;stroke:none;stroke-linecap:butt;stroke-width:.298828}.st13{fill:none;fill-rule:evenodd;font-size:12px;overflow:visible;stroke-linecap:square;stroke-miterlimit:3}</style><defs id="Markers"><g id="lend4"><path d="M 2 1 L 0 0 L 2 -1 L 2 1" style="stroke:none"/></g><marker id="mrkr4-73" class="st11" markerUnits="strokeWidth" orient="auto" overflow="visible" refX="-5.36"><use transform="scale(-2.68,-2.68)" xlink:href="#lend4"/></marker></defs><g><title>VBackground-1</title><g id="shape1000-1"><title>Solid.1000</title><rect width="756" height="486" x="0" y="0" class="st1"/></g></g><g><title>replicas</title><g id="shape1000-3" transform="translate(193.781,-421.875)"><title>Sheet.1000</title><desc>Component 1</desc><rect width="125.438" height="36" x="0" y="450" class="st2"/><text x="26.44" y="471.6" class="st3">Component 1</text></g><g id="shape1001-6" transform="translate(409.781,-421.875)"><title>Sheet.1001</title><desc>Component 2</desc><rect width="125.438" height="36" x="0" y="450" class="st2"/><text x="26.44" y="471.6" class="st3">Component 2</text></g><g id="shape1002-9" transform="translate(202.781,-312.75)"><title>Sheet.1002</title><desc>Replica 1</desc><rect width="107.438" height="27" x="0" y="459" class="st2"/><text x="29.86" y="476.1" class="st3">Replica 1</text></g><g id="shape1003-12" transform="translate(202.781,-240.75)"><title>Sheet.1003</title><desc>Replica 2</desc><rect width="107.438" height="27" x="0" y="459" class="st2"/><text x="29.86" y="476.1" class="st3">Replica 2</text></g><g id="shape1004-15" transform="translate(418.781,-312.75)"><title>Sheet.1004</title><desc>Replica 1</desc><rect width="107.438" height="27" x="0" y="459" class="st2"/><text x="29.86" y="476.1" class="st3">Replica 1</text></g><g id="shape1005-18" transform="translate(418.781,-240.75)"><title>Sheet.1005</title><desc>Replica 2</desc><rect width="107.438" height="27" x="0" y="459" class="st2"/><text x="29.86" y="476.1" class="st3">Replica 2</text></g><g id="shape1006-21" transform="translate(418.781,-168.75)"><title>Sheet.1006</title><desc>Replica 3</desc><rect width="107.438" height="27" x="0" y="459" class="st2"/><text x="29.86" y="476.1" class="st3">Replica 3</text></g><g id="shape1008-24" transform="translate(643.5,-415.125)"><title>Datastore.1008</title><desc>Data</desc><path d="M0 444.37 L0 478.12 A31.5 7.875 -180 1 0 63 478.12 L63 444.37 A31.5 7.875 -180 0 0 0 444.37 Z" class="st4"/><path d="M0 444.37 L0 478.12 A31.5 7.875 -180 1 0 63 478.12 L63 444.37 A31.5 7.875 -180 0 0 0 444.37" class="st5"/><path d="M0 444.37 A31.5 7.875 -180 1 0 63 444.37" class="st5"/><text x="19.15" y="468.79" class="st3">Data</text></g><g id="shape1009-29" transform="translate(643.5,-274.5)"><title>Datastore.1009</title><desc>Replica 1</desc><path d="M0 444.37 L0 478.12 A31.5 7.875 -180 1 0 63 478.12 L63 444.37 A31.5 7.875 -180 0 0 0 444.37 Z" class="st4"/><path d="M0 444.37 L0 478.12 A31.5 7.875 -180 1 0 63 478.12 L63 444.37 A31.5 7.875 -180 0 0 0 444.37" class="st5"/><path d="M0 444.37 A31.5 7.875 -180 1 0 63 444.37" class="st5"/><text x="7.64" y="468.79" class="st3">Replica 1</text></g><g id="shape1010-34" transform="translate(643.5,-198)"><title>Datastore.1010</title><desc>Replica 2</desc><path d="M0 444.37 L0 478.12 A31.5 7.875 -180 1 0 63 478.12 L63 444.37 A31.5 7.875 -180 0 0 0 444.37 Z" class="st4"/><path d="M0 444.37 L0 478.12 A31.5 7.875 -180 1 0 63 478.12 L63 444.37 A31.5 7.875 -180 0 0 0 444.37" class="st5"/><path d="M0 444.37 A31.5 7.875 -180 1 0 63 444.37" class="st5"/><text x="7.64" y="468.79" class="st3">Replica 2</text></g><g id="shape1011-39" transform="translate(643.5,-121.5)"><title>Datastore.1011</title><desc>Replica 3</desc><path d="M0 444.37 L0 478.12 A31.5 7.875 -180 1 0 63 478.12 L63 444.37 A31.5 7.875 -180 0 0 0 444.37 Z" class="st4"/><path d="M0 444.37 L0 478.12 A31.5 7.875 -180 1 0 63 478.12 L63 444.37 A31.5 7.875 -180 0 0 0 444.37" class="st5"/><path d="M0 444.37 A31.5 7.875 -180 1 0 63 444.37" class="st5"/><text x="7.64" y="468.79" class="st3">Replica 3</text></g><g id="shape1012-44" transform="translate(85.2188,-384.75)"><title>Sheet.1012</title><path d="M0 486 L648 486" class="st6"/></g><g id="shape1013-47" transform="translate(852.469,11.25) rotate(90)"><title>Sheet.1013</title><path d="M0 486 L441 486" class="st7"/></g><g id="shape1014-50" transform="translate(1066.22,11.25) rotate(90)"><title>Sheet.1014</title><path d="M0 486 L441 486" class="st7"/></g><g id="shape1016-53" transform="translate(546.469,902.25) rotate(180)"><title>Bracket.1016</title><path d="M0 486 A5.09365 5.09365 0 0 1 4.5 481.5 L178.71 481.5 A5.09365 5.09365 -180 0 0 183.21 477 A5.09365 5.09365 -180 0 0 187.71 481.5 L355.5 481.5 A5.09365 5.09365 0 0 1 360 486" class="st6"/></g><g id="shape1017-56" transform="translate(729,902.25) rotate(180)"><title>Bracket.1017</title><path d="M0 486 A5.09365 5.09365 0 0 1 4.5 481.5 L50.46 481.5 A5.09365 5.09365 -180 0 0 54.96 477 A5.09365 5.09365 -180 0 0 59.46 481.5 L103.5 481.5 A5.09365 5.09365 0 0 1 108 486" class="st6"/></g><g id="shape1018-59" transform="translate(303.75,-6.75)"><title>Sheet.1018</title><desc>Business logic tier</desc><rect width="125.438" height="27" x="0" y="459" class="st8"/><text x="12.08" y="476.1" class="st9">Business logic tier</text></g><g id="shape1019-62" transform="translate(621.281,-24.75)"><title>Sheet.1019</title><desc>Data tier</desc><rect width="107.438" height="27" x="0" y="459" class="st8"/><text x="29.17" y="476.1" class="st9">Data tier</text></g><g id="shape1041-65" transform="translate(6.75,-209.25)"><title>Sheet.1041</title><desc>Load balancing</desc><rect width="115.05" height="27" x="0" y="459" class="st8"/><text x="14.75" y="476.1" class="st9">Load balancing</text></g><g id="shape1042-68" transform="translate(742.5,81) rotate(90)"><title>Sheet.1042</title><path d="M0 486 L53.83 486" class="st10"/></g><g id="shape1043-74" transform="translate(958.5,81) rotate(90)"><title>Sheet.1043</title><path d="M0 486 L53.83 486" class="st10"/></g><g id="shape1044-79" transform="translate(1161,81) rotate(90)"><title>Sheet.1044</title><path d="M0 486 L53.83 486" class="st10"/></g><g id="group1045-84" transform="translate(-272.832,294.75) rotate(-90)"><title>Sheet.1045</title><g id="shape1046-85"><title>Sheet.1046</title><path d="M40.09 457.63 L40.09 451.9 L53.2 451.9 L34.41 433.07 L34.41 475.08 L43.85 465.64 L47.92 469.67 L31.59 486 L15.21 469.67 L19.28 465.64 L28.68 475.04 L28.68 433.02 L9.8 451.9 L22.91 451.9 L22.91 457.63 L0 457.63 L0 434.72 L5.73 434.72 L5.73 447.83 L28.64 424.92 L28.64 411.32 C27.77 411.02 27 410.61 26.31 410.07 C25.62 409.53 25.01 408.91 24.48 408.19 C23.94 407.47 23.55 406.7 23.31 405.86 C23.07 405.03 22.94 404.15 22.91 403.22 C22.91 402.03 23.13 400.91 23.58 399.87 C24.03 398.82 24.64 397.91 25.41 397.14 C26.19 396.36 27.1 395.75 28.14 395.3 C29.19 394.86 30.31 394.63 31.5 394.63 C32.69 394.63 33.81 394.86 34.86 395.3 C35.9 395.75 36.81 396.36 37.59 397.14 C38.36 397.91 38.97 398.82 39.42 399.87 C39.87 400.91 40.09 402.03 40.09 403.22 C40.09 404.12 39.96 404.98 39.69 405.82 C39.42 406.65 39.03 407.44 38.52 408.19 C38.02 408.94 37.42 409.56 36.74 410.07 C36.05 410.58 35.26 410.99 34.36 411.32 L34.36 424.97 L57.27 447.83 L57.27 434.72 L63 434.72 L63 457.63 L40.09 457.63 Z" class="st12"/></g></g><g id="group1047-87" transform="translate(-73.8473,294.75) rotate(-90)"><title>Sheet.1047</title><g id="shape1048-88"><title>Sheet.1048</title><path d="M40.09 457.63 L40.09 451.9 L53.2 451.9 L34.41 433.07 L34.41 475.08 L43.85 465.64 L47.92 469.67 L31.59 486 L15.21 469.67 L19.28 465.64 L28.68 475.04 L28.68 433.02 L9.8 451.9 L22.91 451.9 L22.91 457.63 L0 457.63 L0 434.72 L5.73 434.72 L5.73 447.83 L28.64 424.92 L28.64 411.32 C27.77 411.02 27 410.61 26.31 410.07 C25.62 409.53 25.01 408.91 24.48 408.19 C23.94 407.47 23.55 406.7 23.31 405.86 C23.07 405.03 22.94 404.15 22.91 403.22 C22.91 402.03 23.13 400.91 23.58 399.87 C24.03 398.82 24.64 397.91 25.41 397.14 C26.19 396.36 27.1 395.75 28.14 395.3 C29.19 394.86 30.31 394.63 31.5 394.63 C32.69 394.63 33.81 394.86 34.86 395.3 C35.9 395.75 36.81 396.36 37.59 397.14 C38.36 397.91 38.97 398.82 39.42 399.87 C39.87 400.91 40.09 402.03 40.09 403.22 C40.09 404.12 39.96 404.98 39.69 405.82 C39.42 406.65 39.03 407.44 38.52 408.19 C38.02 408.94 37.42 409.56 36.74 410.07 C36.05 410.58 35.26 410.99 34.36 411.32 L34.36 424.97 L57.27 447.83 L57.27 434.72 L63 434.72 L63 457.63 L40.09 457.63 Z" class="st12"/></g></g><g id="group1049-90" transform="translate(138.215,294.75) rotate(-90)"><title>Sheet.1049</title><g id="shape1050-91"><title>Sheet.1050</title><path d="M40.09 457.63 L40.09 451.9 L53.2 451.9 L34.41 433.07 L34.41 475.08 L43.85 465.64 L47.92 469.67 L31.59 486 L15.21 469.67 L19.28 465.64 L28.68 475.04 L28.68 433.02 L9.8 451.9 L22.91 451.9 L22.91 457.63 L0 457.63 L0 434.72 L5.73 434.72 L5.73 447.83 L28.64 424.92 L28.64 411.32 C27.77 411.02 27 410.61 26.31 410.07 C25.62 409.53 25.01 408.91 24.48 408.19 C23.94 407.47 23.55 406.7 23.31 405.86 C23.07 405.03 22.94 404.15 22.91 403.22 C22.91 402.03 23.13 400.91 23.58 399.87 C24.03 398.82 24.64 397.91 25.41 397.14 C26.19 396.36 27.1 395.75 28.14 395.3 C29.19 394.86 30.31 394.63 31.5 394.63 C32.69 394.63 33.81 394.86 34.86 395.3 C35.9 395.75 36.81 396.36 37.59 397.14 C38.36 397.91 38.97 398.82 39.42 399.87 C39.87 400.91 40.09 402.03 40.09 403.22 C40.09 404.12 39.96 404.98 39.69 405.82 C39.42 406.65 39.03 407.44 38.52 408.19 C38.02 408.94 37.42 409.56 36.74 410.07 C36.05 410.58 35.26 410.99 34.36 411.32 L34.36 424.97 L57.27 447.83 L57.27 434.72 L63 434.72 L63 457.63 L40.09 457.63 Z" class="st12"/></g></g></g></svg>