<svg xmlns="http://www.w3.org/2000/svg" xmlns:ev="http://www.w3.org/2001/xml-events" xmlns:xlink="http://www.w3.org/1999/xlink" width="537.217" height="27.295" class="st4" color-interpolation-filters="sRGB" viewBox="0 0 402.912 20.471" xml:space="preserve"><style type="text/css">.st1{fill:#4672c4;stroke:#c8c8c8;stroke-width:.25}.st2{fill:#feffff;font-family:Segoe UI;font-size:.833336em}.st3{fill:#bdd0e9;stroke:none;stroke-linecap:butt;stroke-width:.75}.st4{fill:none;fill-rule:evenodd;font-size:12px;overflow:visible;stroke-linecap:square;stroke-miterlimit:3}</style><g><title>Page-1</title><g id="shape3-1" transform="translate(0.25,-0.957152)"><title>Process.3</title><desc>Cluster</desc><rect width="68.332" height="19.264" x="0" y="1.207" class="st1"/><text x="18.86" y="13.84" class="st2">Cluster</text></g><g id="shape11-4" transform="translate(83.77,-0.25)"><title>Process.11</title><desc>Node pools</desc><rect width="68.332" height="19.264" x="0" y="1.207" class="st1"/><text x="8.44" y="13.84" class="st2">Node pools</text></g><g id="shape12-7" transform="translate(167.29,-0.957152)"><title>Process.12</title><desc>Nodes</desc><rect width="68.332" height="19.264" x="0" y="1.207" class="st1"/><text x="19.82" y="13.84" class="st2">Nodes</text></g><g id="shape13-10" transform="translate(250.81,-0.957152)"><title>Process.13</title><desc>Pods</desc><rect width="68.332" height="19.264" x="0" y="1.207" class="st1"/><text x="23.37" y="13.84" class="st2">Pods</text></g><g id="shape14-13" transform="translate(334.33,-0.957152)"><title>Process.14</title><desc>Containers</desc><rect width="68.332" height="19.264" x="0" y="1.207" class="st1"/><text x="10.56" y="13.84" class="st2">Containers</text></g><g id="shape17-16" transform="translate(70.4162,-4.39643)"><title>Expand</title><path d="M6.03 20.47 L4.94 19.37 L9.33 14.99 L4.94 10.6 L6.03 9.5 L11.52 14.99 L6.03 20.47 ZM1.1 20.47 L0 19.37 L4.39 14.99 L0 10.6 L1.1 9.5 L6.58 14.99 L1.1 20.47 Z" class="st3"/></g><g id="shape34-18" transform="translate(237.456,-5.10358)"><title>Expand.34</title><path d="M6.03 20.47 L4.94 19.37 L9.33 14.99 L4.94 10.6 L6.03 9.5 L11.52 14.99 L6.03 20.47 ZM1.1 20.47 L0 19.37 L4.39 14.99 L0 10.6 L1.1 9.5 L6.58 14.99 L1.1 20.47 Z" class="st3"/></g><g id="shape35-20" transform="translate(153.936,-4.39643)"><title>Expand.35</title><path d="M6.03 20.47 L4.94 19.37 L9.33 14.99 L4.94 10.6 L6.03 9.5 L11.52 14.99 L6.03 20.47 ZM1.1 20.47 L0 19.37 L4.39 14.99 L0 10.6 L1.1 9.5 L6.58 14.99 L1.1 20.47 Z" class="st3"/></g><g id="shape36-22" transform="translate(320.976,-5.10358)"><title>Expand.36</title><path d="M6.03 20.47 L4.94 19.37 L9.33 14.99 L4.94 10.6 L6.03 9.5 L11.52 14.99 L6.03 20.47 ZM1.1 20.47 L0 19.37 L4.39 14.99 L0 10.6 L1.1 9.5 L6.58 14.99 L1.1 20.47 Z" class="st3"/></g></g></svg>