<svg xmlns="http://www.w3.org/2000/svg" width="1340.218" height="374.173" class="st24" color-interpolation-filters="sRGB" viewBox="0 0 1005.17 280.63"><style type="text/css">.st1{fill:#fff;stroke:none;stroke-width:.25}.st2{fill:#198ab3}.st2,.st3,.st4{stroke:none;stroke-linecap:butt;stroke-width:.75}.st3{fill:url(#grad0-9)}.st4{fill:#32bedd}.st5{fill:#0078d4}.st5,.st6,.st7,.st8{stroke:none;stroke-linecap:butt;stroke-width:.75}.st6{fill:#fff;fill-opacity:.8}.st7{fill:url(#grad0-22)}.st8{fill:url(#grad0-28)}.st10,.st9{stroke:#accde7;stroke-width:.25}.st9{fill:#cdedf8}.st10{fill:#fff}.st11{fill:#000;font-family:Segoe UI;font-size:1.00001em}.st12{font-size:1em}.st13{fill:#cce2f5;stroke:#accde7;stroke-width:.25}.st14{fill:#000;font-family:Segoe UI;font-size:1.00001em;font-weight:700}.st15,.st16{fill:url(#grad0-60);stroke:none;stroke-linecap:butt;stroke-width:.75}.st16{fill:#fff}.st17{fill:none;stroke:none;stroke-width:.25}.st18{fill:url(#grad0-75)}.st18,.st19,.st20{stroke:none;stroke-linecap:butt;stroke-width:.75}.st19{fill:url(#grad0-79)}.st20{fill:url(#grad0-83)}.st21{marker-end:url(#mrkr13-128);stroke:#000;stroke-linecap:round;stroke-linejoin:round;stroke-width:1}.st22{fill:#000;fill-opacity:1;stroke:#000;stroke-opacity:1;stroke-width:.28409090909091}.st23{marker-start:url(#mrkr13-144);stroke:#000;stroke-linecap:round;stroke-linejoin:round;stroke-width:1}.st24{fill:none;fill-rule:evenodd;font-size:12px;overflow:visible;stroke-linecap:square;stroke-miterlimit:3}</style><defs id="Patterns_And_Gradients"><linearGradient id="grad0-9" x1="0" x2="1" y1="0" y2="0" gradientTransform="rotate(0 0.5 0.5)"><stop offset="0" stop-color="#50c7e8" stop-opacity="1"/><stop offset=".25" stop-color="#4cc3e4" stop-opacity="1"/><stop offset=".51" stop-color="#41b6da" stop-opacity="1"/><stop offset=".77" stop-color="#2fa2c8" stop-opacity="1"/><stop offset="1" stop-color="#1989b2" stop-opacity="1"/></linearGradient><linearGradient id="grad0-22" x1="0" x2="1" y1="0" y2="0" gradientTransform="rotate(90 0.5 0.5)"><stop offset=".22" stop-color="#32d4f5" stop-opacity="1"/><stop offset="1" stop-color="#198ab3" stop-opacity="1"/></linearGradient><linearGradient id="grad0-28" x1="0" x2="1" y1="0" y2="0" gradientTransform="rotate(85.401203911388 0.5 0.5)"><stop offset=".22" stop-color="#32d4f5" stop-opacity="1"/><stop offset="1" stop-color="#198ab3" stop-opacity="1"/></linearGradient><linearGradient id="grad0-60" x1="0" x2="1" y1="0" y2="0" gradientTransform="rotate(-90 0.5 0.5)"><stop offset="0" stop-color="#32bedd" stop-opacity="1"/><stop offset="1" stop-color="#32d4f5" stop-opacity="1"/></linearGradient><linearGradient id="grad0-75" x1="0" x2="1" y1="0" y2="0" gradientTransform="rotate(-90 0.5 0.5)"><stop offset="0" stop-color="#5e9624" stop-opacity="1"/><stop offset=".01" stop-color="#5e9724" stop-opacity="1"/><stop offset=".35" stop-color="#6cab29" stop-opacity="1"/><stop offset=".68" stop-color="#73b82c" stop-opacity="1"/><stop offset="1" stop-color="#76bc2d" stop-opacity="1"/></linearGradient><linearGradient id="grad0-79" x1="0" x2="1" y1="0" y2="0" gradientTransform="rotate(-90 0.5 0.5)"><stop offset="0" stop-color="#0078d4" stop-opacity="1"/><stop offset=".82" stop-color="#5ea0ef" stop-opacity="1"/></linearGradient><linearGradient id="grad0-83" x1="0" x2="1" y1="0" y2="0" gradientTransform="rotate(110.18752416876 0.5 0.5)"><stop offset="0" stop-color="#005ba1" stop-opacity="1"/><stop offset=".14" stop-color="#035da3" stop-opacity="1"/><stop offset=".3" stop-color="#0b63aa" stop-opacity="1"/><stop offset=".47" stop-color="#196eb6" stop-opacity="1"/><stop offset=".65" stop-color="#2d7cc6" stop-opacity="1"/><stop offset=".84" stop-color="#468edb" stop-opacity="1"/><stop offset="1" stop-color="#5ea0ef" stop-opacity="1"/></linearGradient><linearGradient id="icon-7e9afc4afb23aa85__icon-4d039b80c4be800a__a" x1="12.953" x2="12.953" y1="44.001" y2="29.457" gradientTransform="matrix(0.645093, 0, 0, 0.798344, 27.951477, 11.996075)" gradientUnits="userSpaceOnUse"><stop offset=".056" stop-color="#2AAC94"/><stop offset=".155" stop-color="#239C87"/><stop offset=".372" stop-color="#177E71"/><stop offset=".588" stop-color="#0E6961"/><stop offset=".799" stop-color="#095D57"/><stop offset="1" stop-color="#085954"/></linearGradient><linearGradient id="icon-fbd56b0a81152ef4__icon-78f52e20309b156b__b" x1="31.331" x2="17.286" y1="33.448" y2="18.173" gradientTransform="matrix(0.645093, 0, 0, 0.798344, 27.951477, 11.996075)" gradientUnits="userSpaceOnUse"><stop offset=".042" stop-color="#ABE88E"/><stop offset=".549" stop-color="#2AAA92"/><stop offset=".906" stop-color="#117865"/></linearGradient><linearGradient id="icon-971ae08ec7f45454__icon-77e9c21df46e5459__c" x1="-3.182" x2="10.183" y1="32.706" y2="28.148" gradientTransform="matrix(0.645093, 0, 0, 0.798344, 27.951477, 11.996075)" gradientUnits="userSpaceOnUse"><stop offset="0" stop-color="#6AD6F9"/><stop offset="1" stop-color="#6AD6F9" stop-opacity="0"/></linearGradient><linearGradient id="icon-006ae52c58818f34__icon-fefad3b496a01348__d" x1="7.013" x2="42.589" y1="15.219" y2="15.219" gradientTransform="matrix(0.645093, 0, 0, 0.798344, 27.951477, 11.996075)" gradientUnits="userSpaceOnUse"><stop offset=".043" stop-color="#25FFD4"/><stop offset=".874" stop-color="#55DDB9"/></linearGradient><linearGradient id="icon-b20c75ab267ca94a__icon-6e8dfaf161507040__e" x1="7.013" x2="39.06" y1="10.247" y2="25.128" gradientTransform="matrix(0.645093, 0, 0, 0.798344, 27.951477, 11.996075)" gradientUnits="userSpaceOnUse"><stop offset="0" stop-color="#6AD6F9"/><stop offset=".23" stop-color="#60E9D0"/><stop offset=".651" stop-color="#6DE9BB"/><stop offset=".994" stop-color="#ABE88E"/></linearGradient><linearGradient id="icon-a92f6eee55b4848c__icon-736fd316b8a72f77__f" x1="9.978" x2="27.404" y1="13.031" y2="16.885" gradientTransform="matrix(0.645093, 0, 0, 0.798344, 27.951477, 11.996075)" gradientUnits="userSpaceOnUse"><stop offset="0" stop-color="#FFF" stop-opacity="0"/><stop offset=".459" stop-color="#FFF"/><stop offset="1" stop-color="#FFF" stop-opacity="0"/></linearGradient><linearGradient id="icon-f38431b998350117__icon-41e6540ecda9967b__g" x1="15.756" x2="16.168" y1="27.96" y2="15.74" gradientTransform="matrix(0.645093, 0, 0, 0.798344, 27.951477, 11.996075)" gradientUnits="userSpaceOnUse"><stop offset=".205" stop-color="#063D3B" stop-opacity="0"/><stop offset=".586" stop-color="#063D3B" stop-opacity=".237"/><stop offset=".872" stop-color="#063D3B" stop-opacity=".75"/></linearGradient><linearGradient id="icon-1100149c8c650d8a__icon-5deb3b0bc4d268e5__h" x1="2.81" x2="17.701" y1="26.744" y2="29.545" gradientTransform="matrix(0.645093, 0, 0, 0.798344, 27.951477, 11.996075)" gradientUnits="userSpaceOnUse"><stop offset="0" stop-color="#FFF" stop-opacity="0"/><stop offset=".459" stop-color="#FFF"/><stop offset="1" stop-color="#FFF" stop-opacity="0"/></linearGradient><linearGradient id="icon-9a3ccf482b635fc2__icon-246be254e9c09726__i" x1="13.567" x2="10.662" y1="39.97" y2="25.764" gradientTransform="matrix(0.645093, 0, 0, 0.798344, 27.951477, 11.996075)" gradientUnits="userSpaceOnUse"><stop offset=".064" stop-color="#063D3B" stop-opacity="0"/><stop offset=".17" stop-color="#063D3B" stop-opacity=".135"/><stop offset=".562" stop-color="#063D3B" stop-opacity=".599"/><stop offset=".85" stop-color="#063D3B" stop-opacity=".9"/><stop offset="1" stop-color="#063D3B"/></linearGradient></defs><defs id="Markers"><g id="lend13"><path d="M 3 1 L 0 0 L 3 -1 L 3 1" style="stroke:none"/></g><marker id="mrkr13-128" class="st22" markerUnits="strokeWidth" orient="auto" overflow="visible" refX="-10.56"><g><path d="M 3 1 L 0 0 L 3 -1 L 3 1" style="stroke:none" transform="matrix(-3.5199999809265137, 0, 0, -3.5199999809265137, 0, 0)"/></g></marker><marker id="mrkr13-144" class="st22" markerUnits="strokeWidth" orient="auto" overflow="visible" refX="10.2"><g><path d="M 3 1 L 0 0 L 3 -1 L 3 1" style="stroke:none" transform="matrix(3.5199999809265137, 0, 0, 3.5199999809265137, 0, 0)"/></g></marker></defs><g><title>VBackground-1</title><g id="shape1-1"><title>Solid</title><rect width="1005.17" height="280.63" x="0" y="0" class="st1"/></g></g><g transform="matrix(1, 0, 0, 1, -0.322647, 0.322661)"><title>Page-1</title><g id="group1-3" transform="matrix(1, 0, 0, 1, 25.225401, -2.919998)"><title>Icon-166Artboard 1</title><g id="shape2-4"><title>bc892891-989d-4c43-80d3-d2b4546</title><path d="M25.16 280.63 L1.88 280.63 L0 273.61 L27.04 273.61 L25.16 280.63 Z" class="st2"/></g><g id="shape3-6"><title>Sheet.3</title><path d="M9.93 251.54 L9.93 262.49 L0 273.61 L1.88 280.63 L17.11 262.49 L17.11 251.54 L9.93 251.54 Z" class="st3"/></g><g id="shape4-10" transform="translate(14.547,1.13687E-13)"><title>e6be01d6-345d-4df4-bbdb-151aa8e</title><path d="M10.61 280.63 L0 269.68 L4.45 264.54 L12.49 273.61 L10.61 280.63 Z" class="st4"/></g></g><g id="group5-12" transform="translate(837.463,-178.455)"><title>Icon-identity-223</title><g id="shape6-13" transform="translate(27.0431,-7.27511)"><title>Sheet.6</title><path d="M24.3 280.63 A2.35547 2.35547 -180 0 0 26.69 278.27 a0.834849 0.834849 -180 0 0 -0.0596321 -0.387608 C25.7 270.43 21.44 264.35 13.33 264.35 C5.22 264.35 0.83 269.6 0 277.89 A2.4151 2.4151 -180 0 0 2.15 280.51 L24.3 280.51 L24.3 280.63 Z" class="st5"/></g><g id="shape7-15" transform="translate(36.3457,-12.3737)"><title>Sheet.7</title><path d="M4.05 271.33 A7.27511 7.27511 0 0 1 -0 270.13 L4.03 280.63 L7.99 270.22 A7.57327 7.57327 0 0 1 4.05 271.33 Z" class="st6"/></g><g id="shape8-17" transform="translate(32.9169,-21.6763)"><title>Sheet.8</title><ellipse cx="7.484" cy="273.146" class="st5" rx="7.484" ry="7.484"/></g><g id="shape9-19"><title>Sheet.9</title><path d="M36.35 280.63 A3.54811 3.54811 -180 0 0 39.89 277.08 A1.96786 1.96786 -180 0 0 39.89 276.66 C38.49 265.51 32.14 256.45 20.04 256.45 C7.93 256.45 1.31 264.14 0 276.57 A3.57792 3.57792 -180 0 0 3.19 280.48 L36.29 280.48 L36.35 280.63 Z" class="st7"/></g><g id="shape10-23" transform="translate(14.2222,-7.66272)"><title>Sheet.10</title><path d="M5.96 266.77 A11.0916 11.0916 0 0 1 0 264.98 L5.96 280.63 L11.93 265.1 A11.3599 11.3599 0 0 1 5.96 266.77 Z" class="st6"/></g><g id="shape11-25" transform="translate(8.91499,-21.5272)"><title>Sheet.11</title><ellipse cx="11.181" cy="269.449" class="st8" rx="11.181" ry="11.181"/></g></g><g id="shape15-29" transform="matrix(1, 0, 0, 0.915008, 23.9193, -11.361299)"><title>Sheet.15</title><rect width="209.764" height="212.598" x="0" y="68.031" class="st9"/></g><g id="shape16-31" transform="matrix(1, 0, 0, 0.886173, 40.927201, -6.21263)"><title>Sheet.16</title><desc>Projects</desc><rect width="104.882" height="48.189" x="0" y="232.441" class="st10"/><text x="31.54" y="260.14" class="st11" style="white-space:pre">Projects</text></g><g id="shape17-34" transform="translate(159.982,-38.0925)"><title>Sheet.17</title><desc>Data plane</desc><rect width="56.693" height="184.252" x="0" y="96.378" class="st10"/><text x="16" y="184.9" class="st11" style="white-space:pre">Data <tspan x="13.78" class="st12" dy="1.2em">plane</tspan></text></g><g id="shape18-38" transform="matrix(1, 0, 0, 0.892869, 40.927201, -55.563714)"><title>Sheet.18</title><desc>Experiments</desc><rect width="104.882" height="48.189" x="0" y="232.441" class="st10"/><text x="20.17" y="260.14" class="st11" style="white-space:pre">Experiments</text></g><g id="shape19-41" transform="translate(315.888,-165.652)"><title>Sheet.19</title><desc>Tenant A model</desc><rect width="104.882" height="48.189" x="0" y="232.441" class="st13"/><text x="7.5" y="260.14" class="st14" style="white-space:pre">Tenant A model</text></g><g id="shape20-44" transform="translate(315.888,-106.124)"><title>Sheet.20</title><desc>Tenant B model</desc><rect width="104.882" height="48.189" x="0" y="232.441" class="st13"/><text x="7.87" y="260.14" class="st14" style="white-space:pre">Tenant B model</text></g><g id="shape21-47" transform="translate(315.888,-46.5965)"><title>Sheet.21</title><desc>Tenant C model</desc><rect width="104.882" height="48.189" x="0" y="232.441" class="st13"/><text x="7.97" y="260.14" class="st14" style="white-space:pre">Tenant C model</text></g><g id="shape22-50" transform="matrix(1, 0, 0, 1, 494.470001, -23.9193)"><title>Sheet.22</title><desc>Azure Machine Learning compute</desc><rect width="90.709" height="212.598" x="0" y="68.031" class="st9"/><text x="29" y="111.63" class="st14" style="white-space:pre" transform="matrix(1, 0, 0, 1, -9, -1)">Microsoft <tspan x="29" dy="1em">​</tspan> Fabric <tspan x="29" dy="1em">​</tspan>(with <tspan x="29" dy="1em">​</tspan>Spark <tspan x="29" dy="1em">​</tspan>compute)</text><text x="26.113" y="220.848" class="st14" style="white-space:pre;stroke-width:1">Azure <tspan x="18.423" class="st12" dy="1.2em" style="font-size:12px;word-spacing:0;stroke-width:1">Machine </tspan><tspan x="17.853" class="st12" dy="1.2em" style="font-size:12px;word-spacing:0;stroke-width:1">Learning </tspan><tspan x="17.493" class="st12" dy="1.2em" style="font-size:12px;word-spacing:0;stroke-width:1">compute</tspan></text></g><g id="group12-56" transform="matrix(1, 0, 0, 1, 526.305, -106.912004)"><title>Sheet.12</title><g id="shape13-57"><title>Sheet.13</title><path d="M27.04 268.7 L27.04 265.68 L26.56 265.52 L23.22 264.41 L22.43 262.34 L24.18 258.84 L21.95 256.61 L21.47 256.77 L18.45 258.36 L16.38 257.57 L14.95 253.75 L11.93 253.75 L11.77 254.23 L10.66 257.41 L8.59 258.36 L5.09 256.61 L2.86 258.84 L3.02 259.32 L4.61 262.34 L3.82 264.41 L0 265.84 L0 268.86 L0.48 269.02 L3.82 270.13 L4.61 272.2 L2.86 275.7 L5.09 277.93 L5.57 277.77 L8.59 276.18 L10.66 276.97 L12.09 280.63 L15.11 280.63 L15.27 280.15 L16.38 276.81 L18.45 276.02 L21.95 277.77 L24.18 275.54 L24.02 275.22 L22.43 272.2 L23.22 270.13 L27.04 268.7 Z" class="st15"/></g><g id="shape14-61" transform="translate(7.79399,-8.34972)"><title>Sheet.14</title><path d="M10.98 271.64 L9.7 272.76 A4.63027 4.63027 0 0 1 9.23 279.44 A4.62232 4.62232 0 0 1 2.54 278.96 A4.62868 4.62868 0 0 1 2.54 272.76 L2.7 272.76 L3.66 273.55 L3.82 273.55 L3.82 273.39 L3.5 270.21 C3.5 270.05 3.34 270.05 3.18 270.05 L0.16 270.53 a0.159061 0.159061 -180 0 0 -0.159061 0.159061 L0.95 271.48 L0.95 271.64 A6.32427 6.32427 -180 1 0 10.66 279.75 A5.77392 5.77392 -180 0 0 10.98 271.64 Z" class="st16"/></g></g><g id="shape23-63" transform="matrix(1, 0, 0, 1, 55.6358, -1.187012)"><title>Sheet.23</title><desc>Azure Machine Learning workspace</desc><rect width="132.693" height="31.945" x="0" y="248.685" class="st17"/><text x="4" y="261.06" class="st14" style="white-space:pre">Azure Machine <tspan x="4" class="st12" dy="1.2em">Learning workspace</tspan></text></g><g id="shape24-67" transform="translate(670.219,-23.9193)"><title>Sheet.24</title><desc>Shared API</desc><rect width="90.709" height="212.598" x="0" y="68.031" class="st9"/><text x="25.8" y="111.63" class="st14" style="white-space:pre">Shared <tspan x="35.55" class="st12" dy="1.2em">API</tspan></text></g><g id="group25-71" transform="translate(702.053,-123.841)"><title>Icon-web-48</title><g id="shape26-72" transform="translate(10.4528,1.13687E-13)"><title>Sheet.26</title><path d="M14.67 265.55 L6.64 265.55 A7.08661 7.08661 -180 0 0 -0 271.77 L2.52 271.77 A4.41142 4.41142 0 0 1 6.64 268.23 L14.67 268.23 A4.58858 4.58858 0 0 1 18.99 273.03 A4.6063 4.6063 0 0 1 14.67 277.85 L6.64 277.85 A4.41142 4.41142 0 0 1 2.52 274.31 L0 274.31 A7.08661 7.08661 -180 0 0 6.64 280.63 L14.67 280.63 A7.19291 7.19291 -180 0 0 21.44 273.08 A7.19291 7.19291 -180 0 0 14.67 265.55 Z" class="st18"/></g><g id="shape27-76" transform="translate(0,-6.18307)"><title>Sheet.27</title><path d="M14.79 277.95 L6.77 277.95 A4.58858 4.58858 0 0 1 2.44 273.1 A4.6063 4.6063 0 0 1 6.77 268.28 L14.79 268.28 A4.41142 4.41142 0 0 1 18.92 271.82 L21.44 271.82 A7.08661 7.08661 -180 0 0 14.79 265.55 L6.77 265.55 A7.19291 7.19291 -180 0 0 0 273.1 A7.19291 7.19291 -180 0 0 6.77 280.63 L14.79 280.63 A7.08661 7.08661 -180 0 0 21.44 274.41 L18.92 274.41 A4.41142 4.41142 0 0 1 14.79 277.95 Z" class="st19"/></g><g id="shape28-80" transform="translate(9.47835,-6.12992)"><title>Sheet.28</title><path d="M5.31 277.9 L0 277.9 L0 280.63 L5.31 280.63 A7.08661 7.08661 -180 0 0 11.96 274.36 L9.44 274.36 A4.41142 4.41142 0 0 1 5.31 277.9 Z" class="st20"/></g></g><g id="group29-84" transform="translate(837.463,-107.589)"><title>Icon-identity-223.29</title><g id="shape30-85" transform="translate(27.0431,-7.27511)"><title>Sheet.30</title><path d="M24.3 280.63 A2.35547 2.35547 -180 0 0 26.69 278.27 a0.834849 0.834849 -180 0 0 -0.0596321 -0.387608 C25.7 270.43 21.44 264.35 13.33 264.35 C5.22 264.35 0.83 269.6 0 277.89 A2.4151 2.4151 -180 0 0 2.15 280.51 L24.3 280.51 L24.3 280.63 Z" class="st5"/></g><g id="shape31-87" transform="translate(36.3457,-12.3737)"><title>Sheet.31</title><path d="M4.05 271.33 A7.27511 7.27511 0 0 1 -0 270.13 L4.03 280.63 L7.99 270.22 A7.57327 7.57327 0 0 1 4.05 271.33 Z" class="st6"/></g><g id="shape32-89" transform="translate(32.9169,-21.6763)"><title>Sheet.32</title><ellipse cx="7.484" cy="273.146" class="st5" rx="7.484" ry="7.484"/></g><g id="shape33-91"><title>Sheet.33</title><path d="M36.35 280.63 A3.54811 3.54811 -180 0 0 39.89 277.08 A1.96786 1.96786 -180 0 0 39.89 276.66 C38.49 265.51 32.14 256.45 20.04 256.45 C7.93 256.45 1.31 264.14 0 276.57 A3.57792 3.57792 -180 0 0 3.19 280.48 L36.29 280.48 L36.35 280.63 Z" class="st7"/></g><g id="shape34-94" transform="translate(14.2222,-7.66272)"><title>Sheet.34</title><path d="M5.96 266.77 A11.0916 11.0916 0 0 1 0 264.98 L5.96 280.63 L11.93 265.1 A11.3599 11.3599 0 0 1 5.96 266.77 Z" class="st6"/></g><g id="shape35-96" transform="translate(8.91499,-21.5272)"><title>Sheet.35</title><ellipse cx="11.181" cy="269.449" class="st8" rx="11.181" ry="11.181"/></g></g><g id="group36-99" transform="translate(837.463,-36.723)"><title>Icon-identity-223.36</title><g id="shape37-100" transform="translate(27.0431,-7.27511)"><title>Sheet.37</title><path d="M24.3 280.63 A2.35547 2.35547 -180 0 0 26.69 278.27 a0.834849 0.834849 -180 0 0 -0.0596321 -0.387608 C25.7 270.43 21.44 264.35 13.33 264.35 C5.22 264.35 0.83 269.6 0 277.89 A2.4151 2.4151 -180 0 0 2.15 280.51 L24.3 280.51 L24.3 280.63 Z" class="st5"/></g><g id="shape38-102" transform="translate(36.3457,-12.3737)"><title>Sheet.38</title><path d="M4.05 271.33 A7.27511 7.27511 0 0 1 -0 270.13 L4.03 280.63 L7.99 270.22 A7.57327 7.57327 0 0 1 4.05 271.33 Z" class="st6"/></g><g id="shape39-104" transform="translate(32.9169,-21.6763)"><title>Sheet.39</title><ellipse cx="7.484" cy="273.146" class="st5" rx="7.484" ry="7.484"/></g><g id="shape40-106"><title>Sheet.40</title><path d="M36.35 280.63 A3.54811 3.54811 -180 0 0 39.89 277.08 A1.96786 1.96786 -180 0 0 39.89 276.66 C38.49 265.51 32.14 256.45 20.04 256.45 C7.93 256.45 1.31 264.14 0 276.57 A3.57792 3.57792 -180 0 0 3.19 280.48 L36.29 280.48 L36.35 280.63 Z" class="st7"/></g><g id="shape41-109" transform="translate(14.2222,-7.66272)"><title>Sheet.41</title><path d="M5.96 266.77 A11.0916 11.0916 0 0 1 0 264.98 L5.96 280.63 L11.93 265.1 A11.3599 11.3599 0 0 1 5.96 266.77 Z" class="st6"/></g><g id="shape42-111" transform="translate(8.91499,-21.5272)"><title>Sheet.42</title><ellipse cx="11.181" cy="269.449" class="st8" rx="11.181" ry="11.181"/></g></g><g id="shape43-114" transform="translate(897.055,-189.77)"><title>Sheet.43</title><desc>Tenant A&apos;s users</desc><rect width="118.99" height="21.26" x="0" y="259.37" class="st17"/><text x="4" y="273.6" class="st14" style="white-space:pre">Tenant A&apos;s users</text></g><g id="shape44-117" transform="translate(897.055,-118.904)"><title>Sheet.44</title><desc>Tenant B&apos;s users</desc><rect width="118.99" height="21.26" x="0" y="259.37" class="st17"/><text x="4" y="273.6" class="st14" style="white-space:pre">Tenant B&apos;s users</text></g><g id="shape45-120" transform="translate(897.055,-49.4311)"><title>Sheet.45</title><desc>Tenant C&apos;s users</desc><rect width="118.99" height="21.26" x="0" y="259.37" class="st17"/><text x="4" y="273.6" class="st14" style="white-space:pre">Tenant C&apos;s users</text></g><g id="shape46-123" transform="translate(216.675,-185.494)"><title>Sheet.46</title><path d="M0 280.63 L88.65 280.63" class="st21"/></g><g id="shape47-129" transform="translate(216.675,-128.801)"><title>Sheet.47</title><path d="M0 280.63 L88.65 280.63" class="st21"/></g><g id="shape48-134" transform="translate(216.675,-72.1083)"><title>Sheet.48</title><path d="M0 280.63 L88.65 280.63" class="st21"/></g><g id="shape49-139" transform="translate(420.77,-185.494)"><title>Sheet.49</title><path d="M10.2 280.63 L10.56 280.63 L73.7 280.63" class="st23"/></g><g id="shape50-145" transform="translate(420.77,-128.801)"><title>Sheet.50</title><path d="M10.2 280.63 L10.56 280.63 L73.7 280.63" class="st23"/></g><g id="shape51-150" transform="translate(420.77,-72.1083)"><title>Sheet.51</title><path d="M10.2 280.63 L10.56 280.63 L73.7 280.63" class="st23"/></g><g id="shape52-155" transform="translate(582.507,-127.979) rotate(-0.545658)"><title>Sheet.52</title><path d="M10.2 280.63 L10.56 280.63 L85.04 280.63" class="st23"/></g><g id="shape53-160" transform="translate(760.927,-191.973)"><title>Sheet.53</title><path d="M10.2 280.63 L10.56 280.63 L73.7 280.63" class="st23"/></g><g id="shape54-165" transform="translate(760.927,-125.562)"><title>Sheet.54</title><path d="M10.2 280.63 L10.56 280.63 L73.7 280.63" class="st23"/></g><g id="shape55-170" transform="translate(760.927,-55.1004)"><title>Sheet.55</title><path d="M10.2 280.63 L10.56 280.63 L73.7 280.63" class="st23"/></g><g id="group-1" transform="matrix(1, 0, 0, 1, 55.447465, -232.487323)"><title>Sheet.23</title><desc>Azure Machine Learning workspace</desc><rect width="132.693" height="31.945" x="0" y="248.685" class="st17"/><text x="4" y="261.06" class="st14" style="white-space:pre">Fabric Data Science<tspan x="4" dy="1em">​</tspan>experience</text></g><g id="group-2" transform="matrix(1, 0, 0, 0.919651, 41.560242, -117.848962)"><title>Sheet.18</title><desc>Experiments</desc><rect width="104.882" height="48.189" y="239.441" class="st10"/><text x="35.17" y="269.14" class="st11" style="white-space:pre;font-size:12px">Models</text></g><g id="group-3" transform="matrix(1, 0, 0, 0.906259, 41.501015, -163.521899)"><title>Sheet.18</title><desc>Experiments</desc><rect width="104.882" height="48.189" y="239.441" class="st10"/><text x="32.17" y="269.14" class="st11" style="white-space:pre;font-size:12px">Endpoints</text></g></g><path fill="url(#icon-7e9afc4afb23aa85__icon-4d039b80c4be800a__a)" fill-rule="evenodd" d="M 31.59 37.224 L 31.212 38.936 C 31.071 39.483 30.874 40.287 30.768 41.004 C 30.057 43.324 31.001 45.918 32.877 46.798 C 33.161 46.93 33.458 47.019 33.76 47.061 C 34.27 47.152 34.848 47.148 35.496 47.029 L 38.472 46.522 C 39.22 46.394 39.834 45.726 40.034 44.824 L 42.082 35.513 L 31.59 37.223 L 31.59 37.224 Z" clip-rule="evenodd" style="stroke-width:1"/><path fill="url(#icon-fbd56b0a81152ef4__icon-78f52e20309b156b__b)" d="M 34.493 37.665 C 31.356 38.266 30.712 41.196 30.712 41.196 L 33.716 27.536 L 49.413 24.908 L 47.272 34.53 C 47.159 35.051 46.808 35.441 46.377 35.523 L 46.289 35.54 L 34.405 37.683 L 34.493 37.665 Z" style="stroke-width:1"/><path fill="url(#icon-971ae08ec7f45454__icon-77e9c21df46e5459__c)" fill-opacity=".8" d="M 34.493 37.665 C 31.356 38.266 30.712 41.196 30.712 41.196 L 33.716 27.536 L 49.413 24.908 L 47.272 34.53 C 47.159 35.051 46.808 35.441 46.377 35.523 L 46.289 35.54 L 34.405 37.683 L 34.493 37.665 Z" style="stroke-width:1"/><path fill="url(#icon-006ae52c58818f34__icon-fefad3b496a01348__d)" d="M 36.273 28.949 L 53.65 25.772 C 54.061 25.701 54.397 25.333 54.504 24.838 L 56.297 16.807 C 56.45 16.129 56.131 15.426 55.584 15.237 C 55.451 15.191 55.311 15.178 55.175 15.2 L 38.594 18.232 C 36.803 18.592 35.347 20.211 34.868 22.377 L 32.476 33.103 C 32.956 30.934 33.251 29.626 36.273 28.949 Z" style="stroke-width:1"/><path fill="url(#icon-b20c75ab267ca94a__icon-6e8dfaf161507040__e)" d="M 36.273 28.949 L 53.65 25.772 C 54.061 25.701 54.397 25.333 54.504 24.838 L 56.297 16.807 C 56.45 16.129 56.131 15.426 55.584 15.237 C 55.451 15.191 55.311 15.178 55.175 15.2 L 38.594 18.232 C 36.803 18.592 35.347 20.211 34.868 22.377 L 32.476 33.103 C 32.956 30.934 33.251 29.626 36.273 28.949 Z" style="stroke-width:1"/><path fill="url(#icon-a92f6eee55b4848c__icon-736fd316b8a72f77__f)" fill-opacity=".4" d="M 36.273 28.949 L 53.65 25.772 C 54.061 25.701 54.397 25.333 54.504 24.838 L 56.297 16.807 C 56.45 16.129 56.131 15.426 55.584 15.237 C 55.451 15.191 55.311 15.178 55.175 15.2 L 38.594 18.232 C 36.803 18.592 35.347 20.211 34.868 22.377 L 32.476 33.103 C 32.956 30.934 33.251 29.626 36.273 28.949 Z" style="stroke-width:1"/><path fill="url(#icon-f38431b998350117__icon-41e6540ecda9967b__g)" d="M 36.273 28.95 C 33.756 29.514 33.131 30.517 32.716 32.089 L 30.712 41.198 C 30.712 41.198 31.352 38.297 34.451 37.677 L 46.29 35.543 L 46.378 35.525 C 46.808 35.443 47.159 35.054 47.273 34.532 L 49.034 26.617 L 36.273 28.95 Z" style="stroke-width:1"/><path fill="url(#icon-1100149c8c650d8a__icon-5deb3b0bc4d268e5__h)" fill-opacity=".2" d="M 36.273 28.95 C 33.756 29.514 33.131 30.517 32.716 32.089 L 30.712 41.198 C 30.712 41.198 31.352 38.297 34.451 37.677 L 46.29 35.543 L 46.378 35.525 C 46.808 35.443 47.159 35.054 47.273 34.532 L 49.034 26.617 L 36.273 28.95 Z" style="stroke-width:1"/><path fill="url(#icon-9a3ccf482b635fc2__icon-246be254e9c09726__i)" fill-rule="evenodd" d="M 34.451 37.677 C 31.832 38.201 30.973 40.347 30.768 41.001 C 30.056 43.322 31 45.917 32.875 46.796 C 33.16 46.93 33.457 47.018 33.76 47.061 C 34.27 47.152 34.848 47.147 35.496 47.029 L 38.472 46.521 C 39.22 46.393 39.834 45.725 40.034 44.823 L 41.901 36.334 L 34.452 37.678 L 34.451 37.677 Z" clip-rule="evenodd" style="stroke-width:1"/></svg>