<svg xmlns="http://www.w3.org/2000/svg" xmlns:ev="http://www.w3.org/2001/xml-events" xmlns:xlink="http://www.w3.org/1999/xlink" width="16.169in" height="439.726" class="st22" color-interpolation-filters="sRGB" viewBox="0 0 1164.17 329.795" xml:space="preserve"><style type="text/css">.st1{stroke:none;stroke-width:.25}.st1,.st2{fill:#fff}.st2,.st3{stroke:none}.st2,.st3{stroke-linecap:butt;stroke-width:.75}.st3{fill:url(#grad0-13)}.st4{fill:#e8e8e8}.st5{stroke:none;stroke-linecap:butt;stroke-width:.75}.st6{fill:#50e6ff}.st7{fill:#198ab3;stroke:none;stroke-linecap:butt;stroke-width:.75}.st8{fill:#cce7fc;stroke:#accde7;stroke-width:.25}.st9{fill:#000;font-family:Segoe UI;font-size:1.5em;font-weight:700}.st10{marker-end:url(#mrkr13-30);stroke:#000;stroke-linecap:round;stroke-linejoin:round;stroke-width:1}.st11{fill:#000;fill-opacity:1;stroke:#000;stroke-opacity:1;stroke-width:.28409090909091}.st12{font-size:1em}.st13{fill:none;stroke:none;stroke-width:.25}.st14{fill:#000;font-family:Segoe UI;font-size:1.5em}.st15,.st16{stroke-width:.75}.st15{fill:url(#grad1-59);stroke:none;stroke-linecap:butt}.st16{fill:#0078d4}.st16,.st17,.st18{stroke:none;stroke-linecap:butt}.st17{fill:#fff;fill-opacity:.8;stroke-width:.75}.st18{fill:url(#grad0-70)}.st18,.st19,.st20{stroke-width:.75}.st19{fill:url(#grad0-76);stroke:none;stroke-linecap:butt}.st20{marker-end:url(#mrkr13-96);stroke:#000}.st21{fill:#000;fill-opacity:1;stroke:#000;stroke-opacity:1;stroke-width:.22935779816514}.st22{fill:none;fill-rule:evenodd;font-size:12px;overflow:visible;stroke-linecap:square;stroke-miterlimit:3}</style><defs id="Patterns_And_Gradients"><linearGradient id="grad0-13" x1="0" x2="1" y1="0" y2="0" gradientTransform="rotate(0 0.5 0.5)"><stop offset="0" stop-color="#005ba1" stop-opacity="1"/><stop offset=".07" stop-color="#0060a9" stop-opacity="1"/><stop offset=".36" stop-color="#0071c8" stop-opacity="1"/><stop offset=".52" stop-color="#0078d4" stop-opacity="1"/><stop offset=".64" stop-color="#0074cd" stop-opacity="1"/><stop offset=".82" stop-color="#006abb" stop-opacity="1"/><stop offset="1" stop-color="#005ba1" stop-opacity="1"/></linearGradient><radialGradient id="grad1-59" cx="1" cy="1" r="1.4"><stop offset=".195" stop-color="#ffd70f" stop-opacity="1"/><stop offset=".44" stop-color="#ffcb12" stop-opacity="1"/><stop offset=".875" stop-color="#feac19" stop-opacity="1"/><stop offset="1" stop-color="#fea11b" stop-opacity="1"/></radialGradient><linearGradient id="grad0-70" x1="0" x2="1" y1="0" y2="0" gradientTransform="rotate(90 0.5 0.5)"><stop offset=".22" stop-color="#32d4f5" stop-opacity="1"/><stop offset="1" stop-color="#198ab3" stop-opacity="1"/></linearGradient><linearGradient id="grad0-76" x1="0" x2="1" y1="0" y2="0" gradientTransform="rotate(85.401203911388 0.5 0.5)"><stop offset=".22" stop-color="#32d4f5" stop-opacity="1"/><stop offset="1" stop-color="#198ab3" stop-opacity="1"/></linearGradient></defs><defs id="Markers"><g id="lend13"><path d="M 3 1 L 0 0 L 3 -1 L 3 1" style="stroke:none"/></g><marker id="mrkr13-30" class="st11" markerUnits="strokeWidth" orient="auto" overflow="visible" refX="-10.56"><use transform="scale(-3.52,-3.52)" xlink:href="#lend13"/></marker><marker id="mrkr13-96" class="st21" markerUnits="strokeWidth" orient="auto" overflow="visible" refX="-13.08"><use transform="scale(-4.36,-4.36)" xlink:href="#lend13"/></marker></defs><g><title>VBackground-2</title><g id="shape1001-1"><title>Solid.1001</title><rect width="1164.17" height="329.795" x="0" y="0" class="st1"/></g></g><g><title>shared-tenant-trained-models</title><g id="group1000-3" transform="translate(61.6201,-128.489)"><title>Icon-storage-98</title><g id="group1001-4"><title>Sheet.1001</title><g id="shape1002-5" transform="translate(46.99,-34.8635)"><title>Sheet.1002</title><path d="M5.13 329.79 A4.99527 4.99527 0 0 1 2.34 328.97 A5.06417 5.06417 0 0 1 -0 325.52 A5.27087 5.27087 0 0 1 5.13 319.08 A5.20197 5.20197 0 0 1 7.96 319.91 A5.30532 5.30532 0 0 1 10.27 323.35 A5.27087 5.27087 0 0 1 5.13 329.76 L5.13 329.79 Z" class="st2"/></g><g id="shape1003-7" transform="translate(46.9888,-2.20481)"><title>Sheet.1003</title><path d="M5.13 329.79 A4.99527 4.99527 0 0 1 2.34 328.97 A5.20197 5.20197 0 0 1 0.69 321.73 A5.23642 5.23642 0 0 1 7.96 320.08 A5.27087 5.27087 0 0 1 5.13 329.79 Z" class="st2"/></g><g id="group1004-9"><title>Sheet.1004</title><g id="shape1005-10"><title>Sheet.1005</title><path d="M18.95 293.48 C8.61 293.48 0 290.42 0 286.66 L0 322.9 C0 326.66 8.3 329.79 18.57 329.79 L18.95 329.79 C29.28 329.79 37.79 326.76 37.79 322.9 L37.79 286.66 C37.65 290.42 29.28 293.48 18.95 293.48 Z" class="st3"/></g><g id="shape1006-14" transform="translate(0,-36.2415)"><title>Sheet.1006</title><path d="M37.65 322.9 C37.65 326.66 29.21 329.79 18.81 329.79 C8.41 329.79 0 326.66 0 322.9 C0 319.15 8.61 316.08 18.95 316.08 C29.28 316.08 37.79 319.12 37.79 322.97 L37.65 322.9 Z" class="st4"/><path d="M37.65 322.9 C37.65 326.66 29.21 329.79 18.81 329.79 C8.41 329.79 0 326.66 0 322.9 C0 319.15 8.61 316.08 18.95 316.08 C29.28 316.08 37.79 319.12 37.79 322.97" class="st5"/></g><g id="shape1007-17" transform="translate(4.37517,-39.3765)"><title>Sheet.1007</title><path d="M28.87 325.49 C28.87 327.87 22.43 329.79 14.43 329.79 C6.44 329.79 0 327.87 0 325.49 C0 323.11 6.48 321.15 14.57 321.15 C22.67 321.15 29.01 323.08 29.01 325.49 L28.87 325.49 Z" class="st6"/><path d="M28.87 325.49 C28.87 327.87 22.43 329.79 14.43 329.79 C6.44 329.79 0 327.87 0 325.49 C0 323.11 6.48 321.15 14.57 321.15 C22.67 321.15 29.01 323.08 29.01 325.49" class="st5"/></g><g id="shape1008-20" transform="translate(7.54458,-39.3765)"><title>Sheet.1008</title><path d="M11.4 326.49 A34.8635 34.8635 -180 0 0 -0 328.11 A33.3133 33.3133 -180 0 0 11.4 329.79 A33.6922 33.6922 -180 0 0 22.84 328.11 A34.9324 34.9324 -180 0 0 11.4 326.49 Z" class="st7"/></g></g></g></g><g id="shape1009-22" transform="translate(161.712,-92.5698)"><title>Sheet.1009</title><desc>Training</desc><rect width="169.516" height="60.409" x="0" y="269.385" class="st8"/><text x="49.48" y="304.99" class="st9">Training</text></g><g id="shape1010-25" transform="translate(99.7852,-140.701) rotate(0.0648577)"><title>Sheet.1010</title><path d="M0 329.79 L51.74 329.79" class="st10"/></g><g id="shape1011-31" transform="translate(433.275,-92.5698)"><title>Sheet.1011</title><desc>Global model</desc><rect width="169.516" height="60.409" x="0" y="269.385" class="st8"/><text x="28.09" y="304.99" class="st9">Global<tspan class="st12"> </tspan><tspan class="st12">model</tspan></text></g><g id="shape1012-36" transform="translate(704.838,-92.5698)"><title>Sheet.1012</title><desc>Inference</desc><rect width="169.516" height="60.409" x="0" y="269.385" class="st8"/><text x="45.06" y="304.99" class="st9">Inference</text></g><g id="shape1013-39" transform="translate(976.401,-92.5698)"><title>Sheet.1013</title><desc>Model output</desc><rect width="169.516" height="60.409" x="0" y="269.385" class="st8"/><text x="26.18" y="304.99" class="st9">Model output</text></g><g id="shape1017-42" transform="translate(340.267,-92.5698)"><title>Sheet.1017</title><desc>Produces</desc><rect width="81.669" height="20" x="0" y="309.795" class="st13"/><text x="4.32" y="325.19" class="st14">Produces</text></g><g id="shape1018-45" transform="translate(614.129,-92.5698)"><title>Sheet.1018</title><desc>Users</desc><rect width="81.669" height="20" x="0" y="309.795" class="st13"/><text x="19.18" y="325.19" class="st14">Users</text></g><g id="shape1019-48" transform="translate(883.393,-92.5698)"><title>Sheet.1019</title><desc>Produces</desc><rect width="81.669" height="20" x="0" y="309.795" class="st13"/><text x="4.32" y="325.19" class="st14">Produces</text></g><g id="shape1020-51" transform="translate(18.3917,-175.376)"><title>Sheet.1020</title><desc>Tenant A data</desc><rect width="105.872" height="49.953" x="0" y="279.842" class="st13"/><text x="14.75" y="299.42" class="st9">Tenant A <tspan x="34.18" class="st12" dy="1.2em">data</tspan></text></g><g id="group1021-55" transform="translate(794.596,-191.301)"><title>MsPortalFx.base.images-37</title><g id="shape1022-56"><title>Sheet.1022</title><path d="M7.81 316.47 L0.42 316.47 a0.381743 0.381743 0 0 1 -0.41848 -0.31945 a0.279519 0.279519 0 0 1 0.0367368 -0.135766 L8.9 300.68 a0.437647 0.437647 0 0 1 0.381743 -0.19167 L18.02 300.49 a0.380146 0.380146 0 0 1 0.41848 0.31945 a0.282714 0.282714 0 0 1 -0.0734736 0.190073 L7.96 313 L18.1 313 a0.381743 0.381743 0 0 1 0.41848 0.31945 a0.295492 0.295492 0 0 1 -0.107016 0.218823 L1.55 328.9 C1.39 328.98 0.28 329.79 0.82 328.56 L7.81 316.47 Z" class="st15"/></g></g><g id="group1023-60" transform="translate(767.652,-244.723)"><title>Icon-identity-223</title><g id="shape1024-61" transform="translate(22.0901,-5.94264)"><title>Sheet.1024</title><path d="M19.85 329.79 A1.92405 1.92405 -180 0 0 21.8 327.87 a0.681943 0.681943 -180 0 0 -0.0487102 -0.316616 C20.99 321.47 17.51 316.5 10.89 316.5 C4.26 316.5 0.68 320.78 0 327.55 A1.97276 1.97276 -180 0 0 1.75 329.7 L19.85 329.7 L19.85 329.79 Z" class="st16"/></g><g id="shape1025-63" transform="translate(29.6889,-10.1074)"><title>Sheet.1025</title><path d="M3.31 322.2 A5.94264 5.94264 0 0 1 -0 321.22 L3.29 329.79 L6.53 321.29 A6.1862 6.1862 0 0 1 3.31 322.2 Z" class="st17"/></g><g id="shape1026-65" transform="translate(26.888,-17.7062)"><title>Sheet.1026</title><ellipse cx="6.113" cy="323.682" class="st16" rx="6.113" ry="6.113"/></g><g id="shape1027-67"><title>Sheet.1027</title><path d="M29.69 329.79 A2.89826 2.89826 -180 0 0 32.59 326.9 A1.60744 1.60744 -180 0 0 32.59 326.56 C31.44 317.45 26.25 310.04 16.37 310.04 C6.48 310.04 1.07 316.33 0 326.48 A2.92261 2.92261 -180 0 0 2.61 329.67 L29.64 329.67 L29.69 329.79 Z" class="st18"/></g><g id="shape1028-71" transform="translate(11.6174,-6.25926)"><title>Sheet.1028</title><path d="M4.87 318.47 A9.0601 9.0601 0 0 1 0 317.01 L4.87 329.79 L9.74 317.11 A9.27929 9.27929 0 0 1 4.87 318.47 Z" class="st17"/></g><g id="shape1029-73" transform="translate(7.28218,-17.5844)"><title>Sheet.1029</title><ellipse cx="9.133" cy="320.662" class="st19" rx="9.133" ry="9.133"/></g></g><g id="shape1030-77" transform="translate(1120.24,95.4927) rotate(90)"><title>Sheet.1030</title><path d="M0 329.79 L60.31 329.79" class="st10"/></g><g id="shape1031-82" transform="translate(807.15,-197.294)"><title>Sheet.1031</title><desc>Triggers</desc><rect width="93.652" height="20" x="0" y="309.795" class="st13"/><text x="14.55" y="325.19" class="st14">Triggers</text></g><g id="shape1032-85" transform="translate(690.526,-290.995)"><title>Sheet.1032</title><desc>All tenants&apos; users</desc><rect width="187.897" height="20" x="0" y="309.795" class="st13"/><text x="21.52" y="325.19" class="st9">All te<tspan class="st12">nant</tspan>s&apos;<tspan class="st12"> </tspan><tspan class="st12">users</tspan></text></g><g id="shape1033-91" transform="translate(818.787,-152.979)"><title>Sheet.1033</title><path d="M240.94 329.79 L240.94 225.79 L9.81 225.79" class="st20"/></g><g id="group1045-97" transform="translate(18.25,-18)"><title>Sheet.1045</title><g id="group1034-98" transform="translate(43.2284,-50.625)"><title>Icon-storage-98.1034</title><g id="group1035-99"><title>Sheet.1035</title><g id="shape1036-100" transform="translate(46.99,-34.8635)"><title>Sheet.1036</title><path d="M5.13 329.79 A4.99527 4.99527 0 0 1 2.34 328.97 A5.06417 5.06417 0 0 1 -0 325.52 A5.27087 5.27087 0 0 1 5.13 319.08 A5.20197 5.20197 0 0 1 7.96 319.91 A5.30532 5.30532 0 0 1 10.27 323.35 A5.27087 5.27087 0 0 1 5.13 329.76 L5.13 329.79 Z" class="st2"/></g><g id="shape1037-102" transform="translate(46.9888,-2.20481)"><title>Sheet.1037</title><path d="M5.13 329.79 A4.99527 4.99527 0 0 1 2.34 328.97 A5.20197 5.20197 0 0 1 0.69 321.73 A5.23642 5.23642 0 0 1 7.96 320.08 A5.27087 5.27087 0 0 1 5.13 329.79 Z" class="st2"/></g><g id="group1038-104"><title>Sheet.1038</title><g id="shape1039-105"><title>Sheet.1039</title><path d="M18.95 293.48 C8.61 293.48 0 290.42 0 286.66 L0 322.9 C0 326.66 8.3 329.79 18.57 329.79 L18.95 329.79 C29.28 329.79 37.79 326.76 37.79 322.9 L37.79 286.66 C37.65 290.42 29.28 293.48 18.95 293.48 Z" class="st3"/></g><g id="shape1040-108" transform="translate(0,-36.2415)"><title>Sheet.1040</title><path d="M37.65 322.9 C37.65 326.66 29.21 329.79 18.81 329.79 C8.41 329.79 0 326.66 0 322.9 C0 319.15 8.61 316.08 18.95 316.08 C29.28 316.08 37.79 319.12 37.79 322.97 L37.65 322.9 Z" class="st4"/><path d="M37.65 322.9 C37.65 326.66 29.21 329.79 18.81 329.79 C8.41 329.79 0 326.66 0 322.9 C0 319.15 8.61 316.08 18.95 316.08 C29.28 316.08 37.79 319.12 37.79 322.97" class="st5"/></g><g id="shape1041-111" transform="translate(4.37517,-39.3765)"><title>Sheet.1041</title><path d="M28.87 325.49 C28.87 327.87 22.43 329.79 14.43 329.79 C6.44 329.79 0 327.87 0 325.49 C0 323.11 6.48 321.15 14.57 321.15 C22.67 321.15 29.01 323.08 29.01 325.49 L28.87 325.49 Z" class="st6"/><path d="M28.87 325.49 C28.87 327.87 22.43 329.79 14.43 329.79 C6.44 329.79 0 327.87 0 325.49 C0 323.11 6.48 321.15 14.57 321.15 C22.67 321.15 29.01 323.08 29.01 325.49" class="st5"/></g><g id="shape1042-114" transform="translate(7.54458,-39.3765)"><title>Sheet.1042</title><path d="M11.4 326.49 A34.8635 34.8635 -180 0 0 -0 328.11 A33.3133 33.3133 -180 0 0 11.4 329.79 A33.6922 33.6922 -180 0 0 22.84 328.11 A34.9324 34.9324 -180 0 0 11.4 326.49 Z" class="st7"/></g></g></g></g><g id="shape1043-116" transform="translate(81.3935,-83.8138) rotate(0.0648577)"><title>Sheet.1043</title><path d="M0 329.79 L51.74 329.79" class="st10"/></g><g id="shape1044-121" transform="translate(7.99361E-15,-1.70079)"><title>Sheet.1044</title><desc>Tenant B data</desc><rect width="105.872" height="49.953" x="0" y="279.842" class="st13"/><text x="15.31" y="299.42" class="st9">Tenant <tspan class="st12">B</tspan> <tspan x="34.18" class="st12" dy="1.2em">data</tspan></text></g></g><g id="shape1046-126" transform="translate(874.354,-115.688)"><title>Dynamic connector.1046</title><path d="M0 322.71 L91.49 322.71" class="st10"/></g><g id="shape1047-131" transform="translate(704.838,-115.688)"><title>Dynamic connector.1047</title><path d="M0 322.71 L-91.49 322.71" class="st10"/></g><g id="shape1048-136" transform="translate(331.228,-115.688)"><title>Dynamic connector.1048</title><path d="M0 322.71 L91.49 322.71" class="st10"/></g></g></svg>