<svg xmlns="http://www.w3.org/2000/svg" xmlns:ev="http://www.w3.org/2001/xml-events" xmlns:xlink="http://www.w3.org/1999/xlink" width="1017.754" height="360.265" class="st17" color-interpolation-filters="sRGB" viewBox="0 0 763.314 270.198" xml:space="preserve"><style type="text/css">.st1,.st2{fill:#fff;stroke:none;stroke-width:.25}.st2{fill:#cce7fc;stroke:#accde7}.st3{fill:#000;font-family:Segoe UI;font-size:.916672em;font-weight:700}.st4{marker-end:url(#mrkr13-17);stroke-linecap:round;stroke-linejoin:round;stroke-width:1}.st4,.st5,.st6{stroke:#000}.st5{fill:#000;fill-opacity:1;stroke-opacity:1;stroke-width:.28409090909091}.st6{marker-start:url(#mrkr13-23);stroke-linecap:round;stroke-linejoin:round;stroke-width:1}.st7{fill:none;stroke:none;stroke-width:.25}.st8{fill:#000;font-family:Segoe UI;font-size:.916672em}.st9{fill:url(#grad1-34);stroke:none;stroke-linecap:butt;stroke-width:.75}.st10{fill:#0078d4}.st10,.st11,.st12,.st13{stroke:none;stroke-linecap:butt;stroke-width:.75}.st11{fill:#fff;fill-opacity:.8}.st12{fill:url(#grad0-45)}.st13{fill:url(#grad0-51)}.st14{font-size:1em}.st15{marker-end:url(#mrkr13-69);stroke:#000;stroke-width:.75}.st16{fill:#000;fill-opacity:1;stroke:#000;stroke-opacity:1;stroke-width:.22935779816514}.st17{fill:none;fill-rule:evenodd;font-size:12px;overflow:visible;stroke-linecap:square;stroke-miterlimit:3}</style><defs id="Patterns_And_Gradients"><radialGradient id="grad1-34" cx="1" cy="1" r="1.4"><stop offset=".195" stop-color="#ffd70f" stop-opacity="1"/><stop offset=".44" stop-color="#ffcb12" stop-opacity="1"/><stop offset=".875" stop-color="#feac19" stop-opacity="1"/><stop offset="1" stop-color="#fea11b" stop-opacity="1"/></radialGradient><linearGradient id="grad0-45" x1="0" x2="1" y1="0" y2="0" gradientTransform="rotate(90 0.5 0.5)"><stop offset=".22" stop-color="#32d4f5" stop-opacity="1"/><stop offset="1" stop-color="#198ab3" stop-opacity="1"/></linearGradient><linearGradient id="grad0-51" x1="0" x2="1" y1="0" y2="0" gradientTransform="rotate(85.401203911388 0.5 0.5)"><stop offset=".22" stop-color="#32d4f5" stop-opacity="1"/><stop offset="1" stop-color="#198ab3" stop-opacity="1"/></linearGradient></defs><defs id="Markers"><g id="lend13"><path style="stroke:none" d="M 3 1 L 0 0 L 3 -1 L 3 1"/></g><marker id="mrkr13-17" class="st5" markerUnits="strokeWidth" orient="auto" overflow="visible" refX="-10.56"><use transform="scale(-3.52,-3.52)" xlink:href="#lend13"/></marker><marker id="mrkr13-23" class="st5" markerUnits="strokeWidth" orient="auto" overflow="visible" refX="10.2"><use transform="scale(3.52)" xlink:href="#lend13"/></marker><marker id="mrkr13-69" class="st16" markerUnits="strokeWidth" orient="auto" overflow="visible" refX="-13.08"><use transform="scale(-4.36,-4.36)" xlink:href="#lend13"/></marker></defs><g><title>VBackground-1</title><g id="shape1-1"><title>Solid</title><rect width="763.314" height="270.198" x="0" y="0" class="st1"/></g></g><g><title>Page-1</title><g id="shape1-3" transform="translate(32.4232,-32.9734)"><title>Sheet.1</title><desc>Pre-trained model</desc><rect width="169.516" height="60.409" x="0" y="209.789" class="st2"/><text x="37.57" y="243.29" class="st3">Pre-trained model</text></g><g id="shape2-6" transform="translate(303.986,-32.9734)"><title>Sheet.2</title><desc>Inference</desc><rect width="169.516" height="60.409" x="0" y="209.789" class="st2"/><text x="60.5" y="243.29" class="st3">Inference</text></g><g id="shape3-9" transform="translate(575.549,-32.9734)"><title>Sheet.3</title><desc>Model output</desc><rect width="169.516" height="60.409" x="0" y="209.789" class="st2"/><text x="48.96" y="243.29" class="st3">Model output</text></g><g id="shape4-12" transform="translate(479.171,-61.3198)"><title>Sheet.4</title><path d="M0 270.2 L85.82 270.2" class="st4"/></g><g id="shape5-18" transform="translate(202.097,-64.5594)"><title>Sheet.5</title><path d="M10.2 270.2 L10.56 270.2 L96.38 270.2" class="st6"/></g><g id="shape6-24" transform="translate(213.277,-32.9734)"><title>Sheet.6</title><desc>Users</desc><rect width="81.669" height="20" x="0" y="250.198" class="st7"/><text x="27.6" y="263.5" class="st8">Users</text></g><g id="shape7-27" transform="translate(482.541,-32.9734)"><title>Sheet.7</title><desc>Produces</desc><rect width="81.669" height="20" x="0" y="250.198" class="st7"/><text x="18.52" y="263.5" class="st8">Produces</text></g><g id="group8-30" transform="translate(393.744,-131.704)"><title>MsPortalFx.base.images-37</title><g id="shape9-31"><title>Sheet.9</title><path d="M7.81 256.88 L0.42 256.88 a0.381743 0.381743 0 0 1 -0.41848 -0.31945 a0.279519 0.279519 0 0 1 0.0367368 -0.135766 L8.9 241.08 a0.437647 0.437647 0 0 1 0.381743 -0.19167 L18.02 240.89 a0.380146 0.380146 0 0 1 0.41848 0.31945 a0.282714 0.282714 0 0 1 -0.0734736 0.190073 L7.96 253.4 L18.1 253.4 a0.381743 0.381743 0 0 1 0.41848 0.31945 a0.295492 0.295492 0 0 1 -0.107016 0.218823 L1.55 269.3 C1.39 269.38 0.28 270.2 0.82 268.96 L7.81 256.88 Z" class="st9"/></g></g><g id="group10-35" transform="translate(366.8,-185.127)"><title>Icon-identity-223</title><g id="shape11-36" transform="translate(22.0901,-5.94264)"><title>Sheet.11</title><path d="M19.85 270.2 A1.92405 1.92405 -180 0 0 21.8 268.27 a0.681943 0.681943 -180 0 0 -0.0487102 -0.316616 C20.99 261.87 17.51 256.9 10.89 256.9 C4.26 256.9 0.68 261.19 0 267.96 A1.97276 1.97276 -180 0 0 1.75 270.1 L19.85 270.1 L19.85 270.2 Z" class="st10"/></g><g id="shape12-38" transform="translate(29.6889,-10.1074)"><title>Sheet.12</title><path d="M3.31 262.6 A5.94264 5.94264 0 0 1 -0 261.63 L3.29 270.2 L6.53 261.7 A6.1862 6.1862 0 0 1 3.31 262.6 Z" class="st11"/></g><g id="shape13-40" transform="translate(26.888,-17.7062)"><title>Sheet.13</title><ellipse cx="6.113" cy="264.085" class="st10" rx="6.113" ry="6.113"/></g><g id="shape14-42"><title>Sheet.14</title><path d="M29.69 270.2 A2.89826 2.89826 -180 0 0 32.59 267.3 A1.60744 1.60744 -180 0 0 32.59 266.96 C31.44 257.85 26.25 250.45 16.37 250.45 C6.48 250.45 1.07 256.73 0 266.89 A2.92261 2.92261 -180 0 0 2.61 270.08 L29.64 270.08 L29.69 270.2 Z" class="st12"/></g><g id="shape15-46" transform="translate(11.6174,-6.25926)"><title>Sheet.15</title><path d="M4.87 258.87 A9.0601 9.0601 0 0 1 0 257.41 L4.87 270.2 L9.74 257.51 A9.27929 9.27929 0 0 1 4.87 258.87 Z" class="st11"/></g><g id="shape16-48" transform="translate(7.28218,-17.5844)"><title>Sheet.16</title><ellipse cx="9.133" cy="261.065" class="st13" rx="9.133" ry="9.133"/></g></g><g id="shape17-52" transform="translate(659.787,95.4927) rotate(90)"><title>Sheet.17</title><path d="M0 270.2 L60.31 270.2" class="st4"/></g><g id="shape18-57" transform="translate(412.266,-137.698)"><title>Sheet.18</title><desc>Triggers</desc><rect width="69.181" height="20" x="0" y="250.198" class="st7"/><text x="14.87" y="263.5" class="st8">Triggers</text></g><g id="shape19-60" transform="translate(318.298,-231.399)"><title>Sheet.19</title><desc>All tenants&apos; users</desc><rect width="140.892" height="20" x="0" y="250.198" class="st7"/><text x="26.19" y="263.5" class="st3">All tenants<tspan class="st14">&apos;</tspan> users</text></g><g id="shape20-64" transform="translate(417.935,-93.3828)"><title>Sheet.20</title><path d="M240.94 270.2 L240.94 166.2 L9.81 166.2" class="st15"/></g></g></svg>