<svg xmlns="http://www.w3.org/2000/svg" xmlns:ev="http://www.w3.org/2001/xml-events" xmlns:xlink="http://www.w3.org/1999/xlink" width="1544.995" height="463.93" class="st23" color-interpolation-filters="sRGB" viewBox="0 0 1158.75 347.947" xml:space="preserve"><style type="text/css">.st1{stroke:none;stroke-width:.25}.st1,.st2{fill:#fff}.st2,.st3{stroke:none}.st2,.st3{stroke-linecap:butt;stroke-width:.75}.st3{fill:url(#grad0-13)}.st4{fill:#e8e8e8}.st5{stroke:none;stroke-linecap:butt;stroke-width:.75}.st6{fill:#50e6ff}.st7{fill:#198ab3;stroke:none;stroke-linecap:butt;stroke-width:.75}.st8{fill:#cce7fc;stroke:#accde7;stroke-width:.25}.st9{fill:#000;font-family:Segoe UI;font-size:1.16666em;font-weight:700}.st10{marker-end:url(#mrkr13-48);stroke:#000;stroke-linecap:round;stroke-linejoin:round;stroke-width:1}.st11{fill:#000;fill-opacity:1;stroke:#000;stroke-opacity:1;stroke-width:.28409090909091}.st12{marker-start:url(#mrkr13-78);stroke:#000;stroke-linecap:round;stroke-linejoin:round;stroke-width:1}.st13{fill:none;stroke:none;stroke-width:.25}.st14{fill:#000;font-family:Segoe UI;font-size:1.16666em}.st15{font-size:1em}.st16,.st17{stroke-width:.75}.st16{fill:url(#grad1-100);stroke:none;stroke-linecap:butt}.st17{fill:#0078d4}.st17,.st18,.st19{stroke:none;stroke-linecap:butt}.st18{fill:#fff;fill-opacity:.8;stroke-width:.75}.st19{fill:url(#grad0-111)}.st19,.st20,.st21{stroke-width:.75}.st20{fill:url(#grad0-117);stroke:none;stroke-linecap:butt}.st21{marker-end:url(#mrkr13-135);stroke:#000}.st22{fill:#000;fill-opacity:1;stroke:#000;stroke-opacity:1;stroke-width:.22935779816514}.st23{fill:none;fill-rule:evenodd;font-size:12px;overflow:visible;stroke-linecap:square;stroke-miterlimit:3}</style><defs id="Patterns_And_Gradients"><linearGradient id="grad0-13" x1="0" x2="1" y1="0" y2="0" gradientTransform="rotate(0 0.5 0.5)"><stop offset="0" stop-color="#005ba1" stop-opacity="1"/><stop offset=".07" stop-color="#0060a9" stop-opacity="1"/><stop offset=".36" stop-color="#0071c8" stop-opacity="1"/><stop offset=".52" stop-color="#0078d4" stop-opacity="1"/><stop offset=".64" stop-color="#0074cd" stop-opacity="1"/><stop offset=".82" stop-color="#006abb" stop-opacity="1"/><stop offset="1" stop-color="#005ba1" stop-opacity="1"/></linearGradient><radialGradient id="grad1-100" cx="1" cy="1" r="1.4"><stop offset=".195" stop-color="#ffd70f" stop-opacity="1"/><stop offset=".44" stop-color="#ffcb12" stop-opacity="1"/><stop offset=".875" stop-color="#feac19" stop-opacity="1"/><stop offset="1" stop-color="#fea11b" stop-opacity="1"/></radialGradient><linearGradient id="grad0-111" x1="0" x2="1" y1="0" y2="0" gradientTransform="rotate(90 0.5 0.5)"><stop offset=".22" stop-color="#32d4f5" stop-opacity="1"/><stop offset="1" stop-color="#198ab3" stop-opacity="1"/></linearGradient><linearGradient id="grad0-117" x1="0" x2="1" y1="0" y2="0" gradientTransform="rotate(85.401203911388 0.5 0.5)"><stop offset=".22" stop-color="#32d4f5" stop-opacity="1"/><stop offset="1" stop-color="#198ab3" stop-opacity="1"/></linearGradient></defs><defs id="Markers"><g id="lend13"><path d="M 3 1 L 0 0 L 3 -1 L 3 1" style="stroke:none"/></g><marker id="mrkr13-48" class="st11" markerUnits="strokeWidth" orient="auto" overflow="visible" refX="-10.56"><use transform="scale(-3.52,-3.52)" xlink:href="#lend13"/></marker><marker id="mrkr13-78" class="st11" markerUnits="strokeWidth" orient="auto" overflow="visible" refX="10.2"><use transform="scale(3.52)" xlink:href="#lend13"/></marker><marker id="mrkr13-135" class="st22" markerUnits="strokeWidth" orient="auto" overflow="visible" refX="-13.08"><use transform="scale(-4.36,-4.36)" xlink:href="#lend13"/></marker></defs><g><title>VBackground-1</title><g id="shape1-1"><title>Solid</title><rect width="1158.75" height="347.947" x="0" y="0" class="st1"/></g></g><g><title>Page-1</title><g id="group1-3" transform="translate(48.0138,-148.108)"><title>Icon-storage-98</title><g id="group2-4"><title>Sheet.2</title><g id="shape4-5" transform="translate(46.99,-34.8635)"><title>Sheet.4</title><path d="M5.13 347.95 A4.99527 4.99527 0 0 1 2.34 347.12 A5.06417 5.06417 0 0 1 -0 343.68 A5.27087 5.27087 0 0 1 5.13 337.23 A5.20197 5.20197 0 0 1 7.96 338.06 A5.30532 5.30532 0 0 1 10.27 341.51 A5.27087 5.27087 0 0 1 5.13 347.91 L5.13 347.95 Z" class="st2"/></g><g id="shape6-7" transform="translate(46.9888,-2.20481)"><title>Sheet.6</title><path d="M5.13 347.95 A4.99527 4.99527 0 0 1 2.34 347.12 A5.20197 5.20197 0 0 1 0.69 339.89 A5.23642 5.23642 0 0 1 7.96 338.23 A5.27087 5.27087 0 0 1 5.13 347.95 Z" class="st2"/></g><g id="group8-9"><title>Sheet.8</title><g id="shape9-10"><title>Sheet.9</title><path d="M18.95 311.64 C8.61 311.64 0 308.57 0 304.82 L0 341.06 C0 344.81 8.3 347.95 18.57 347.95 L18.95 347.95 C29.28 347.95 37.79 344.92 37.79 341.06 L37.79 304.82 C37.65 308.57 29.28 311.64 18.95 311.64 Z" class="st3"/></g><g id="shape10-14" transform="translate(0,-36.2415)"><title>Sheet.10</title><path d="M37.65 341.06 C37.65 344.81 29.21 347.95 18.81 347.95 C8.41 347.95 0 344.81 0 341.06 C0 337.3 8.61 334.24 18.95 334.24 C29.28 334.24 37.79 337.27 37.79 341.13 L37.65 341.06 Z" class="st4"/><path d="M37.65 341.06 C37.65 344.81 29.21 347.95 18.81 347.95 C8.41 347.95 0 344.81 0 341.06 C0 337.3 8.61 334.24 18.95 334.24 C29.28 334.24 37.79 337.27 37.79 341.13" class="st5"/></g><g id="shape11-17" transform="translate(4.37517,-39.3765)"><title>Sheet.11</title><path d="M28.87 343.64 C28.87 346.02 22.43 347.95 14.43 347.95 C6.44 347.95 0 346.02 0 343.64 C0 341.26 6.48 339.3 14.57 339.3 C22.67 339.3 29.01 341.23 29.01 343.64 L28.87 343.64 Z" class="st6"/><path d="M28.87 343.64 C28.87 346.02 22.43 347.95 14.43 347.95 C6.44 347.95 0 346.02 0 343.64 C0 341.26 6.48 339.3 14.57 339.3 C22.67 339.3 29.01 341.23 29.01 343.64" class="st5"/></g><g id="shape12-20" transform="translate(7.54458,-39.3765)"><title>Sheet.12</title><path d="M11.4 344.64 A34.8635 34.8635 -180 0 0 -0 346.26 A33.3133 33.3133 -180 0 0 11.4 347.95 A33.6922 33.6922 -180 0 0 22.84 346.26 A34.9324 34.9324 -180 0 0 11.4 344.64 Z" class="st7"/></g></g></g></g><g id="group13-22" transform="translate(47.7322,-82.3759)"><title>Icon-storage-98.13</title><g id="group14-23"><title>Sheet.14</title><g id="shape15-24" transform="translate(46.99,-34.8635)"><title>Sheet.15</title><path d="M5.13 347.95 A4.99527 4.99527 0 0 1 2.34 347.12 A5.06417 5.06417 0 0 1 -0 343.68 A5.27087 5.27087 0 0 1 5.13 337.23 A5.20197 5.20197 0 0 1 7.96 338.06 A5.30532 5.30532 0 0 1 10.27 341.51 A5.27087 5.27087 0 0 1 5.13 347.91 L5.13 347.95 Z" class="st2"/></g><g id="shape16-26" transform="translate(46.9888,-2.20481)"><title>Sheet.16</title><path d="M5.13 347.95 A4.99527 4.99527 0 0 1 2.34 347.12 A5.20197 5.20197 0 0 1 0.69 339.89 A5.23642 5.23642 0 0 1 7.96 338.23 A5.27087 5.27087 0 0 1 5.13 347.95 Z" class="st2"/></g><g id="group17-28"><title>Sheet.17</title><g id="shape18-29"><title>Sheet.18</title><path d="M18.95 311.64 C8.61 311.64 0 308.57 0 304.82 L0 341.06 C0 344.81 8.3 347.95 18.57 347.95 L18.95 347.95 C29.28 347.95 37.79 344.92 37.79 341.06 L37.79 304.82 C37.65 308.57 29.28 311.64 18.95 311.64 Z" class="st3"/></g><g id="shape19-32" transform="translate(0,-36.2415)"><title>Sheet.19</title><path d="M37.65 341.06 C37.65 344.81 29.21 347.95 18.81 347.95 C8.41 347.95 0 344.81 0 341.06 C0 337.3 8.61 334.24 18.95 334.24 C29.28 334.24 37.79 337.27 37.79 341.13 L37.65 341.06 Z" class="st4"/><path d="M37.65 341.06 C37.65 344.81 29.21 347.95 18.81 347.95 C8.41 347.95 0 344.81 0 341.06 C0 337.3 8.61 334.24 18.95 334.24 C29.28 334.24 37.79 337.27 37.79 341.13" class="st5"/></g><g id="shape20-35" transform="translate(4.37517,-39.3765)"><title>Sheet.20</title><path d="M28.87 343.64 C28.87 346.02 22.43 347.95 14.43 347.95 C6.44 347.95 0 346.02 0 343.64 C0 341.26 6.48 339.3 14.57 339.3 C22.67 339.3 29.01 341.23 29.01 343.64 L28.87 343.64 Z" class="st6"/><path d="M28.87 343.64 C28.87 346.02 22.43 347.95 14.43 347.95 C6.44 347.95 0 346.02 0 343.64 C0 341.26 6.48 339.3 14.57 339.3 C22.67 339.3 29.01 341.23 29.01 343.64" class="st5"/></g><g id="shape21-38" transform="translate(7.54458,-39.3765)"><title>Sheet.21</title><path d="M11.4 344.64 A34.8635 34.8635 -180 0 0 -0 346.26 A33.3133 33.3133 -180 0 0 11.4 347.95 A33.6922 33.6922 -180 0 0 22.84 346.26 A34.9324 34.9324 -180 0 0 11.4 344.64 Z" class="st7"/></g></g></g></g><g id="shape22-40" transform="translate(156.294,-110.722)"><title>Sheet.22</title><desc>Training</desc><rect width="169.516" height="60.409" x="0" y="287.538" class="st8"/><text x="57.32" y="321.94" class="st9">Training</text></g><g id="shape23-43" transform="translate(90.4183,-160.692)"><title>Sheet.23</title><path d="M0 347.95 L46.25 347.95" class="st10"/></g><g id="shape24-49" transform="translate(89.8169,-118.57)"><title>Sheet.24</title><path d="M0 347.95 L46.85 347.95" class="st10"/></g><g id="shape25-54" transform="translate(427.856,-110.722)"><title>Sheet.25</title><desc>Global model</desc><rect width="169.516" height="60.409" x="0" y="287.538" class="st8"/><text x="40.68" y="321.94" class="st9">Global model</text></g><g id="shape26-57" transform="translate(699.419,-110.722)"><title>Sheet.26</title><desc>Inference</desc><rect width="169.516" height="60.409" x="0" y="287.538" class="st8"/><text x="53.88" y="321.94" class="st9">Inference</text></g><g id="shape27-60" transform="translate(970.982,-110.722)"><title>Sheet.27</title><desc>Model output</desc><rect width="169.516" height="60.409" x="0" y="287.538" class="st8"/><text x="39.2" y="321.94" class="st9">Model output</text></g><g id="shape28-63" transform="translate(331.478,-139.069)"><title>Sheet.28</title><path d="M0 347.95 L85.82 347.95" class="st10"/></g><g id="shape29-68" transform="translate(874.604,-139.069)"><title>Sheet.29</title><path d="M0 347.95 L85.82 347.95" class="st10"/></g><g id="shape30-73" transform="translate(597.53,-142.308)"><title>Sheet.30</title><path d="M10.2 347.95 L10.56 347.95 L96.38 347.95" class="st12"/></g><g id="shape31-79" transform="translate(334.848,-110.722)"><title>Sheet.31</title><desc>Produces</desc><rect width="81.669" height="20" x="0" y="327.947" class="st13"/><text x="12.43" y="342.15" class="st14">Produces</text></g><g id="shape32-82" transform="translate(608.71,-110.722)"><title>Sheet.32</title><desc>Users</desc><rect width="81.669" height="20" x="0" y="327.947" class="st13"/><text x="23.99" y="342.15" class="st14">Users</text></g><g id="shape33-85" transform="translate(877.974,-110.722)"><title>Sheet.33</title><desc>Produces</desc><rect width="81.669" height="20" x="0" y="327.947" class="st13"/><text x="12.43" y="342.15" class="st14">Produces</text></g><g id="shape34-88" transform="translate(29.8563,-202.502)"><title>Sheet.34</title><desc>Tenant A data</desc><rect width="81.669" height="49.953" x="0" y="297.995" class="st13"/><text x="11.13" y="318.77" class="st9">Tenant A <tspan x="26.24" class="st15" dy="1.2em">data</tspan></text></g><g id="shape35-92" transform="translate(25.3366,-32.4232)"><title>Sheet.35</title><desc>Tenant B data</desc><rect width="81.669" height="49.953" x="0" y="297.995" class="st13"/><text x="11.57" y="318.77" class="st9">Tenant B <tspan x="26.24" class="st15" dy="1.2em">data</tspan></text></g><g id="group36-96" transform="translate(789.177,-209.453)"><title>MsPortalFx.base.images-37</title><g id="shape37-97"><title>Sheet.37</title><path d="M7.81 334.63 L0.42 334.63 a0.381743 0.381743 0 0 1 -0.41848 -0.31945 a0.279519 0.279519 0 0 1 0.0367368 -0.135766 L8.9 318.83 a0.437647 0.437647 0 0 1 0.381743 -0.19167 L18.02 318.64 a0.380146 0.380146 0 0 1 0.41848 0.31945 a0.282714 0.282714 0 0 1 -0.0734736 0.190073 L7.96 331.15 L18.1 331.15 a0.381743 0.381743 0 0 1 0.41848 0.31945 a0.295492 0.295492 0 0 1 -0.107016 0.218823 L1.55 347.05 C1.39 347.13 0.28 347.95 0.82 346.71 L7.81 334.63 Z" class="st16"/></g></g><g id="group38-101" transform="translate(622.938,-240.945)"><title>Icon-identity-223</title><g id="shape39-102" transform="translate(22.0901,-5.94264)"><title>Sheet.39</title><path d="M19.85 347.95 A1.92405 1.92405 -180 0 0 21.8 346.02 a0.681943 0.681943 -180 0 0 -0.0487102 -0.316616 C20.99 339.62 17.51 334.65 10.89 334.65 C4.26 334.65 0.68 338.94 0 345.71 A1.97276 1.97276 -180 0 0 1.75 347.85 L19.85 347.85 L19.85 347.95 Z" class="st17"/></g><g id="shape40-104" transform="translate(29.6889,-10.1074)"><title>Sheet.40</title><path d="M3.31 340.35 A5.94264 5.94264 0 0 1 -0 339.37 L3.29 347.95 L6.53 339.45 A6.1862 6.1862 0 0 1 3.31 340.35 Z" class="st18"/></g><g id="shape41-106" transform="translate(26.888,-17.7062)"><title>Sheet.41</title><ellipse cx="6.113" cy="341.834" class="st17" rx="6.113" ry="6.113"/></g><g id="shape42-108"><title>Sheet.42</title><path d="M29.69 347.95 A2.89826 2.89826 -180 0 0 32.59 345.05 A1.60744 1.60744 -180 0 0 32.59 344.71 C31.44 335.6 26.25 328.2 16.37 328.2 C6.48 328.2 1.07 334.48 0 344.64 A2.92261 2.92261 -180 0 0 2.61 347.83 L29.64 347.83 L29.69 347.95 Z" class="st19"/></g><g id="shape43-112" transform="translate(11.6174,-6.25926)"><title>Sheet.43</title><path d="M4.87 336.62 A9.0601 9.0601 0 0 1 0 335.16 L4.87 347.95 L9.74 335.26 A9.27929 9.27929 0 0 1 4.87 336.62 Z" class="st18"/></g><g id="shape44-114" transform="translate(7.28218,-17.5844)"><title>Sheet.44</title><ellipse cx="9.133" cy="338.814" class="st20" rx="9.133" ry="9.133"/></g></g><g id="shape45-118" transform="translate(1132.97,95.4927) rotate(90)"><title>Sheet.45</title><path d="M0 347.95 L60.31 347.95" class="st10"/></g><g id="shape46-123" transform="translate(807.699,-215.447)"><title>Sheet.46</title><desc>Triggers</desc><rect width="69.181" height="20" x="0" y="327.947" class="st13"/><text x="9.49" y="342.15" class="st14">Triggers</text></g><g id="shape47-126" transform="translate(574.436,-297.638)"><title>Sheet.47</title><desc>All tenants&apos; users</desc><rect width="140.892" height="20" x="0" y="327.947" class="st13"/><text x="14.11" y="342.15" class="st9">All tenants<tspan class="st15">&apos;</tspan> users</text></g><g id="shape48-130" transform="translate(813.368,-171.132)"><title>Sheet.48</title><path d="M240.94 347.95 L240.94 243.95 L9.81 243.95" class="st21"/></g></g></svg>