<svg xmlns="http://www.w3.org/2000/svg" xmlns:ev="http://www.w3.org/2001/xml-events" xmlns:xlink="http://www.w3.org/1999/xlink" width="1541.309" height="8.462in" class="st25" color-interpolation-filters="sRGB" viewBox="0 0 1155.98 609.264" xml:space="preserve"><style type="text/css">.st1{stroke:none;stroke-width:.25}.st1,.st2{fill:#fff}.st2,.st3{stroke:none}.st2,.st3{stroke-linecap:butt;stroke-width:.75}.st3{fill:url(#grad0-13)}.st4{fill:#e8e8e8}.st5{stroke:none;stroke-linecap:butt;stroke-width:.75}.st6{fill:#50e6ff}.st7{fill:#198ab3;stroke:none;stroke-linecap:butt;stroke-width:.75}.st8{fill:#cce7fc;stroke:#accde7;stroke-width:.25}.st9{fill:#000;font-family:Calibri;font-size:1.5em;font-weight:700}.st10{font-size:1em}.st11{marker-end:url(#mrkr13-31);stroke:#000;stroke-linecap:round;stroke-linejoin:round;stroke-width:1}.st12{fill:#000;fill-opacity:1;stroke:#000;stroke-opacity:1;stroke-width:.28409090909091}.st13{marker-start:url(#mrkr13-58);stroke:#000;stroke-linecap:round;stroke-linejoin:round;stroke-width:1}.st14{fill:none;stroke:none;stroke-width:.25}.st15{fill:#000;font-family:Calibri;font-size:1.5em}.st16,.st17{stroke-width:.75}.st16{fill:url(#grad1-76);stroke:none;stroke-linecap:butt}.st17{fill:#0078d4}.st17,.st18,.st19{stroke:none;stroke-linecap:butt}.st18{fill:#fff;fill-opacity:.8;stroke-width:.75}.st19{fill:url(#grad0-87)}.st19,.st20,.st21{stroke-width:.75}.st20{fill:url(#grad0-93);stroke:none;stroke-linecap:butt}.st21{marker-end:url(#mrkr13-113);stroke:#000}.st22{fill:#000;fill-opacity:1;stroke:#000;stroke-opacity:1;stroke-width:.22935779816514}.st23{fill:#212121;stroke:none;stroke-linecap:butt;stroke-width:.75}.st24{fill:#ffe9a1;stroke:#ffc000;stroke-width:.25}.st25{fill:none;fill-rule:evenodd;font-size:12px;overflow:visible;stroke-linecap:square;stroke-miterlimit:3}</style><defs id="Patterns_And_Gradients"><linearGradient id="grad0-13" x1="0" x2="1" y1="0" y2="0" gradientTransform="rotate(0 0.5 0.5)"><stop offset="0" stop-color="#005ba1" stop-opacity="1"/><stop offset=".07" stop-color="#0060a9" stop-opacity="1"/><stop offset=".36" stop-color="#0071c8" stop-opacity="1"/><stop offset=".52" stop-color="#0078d4" stop-opacity="1"/><stop offset=".64" stop-color="#0074cd" stop-opacity="1"/><stop offset=".82" stop-color="#006abb" stop-opacity="1"/><stop offset="1" stop-color="#005ba1" stop-opacity="1"/></linearGradient><radialGradient id="grad1-76" cx="1" cy="1" r="1.4"><stop offset=".195" stop-color="#ffd70f" stop-opacity="1"/><stop offset=".44" stop-color="#ffcb12" stop-opacity="1"/><stop offset=".875" stop-color="#feac19" stop-opacity="1"/><stop offset="1" stop-color="#fea11b" stop-opacity="1"/></radialGradient><linearGradient id="grad0-87" x1="0" x2="1" y1="0" y2="0" gradientTransform="rotate(90 0.5 0.5)"><stop offset=".22" stop-color="#32d4f5" stop-opacity="1"/><stop offset="1" stop-color="#198ab3" stop-opacity="1"/></linearGradient><linearGradient id="grad0-93" x1="0" x2="1" y1="0" y2="0" gradientTransform="rotate(85.401203911388 0.5 0.5)"><stop offset=".22" stop-color="#32d4f5" stop-opacity="1"/><stop offset="1" stop-color="#198ab3" stop-opacity="1"/></linearGradient></defs><defs id="Markers"><g id="lend13"><path d="M 3 1 L 0 0 L 3 -1 L 3 1" style="stroke:none"/></g><marker id="mrkr13-31" class="st12" markerUnits="strokeWidth" orient="auto" overflow="visible" refX="-10.56"><use transform="scale(-3.52,-3.52)" xlink:href="#lend13"/></marker><marker id="mrkr13-58" class="st12" markerUnits="strokeWidth" orient="auto" overflow="visible" refX="10.2"><use transform="scale(3.52)" xlink:href="#lend13"/></marker><marker id="mrkr13-113" class="st22" markerUnits="strokeWidth" orient="auto" overflow="visible" refX="-13.08"><use transform="scale(-4.36,-4.36)" xlink:href="#lend13"/></marker></defs><g><title>VBackground-1</title><g id="shape1-1"><title>Solid</title><rect width="1155.98" height="609.264" x="0" y="0" class="st1"/></g></g><g><title>Page-1</title><g id="group1-3" transform="translate(53.4331,-377.268)"><title>Icon-storage-98</title><g id="group2-4"><title>Sheet.2</title><g id="shape3-5" transform="translate(46.99,-34.8635)"><title>Sheet.3</title><path d="M5.13 609.26 A4.99527 4.99527 0 0 1 2.34 608.44 A5.06417 5.06417 0 0 1 -0 604.99 A5.27087 5.27087 0 0 1 5.13 598.55 A5.20197 5.20197 0 0 1 7.96 599.38 A5.30532 5.30532 0 0 1 10.27 602.82 A5.27087 5.27087 0 0 1 5.13 609.23 L5.13 609.26 Z" class="st2"/></g><g id="shape4-7" transform="translate(46.9888,-2.20481)"><title>Sheet.4</title><path d="M5.13 609.26 A4.99527 4.99527 0 0 1 2.34 608.44 A5.20197 5.20197 0 0 1 0.69 601.2 A5.23642 5.23642 0 0 1 7.96 599.55 A5.27087 5.27087 0 0 1 5.13 609.26 Z" class="st2"/></g><g id="group5-9"><title>Sheet.5</title><g id="shape6-10"><title>Sheet.6</title><path d="M18.95 572.95 C8.61 572.95 0 569.89 0 566.13 L0 602.37 C0 606.13 8.3 609.26 18.57 609.26 L18.95 609.26 C29.28 609.26 37.79 606.23 37.79 602.37 L37.79 566.13 C37.65 569.89 29.28 572.95 18.95 572.95 Z" class="st3"/></g><g id="shape7-14" transform="translate(0,-36.2415)"><title>Sheet.7</title><path d="M37.65 602.37 C37.65 606.13 29.21 609.26 18.81 609.26 C8.41 609.26 0 606.13 0 602.37 C0 598.62 8.61 595.55 18.95 595.55 C29.28 595.55 37.79 598.58 37.79 602.44 L37.65 602.37 Z" class="st4"/><path d="M37.65 602.37 C37.65 606.13 29.21 609.26 18.81 609.26 C8.41 609.26 0 606.13 0 602.37 C0 598.62 8.61 595.55 18.95 595.55 C29.28 595.55 37.79 598.58 37.79 602.44" class="st5"/></g><g id="shape8-17" transform="translate(4.37517,-39.3765)"><title>Sheet.8</title><path d="M28.87 604.96 C28.87 607.34 22.43 609.26 14.43 609.26 C6.44 609.26 0 607.34 0 604.96 C0 602.58 6.48 600.62 14.57 600.62 C22.67 600.62 29.01 602.55 29.01 604.96 L28.87 604.96 Z" class="st6"/><path d="M28.87 604.96 C28.87 607.34 22.43 609.26 14.43 609.26 C6.44 609.26 0 607.34 0 604.96 C0 602.58 6.48 600.62 14.57 600.62 C22.67 600.62 29.01 602.55 29.01 604.96" class="st5"/></g><g id="shape9-20" transform="translate(7.54458,-39.3765)"><title>Sheet.9</title><path d="M11.4 605.96 A34.8635 34.8635 -180 0 0 -0 607.58 A33.3133 33.3133 -180 0 0 11.4 609.26 A33.6922 33.6922 -180 0 0 22.84 607.58 A34.9324 34.9324 -180 0 0 11.4 605.96 Z" class="st7"/></g></g></g></g><g id="shape19-22" transform="translate(153.525,-372.039)"><title>Sheet.19</title><desc>Tuning for tenant A</desc><rect width="169.516" height="60.409" x="0" y="548.855" class="st8"/><text x="32.35" y="573.66" class="st9">Tuning for <tspan x="32.35" class="st10" dy="1.2em">tenant A</tspan></text></g><g id="shape20-26" transform="translate(96.7174,-402.449)"><title>Sheet.20</title><path d="M0 609.26 L46.25 609.26" class="st11"/></g><g id="shape22-32" transform="translate(425.088,-372.039)"><title>Sheet.22</title><desc>Tenant A model</desc><rect width="169.516" height="60.409" x="0" y="548.855" class="st8"/><text x="25.3" y="584.46" class="st9">Tenant A<tspan class="st10"> </tspan><tspan class="st10">model</tspan></text></g><g id="shape23-37" transform="translate(696.651,-372.039)"><title>Sheet.23</title><desc>Inference</desc><rect width="169.516" height="60.409" x="0" y="548.855" class="st8"/><text x="49.29" y="584.46" class="st9">Inference</text></g><g id="shape24-40" transform="translate(968.214,-372.039)"><title>Sheet.24</title><desc>Model output</desc><rect width="169.516" height="60.409" x="0" y="548.855" class="st8"/><text x="32.88" y="584.46" class="st9">Model output</text></g><g id="shape25-43" transform="translate(328.71,-400.386)"><title>Sheet.25</title><path d="M0 609.26 L85.82 609.26" class="st11"/></g><g id="shape26-48" transform="translate(871.836,-400.386)"><title>Sheet.26</title><path d="M0 609.26 L85.82 609.26" class="st11"/></g><g id="shape27-53" transform="translate(594.762,-403.625)"><title>Sheet.27</title><path d="M10.2 609.26 L10.56 609.26 L96.38 609.26" class="st13"/></g><g id="shape28-59" transform="translate(332.08,-372.039)"><title>Sheet.28</title><desc>Produces</desc><rect width="81.669" height="20" x="0" y="589.264" class="st14"/><text x="7.04" y="604.66" class="st15">Produces</text></g><g id="shape29-62" transform="translate(605.942,-372.039)"><title>Sheet.29</title><desc>Users</desc><rect width="81.669" height="20" x="0" y="589.264" class="st14"/><text x="20.4" y="604.66" class="st15">Users</text></g><g id="shape30-65" transform="translate(875.206,-372.039)"><title>Sheet.30</title><desc>Produces</desc><rect width="81.669" height="20" x="0" y="589.264" class="st14"/><text x="7.04" y="604.66" class="st15">Produces</text></g><g id="shape31-68" transform="translate(34.4075,-424.154)"><title>Sheet.31</title><desc>Tenant A data</desc><rect width="81.669" height="49.953" x="0" y="559.312" class="st14"/><text x="7.14" y="578.89" class="st9">Tenant A <tspan x="24" class="st10" dy="1.2em">data</tspan></text></g><g id="group33-72" transform="translate(786.409,-470.77)"><title>MsPortalFx.base.images-37</title><g id="shape34-73"><title>Sheet.34</title><path d="M7.81 595.94 L0.42 595.94 a0.381743 0.381743 0 0 1 -0.41848 -0.31945 a0.279519 0.279519 0 0 1 0.0367368 -0.135766 L8.9 580.15 a0.437647 0.437647 0 0 1 0.381743 -0.19167 L18.02 579.95 a0.380146 0.380146 0 0 1 0.41848 0.31945 a0.282714 0.282714 0 0 1 -0.0734736 0.190073 L7.96 592.47 L18.1 592.47 a0.381743 0.381743 0 0 1 0.41848 0.31945 a0.295492 0.295492 0 0 1 -0.107016 0.218823 L1.55 608.37 C1.39 608.45 0.28 609.26 0.82 608.02 L7.81 595.94 Z" class="st16"/></g></g><g id="group35-77" transform="translate(759.465,-524.193)"><title>Icon-identity-223</title><g id="shape36-78" transform="translate(22.0901,-5.94264)"><title>Sheet.36</title><path d="M19.85 609.26 A1.92405 1.92405 -180 0 0 21.8 607.34 a0.681943 0.681943 -180 0 0 -0.0487102 -0.316616 C20.99 600.93 17.51 595.97 10.89 595.97 C4.26 595.97 0.68 600.25 0 607.02 A1.97276 1.97276 -180 0 0 1.75 609.17 L19.85 609.17 L19.85 609.26 Z" class="st17"/></g><g id="shape37-80" transform="translate(29.6889,-10.1074)"><title>Sheet.37</title><path d="M3.31 601.67 A5.94264 5.94264 0 0 1 -0 600.69 L3.29 609.26 L6.53 600.76 A6.1862 6.1862 0 0 1 3.31 601.67 Z" class="st18"/></g><g id="shape38-82" transform="translate(26.888,-17.7062)"><title>Sheet.38</title><ellipse cx="6.113" cy="603.151" class="st17" rx="6.113" ry="6.113"/></g><g id="shape39-84"><title>Sheet.39</title><path d="M29.69 609.26 A2.89826 2.89826 -180 0 0 32.59 606.37 A1.60744 1.60744 -180 0 0 32.59 606.03 C31.44 596.92 26.25 589.51 16.37 589.51 C6.48 589.51 1.07 595.8 0 605.95 A2.92261 2.92261 -180 0 0 2.61 609.14 L29.64 609.14 L29.69 609.26 Z" class="st19"/></g><g id="shape40-88" transform="translate(11.6174,-6.25926)"><title>Sheet.40</title><path d="M4.87 597.94 A9.0601 9.0601 0 0 1 0 596.48 L4.87 609.26 L9.74 596.58 A9.27929 9.27929 0 0 1 4.87 597.94 Z" class="st18"/></g><g id="shape41-90" transform="translate(7.28218,-17.5844)"><title>Sheet.41</title><ellipse cx="9.133" cy="600.131" class="st20" rx="9.133" ry="9.133"/></g></g><g id="shape42-94" transform="translate(1391.52,95.4927) rotate(90)"><title>Sheet.42</title><path d="M0 609.26 L60.31 609.26" class="st11"/></g><g id="shape43-99" transform="translate(804.931,-476.764)"><title>Sheet.43</title><desc>Triggers</desc><rect width="69.181" height="20" x="0" y="589.264" class="st14"/><text x="5.39" y="604.66" class="st15">Triggers</text></g><g id="shape44-102" transform="translate(710.963,-570.464)"><title>Sheet.44</title><desc>Tenant A&apos;s users</desc><rect width="140.892" height="20" x="0" y="589.264" class="st14"/><text x="9.28" y="604.66" class="st9">Te<tspan class="st10">nant </tspan>A&apos;s<tspan class="st10"> </tspan><tspan class="st10">users</tspan></text></g><g id="shape45-108" transform="translate(810.6,-432.449)"><title>Sheet.45</title><path d="M240.94 609.26 L240.94 505.26 L9.81 505.26" class="st21"/></g><g id="group46-114" transform="translate(53.4331,-48.2175)"><title>Icon-storage-98.46</title><g id="group47-115"><title>Sheet.47</title><g id="shape48-116" transform="translate(46.99,-34.8635)"><title>Sheet.48</title><path d="M5.13 609.26 A4.99527 4.99527 0 0 1 2.34 608.44 A5.06417 5.06417 0 0 1 -0 604.99 A5.27087 5.27087 0 0 1 5.13 598.55 A5.20197 5.20197 0 0 1 7.96 599.38 A5.30532 5.30532 0 0 1 10.27 602.82 A5.27087 5.27087 0 0 1 5.13 609.23 L5.13 609.26 Z" class="st2"/></g><g id="shape49-118" transform="translate(46.9888,-2.20481)"><title>Sheet.49</title><path d="M5.13 609.26 A4.99527 4.99527 0 0 1 2.34 608.44 A5.20197 5.20197 0 0 1 0.69 601.2 A5.23642 5.23642 0 0 1 7.96 599.55 A5.27087 5.27087 0 0 1 5.13 609.26 Z" class="st2"/></g><g id="group50-120"><title>Sheet.50</title><g id="shape51-121"><title>Sheet.51</title><path d="M18.95 572.95 C8.61 572.95 0 569.89 0 566.13 L0 602.37 C0 606.13 8.3 609.26 18.57 609.26 L18.95 609.26 C29.28 609.26 37.79 606.23 37.79 602.37 L37.79 566.13 C37.65 569.89 29.28 572.95 18.95 572.95 Z" class="st3"/></g><g id="shape52-124" transform="translate(0,-36.2415)"><title>Sheet.52</title><path d="M37.65 602.37 C37.65 606.13 29.21 609.26 18.81 609.26 C8.41 609.26 0 606.13 0 602.37 C0 598.62 8.61 595.55 18.95 595.55 C29.28 595.55 37.79 598.58 37.79 602.44 L37.65 602.37 Z" class="st4"/><path d="M37.65 602.37 C37.65 606.13 29.21 609.26 18.81 609.26 C8.41 609.26 0 606.13 0 602.37 C0 598.62 8.61 595.55 18.95 595.55 C29.28 595.55 37.79 598.58 37.79 602.44" class="st5"/></g><g id="shape53-127" transform="translate(4.37517,-39.3765)"><title>Sheet.53</title><path d="M28.87 604.96 C28.87 607.34 22.43 609.26 14.43 609.26 C6.44 609.26 0 607.34 0 604.96 C0 602.58 6.48 600.62 14.57 600.62 C22.67 600.62 29.01 602.55 29.01 604.96 L28.87 604.96 Z" class="st6"/><path d="M28.87 604.96 C28.87 607.34 22.43 609.26 14.43 609.26 C6.44 609.26 0 607.34 0 604.96 C0 602.58 6.48 600.62 14.57 600.62 C22.67 600.62 29.01 602.55 29.01 604.96" class="st5"/></g><g id="shape54-130" transform="translate(7.54458,-39.3765)"><title>Sheet.54</title><path d="M11.4 605.96 A34.8635 34.8635 -180 0 0 -0 607.58 A33.3133 33.3133 -180 0 0 11.4 609.26 A33.6922 33.6922 -180 0 0 22.84 607.58 A34.9324 34.9324 -180 0 0 11.4 605.96 Z" class="st7"/></g></g></g></g><g id="shape65-132" transform="translate(94.9974,-70.4897)"><title>Sheet.65</title><path d="M0 609.26 L46.25 609.26" class="st11"/></g><g id="shape67-137" transform="translate(423.368,-41.4773)"><title>Sheet.67</title><desc>Tenant B model</desc><rect width="169.516" height="60.409" x="0" y="548.855" class="st8"/><text x="25.7" y="584.46" class="st9">Tenant B<tspan class="st10"> </tspan><tspan class="st10">model</tspan></text></g><g id="shape68-142" transform="translate(694.931,-41.4773)"><title>Sheet.68</title><desc>Inference</desc><rect width="169.516" height="60.409" x="0" y="548.855" class="st8"/><text x="49.29" y="584.46" class="st9">Inference</text></g><g id="shape69-145" transform="translate(966.494,-41.4773)"><title>Sheet.69</title><desc>Model output</desc><rect width="169.516" height="60.409" x="0" y="548.855" class="st8"/><text x="32.88" y="584.46" class="st9">Model output</text></g><g id="shape70-148" transform="translate(326.99,-69.8238)"><title>Sheet.70</title><path d="M0 609.26 L85.82 609.26" class="st11"/></g><g id="shape71-153" transform="translate(870.116,-69.8238)"><title>Sheet.71</title><path d="M0 609.26 L85.82 609.26" class="st11"/></g><g id="shape72-158" transform="translate(593.042,-73.0634)"><title>Sheet.72</title><path d="M10.2 609.26 L10.56 609.26 L96.38 609.26" class="st13"/></g><g id="shape73-163" transform="translate(330.36,-41.4773)"><title>Sheet.73</title><desc>Produces</desc><rect width="81.669" height="20" x="0" y="589.264" class="st14"/><text x="7.04" y="604.66" class="st15">Produces</text></g><g id="shape74-166" transform="translate(604.222,-41.4773)"><title>Sheet.74</title><desc>Users</desc><rect width="81.669" height="20" x="0" y="589.264" class="st14"/><text x="20.4" y="604.66" class="st15">Users</text></g><g id="shape75-169" transform="translate(873.486,-41.4773)"><title>Sheet.75</title><desc>Produces</desc><rect width="81.669" height="20" x="0" y="589.264" class="st14"/><text x="7.04" y="604.66" class="st15">Produces</text></g><g id="shape76-172" transform="translate(34.4075,-97.4774)"><title>Sheet.76</title><desc>Tenant B data</desc><rect width="81.669" height="49.953" x="0" y="559.312" class="st14"/><text x="7.55" y="578.89" class="st9">Tenant <tspan class="st10">B</tspan> <tspan x="24" class="st10" dy="1.2em">data</tspan></text></g><g id="group78-177" transform="translate(784.689,-140.208)"><title>MsPortalFx.base.images-37.78</title><g id="shape79-178"><title>Sheet.79</title><path d="M7.81 595.94 L0.42 595.94 a0.381743 0.381743 0 0 1 -0.41848 -0.31945 a0.279519 0.279519 0 0 1 0.0367368 -0.135766 L8.9 580.15 a0.437647 0.437647 0 0 1 0.381743 -0.19167 L18.02 579.95 a0.380146 0.380146 0 0 1 0.41848 0.31945 a0.282714 0.282714 0 0 1 -0.0734736 0.190073 L7.96 592.47 L18.1 592.47 a0.381743 0.381743 0 0 1 0.41848 0.31945 a0.295492 0.295492 0 0 1 -0.107016 0.218823 L1.55 608.37 C1.39 608.45 0.28 609.26 0.82 608.02 L7.81 595.94 Z" class="st16"/></g></g><g id="group80-181" transform="translate(757.745,-193.631)"><title>Icon-identity-223.80</title><g id="shape81-182" transform="translate(22.0901,-5.94264)"><title>Sheet.81</title><path d="M19.85 609.26 A1.92405 1.92405 -180 0 0 21.8 607.34 a0.681943 0.681943 -180 0 0 -0.0487102 -0.316616 C20.99 600.93 17.51 595.97 10.89 595.97 C4.26 595.97 0.68 600.25 0 607.02 A1.97276 1.97276 -180 0 0 1.75 609.17 L19.85 609.17 L19.85 609.26 Z" class="st17"/></g><g id="shape82-184" transform="translate(29.6889,-10.1074)"><title>Sheet.82</title><path d="M3.31 601.67 A5.94264 5.94264 0 0 1 -0 600.69 L3.29 609.26 L6.53 600.76 A6.1862 6.1862 0 0 1 3.31 601.67 Z" class="st18"/></g><g id="shape83-186" transform="translate(26.888,-17.7062)"><title>Sheet.83</title><ellipse cx="6.113" cy="603.151" class="st17" rx="6.113" ry="6.113"/></g><g id="shape84-188"><title>Sheet.84</title><path d="M29.69 609.26 A2.89826 2.89826 -180 0 0 32.59 606.37 A1.60744 1.60744 -180 0 0 32.59 606.03 C31.44 596.92 26.25 589.51 16.37 589.51 C6.48 589.51 1.07 595.8 0 605.95 A2.92261 2.92261 -180 0 0 2.61 609.14 L29.64 609.14 L29.69 609.26 Z" class="st19"/></g><g id="shape85-191" transform="translate(11.6174,-6.25926)"><title>Sheet.85</title><path d="M4.87 597.94 A9.0601 9.0601 0 0 1 0 596.48 L4.87 609.26 L9.74 596.58 A9.27929 9.27929 0 0 1 4.87 597.94 Z" class="st18"/></g><g id="shape86-193" transform="translate(7.28218,-17.5844)"><title>Sheet.86</title><ellipse cx="9.133" cy="600.131" class="st20" rx="9.133" ry="9.133"/></g></g><g id="shape87-196" transform="translate(1389.8,426.055) rotate(90)"><title>Sheet.87</title><path d="M0 609.26 L60.31 609.26" class="st11"/></g><g id="shape88-201" transform="translate(803.211,-146.202)"><title>Sheet.88</title><desc>Triggers</desc><rect width="69.181" height="20" x="0" y="589.264" class="st14"/><text x="5.39" y="604.66" class="st15">Triggers</text></g><g id="shape89-204" transform="translate(709.243,-239.903)"><title>Sheet.89</title><desc>Tenant B&apos;s users</desc><rect width="140.892" height="20" x="0" y="589.264" class="st14"/><text x="9.69" y="604.66" class="st9">Te<tspan class="st10">nant </tspan>B&apos;s<tspan class="st10"> </tspan><tspan class="st10">users</tspan></text></g><g id="shape90-210" transform="translate(808.88,-101.887)"><title>Sheet.90</title><path d="M240.94 609.26 L240.94 505.26 L9.81 505.26" class="st21"/></g><g id="group95-215" transform="translate(283.038,-389.991)"><title>Sheet.95</title><g id="group91-216" transform="translate(-1.89848E-14,-11.7842)"><title>Sheet.91</title><g id="shape92-217"><title>Sheet.92</title><path d="M6.13 596.54 C6.6 596.55 7.08 596.6 7.54 596.71 C7.75 596.75 7.9 596.92 7.92 597.13 L8.03 598.12 C8.08 598.58 8.47 598.92 8.93 598.92 C9.05 598.92 9.17 598.9 9.28 598.84 L10.19 598.45 C10.38 598.36 10.6 598.41 10.75 598.56 C11.4 599.26 11.89 600.1 12.18 601.02 C12.24 601.22 12.17 601.43 12 601.56 L11.2 602.15 C10.97 602.32 10.83 602.59 10.83 602.88 C10.83 603.16 10.97 603.43 11.2 603.6 L12 604.19 C12.17 604.32 12.24 604.53 12.18 604.73 C11.89 605.65 11.41 606.49 10.75 607.19 C10.61 607.34 10.39 607.39 10.2 607.31 L9.28 606.91 C9.02 606.79 8.72 606.81 8.48 606.95 C8.23 607.09 8.06 607.34 8.03 607.63 L7.92 608.62 C7.9 608.82 7.75 608.99 7.55 609.04 C6.61 609.26 5.63 609.26 4.69 609.04 C4.49 608.99 4.34 608.82 4.32 608.62 L4.21 607.63 C4.18 607.35 4.01 607.1 3.76 606.95 C3.52 606.81 3.22 606.79 2.96 606.91 L2.04 607.31 C1.85 607.39 1.63 607.35 1.49 607.2 C0.84 606.49 0.35 605.65 0.06 604.73 C0 604.53 0.07 604.32 0.24 604.19 L1.05 603.6 C1.28 603.43 1.41 603.16 1.41 602.88 C1.41 602.59 1.28 602.32 1.05 602.15 L0.24 601.56 C0.07 601.44 0 601.22 0.06 601.02 C0.35 600.1 0.84 599.26 1.49 598.56 C1.63 598.41 1.86 598.36 2.05 598.45 L2.95 598.85 C3.22 598.96 3.52 598.94 3.77 598.8 C4.01 598.65 4.18 598.4 4.21 598.12 L4.32 597.13 C4.34 596.92 4.49 596.75 4.7 596.71 C5.16 596.6 5.64 596.55 6.13 596.54 ZM6.12 600.93 C5.04 600.93 4.17 601.8 4.17 602.88 C4.17 603.95 5.04 604.82 6.12 604.82 C7.2 604.82 8.07 603.95 8.07 602.88 C8.07 601.8 7.2 600.93 6.12 600.93 Z" class="st23"/></g></g><g id="group93-219" transform="translate(7.56052,0)"><title>Sheet.93</title><g id="shape94-220"><title>Sheet.94</title><path d="M7.85 592.97 C8.46 592.97 9.07 593.04 9.67 593.18 C9.93 593.23 10.12 593.45 10.15 593.72 L10.29 594.99 C10.36 595.57 10.85 596.01 11.44 596.01 C11.59 596.01 11.75 595.98 11.9 595.92 L13.06 595.4 C13.3 595.3 13.59 595.36 13.77 595.55 C14.61 596.45 15.24 597.53 15.6 598.7 C15.68 598.96 15.59 599.23 15.38 599.39 L14.34 600.15 C14.05 600.37 13.87 600.71 13.87 601.08 C13.87 601.44 14.05 601.79 14.34 602.01 L15.38 602.77 C15.59 602.92 15.68 603.2 15.6 603.45 C15.24 604.63 14.61 605.71 13.77 606.61 C13.59 606.8 13.31 606.86 13.06 606.75 L11.89 606.24 C11.56 606.1 11.17 606.12 10.86 606.3 C10.54 606.48 10.33 606.81 10.29 607.17 L10.15 608.44 C10.12 608.7 9.93 608.92 9.67 608.98 C8.47 609.26 7.21 609.26 6.01 608.98 C5.75 608.92 5.56 608.7 5.53 608.44 L5.39 607.17 C5.35 606.81 5.14 606.49 4.82 606.3 C4.51 606.12 4.12 606.1 3.79 606.25 L2.62 606.76 C2.38 606.87 2.09 606.81 1.91 606.61 C1.07 605.71 0.44 604.63 0.08 603.45 C0 603.2 0.09 602.93 0.3 602.77 L1.34 602.01 C1.63 601.79 1.81 601.45 1.81 601.08 C1.81 600.71 1.63 600.37 1.34 600.15 L0.3 599.39 C0.09 599.23 0 598.96 0.08 598.7 C0.44 597.53 1.07 596.45 1.91 595.55 C2.09 595.36 2.38 595.3 2.62 595.4 L3.79 595.92 C4.12 596.06 4.51 596.04 4.82 595.86 C5.14 595.67 5.35 595.35 5.39 594.99 L5.53 593.72 C5.56 593.45 5.76 593.23 6.02 593.18 C6.62 593.04 7.22 592.97 7.85 592.97 ZM7.84 598.58 C6.46 598.58 5.34 599.7 5.34 601.08 C5.34 602.46 6.46 603.58 7.84 603.58 C9.22 603.58 10.34 602.46 10.34 601.08 C10.34 599.7 9.22 598.58 7.84 598.58 Z" class="st23"/></g></g></g><g id="shape96-222" transform="translate(153.525,-41.4774)"><title>Sheet.96</title><desc>Tuning for tenant B</desc><rect width="169.516" height="60.409" x="0" y="548.855" class="st8"/><text x="32.35" y="573.66" class="st9">Tuning for <tspan x="32.35" class="st10" dy="1.2em">tenant B</tspan></text></g><g id="group97-226" transform="translate(283.038,-59.4291)"><title>Sheet.97</title><g id="group98-227" transform="translate(-1.89848E-14,-11.7842)"><title>Sheet.98</title><g id="shape99-228"><title>Sheet.99</title><path d="M6.13 596.54 C6.6 596.55 7.08 596.6 7.54 596.71 C7.75 596.75 7.9 596.92 7.92 597.13 L8.03 598.12 C8.08 598.58 8.47 598.92 8.93 598.92 C9.05 598.92 9.17 598.9 9.28 598.84 L10.19 598.45 C10.38 598.36 10.6 598.41 10.75 598.56 C11.4 599.26 11.89 600.1 12.18 601.02 C12.24 601.22 12.17 601.43 12 601.56 L11.2 602.15 C10.97 602.32 10.83 602.59 10.83 602.88 C10.83 603.16 10.97 603.43 11.2 603.6 L12 604.19 C12.17 604.32 12.24 604.53 12.18 604.73 C11.89 605.65 11.41 606.49 10.75 607.19 C10.61 607.34 10.39 607.39 10.2 607.31 L9.28 606.91 C9.02 606.79 8.72 606.81 8.48 606.95 C8.23 607.09 8.06 607.34 8.03 607.63 L7.92 608.62 C7.9 608.82 7.75 608.99 7.55 609.04 C6.61 609.26 5.63 609.26 4.69 609.04 C4.49 608.99 4.34 608.82 4.32 608.62 L4.21 607.63 C4.18 607.35 4.01 607.1 3.76 606.95 C3.52 606.81 3.22 606.79 2.96 606.91 L2.04 607.31 C1.85 607.39 1.63 607.35 1.49 607.2 C0.84 606.49 0.35 605.65 0.06 604.73 C0 604.53 0.07 604.32 0.24 604.19 L1.05 603.6 C1.28 603.43 1.41 603.16 1.41 602.88 C1.41 602.59 1.28 602.32 1.05 602.15 L0.24 601.56 C0.07 601.44 0 601.22 0.06 601.02 C0.35 600.1 0.84 599.26 1.49 598.56 C1.63 598.41 1.86 598.36 2.05 598.45 L2.95 598.85 C3.22 598.96 3.52 598.94 3.77 598.8 C4.01 598.65 4.18 598.4 4.21 598.12 L4.32 597.13 C4.34 596.92 4.49 596.75 4.7 596.71 C5.16 596.6 5.64 596.55 6.13 596.54 ZM6.12 600.93 C5.04 600.93 4.17 601.8 4.17 602.88 C4.17 603.95 5.04 604.82 6.12 604.82 C7.2 604.82 8.07 603.95 8.07 602.88 C8.07 601.8 7.2 600.93 6.12 600.93 Z" class="st23"/></g></g><g id="group100-230" transform="translate(7.56052,0)"><title>Sheet.100</title><g id="shape101-231"><title>Sheet.101</title><path d="M7.85 592.97 C8.46 592.97 9.07 593.04 9.67 593.18 C9.93 593.23 10.12 593.45 10.15 593.72 L10.29 594.99 C10.36 595.57 10.85 596.01 11.44 596.01 C11.59 596.01 11.75 595.98 11.9 595.92 L13.06 595.4 C13.3 595.3 13.59 595.36 13.77 595.55 C14.61 596.45 15.24 597.53 15.6 598.7 C15.68 598.96 15.59 599.23 15.38 599.39 L14.34 600.15 C14.05 600.37 13.87 600.71 13.87 601.08 C13.87 601.44 14.05 601.79 14.34 602.01 L15.38 602.77 C15.59 602.92 15.68 603.2 15.6 603.45 C15.24 604.63 14.61 605.71 13.77 606.61 C13.59 606.8 13.31 606.86 13.06 606.75 L11.89 606.24 C11.56 606.1 11.17 606.12 10.86 606.3 C10.54 606.48 10.33 606.81 10.29 607.17 L10.15 608.44 C10.12 608.7 9.93 608.92 9.67 608.98 C8.47 609.26 7.21 609.26 6.01 608.98 C5.75 608.92 5.56 608.7 5.53 608.44 L5.39 607.17 C5.35 606.81 5.14 606.49 4.82 606.3 C4.51 606.12 4.12 606.1 3.79 606.25 L2.62 606.76 C2.38 606.87 2.09 606.81 1.91 606.61 C1.07 605.71 0.44 604.63 0.08 603.45 C0 603.2 0.09 602.93 0.3 602.77 L1.34 602.01 C1.63 601.79 1.81 601.45 1.81 601.08 C1.81 600.71 1.63 600.37 1.34 600.15 L0.3 599.39 C0.09 599.23 0 598.96 0.08 598.7 C0.44 597.53 1.07 596.45 1.91 595.55 C2.09 595.36 2.38 595.3 2.62 595.4 L3.79 595.92 C4.12 596.06 4.51 596.04 4.82 595.86 C5.14 595.67 5.35 595.35 5.39 594.99 L5.53 593.72 C5.56 593.45 5.76 593.23 6.02 593.18 C6.62 593.04 7.22 592.97 7.85 592.97 ZM7.84 598.58 C6.46 598.58 5.34 599.7 5.34 601.08 C5.34 602.46 6.46 603.58 7.84 603.58 C9.22 603.58 10.34 602.46 10.34 601.08 C10.34 599.7 9.22 598.58 7.84 598.58 Z" class="st23"/></g></g></g><g id="shape104-233" transform="translate(153.525,-207.84)"><title>Sheet.104</title><desc>Pre-trained base model</desc><rect width="169.516" height="60.409" x="0" y="548.855" class="st24"/><text x="22.89" y="573.66" class="st9">Pre-trained base <tspan x="61.03" class="st10" dy="1.2em">model</tspan></text></g><g id="shape105-237" transform="translate(-371.298,341.015) rotate(-90)"><title>Sheet.105</title><path d="M0 609.26 L88.65 609.26" class="st11"/></g><g id="shape106-242" transform="translate(-371.298,500.637) rotate(-90)"><title>Sheet.106</title><path d="M10.2 609.26 L10.56 609.26 L99.21 609.26" class="st13"/></g></g></svg>