<svg xmlns="http://www.w3.org/2000/svg" xmlns:ev="http://www.w3.org/2001/xml-events" xmlns:xlink="http://www.w3.org/1999/xlink" width="1546.598" height="827.47" class="st23" color-interpolation-filters="sRGB" viewBox="0 0 1159.95 620.603" xml:space="preserve"><style type="text/css">.st1{stroke:none;stroke-width:.25}.st1,.st2{fill:#fff}.st2,.st3{stroke:none}.st2,.st3{stroke-linecap:butt;stroke-width:.75}.st3{fill:url(#grad0-13)}.st4{fill:#e8e8e8}.st5{stroke:none;stroke-linecap:butt;stroke-width:.75}.st6{fill:#50e6ff}.st7{fill:#198ab3;stroke:none;stroke-linecap:butt;stroke-width:.75}.st8{fill:#cce7fc;stroke:#accde7;stroke-width:.25}.st9{fill:#000;font-family:Segoe UI;font-size:1.5em;font-weight:700}.st10{marker-end:url(#mrkr13-30);stroke:#000;stroke-linecap:round;stroke-linejoin:round;stroke-width:1}.st11{fill:#000;fill-opacity:1;stroke:#000;stroke-opacity:1;stroke-width:.28409090909091}.st12{font-size:1em}.st13{marker-start:url(#mrkr13-57);stroke:#000;stroke-linecap:round;stroke-linejoin:round;stroke-width:1}.st14{fill:none;stroke:none;stroke-width:.25}.st15{fill:#000;font-family:Segoe UI;font-size:1.5em}.st16,.st17{stroke-width:.75}.st16{fill:url(#grad1-75);stroke:none;stroke-linecap:butt}.st17{fill:#0078d4}.st17,.st18,.st19{stroke:none;stroke-linecap:butt}.st18{fill:#fff;fill-opacity:.8;stroke-width:.75}.st19{fill:url(#grad0-86)}.st19,.st20,.st21{stroke-width:.75}.st20{fill:url(#grad0-92);stroke:none;stroke-linecap:butt}.st21{marker-end:url(#mrkr13-112);stroke:#000}.st22{fill:#000;fill-opacity:1;stroke:#000;stroke-opacity:1;stroke-width:.22935779816514}.st23{fill:none;fill-rule:evenodd;font-size:12px;overflow:visible;stroke-linecap:square;stroke-miterlimit:3}</style><defs id="Patterns_And_Gradients"><linearGradient id="grad0-13" x1="0" x2="1" y1="0" y2="0" gradientTransform="rotate(0 0.5 0.5)"><stop offset="0" stop-color="#005ba1" stop-opacity="1"/><stop offset=".07" stop-color="#0060a9" stop-opacity="1"/><stop offset=".36" stop-color="#0071c8" stop-opacity="1"/><stop offset=".52" stop-color="#0078d4" stop-opacity="1"/><stop offset=".64" stop-color="#0074cd" stop-opacity="1"/><stop offset=".82" stop-color="#006abb" stop-opacity="1"/><stop offset="1" stop-color="#005ba1" stop-opacity="1"/></linearGradient><radialGradient id="grad1-75" cx="1" cy="1" r="1.4"><stop offset=".195" stop-color="#ffd70f" stop-opacity="1"/><stop offset=".44" stop-color="#ffcb12" stop-opacity="1"/><stop offset=".875" stop-color="#feac19" stop-opacity="1"/><stop offset="1" stop-color="#fea11b" stop-opacity="1"/></radialGradient><linearGradient id="grad0-86" x1="0" x2="1" y1="0" y2="0" gradientTransform="rotate(90 0.5 0.5)"><stop offset=".22" stop-color="#32d4f5" stop-opacity="1"/><stop offset="1" stop-color="#198ab3" stop-opacity="1"/></linearGradient><linearGradient id="grad0-92" x1="0" x2="1" y1="0" y2="0" gradientTransform="rotate(85.401203911388 0.5 0.5)"><stop offset=".22" stop-color="#32d4f5" stop-opacity="1"/><stop offset="1" stop-color="#198ab3" stop-opacity="1"/></linearGradient></defs><defs id="Markers"><g id="lend13"><path d="M 3 1 L 0 0 L 3 -1 L 3 1" style="stroke:none"/></g><marker id="mrkr13-30" class="st11" markerUnits="strokeWidth" orient="auto" overflow="visible" refX="-10.56"><use transform="scale(-3.52,-3.52)" xlink:href="#lend13"/></marker><marker id="mrkr13-57" class="st11" markerUnits="strokeWidth" orient="auto" overflow="visible" refX="10.2"><use transform="scale(3.52)" xlink:href="#lend13"/></marker><marker id="mrkr13-112" class="st22" markerUnits="strokeWidth" orient="auto" overflow="visible" refX="-13.08"><use transform="scale(-4.36,-4.36)" xlink:href="#lend13"/></marker></defs><g><title>VBackground-1</title><g id="shape1-1"><title>Solid</title><rect width="1159.95" height="620.603" x="0" y="0" class="st1"/></g></g><g><title>Page-1</title><g id="group1-3" transform="translate(57.4016,-388.606)"><title>Icon-storage-98</title><g id="group2-4"><title>Sheet.2</title><g id="shape3-5" transform="translate(46.99,-34.8635)"><title>Sheet.3</title><path d="M5.13 620.6 A4.99527 4.99527 0 0 1 2.34 619.78 A5.06417 5.06417 0 0 1 -0 616.33 A5.27087 5.27087 0 0 1 5.13 609.89 A5.20197 5.20197 0 0 1 7.96 610.72 A5.30532 5.30532 0 0 1 10.27 614.16 A5.27087 5.27087 0 0 1 5.13 620.57 L5.13 620.6 Z" class="st2"/></g><g id="shape4-7" transform="translate(46.9888,-2.20481)"><title>Sheet.4</title><path d="M5.13 620.6 A4.99527 4.99527 0 0 1 2.34 619.78 A5.20197 5.20197 0 0 1 0.69 612.54 A5.23642 5.23642 0 0 1 7.96 610.89 A5.27087 5.27087 0 0 1 5.13 620.6 Z" class="st2"/></g><g id="group5-9"><title>Sheet.5</title><g id="shape6-10"><title>Sheet.6</title><path d="M18.95 584.29 C8.61 584.29 0 581.23 0 577.47 L0 613.71 C0 617.47 8.3 620.6 18.57 620.6 L18.95 620.6 C29.28 620.6 37.79 617.57 37.79 613.71 L37.79 577.47 C37.65 581.23 29.28 584.29 18.95 584.29 Z" class="st3"/></g><g id="shape7-14" transform="translate(0,-36.2415)"><title>Sheet.7</title><path d="M37.65 613.71 C37.65 617.47 29.21 620.6 18.81 620.6 C8.41 620.6 0 617.47 0 613.71 C0 609.96 8.61 606.89 18.95 606.89 C29.28 606.89 37.79 609.92 37.79 613.78 L37.65 613.71 Z" class="st4"/><path d="M37.65 613.71 C37.65 617.47 29.21 620.6 18.81 620.6 C8.41 620.6 0 617.47 0 613.71 C0 609.96 8.61 606.89 18.95 606.89 C29.28 606.89 37.79 609.92 37.79 613.78" class="st5"/></g><g id="shape8-17" transform="translate(4.37517,-39.3765)"><title>Sheet.8</title><path d="M28.87 616.3 C28.87 618.67 22.43 620.6 14.43 620.6 C6.44 620.6 0 618.67 0 616.3 C0 613.92 6.48 611.96 14.57 611.96 C22.67 611.96 29.01 613.89 29.01 616.3 L28.87 616.3 Z" class="st6"/><path d="M28.87 616.3 C28.87 618.67 22.43 620.6 14.43 620.6 C6.44 620.6 0 618.67 0 616.3 C0 613.92 6.48 611.96 14.57 611.96 C22.67 611.96 29.01 613.89 29.01 616.3" class="st5"/></g><g id="shape9-20" transform="translate(7.54458,-39.3765)"><title>Sheet.9</title><path d="M11.4 617.3 A34.8635 34.8635 -180 0 0 -0 618.91 A33.3133 33.3133 -180 0 0 11.4 620.6 A33.6922 33.6922 -180 0 0 22.84 618.91 A34.9324 34.9324 -180 0 0 11.4 617.3 Z" class="st7"/></g></g></g></g><g id="shape19-22" transform="translate(157.494,-383.378)"><title>Sheet.19</title><desc>Training</desc><rect width="169.516" height="60.409" x="0" y="560.193" class="st8"/><text x="49.48" y="595.8" class="st9">Training</text></g><g id="shape20-25" transform="translate(100.686,-413.788)"><title>Sheet.20</title><path d="M0 620.6 L46.25 620.6" class="st10"/></g><g id="shape22-31" transform="translate(429.057,-383.378)"><title>Sheet.22</title><desc>Tenant A model</desc><rect width="169.516" height="60.409" x="0" y="560.193" class="st8"/><text x="17.34" y="595.8" class="st9">Tenant A<tspan class="st12"> </tspan><tspan class="st12">model</tspan></text></g><g id="shape23-36" transform="translate(700.619,-383.378)"><title>Sheet.23</title><desc>Inference</desc><rect width="169.516" height="60.409" x="0" y="560.193" class="st8"/><text x="45.06" y="595.8" class="st9">Inference</text></g><g id="shape24-39" transform="translate(972.182,-383.378)"><title>Sheet.24</title><desc>Model output</desc><rect width="169.516" height="60.409" x="0" y="560.193" class="st8"/><text x="26.18" y="595.8" class="st9">Model output</text></g><g id="shape25-42" transform="translate(332.679,-411.724)"><title>Sheet.25</title><path d="M0 620.6 L85.82 620.6" class="st10"/></g><g id="shape26-47" transform="translate(875.804,-411.724)"><title>Sheet.26</title><path d="M0 620.6 L85.82 620.6" class="st10"/></g><g id="shape27-52" transform="translate(598.73,-414.964)"><title>Sheet.27</title><path d="M10.2 620.6 L10.56 620.6 L96.38 620.6" class="st13"/></g><g id="shape28-58" transform="translate(336.049,-383.378)"><title>Sheet.28</title><desc>Produces</desc><rect width="81.669" height="20" x="0" y="600.603" class="st14"/><text x="4.32" y="616" class="st15">Produces</text></g><g id="shape29-61" transform="translate(609.911,-383.378)"><title>Sheet.29</title><desc>Users</desc><rect width="81.669" height="20" x="0" y="600.603" class="st14"/><text x="19.18" y="616" class="st15">Users</text></g><g id="shape30-64" transform="translate(879.174,-383.378)"><title>Sheet.30</title><desc>Produces</desc><rect width="81.669" height="20" x="0" y="600.603" class="st14"/><text x="4.32" y="616" class="st15">Produces</text></g><g id="shape31-67" transform="translate(14.1732,-435.493)"><title>Sheet.31</title><desc>Tenant A data</desc><rect width="105.872" height="49.953" x="0" y="570.65" class="st14"/><text x="14.75" y="590.23" class="st9">Tenant A <tspan x="34.18" class="st12" dy="1.2em">data</tspan></text></g><g id="group33-71" transform="translate(790.377,-482.109)"><title>MsPortalFx.base.images-37</title><g id="shape34-72"><title>Sheet.34</title><path d="M7.81 607.28 L0.42 607.28 a0.381743 0.381743 0 0 1 -0.41848 -0.31945 a0.279519 0.279519 0 0 1 0.0367368 -0.135766 L8.9 591.48 a0.437647 0.437647 0 0 1 0.381743 -0.19167 L18.02 591.29 a0.380146 0.380146 0 0 1 0.41848 0.31945 a0.282714 0.282714 0 0 1 -0.0734736 0.190073 L7.96 603.81 L18.1 603.81 a0.381743 0.381743 0 0 1 0.41848 0.31945 a0.295492 0.295492 0 0 1 -0.107016 0.218823 L1.55 619.71 C1.39 619.79 0.28 620.6 0.82 619.36 L7.81 607.28 Z" class="st16"/></g></g><g id="group35-76" transform="translate(763.433,-535.531)"><title>Icon-identity-223</title><g id="shape36-77" transform="translate(22.0901,-5.94264)"><title>Sheet.36</title><path d="M19.85 620.6 A1.92405 1.92405 -180 0 0 21.8 618.68 a0.681943 0.681943 -180 0 0 -0.0487102 -0.316616 C20.99 612.27 17.51 607.3 10.89 607.3 C4.26 607.3 0.68 611.59 0 618.36 A1.97276 1.97276 -180 0 0 1.75 620.51 L19.85 620.51 L19.85 620.6 Z" class="st17"/></g><g id="shape37-79" transform="translate(29.6889,-10.1074)"><title>Sheet.37</title><path d="M3.31 613 A5.94264 5.94264 0 0 1 -0 612.03 L3.29 620.6 L6.53 612.1 A6.1862 6.1862 0 0 1 3.31 613 Z" class="st18"/></g><g id="shape38-81" transform="translate(26.888,-17.7062)"><title>Sheet.38</title><ellipse cx="6.113" cy="614.49" class="st17" rx="6.113" ry="6.113"/></g><g id="shape39-83"><title>Sheet.39</title><path d="M29.69 620.6 A2.89826 2.89826 -180 0 0 32.59 617.7 A1.60744 1.60744 -180 0 0 32.59 617.36 C31.44 608.25 26.25 600.85 16.37 600.85 C6.48 600.85 1.07 607.13 0 617.29 A2.92261 2.92261 -180 0 0 2.61 620.48 L29.64 620.48 L29.69 620.6 Z" class="st19"/></g><g id="shape40-87" transform="translate(11.6174,-6.25926)"><title>Sheet.40</title><path d="M4.87 609.28 A9.0601 9.0601 0 0 1 0 607.82 L4.87 620.6 L9.74 607.91 A9.27929 9.27929 0 0 1 4.87 609.28 Z" class="st18"/></g><g id="shape41-89" transform="translate(7.28218,-17.5844)"><title>Sheet.41</title><ellipse cx="9.133" cy="611.47" class="st20" rx="9.133" ry="9.133"/></g></g><g id="shape42-93" transform="translate(1406.82,95.4927) rotate(90)"><title>Sheet.42</title><path d="M0 620.6 L60.31 620.6" class="st10"/></g><g id="shape43-98" transform="translate(802.932,-488.102)"><title>Sheet.43</title><desc>Triggers</desc><rect width="93.652" height="20" x="0" y="600.603" class="st14"/><text x="14.55" y="616" class="st15">Triggers</text></g><g id="shape44-101" transform="translate(686.308,-581.803)"><title>Sheet.44</title><desc>Tenant A&apos;s users</desc><rect width="187.897" height="20" x="0" y="600.603" class="st14"/><text x="24.87" y="616" class="st9">Te<tspan class="st12">nant </tspan>A&apos;s<tspan class="st12"> </tspan><tspan class="st12">users</tspan></text></g><g id="shape45-107" transform="translate(814.569,-443.787)"><title>Sheet.45</title><path d="M240.94 620.6 L240.94 516.6 L9.81 516.6" class="st21"/></g><g id="group46-113" transform="translate(57.4016,-59.5561)"><title>Icon-storage-98.46</title><g id="group47-114"><title>Sheet.47</title><g id="shape48-115" transform="translate(46.99,-34.8635)"><title>Sheet.48</title><path d="M5.13 620.6 A4.99527 4.99527 0 0 1 2.34 619.78 A5.06417 5.06417 0 0 1 -0 616.33 A5.27087 5.27087 0 0 1 5.13 609.89 A5.20197 5.20197 0 0 1 7.96 610.72 A5.30532 5.30532 0 0 1 10.27 614.16 A5.27087 5.27087 0 0 1 5.13 620.57 L5.13 620.6 Z" class="st2"/></g><g id="shape49-117" transform="translate(46.9888,-2.20481)"><title>Sheet.49</title><path d="M5.13 620.6 A4.99527 4.99527 0 0 1 2.34 619.78 A5.20197 5.20197 0 0 1 0.69 612.54 A5.23642 5.23642 0 0 1 7.96 610.89 A5.27087 5.27087 0 0 1 5.13 620.6 Z" class="st2"/></g><g id="group50-119"><title>Sheet.50</title><g id="shape51-120"><title>Sheet.51</title><path d="M18.95 584.29 C8.61 584.29 0 581.23 0 577.47 L0 613.71 C0 617.47 8.3 620.6 18.57 620.6 L18.95 620.6 C29.28 620.6 37.79 617.57 37.79 613.71 L37.79 577.47 C37.65 581.23 29.28 584.29 18.95 584.29 Z" class="st3"/></g><g id="shape52-123" transform="translate(0,-36.2415)"><title>Sheet.52</title><path d="M37.65 613.71 C37.65 617.47 29.21 620.6 18.81 620.6 C8.41 620.6 0 617.47 0 613.71 C0 609.96 8.61 606.89 18.95 606.89 C29.28 606.89 37.79 609.92 37.79 613.78 L37.65 613.71 Z" class="st4"/><path d="M37.65 613.71 C37.65 617.47 29.21 620.6 18.81 620.6 C8.41 620.6 0 617.47 0 613.71 C0 609.96 8.61 606.89 18.95 606.89 C29.28 606.89 37.79 609.92 37.79 613.78" class="st5"/></g><g id="shape53-126" transform="translate(4.37517,-39.3765)"><title>Sheet.53</title><path d="M28.87 616.3 C28.87 618.67 22.43 620.6 14.43 620.6 C6.44 620.6 0 618.67 0 616.3 C0 613.92 6.48 611.96 14.57 611.96 C22.67 611.96 29.01 613.89 29.01 616.3 L28.87 616.3 Z" class="st6"/><path d="M28.87 616.3 C28.87 618.67 22.43 620.6 14.43 620.6 C6.44 620.6 0 618.67 0 616.3 C0 613.92 6.48 611.96 14.57 611.96 C22.67 611.96 29.01 613.89 29.01 616.3" class="st5"/></g><g id="shape54-129" transform="translate(7.54458,-39.3765)"><title>Sheet.54</title><path d="M11.4 617.3 A34.8635 34.8635 -180 0 0 -0 618.91 A33.3133 33.3133 -180 0 0 11.4 620.6 A33.6922 33.6922 -180 0 0 22.84 618.91 A34.9324 34.9324 -180 0 0 11.4 617.3 Z" class="st7"/></g></g></g></g><g id="shape65-131" transform="translate(98.9659,-81.8283)"><title>Sheet.65</title><path d="M0 620.6 L46.25 620.6" class="st10"/></g><g id="shape67-136" transform="translate(427.337,-52.8159)"><title>Sheet.67</title><desc>Tenant B model</desc><rect width="169.516" height="60.409" x="0" y="560.193" class="st8"/><text x="17.9" y="595.8" class="st9">Tenant B<tspan class="st12"> </tspan><tspan class="st12">model</tspan></text></g><g id="shape68-141" transform="translate(698.9,-52.8159)"><title>Sheet.68</title><desc>Inference</desc><rect width="169.516" height="60.409" x="0" y="560.193" class="st8"/><text x="45.06" y="595.8" class="st9">Inference</text></g><g id="shape69-144" transform="translate(970.462,-52.8159)"><title>Sheet.69</title><desc>Model output</desc><rect width="169.516" height="60.409" x="0" y="560.193" class="st8"/><text x="26.18" y="595.8" class="st9">Model output</text></g><g id="shape70-147" transform="translate(330.959,-81.1623)"><title>Sheet.70</title><path d="M0 620.6 L85.82 620.6" class="st10"/></g><g id="shape71-152" transform="translate(874.084,-81.1623)"><title>Sheet.71</title><path d="M0 620.6 L85.82 620.6" class="st10"/></g><g id="shape72-157" transform="translate(597.011,-84.4019)"><title>Sheet.72</title><path d="M10.2 620.6 L10.56 620.6 L96.38 620.6" class="st13"/></g><g id="shape73-162" transform="translate(334.329,-52.8159)"><title>Sheet.73</title><desc>Produces</desc><rect width="81.669" height="20" x="0" y="600.603" class="st14"/><text x="4.32" y="616" class="st15">Produces</text></g><g id="shape74-165" transform="translate(608.191,-52.8159)"><title>Sheet.74</title><desc>Users</desc><rect width="81.669" height="20" x="0" y="600.603" class="st14"/><text x="19.18" y="616" class="st15">Users</text></g><g id="shape75-168" transform="translate(877.454,-52.8159)"><title>Sheet.75</title><desc>Produces</desc><rect width="81.669" height="20" x="0" y="600.603" class="st14"/><text x="4.32" y="616" class="st15">Produces</text></g><g id="shape76-171" transform="translate(14.1732,-108.816)"><title>Sheet.76</title><desc>Tenant B data</desc><rect width="105.872" height="49.953" x="0" y="570.65" class="st14"/><text x="15.31" y="590.23" class="st9">Tenant <tspan class="st12">B</tspan> <tspan x="34.18" class="st12" dy="1.2em">data</tspan></text></g><g id="group78-176" transform="translate(788.658,-151.547)"><title>MsPortalFx.base.images-37.78</title><g id="shape79-177"><title>Sheet.79</title><path d="M7.81 607.28 L0.42 607.28 a0.381743 0.381743 0 0 1 -0.41848 -0.31945 a0.279519 0.279519 0 0 1 0.0367368 -0.135766 L8.9 591.48 a0.437647 0.437647 0 0 1 0.381743 -0.19167 L18.02 591.29 a0.380146 0.380146 0 0 1 0.41848 0.31945 a0.282714 0.282714 0 0 1 -0.0734736 0.190073 L7.96 603.81 L18.1 603.81 a0.381743 0.381743 0 0 1 0.41848 0.31945 a0.295492 0.295492 0 0 1 -0.107016 0.218823 L1.55 619.71 C1.39 619.79 0.28 620.6 0.82 619.36 L7.81 607.28 Z" class="st16"/></g></g><g id="group80-180" transform="translate(761.713,-204.969)"><title>Icon-identity-223.80</title><g id="shape81-181" transform="translate(22.0901,-5.94264)"><title>Sheet.81</title><path d="M19.85 620.6 A1.92405 1.92405 -180 0 0 21.8 618.68 a0.681943 0.681943 -180 0 0 -0.0487102 -0.316616 C20.99 612.27 17.51 607.3 10.89 607.3 C4.26 607.3 0.68 611.59 0 618.36 A1.97276 1.97276 -180 0 0 1.75 620.51 L19.85 620.51 L19.85 620.6 Z" class="st17"/></g><g id="shape82-183" transform="translate(29.6889,-10.1074)"><title>Sheet.82</title><path d="M3.31 613 A5.94264 5.94264 0 0 1 -0 612.03 L3.29 620.6 L6.53 612.1 A6.1862 6.1862 0 0 1 3.31 613 Z" class="st18"/></g><g id="shape83-185" transform="translate(26.888,-17.7062)"><title>Sheet.83</title><ellipse cx="6.113" cy="614.49" class="st17" rx="6.113" ry="6.113"/></g><g id="shape84-187"><title>Sheet.84</title><path d="M29.69 620.6 A2.89826 2.89826 -180 0 0 32.59 617.7 A1.60744 1.60744 -180 0 0 32.59 617.36 C31.44 608.25 26.25 600.85 16.37 600.85 C6.48 600.85 1.07 607.13 0 617.29 A2.92261 2.92261 -180 0 0 2.61 620.48 L29.64 620.48 L29.69 620.6 Z" class="st19"/></g><g id="shape85-190" transform="translate(11.6174,-6.25926)"><title>Sheet.85</title><path d="M4.87 609.28 A9.0601 9.0601 0 0 1 0 607.82 L4.87 620.6 L9.74 607.91 A9.27929 9.27929 0 0 1 4.87 609.28 Z" class="st18"/></g><g id="shape86-192" transform="translate(7.28218,-17.5844)"><title>Sheet.86</title><ellipse cx="9.133" cy="611.47" class="st20" rx="9.133" ry="9.133"/></g></g><g id="shape87-195" transform="translate(1405.1,426.055) rotate(90)"><title>Sheet.87</title><path d="M0 620.6 L60.31 620.6" class="st10"/></g><g id="shape88-200" transform="translate(807.179,-157.54)"><title>Sheet.88</title><desc>Triggers</desc><rect width="81.669" height="20" x="0" y="600.603" class="st14"/><text x="8.56" y="616" class="st15">Triggers</text></g><g id="shape89-203" transform="translate(713.211,-251.241)"><title>Sheet.89</title><desc>Tenant B&apos;s users</desc><rect width="169.516" height="20" x="0" y="600.603" class="st14"/><text x="16.23" y="616" class="st9">Te<tspan class="st12">nant </tspan>B&apos;s<tspan class="st12"> </tspan><tspan class="st12">users</tspan></text></g><g id="shape90-209" transform="translate(812.849,-113.225)"><title>Sheet.90</title><path d="M240.94 620.6 L240.94 516.6 L9.81 516.6" class="st21"/></g><g id="shape96-214" transform="translate(157.494,-52.816)"><title>Sheet.96</title><desc>Training</desc><rect width="169.516" height="60.409" x="0" y="560.193" class="st8"/><text x="49.48" y="595.8" class="st9">Training</text></g></g></svg>