<svg xmlns="http://www.w3.org/2000/svg" xmlns:ev="http://www.w3.org/2001/xml-events" xmlns:xlink="http://www.w3.org/1999/xlink" width="796.932" height="254.124" class="st12" color-interpolation-filters="sRGB" viewBox="0 0 597.699 190.593" xml:space="preserve"><style type="text/css">.st1{fill:#40cbff;stroke:#a5a5a5;stroke-linecap:round;stroke-linejoin:round;stroke-width:.24}.st2{fill:#000;font-family:Segoe UI;font-size:.916672em}.st3,.st4{stroke:#a5a5a5}.st3{marker-end:url(#mrkr10-21);marker-start:url(#mrkr10-19);stroke-linecap:round;stroke-linejoin:round;stroke-width:.75}.st4{fill:#a5a5a5;fill-opacity:1;stroke-opacity:1;stroke-width:.22935779816514}.st5,.st6{stroke:#ea700d}.st5{stroke-dasharray:3,1.5;stroke-linecap:butt;stroke-width:.75}.st6{stroke-linecap:round;stroke-linejoin:round}.st6,.st7,.st8,.st9{stroke-width:.75}.st7{fill:#fff;stroke:#ea700d;stroke-linecap:round;stroke-linejoin:round;visibility:hidden}.st8,.st9{fill:#595959;stroke:none;stroke-linecap:butt}.st9{fill:none;stroke-linecap:round;stroke-linejoin:round}.st10{fill:#0070c0;font-family:Calibri;font-size:.75em}.st11{font-size:1em}.st12{fill:none;fill-rule:evenodd;font-size:12px;overflow:visible;stroke-linecap:square;stroke-miterlimit:3}</style><defs id="Markers"><g id="lend10"><path d="M 0 0.75 C -0.414214 0.75 -0.75 0.414214 -0.75 0 -0.75 -0.414214 -0.414214 -0.75 0 -0.75 0.414214 -0.75 0.75 -0.414214 0.75 0 0.75 0.414214 0.414214 0.75 0 0.75 Z" style="stroke:none"/></g><marker id="mrkr10-19" class="st4" markerUnits="strokeWidth" orient="auto" overflow="visible" refX="2.79"><use transform="scale(4.36)" xlink:href="#lend10"/></marker><marker id="mrkr10-21" class="st4" markerUnits="strokeWidth" orient="auto" overflow="visible" refX="-2.79"><use transform="scale(-4.36,-4.36)" xlink:href="#lend10"/></marker></defs><g><title>Page-1</title><g id="shape46-1" transform="translate(11.3864,-70.9684)"><title>Rectangle.46</title><desc>Architecture</desc><rect width="74.25" height="36" x="0" y="154.593" class="st1"/><text x="7.63" y="175.89" class="st2">Architecture</text></g><g id="shape48-4" transform="translate(303.886,-70.9684)"><title>Rectangle.48</title><desc>Identity</desc><rect width="74.25" height="36" x="0" y="154.593" class="st1"/><text x="18.71" y="175.89" class="st2">Identity</text></g><g id="shape49-7" transform="translate(400.739,-70.9684)"><title>Rectangle.49</title><desc>Networking</desc><rect width="74.25" height="36" x="0" y="154.593" class="st1"/><text x="8.74" y="175.89" class="st2">Networking</text></g><g id="shape50-10" transform="translate(497.591,-70.9684)"><title>Rectangle.50</title><desc>Operations</desc><rect width="74.25" height="36" x="0" y="154.593" class="st1"/><text x="10.29" y="175.89" class="st2">Operations</text></g><g id="shape75-13" transform="translate(48.5114,-61.9684)"><title>Sheet.75</title><path d="M1.97 182.3 L2.31 182.42 A101.462 12.8792 -180 0 0 191.19 182.42 L191.53 182.3" class="st3"/></g><g id="shape76-22" transform="translate(341.011,310.218) rotate(180)"><title>Sheet.76</title><path d="M1.82 189.56 L2.13 189.38 A152.92 28.606 0 0 1 290.37 189.38 L290.68 189.56" class="st3"/></g><g id="shape77-29" transform="translate(437.864,310.218) rotate(180)"><title>Sheet.77</title><path d="M1.78 189.49 L2.08 189.3 A222.609 78.6391 0 0 1 387.27 189.3 L387.58 189.49" class="st3"/></g><g id="shape78-36" transform="translate(534.716,310.218) rotate(180)"><title>Sheet.78</title><path d="M1.55 189.19 L1.82 188.95 A269.066 118.126 0 0 1 484.39 188.95 L484.65 189.19" class="st3"/></g><g id="group79-43" transform="translate(0.75,-95.7184)"><title>Square bracket interval</title><g id="shape80-44"><title>Sheet.80</title></g><g id="shape81-46" transform="translate(190.593,179.343) rotate(90)"><title>Sheet.81</title><path d="M0 190.59 L11.25 190.59" class="st5"/></g><g id="shape82-49" transform="translate(398.293,190.593) rotate(-90)"><title>Sheet.82</title><path d="M0 190.59 L11.25 190.59" class="st5"/></g><g id="shape83-52" transform="translate(0,-15.75)"><title>Sheet.83</title></g><g id="shape84-54" transform="translate(0,-15.75)"><title>Sheet.84</title><path d="M0 190.59 L0 183.84 L588.89 183.84 L588.89 190.59" class="st6"/></g><g id="shape85-57" transform="translate(294.443,-22.5)"><title>Sheet.85</title></g><g id="shape86-58"><title>Sheet.86</title><rect width="588.886" height="11.25" x="0" y="179.343" class="st7"/></g><g id="shape87-60" transform="translate(0,-5.175)"><title>Sheet.87</title></g><g id="shape88-62" transform="translate(294.443,-38.4)"><title>Sheet.88</title></g><g id="shape89-63" transform="translate(294.443,-20.7)"><title>Sheet.89</title></g></g><g id="shape106-64" transform="translate(281.009,-85.2353)"><title>Link</title><path d="M13.5 186.79 a0.861782 0.861782 0 0 1 -0.861468 0.861468 L5.74 187.65 a0.861782 0.861782 0 0 1 -0.861468 -0.861468 a0.861782 0.861782 0 0 1 0.861468 -0.861468 L12.63 185.93 a0.861782 0.861782 0 0 1 0.861468 0.861468 ZM11.65 188.3 A1.14488 1.14488 -180 0 0 12.63 188.87 L15.51 188.87 A1.14978 1.14978 -180 0 0 16.66 187.72 L16.66 186 A1.14941 1.14941 -180 0 0 15.51 184.85 L12.63 184.85 A1.14488 1.14488 -180 0 0 11.65 185.42 L9.82 185.42 A2.87239 2.87239 0 0 1 12.63 183.13 L15.51 183.13 A2.8715 2.8715 0 0 1 18.38 186 L18.38 187.72 A2.8715 2.8715 0 0 1 15.51 190.59 L12.63 190.59 A2.87192 2.87192 0 0 1 9.82 188.3 L11.65 188.3 ZM6.73 188.3 A1.14488 1.14488 0 0 1 5.74 188.87 L2.87 188.87 A1.14978 1.14978 0 0 1 1.72 187.72 L1.72 186 A1.14941 1.14941 0 0 1 2.87 184.85 L5.74 184.85 A1.14488 1.14488 0 0 1 6.73 185.42 L8.56 185.42 A2.87302 2.87302 -180 0 0 5.74 183.13 L2.87 183.13 A2.8715 2.8715 -180 0 0 0 186 L0 187.72 A2.8715 2.8715 -180 0 0 2.87 190.59 L5.74 190.59 A2.87192 2.87192 -180 0 0 8.56 188.3 L6.73 188.3 Z" class="st8"/></g><g id="shape113-66" transform="translate(204.886,-70.9684)"><title>Rectangle.113</title><desc>Security</desc><rect width="74.25" height="36" x="0" y="154.593" class="st1"/><text x="17.9" y="175.89" class="st2">Security</text></g><g id="shape114-69" transform="translate(108.136,-70.9684)"><title>Rectangle.114</title><desc>Development</desc><rect width="74.25" height="36" x="0" y="154.593" class="st1"/><text x="4.5" y="175.89" class="st2">Development</text></g><g id="shape115-72" transform="translate(48.5114,-67.9256)"><title>Sheet.115</title><path d="M2.04 188 L2.39 188.08 A50.7308 4.35432 -180 0 0 94.36 188.08 L94.71 188" class="st3"/></g><g id="shape117-79" transform="translate(0.75,-144.931)"><title>Sheet.117</title><desc>Design the solution Assess Azure services Evaluate tradeoffs</desc><rect width="87.136" height="45.288" x="0" y="145.306" class="st9"/><text x="4" y="158.05" class="st10">Design the solution<tspan x="4" class="st11" dy="1.2em">Assess Azure services</tspan><tspan x="4" class="st11" dy="1.5em">Evaluate tradeoffs</tspan></text></g><g id="shape121-84" transform="translate(94.017,-144.931)"><title>Sheet.121</title><desc>Develop the application Run DevOps pipeline</desc><rect width="95.114" height="45.288" x="0" y="145.306" class="st9"/><text x="4" y="165.25" class="st10">Develop the application<tspan x="4" class="st11" dy="1.2em">Run DevOps pipeline</tspan></text></g><g id="shape123-88" transform="translate(195.261,-144.931)"><title>Sheet.123</title><desc>Review design choices for all inbound and outbound flows</desc><rect width="95.114" height="45.288" x="0" y="145.306" class="st9"/><text x="4" y="159.85" class="st10">Review design choices <tspan x="4" class="st11" dy="1.2em">for all inbound and </tspan><tspan x="4" class="st11" dy="1.2em">outbound flows</tspan></text></g><g id="shape125-93" transform="translate(293.381,-144.931)"><title>Sheet.125</title><desc>Identity management RBAC controls</desc><rect width="87.136" height="45.288" x="0" y="145.306" class="st9"/><text x="4" y="165.25" class="st10">Identity management <tspan x="4" class="st11" dy="1.2em">RBAC controls</tspan></text></g><g id="shape129-97" transform="translate(383.523,-144.931)"><title>Sheet.129</title><desc>Hub and spoke topology IP space allocation</desc><rect width="100.75" height="45.288" x="0" y="145.306" class="st9"/><text x="4" y="165.25" class="st10">Hub and spoke topology <tspan x="4" class="st11" dy="1.2em">IP space allocation</tspan></text></g><g id="shape131-101" transform="translate(487.278,-144.931)"><title>Sheet.131</title><desc>Infrastructure deployment Daily operations of the Azure envir...</desc><rect width="110.045" height="45.288" x="0" y="145.306" class="st9"/><text x="4" y="159.85" class="st10">Infrastructure deployment<tspan x="4" class="st11" dy="1.2em">Daily operations of the </tspan><tspan x="4" class="st11" dy="1.2em">Azure environment</tspan></text></g></g></svg>