<svg xmlns="http://www.w3.org/2000/svg" xmlns:ev="http://www.w3.org/2001/xml-events" xmlns:xlink="http://www.w3.org/1999/xlink" width="653.466" height="411.801" class="st24" color-interpolation-filters="sRGB" viewBox="0 0 490.1 308.851" xml:space="preserve"><style type="text/css">.st1{fill:#f4b183}.st2{stroke:#f4b183;stroke-linecap:round;stroke-linejoin:round;stroke-width:1}.st3{fill:#305497}.st4{stroke:#305497;stroke-linecap:round;stroke-linejoin:round;stroke-width:1}.st5,.st6{fill:#a5a5a5;stroke:none;stroke-width:.25}.st6{fill:none;stroke:#305497}.st7{fill:#305497;font-family:Times New Roman;font-size:1.00001em}.st8{font-size:1em}.st9{fill:none;stroke:#f4b183;stroke-width:.25}.st10{fill:#f4b183;font-family:Times New Roman;font-size:1.00001em}.st11{fill:#c55a11}.st12{stroke:#c55a11;stroke-linecap:round;stroke-linejoin:round;stroke-width:1}.st13{fill:#b5c6e7;fill-opacity:.8;stroke:none;stroke-width:.25}.st14,.st15{stroke:#a5a5a5;stroke-dasharray:1,2;stroke-linecap:round;stroke-linejoin:round;stroke-width:1}.st15{stroke:#90aadb}.st16{fill:none;stroke:none;stroke-width:.25}.st17{fill:#6b6b6b;font-family:Calibri;font-size:1.16666em;font-weight:700}.st18{font-size:1em;text-decoration:underline}.st19{font-size:.857157em;font-weight:400}.st20{fill:#90aadb;font-family:Calibri;font-size:1.16666em;font-weight:700}.st21{stroke:#000;stroke-linecap:round;stroke-linejoin:round;stroke-width:1}.st22{fill:none;stroke:#c55a11;stroke-width:.25}.st23{fill:#c55a11;font-family:Times New Roman;font-size:1.00001em}.st24{fill:none;fill-rule:evenodd;font-size:12px;overflow:visible;stroke-linecap:square;stroke-miterlimit:3;background-color:#fff}</style><g><title>Page-1 (2)</title><g id="shape7-1" transform="translate(31.5872,-44.1869) rotate(-46.3675)"><title>Line Arrow.7</title><path d="M84.75 305.65 L84.75 312.05 L91.14 308.85 L84.75 305.65 Z" class="st1"/><path d="M84.75 305.65 L84.75 312.05 L91.14 308.85 L84.75 305.65" class="st2"/><path d="M0 308.85 L84.75 308.85" class="st2"/></g><g id="shape8-5" transform="translate(76.968,-82.1263) rotate(-35.3938)"><title>Line Arrow.8</title><path d="M149.7 305.65 L149.7 312.05 L156.1 308.85 L149.7 305.65 Z" class="st3"/><path d="M149.7 305.65 L149.7 312.05 L156.1 308.85 L149.7 305.65" class="st4"/><path d="M0 308.85 L149.7 308.85" class="st4"/></g><g id="shape11-9" transform="translate(76.1415,-82.2501) rotate(-35.5812)"><title>Partial layer 4.11</title><path d="M0 308.85 L38.21 308.85 A37.3482 37.3482 -180 0 0 37.52 301.64 L0 308.85 Z" class="st5"/></g><g id="shape13-11" transform="translate(385.45,-208.85)"><title>Sheet.13</title><desc>The cat is sitting on the mat</desc><rect width="86.4" height="45.987" x="0" y="262.863" class="st6"/><text x="19.88" y="275.06" class="st7">The cat is <tspan x="11.87" class="st8" dy="1.2em">sitting on the </tspan><tspan x="34.2" class="st8" dy="1.2em">mat</tspan></text></g><g id="shape14-16" transform="translate(277.454,-208.846)"><title>Sheet.14</title><desc>The cat is on the mat</desc><rect width="64.793" height="45.995" x="0" y="262.856" class="st9"/><text x="9.07" y="282.25" class="st10">The cat is <tspan x="7.07" class="st8" dy="1.2em">on the mat</tspan></text></g><g id="shape15-20" transform="translate(473.4,-47.8604) rotate(44.9693)"><title>Line Arrow.15</title><path d="M126.53 305.65 L126.53 312.05 L132.92 308.85 L126.53 305.65 Z" class="st11"/><path d="M126.53 305.65 L126.53 312.05 L132.92 308.85 L126.53 305.65" class="st12"/><path d="M0 308.85 L126.53 308.85" class="st12"/></g><g id="shape16-24" transform="translate(471.857,-49.3911) rotate(44.5661)"><title>Partial layer 4.16</title><path d="M0 308.85 L27.84 308.85 A27.7473 27.7473 -180 0 0 4.92 281.45 L0 308.85 Z" class="st13"/></g><g id="shape18-26" transform="translate(284.254,-168.192) rotate(22.1983)"><title>Dotted Line.18</title><path d="M0 308.85 L107.27 308.85" class="st14"/></g><g id="shape19-29" transform="translate(9.35182,-21.0974) rotate(-33.2023)"><title>Dotted Line.19</title><path d="M0 308.85 L108.76 308.85" class="st15"/></g><g id="shape21-32" transform="translate(18.25,-166.28)"><title>Sheet.21</title><desc>Similar sentences The angle between the two embedding vectors...</desc><rect width="152.64" height="51.84" x="0" y="257.011" class="st16"/><text x="25.61" y="265.53" class="st17"><tspan class="st18">Similar sentences</tspan><tspan x="9.45" class="st19" dy="1.25em">The angle between the two </tspan><tspan x="10.34" class="st19" dy="1.2em">embedding vectors is small.</tspan></text></g><g id="shape26-38" transform="translate(39.85,-22.2804)"><title>Sheet.26</title><desc>Dissimilar sentences The angle between the two embedding vect...</desc><rect width="152.64" height="51.84" x="0" y="257.011" class="st16"/><text x="17.2" y="272.73" class="st20"><tspan class="st18">Dissimilar sentences</tspan><tspan x="9.45" class="st19" dy="1.25em">The angle between the two </tspan><tspan x="15.75" class="st19" dy="1.2em">embedding vectors is big.</tspan></text></g><g id="shape27-44" transform="translate(564.051,18.5) rotate(90)"><title>Straight Line.27</title><path d="M0 308.85 L267.57 308.85" class="st21"/></g><g id="shape28-47" transform="translate(104.661,-138.793)"><title>Straight Line.28</title><path d="M0 308.85 L302.29 308.85" class="st21"/></g><g id="shape31-50" transform="translate(350.644,-22.2727)"><title>Sheet.31</title><desc>It is currently sunny in Phoenix</desc><rect width="104.652" height="45.987" x="0" y="262.863" class="st22"/><text x="4.17" y="282.26" class="st23">It is currently sunny <tspan x="26.49" class="st8" dy="1.2em">in Phoenix</tspan></text></g></g></svg>