<svg xmlns="http://www.w3.org/2000/svg" xmlns:ev="http://www.w3.org/2001/xml-events" xmlns:xlink="http://www.w3.org/1999/xlink" width="955" height="419.549" class="st14" color-interpolation-filters="sRGB" viewBox="0 0 716.25 314.662" xml:space="preserve"><style type="text/css">.st1,.st2{fill:#fff;stroke:none;stroke-linecap:round;stroke-linejoin:round;stroke-width:.75}.st2{fill:#d8d8d8;stroke-width:.24}.st3{fill:#000;font-family:Segoe UI;font-size:.75em;font-weight:700}.st4{font-size:1em}.st5{fill:none;stroke:none;stroke-linecap:round;stroke-linejoin:round;stroke-width:.75}.st6{fill:#000;font-family:Calibri;font-size:.75em}.st7{fill:none;stroke:none;stroke-linecap:round;stroke-linejoin:round;stroke-width:.24}.st8,.st9{stroke:#000}.st8{marker-start:url(#mrkr4-41);stroke-linecap:round;stroke-linejoin:round;stroke-width:.75}.st9{fill:#000;fill-opacity:1;stroke-opacity:1;stroke-width:.22935779816514}.st10{fill:#7f7f7f;stroke:none;stroke-linecap:butt;stroke-width:6.375}.st11{fill:#000;font-family:Calibri;font-size:.75em;font-weight:700}.st12{marker-end:url(#mrkr4-73);stroke:#000;stroke-linecap:round;stroke-linejoin:round;stroke-width:.75}.st13{fill:#107c10;stroke:none;stroke-linecap:butt;stroke-width:6.375}.st14{fill:none;fill-rule:evenodd;font-size:12px;overflow:visible;stroke-linecap:square;stroke-miterlimit:3}</style><defs id="Markers"><g id="lend4"><path d="M 2 1 L 0 0 L 2 -1 L 2 1" style="stroke:none"/></g><marker id="mrkr4-41" class="st9" markerUnits="strokeWidth" orient="auto" overflow="visible" refX="8.24"><use transform="scale(4.36)" xlink:href="#lend4"/></marker><marker id="mrkr4-73" class="st9" markerUnits="strokeWidth" orient="auto" overflow="visible" refX="-8.72"><use transform="scale(-4.36,-4.36)" xlink:href="#lend4"/></marker></defs><g><title>VBackground-1</title><g id="shape1000-1"><title>Solid.1000</title><rect width="716.25" height="314.662" x="0" y="0" class="st1"/></g></g><g><title>Query Transformation</title><g id="shape143-3" transform="translate(65.9634,175.858) rotate(-90)"><title>Round Corner Rectangle</title><path d="M0 314.66 L146.57 314.66 L146.57 293.32 A14.6569 14.6569 -180 0 0 131.91 278.66 L14.66 278.66 A14.6569 14.6569 -180 0 0 0 293.32 L0 314.66 Z" class="st2"/></g><g id="shape1-5" transform="translate(104.934,-187.875)"><title>Rectangle</title><desc>Query Augmenter</desc><rect width="72" height="48" x="0" y="266.662" class="st2"/><text x="23.22" y="287.96" class="st3">Query <tspan x="12.07" class="st4" dy="1.2em">Augmenter</tspan></text></g><g id="shape2-9" transform="translate(224.581,-187.875)"><title>Rectangle.2</title><desc>Query Decomposer</desc><rect width="72" height="48" x="0" y="266.662" class="st2"/><text x="23.22" y="287.96" class="st3">Query <tspan x="9.47" class="st4" dy="1.2em">Decomposer</tspan></text></g><g id="shape3-13" transform="translate(385.125,-243.804)"><title>Rectangle.3</title><desc>Query Rewriter</desc><rect width="72" height="41.571" x="0" y="273.09" class="st2"/><text x="23.22" y="291.18" class="st3">Query <tspan x="17.99" class="st4" dy="1.2em">Rewriter</tspan></text></g><g id="shape4-17" transform="translate(385.125,-191.089)"><title>Rectangle.4</title><desc>Query Executor</desc><rect width="72" height="41.571" x="0" y="273.09" class="st2"/><text x="23.22" y="291.18" class="st3">Query <tspan x="17.51" class="st4" dy="1.2em">Executor</tspan></text></g><g id="shape5-21" transform="translate(103.875,-94.875)"><title>Sheet.5</title><desc>Original query Augmented query</desc><rect width="108" height="31.5" x="0" y="283.162" class="st5"/><text x="4" y="295.26" class="st6">Original query<tspan x="4" class="st4" dy="1.2em">Augmented query</tspan></text></g><g id="shape6-25" transform="translate(224.581,-18.375)"><title>Sheet.6</title><desc>Original query Augmented query Decomposed queries query 1 que...</desc><rect width="122.294" height="108" x="0" y="206.662" class="st5"/><text x="4" y="218.76" class="st6">Original query<tspan x="4" class="st4" dy="1.2em">Augmented query</tspan><tspan x="4" class="st4" dy="1.2em">Decomposed queries</tspan><tspan x="4" class="st4" dy="1.2em"> </tspan>query 1<tspan x="4" class="st4" dy="1.2em"> </tspan>query 2<tspan x="4" class="st4" dy="1.2em"> </tspan>query 3<tspan x="4" class="st4" dy="1.2em"> </tspan>query 4</text></g><g id="shape11-34" transform="translate(459,-117.375)"><title>Circle.2054</title><path d="M0 312.41 A2.25 2.25 0 0 1 4.5 312.41 A2.25 2.25 0 1 1 0 312.41 Z" class="st7"/></g><g id="shape16-36" transform="translate(515.625,-263.089)"><title>Dynamic connector.16</title><path d="M-6.18 314.66 L-6.54 314.66 L-10.87 314.66 L-10.87 458.13 L-52.12 458.13" class="st8"/></g><g id="shape25-42" transform="translate(515.625,-263.089)"><title>Dynamic connector.25</title><path d="M-6.18 314.66 L-6.54 314.66 L-10.87 314.66 L-10.87 535 L-38.25 535" class="st8"/></g><g id="shape32-47" transform="translate(310.875,-92.625)"><title>Circle.32</title><path d="M0 312.41 A2.25 2.25 0 0 1 4.5 312.41 A2.25 2.25 0 1 1 0 312.41 Z" class="st7"/></g><g id="shape39-49" transform="translate(383.625,-18.375)"><title>Sheet.39</title><desc>Original query Augmented query Rewritten decomposed queries q...</desc><rect width="145.125" height="108" x="0" y="206.662" class="st5"/><text x="4" y="218.76" class="st6">Original query<tspan x="4" class="st4" dy="1.2em">Augmented query</tspan><tspan x="4" class="st4" dy="1.2em">Rewritten decomposed queries</tspan><tspan x="4" class="st4" dy="1.2em"> </tspan>query 1<tspan x="4" class="st4" dy="1.2em"> </tspan>query 2<tspan x="4" class="st4" dy="1.2em"> </tspan>query 3<tspan x="4" class="st4" dy="1.2em"> </tspan>query 4<tspan x="4" class="st4" dy="1.2em">Accumulated context</tspan></text></g><g id="shape60-59" transform="translate(385.125,-138.804)"><title>Rectangle.60</title><desc>Reranker</desc><rect width="72" height="41.571" x="0" y="273.09" class="st2"/><text x="16.95" y="296.58" class="st3">Reranker</text></g><g id="group130-62" transform="translate(165.375,-189.388)"><title>Sheet.130</title><g id="shape131-63"><title>Sheet.131</title><path d="M4.49 311.75 C3.62 311.75 2.91 311.04 2.91 310.17 C2.91 309.3 3.62 308.58 4.49 308.58 C5.37 308.58 6.08 309.3 6.08 310.17 C6.08 311.04 5.37 311.75 4.49 311.75 ZM8.06 309.18 C7.98 308.89 7.86 308.61 7.72 308.36 L8.05 307.37 L7.3 306.61 L6.3 306.94 C6.04 306.8 5.76 306.68 5.47 306.6 L5.02 305.67 L3.96 305.67 L3.5 306.6 C3.21 306.68 2.93 306.8 2.68 306.94 L1.69 306.61 L0.94 307.37 L1.27 308.36 C1.12 308.62 1 308.9 0.93 309.19 L0 309.64 L0 310.7 L0.93 311.16 C1 311.45 1.12 311.73 1.27 311.98 L0.94 312.97 L1.69 313.72 L2.68 313.39 C2.95 313.54 3.22 313.66 3.52 313.74 L3.98 314.66 L5.04 314.66 L5.5 313.74 C5.79 313.66 6.07 313.54 6.32 313.39 L7.31 313.72 L8.06 312.97 L7.73 311.98 C7.88 311.71 8 311.44 8.07 311.15 L9 310.68 L9 309.63 L8.06 309.18 Z" class="st10"/></g></g><g id="shape132-65" transform="translate(18.375,-201.793)"><title>Sheet.132</title><desc>Original query</desc><rect width="72" height="20.164" x="0" y="294.498" class="st5"/><text x="4" y="306.6" class="st11">Original query</text></g><g id="shape133-68" transform="translate(76.875,-211.875)"><title>Sheet.133</title><path d="M0 314.66 L21.52 314.66" class="st12"/></g><g id="shape134-74" transform="translate(455.595,126.787) rotate(90)"><title>Sheet.134</title><path d="M0 314.66 L50.46 314.66" class="st12"/></g><g id="shape135-79" transform="translate(178.125,-103.875)"><title>Circle.135</title><path d="M0 312.41 A2.25 2.25 0 0 1 4.5 312.41 A2.25 2.25 0 1 1 0 312.41 Z" class="st7"/></g><g id="shape136-81" transform="translate(224.581,-211.875)"><title>Dynamic connector.136</title><path d="M-6.18 314.66 L-6.54 314.66 L-13.5 314.66 L-13.5 420.41 L-41.96 420.41" class="st8"/></g><g id="shape138-86" transform="translate(575.243,126.787) rotate(90)"><title>Sheet.138</title><path d="M0 314.66 L50.46 314.66" class="st12"/></g><g id="shape144-91" transform="translate(74.9634,173.608) rotate(-90)"><title>Sheet.144</title><desc>For each decomposed query</desc><rect width="144.321" height="31.5" x="0" y="283.162" class="st5"/><text x="19.46" y="295.26" class="st11">For each decomposed query</text></g><g id="shape145-94" transform="translate(735.787,70.8581) rotate(90)"><title>Sheet.145</title><path d="M0 314.66 L4.6 314.66" class="st12"/></g><g id="shape146-99" transform="translate(735.787,123.572) rotate(90)"><title>Sheet.146</title><path d="M0 314.66 L4.17 314.66" class="st12"/></g><g id="shape147-104" transform="translate(344.625,-212.089)"><title>Dynamic connector.147</title><path d="M-6.18 314.66 L-6.54 314.66 L-15.75 314.66 L-15.75 431.88 L-29.25 431.88" class="st8"/></g><g id="shape149-109" transform="translate(735.787,175.858) rotate(90)"><title>Sheet.149</title><path d="M0 314.66 L4.17 314.66" class="st12"/></g><g id="shape150-114" transform="translate(515.625,-242.304)"><title>Rectangle.150</title><desc>Query Rewriter</desc><rect width="72" height="41.571" x="0" y="273.09" class="st2"/><text x="23.22" y="291.18" class="st3">Query <tspan x="17.99" class="st4" dy="1.2em">Rewriter</tspan></text></g><g id="shape151-118" transform="translate(515.625,-189.589)"><title>Rectangle.151</title><desc>Query Executor</desc><rect width="72" height="41.571" x="0" y="273.09" class="st2"/><text x="23.22" y="291.18" class="st3">Query <tspan x="17.51" class="st4" dy="1.2em">Executor</tspan></text></g><g id="shape152-122" transform="translate(515.625,-137.304)"><title>Rectangle.152</title><desc>Reranker</desc><rect width="72" height="41.571" x="0" y="273.09" class="st2"/><text x="16.95" y="296.58" class="st3">Reranker</text></g><g id="shape153-125" transform="translate(866.287,72.3581) rotate(90)"><title>Sheet.153</title><path d="M0 314.66 L4.6 314.66" class="st12"/></g><g id="shape154-130" transform="translate(866.287,125.072) rotate(90)"><title>Sheet.154</title><path d="M0 314.66 L4.17 314.66" class="st12"/></g><g id="shape155-135" transform="translate(472.875,-40.5)"><title>Circle.155</title><path d="M0 312.41 A2.25 2.25 0 0 1 4.5 312.41 A2.25 2.25 0 1 1 0 312.41 Z" class="st7"/></g><g id="group156-137" transform="translate(286.125,-189.375)"><title>Sheet.156</title><g id="shape157-138"><title>Sheet.157</title><path d="M4.49 311.75 C3.62 311.75 2.91 311.04 2.91 310.17 C2.91 309.3 3.62 308.58 4.49 308.58 C5.37 308.58 6.08 309.3 6.08 310.17 C6.08 311.04 5.37 311.75 4.49 311.75 ZM8.06 309.18 C7.98 308.89 7.86 308.61 7.72 308.36 L8.05 307.37 L7.3 306.61 L6.3 306.94 C6.04 306.8 5.76 306.68 5.47 306.6 L5.02 305.67 L3.96 305.67 L3.5 306.6 C3.21 306.68 2.93 306.8 2.68 306.94 L1.69 306.61 L0.94 307.37 L1.27 308.36 C1.12 308.62 1 308.9 0.93 309.19 L0 309.64 L0 310.7 L0.93 311.16 C1 311.45 1.12 311.73 1.27 311.98 L0.94 312.97 L1.69 313.72 L2.68 313.39 C2.95 313.54 3.22 313.66 3.52 313.74 L3.98 314.66 L5.04 314.66 L5.5 313.74 C5.79 313.66 6.07 313.54 6.32 313.39 L7.31 313.72 L8.06 312.97 L7.73 311.98 C7.88 311.71 8 311.44 8.07 311.15 L9 310.68 L9 309.63 L8.06 309.18 Z" class="st10"/></g></g><g id="group158-140" transform="translate(445.875,-246.054)"><title>Sheet.158</title><g id="shape159-141"><title>Sheet.159</title><path d="M4.49 311.75 C3.62 311.75 2.91 311.04 2.91 310.17 C2.91 309.3 3.62 308.58 4.49 308.58 C5.37 308.58 6.08 309.3 6.08 310.17 C6.08 311.04 5.37 311.75 4.49 311.75 ZM8.06 309.18 C7.98 308.89 7.86 308.61 7.72 308.36 L8.05 307.37 L7.3 306.61 L6.3 306.94 C6.04 306.8 5.76 306.68 5.47 306.6 L5.02 305.67 L3.96 305.67 L3.5 306.6 C3.21 306.68 2.93 306.8 2.68 306.94 L1.69 306.61 L0.94 307.37 L1.27 308.36 C1.12 308.62 1 308.9 0.93 309.19 L0 309.64 L0 310.7 L0.93 311.16 C1 311.45 1.12 311.73 1.27 311.98 L0.94 312.97 L1.69 313.72 L2.68 313.39 C2.95 313.54 3.22 313.66 3.52 313.74 L3.98 314.66 L5.04 314.66 L5.5 313.74 C5.79 313.66 6.07 313.54 6.32 313.39 L7.31 313.72 L8.06 312.97 L7.73 311.98 C7.88 311.71 8 311.44 8.07 311.15 L9 310.68 L9 309.63 L8.06 309.18 Z" class="st10"/></g></g><g id="group160-143" transform="translate(445.875,-192.804)"><title>Sheet.160</title><g id="shape161-144"><title>Sheet.161</title><path d="M4.49 311.75 C3.62 311.75 2.91 311.04 2.91 310.17 C2.91 309.3 3.62 308.58 4.49 308.58 C5.37 308.58 6.08 309.3 6.08 310.17 C6.08 311.04 5.37 311.75 4.49 311.75 ZM8.06 309.18 C7.98 308.89 7.86 308.61 7.72 308.36 L8.05 307.37 L7.3 306.61 L6.3 306.94 C6.04 306.8 5.76 306.68 5.47 306.6 L5.02 305.67 L3.96 305.67 L3.5 306.6 C3.21 306.68 2.93 306.8 2.68 306.94 L1.69 306.61 L0.94 307.37 L1.27 308.36 C1.12 308.62 1 308.9 0.93 309.19 L0 309.64 L0 310.7 L0.93 311.16 C1 311.45 1.12 311.73 1.27 311.98 L0.94 312.97 L1.69 313.72 L2.68 313.39 C2.95 313.54 3.22 313.66 3.52 313.74 L3.98 314.66 L5.04 314.66 L5.5 313.74 C5.79 313.66 6.07 313.54 6.32 313.39 L7.31 313.72 L8.06 312.97 L7.73 311.98 C7.88 311.71 8 311.44 8.07 311.15 L9 310.68 L9 309.63 L8.06 309.18 Z" class="st10"/></g></g><g id="group162-146" transform="translate(445.875,-141.054)"><title>Sheet.162</title><g id="shape163-147"><title>Sheet.163</title><path d="M4.49 311.75 C3.62 311.75 2.91 311.04 2.91 310.17 C2.91 309.3 3.62 308.58 4.49 308.58 C5.37 308.58 6.08 309.3 6.08 310.17 C6.08 311.04 5.37 311.75 4.49 311.75 ZM8.06 309.18 C7.98 308.89 7.86 308.61 7.72 308.36 L8.05 307.37 L7.3 306.61 L6.3 306.94 C6.04 306.8 5.76 306.68 5.47 306.6 L5.02 305.67 L3.96 305.67 L3.5 306.6 C3.21 306.68 2.93 306.8 2.68 306.94 L1.69 306.61 L0.94 307.37 L1.27 308.36 C1.12 308.62 1 308.9 0.93 309.19 L0 309.64 L0 310.7 L0.93 311.16 C1 311.45 1.12 311.73 1.27 311.98 L0.94 312.97 L1.69 313.72 L2.68 313.39 C2.95 313.54 3.22 313.66 3.52 313.74 L3.98 314.66 L5.04 314.66 L5.5 313.74 C5.79 313.66 6.07 313.54 6.32 313.39 L7.31 313.72 L8.06 312.97 L7.73 311.98 C7.88 311.71 8 311.44 8.07 311.15 L9 310.68 L9 309.63 L8.06 309.18 Z" class="st10"/></g></g><g id="group164-149" transform="translate(576.375,-244.875)"><title>Sheet.164</title><g id="shape165-150"><title>Sheet.165</title><path d="M4.49 311.75 C3.62 311.75 2.91 311.04 2.91 310.17 C2.91 309.3 3.62 308.58 4.49 308.58 C5.37 308.58 6.08 309.3 6.08 310.17 C6.08 311.04 5.37 311.75 4.49 311.75 ZM8.06 309.18 C7.98 308.89 7.86 308.61 7.72 308.36 L8.05 307.37 L7.3 306.61 L6.3 306.94 C6.04 306.8 5.76 306.68 5.47 306.6 L5.02 305.67 L3.96 305.67 L3.5 306.6 C3.21 306.68 2.93 306.8 2.68 306.94 L1.69 306.61 L0.94 307.37 L1.27 308.36 C1.12 308.62 1 308.9 0.93 309.19 L0 309.64 L0 310.7 L0.93 311.16 C1 311.45 1.12 311.73 1.27 311.98 L0.94 312.97 L1.69 313.72 L2.68 313.39 C2.95 313.54 3.22 313.66 3.52 313.74 L3.98 314.66 L5.04 314.66 L5.5 313.74 C5.79 313.66 6.07 313.54 6.32 313.39 L7.31 313.72 L8.06 312.97 L7.73 311.98 C7.88 311.71 8 311.44 8.07 311.15 L9 310.68 L9 309.63 L8.06 309.18 Z" class="st10"/></g></g><g id="group166-152" transform="translate(576.375,-191.625)"><title>Sheet.166</title><g id="shape167-153"><title>Sheet.167</title><path d="M4.49 311.75 C3.62 311.75 2.91 311.04 2.91 310.17 C2.91 309.3 3.62 308.58 4.49 308.58 C5.37 308.58 6.08 309.3 6.08 310.17 C6.08 311.04 5.37 311.75 4.49 311.75 ZM8.06 309.18 C7.98 308.89 7.86 308.61 7.72 308.36 L8.05 307.37 L7.3 306.61 L6.3 306.94 C6.04 306.8 5.76 306.68 5.47 306.6 L5.02 305.67 L3.96 305.67 L3.5 306.6 C3.21 306.68 2.93 306.8 2.68 306.94 L1.69 306.61 L0.94 307.37 L1.27 308.36 C1.12 308.62 1 308.9 0.93 309.19 L0 309.64 L0 310.7 L0.93 311.16 C1 311.45 1.12 311.73 1.27 311.98 L0.94 312.97 L1.69 313.72 L2.68 313.39 C2.95 313.54 3.22 313.66 3.52 313.74 L3.98 314.66 L5.04 314.66 L5.5 313.74 C5.79 313.66 6.07 313.54 6.32 313.39 L7.31 313.72 L8.06 312.97 L7.73 311.98 C7.88 311.71 8 311.44 8.07 311.15 L9 310.68 L9 309.63 L8.06 309.18 Z" class="st10"/></g></g><g id="group168-155" transform="translate(576.375,-139.875)"><title>Sheet.168</title><g id="shape169-156"><title>Sheet.169</title><path d="M4.49 311.75 C3.62 311.75 2.91 311.04 2.91 310.17 C2.91 309.3 3.62 308.58 4.49 308.58 C5.37 308.58 6.08 309.3 6.08 310.17 C6.08 311.04 5.37 311.75 4.49 311.75 ZM8.06 309.18 C7.98 308.89 7.86 308.61 7.72 308.36 L8.05 307.37 L7.3 306.61 L6.3 306.94 C6.04 306.8 5.76 306.68 5.47 306.6 L5.02 305.67 L3.96 305.67 L3.5 306.6 C3.21 306.68 2.93 306.8 2.68 306.94 L1.69 306.61 L0.94 307.37 L1.27 308.36 C1.12 308.62 1 308.9 0.93 309.19 L0 309.64 L0 310.7 L0.93 311.16 C1 311.45 1.12 311.73 1.27 311.98 L0.94 312.97 L1.69 313.72 L2.68 313.39 C2.95 313.54 3.22 313.66 3.52 313.74 L3.98 314.66 L5.04 314.66 L5.5 313.74 C5.79 313.66 6.07 313.54 6.32 313.39 L7.31 313.72 L8.06 312.97 L7.73 311.98 C7.88 311.71 8 311.44 8.07 311.15 L9 310.68 L9 309.63 L8.06 309.18 Z" class="st10"/></g></g><g id="shape170-158" transform="translate(625.875,-200.293)"><title>Sheet.170</title><desc>Result</desc><rect width="72" height="20.164" x="0" y="294.498" class="st5"/><text x="4" y="306.6" class="st11">Result</text></g><g id="shape171-161" transform="translate(623.625,-211.875)"><title>Dynamic connector.171</title><path d="M-6.18 314.66 L-6.54 314.66 L-13.5 314.66 L-13.5 368.45 L-36 368.45" class="st8"/></g><g id="shape172-166" transform="translate(623.625,-209.625)"><title>Circle.172</title><path d="M0 312.41 A2.25 2.25 0 0 1 4.5 312.41 A2.25 2.25 0 1 1 0 312.41 Z" class="st7"/></g><g id="group180-168" transform="translate(204.712,-222.713)"><title>Sheet.180</title><g id="shape181-169"><title>Sheet.181</title><path d="M9.02 296.63 C4.04 296.63 0 300.66 0 305.64 C0 310.62 4.04 314.66 9.02 314.66 C14 314.66 18.04 310.62 18.04 305.64 C18.04 305.64 18.04 305.64 18.04 305.64 C18.04 300.66 14 296.63 9.03 296.63 C9.02 296.63 9.02 296.63 9.02 296.63 ZM11.6 309.69 L6.44 309.69 L6.44 308.93 C6.44 308.61 6.49 308.3 6.61 308 C6.73 307.73 6.89 307.47 7.09 307.24 C7.3 307 7.54 306.79 7.8 306.6 C8.06 306.4 8.35 306.2 8.66 306.01 C8.92 305.86 9.17 305.68 9.4 305.49 C9.57 305.34 9.73 305.17 9.86 304.98 C9.97 304.83 10.04 304.66 10.09 304.47 C10.13 304.29 10.16 304.1 10.15 303.91 C10.15 303.74 10.13 303.58 10.07 303.42 C10.03 303.27 9.95 303.13 9.84 303 C9.73 302.88 9.6 302.78 9.45 302.72 C9.27 302.65 9.08 302.61 8.89 302.61 C8.52 302.61 8.15 302.7 7.82 302.87 C7.47 303.04 7.15 303.27 6.87 303.54 L6.87 302.31 C7.14 302.06 7.47 301.87 7.82 301.76 C8.21 301.65 8.61 301.59 9.01 301.6 C9.33 301.59 9.65 301.64 9.96 301.74 C10.24 301.83 10.5 301.97 10.73 302.15 C10.95 302.34 11.13 302.57 11.25 302.83 C11.38 303.12 11.45 303.44 11.44 303.76 C11.44 304.04 11.41 304.33 11.34 304.61 C11.27 304.87 11.16 305.12 11.02 305.34 C10.85 305.59 10.65 305.82 10.43 306.01 C10.15 306.25 9.86 306.47 9.55 306.67 C9.26 306.85 9.01 307.01 8.79 307.16 C8.59 307.3 8.4 307.45 8.23 307.62 C8.08 307.75 7.96 307.91 7.87 308.08 C7.79 308.25 7.75 308.43 7.76 308.62 L11.6 308.62 L11.6 309.69 Z" class="st13"/></g></g><g id="group182-171" transform="translate(323.962,-222.713)"><title>Sheet.182</title><g id="shape183-172"><title>Sheet.183</title><path d="M9.02 296.63 C4.04 296.63 0 300.66 0 305.64 C0 310.62 4.04 314.66 9.02 314.66 C14 314.66 18.04 310.62 18.04 305.64 C18.04 305.64 18.04 305.64 18.04 305.64 C18.04 300.66 14 296.63 9.03 296.63 C9.02 296.63 9.02 296.63 9.02 296.63 ZM11.4 308.39 C11.24 308.68 11.01 308.93 10.73 309.13 C10.43 309.34 10.09 309.49 9.74 309.58 C9.35 309.68 8.95 309.74 8.55 309.73 C8.15 309.74 7.75 309.7 7.35 309.63 C7.01 309.57 6.69 309.47 6.39 309.31 L6.39 308.09 C6.71 308.32 7.06 308.48 7.44 308.57 C7.81 308.68 8.2 308.73 8.59 308.73 C8.78 308.73 8.97 308.71 9.15 308.68 C9.35 308.64 9.54 308.57 9.71 308.48 C9.88 308.38 10.03 308.24 10.13 308.08 C10.25 307.89 10.31 307.66 10.3 307.44 C10.31 307.21 10.26 306.98 10.14 306.78 C10.03 306.6 9.88 306.45 9.69 306.34 C9.48 306.22 9.25 306.14 9.02 306.09 C8.74 306.04 8.45 306.01 8.17 306.01 L7.43 306.01 L7.43 305 L8.13 305 C8.38 305.01 8.63 304.98 8.88 304.93 C9.09 304.89 9.29 304.81 9.47 304.7 C9.63 304.6 9.77 304.45 9.86 304.29 C9.96 304.1 10 303.88 10 303.67 C10 303.48 9.96 303.29 9.87 303.12 C9.79 302.98 9.67 302.86 9.53 302.78 C9.4 302.69 9.25 302.64 9.1 302.61 C8.95 302.58 8.79 302.56 8.64 302.56 C8.31 302.56 7.98 302.61 7.66 302.7 C7.33 302.79 7.02 302.94 6.73 303.13 L6.73 302.01 C7.03 301.85 7.34 301.74 7.67 301.67 C8.02 301.59 8.39 301.55 8.75 301.55 C9.08 301.55 9.4 301.59 9.72 301.67 C10.01 301.73 10.29 301.85 10.55 302.02 C10.79 302.17 10.98 302.37 11.13 302.62 C11.28 302.88 11.35 303.17 11.35 303.47 C11.36 303.95 11.2 304.41 10.89 304.77 C10.56 305.12 10.13 305.36 9.65 305.45 C9.91 305.48 10.16 305.54 10.4 305.64 C10.63 305.74 10.85 305.87 11.04 306.04 C11.23 306.21 11.38 306.4 11.49 306.62 C11.6 306.85 11.66 307.11 11.65 307.36 C11.66 307.72 11.58 308.07 11.4 308.39 Z" class="st13"/></g></g><g id="group184-174" transform="translate(490.5,-272.25)"><title>Sheet.184</title><g id="shape185-175" transform="translate(6.95926,-8.07453)"><title>Sheet.185</title><path d="M1.1 313.25 C0.92 313.51 0.74 313.76 0.56 313.98 C0.38 314.21 0.19 314.43 0 314.66 L2.37 314.66 L2.37 311.21 C2.12 311.65 1.89 312.03 1.69 312.36 C1.48 312.68 1.29 312.98 1.1 313.25 Z" class="st13"/></g><g id="shape186-177"><title>Sheet.186</title><path d="M9.02 296.63 C4.04 296.62 0 300.66 0 305.64 C0 310.62 4.04 314.66 9.02 314.66 C14 314.66 18.04 310.62 18.04 305.64 C18.04 305.64 18.04 305.64 18.04 305.64 C18.04 300.66 14 296.63 9.03 296.63 C9.02 296.63 9.02 296.63 9.02 296.63 ZM11.77 307.73 L10.69 307.73 L10.69 309.43 L9.32 309.43 L9.32 307.73 L5.61 307.73 L5.61 306.65 C5.98 306.25 6.34 305.83 6.69 305.39 C7.04 304.95 7.37 304.5 7.68 304.05 C7.99 303.59 8.28 303.14 8.55 302.69 C8.81 302.24 9.05 301.81 9.25 301.38 L10.69 301.38 L10.69 306.59 L11.77 306.59 L11.77 307.73 Z" class="st13"/></g></g><g id="group187-179" transform="translate(85.5,-222.75)"><title>Sheet.187</title><g id="shape188-180"><title>Sheet.188</title><path d="M9.02 296.63 C4.04 296.63 0 300.66 0 305.64 C0 310.62 4.04 314.66 9.02 314.66 C14 314.66 18.04 310.62 18.04 305.64 C18.04 305.64 18.04 305.64 18.04 305.64 C18.04 300.66 14 296.63 9.03 296.63 C9.02 296.63 9.02 296.63 9.02 296.63 ZM10.01 309.47 L8.64 309.47 L8.64 302.92 C8.52 303 8.4 303.08 8.27 303.15 C8.14 303.22 8.01 303.29 7.87 303.35 C7.72 303.4 7.57 303.46 7.41 303.51 C7.24 303.56 7.06 303.61 6.87 303.65 L6.87 302.56 C7 302.52 7.12 302.48 7.23 302.45 C7.34 302.41 7.44 302.37 7.55 302.34 C7.65 302.29 7.76 302.25 7.86 302.21 C7.97 302.16 8.07 302.12 8.18 302.08 C8.28 302.02 8.38 301.97 8.48 301.92 C8.58 301.87 8.69 301.81 8.79 301.75 C8.9 301.69 9.01 301.63 9.11 301.56 C9.22 301.49 9.33 301.43 9.44 301.37 L10.01 301.37 L10.01 309.47 Z" class="st13"/></g></g></g></svg>