<svg xmlns="http://www.w3.org/2000/svg" xmlns:ev="http://www.w3.org/2001/xml-events" xmlns:xlink="http://www.w3.org/1999/xlink" width="655" height="105.852" class="st6" color-interpolation-filters="sRGB" viewBox="0 0 491.25 79.389" xml:space="preserve"><style type="text/css">.st1{fill:none;stroke:none;stroke-linecap:round;stroke-linejoin:round;stroke-width:.75}.st2,.st3{fill:#7f7f7f;font-family:Calibri;font-size:1.00001em}.st3{font-style:italic;font-weight:700}.st4,.st5{stroke:#7f7f7f;stroke-linecap:round;stroke-linejoin:round;stroke-width:.24}.st5{stroke-width:.75}.st6{fill:none;fill-rule:evenodd;font-size:12px;overflow:visible;stroke-linecap:square;stroke-miterlimit:3}</style><g><title>Page-1</title><g id="shape1-1" transform="translate(0.375,-27.8821)"><title>Sheet.1</title><desc>Approximate instance count</desc><rect width="153" height="23.625" x="0" y="55.764" class="st1"/><text x="7.67" y="71.18" class="st2">Approximate instance count</text></g><g id="shape2-4" transform="translate(157.875,-27.8821)"><title>Sheet.2</title><desc>=</desc><rect width="13.5" height="23.625" x="0" y="55.764" class="st1"/><text x="4" y="71.18" class="st2">=</text></g><g id="shape3-7" transform="translate(175.875,-27.8821)"><title>Sheet.3</title><desc>max</desc><rect width="49.5" height="23.625" x="0" y="55.764" class="st1"/><text x="14" y="71.18" class="st3">max</text></g><g id="shape4-10" transform="translate(216.375,-0.12)"><title>Left Parenthesis</title><path d="M13.5 79.39 A14.407 10.5584 0 0 1 0 71.47 L0 8.15 A14.407 10.5584 0 0 1 13.5 0.24" class="st4"/></g><g id="shape5-13" transform="translate(220.875,-40.2571)"><title>Sheet.5</title><desc>Current compute units</desc><rect width="126" height="23.625" x="0" y="55.764" class="st1"/><text x="7.77" y="71.18" class="st2">Current compute units</text></g><g id="shape6-16" transform="translate(364.875,-40.2571)"><title>Sheet.6</title><desc>Throughput in MBps</desc><rect width="126" height="23.625" x="0" y="55.764" class="st1"/><text x="13.09" y="71.18" class="st2">Throughput in Mbps</text></g><g id="shape7-19" transform="translate(351.375,-27.8821)"><title>Sheet.7</title><desc>,</desc><rect width="13.5" height="23.625" x="0" y="55.764" class="st1"/><text x="5.25" y="71.18" class="st2">,</text></g><g id="shape8-22" transform="translate(225.375,-39.6946)"><title>Sheet.8</title><path d="M0 79.39 L117 79.39" class="st5"/></g><g id="shape9-25" transform="translate(369.375,-39.6946)"><title>Sheet.9</title><path d="M0 79.39 L108 79.39" class="st5"/></g><g id="shape10-28" transform="translate(220.875,-10.8438)"><title>Sheet.10</title><desc>10</desc><rect width="126" height="23.625" x="0" y="55.764" class="st1"/><text x="56.92" y="71.18" class="st2">10</text></g><g id="shape11-31" transform="translate(364.875,-10.8438)"><title>Sheet.11</title><desc>60</desc><rect width="126" height="23.625" x="0" y="55.764" class="st1"/><text x="56.92" y="71.18" class="st2">60</text></g><g id="shape12-34" transform="translate(472.875,-0.12)"><title>Right Parenthesis</title><path d="M0 79.39 A14.407 10.5584 -180 0 0 13.5 71.47 L13.5 8.15 A14.407 10.5584 -180 0 0 0 0.24" class="st4"/></g></g></svg>