<svg xmlns="http://www.w3.org/2000/svg" xmlns:ev="http://www.w3.org/2001/xml-events" xmlns:xlink="http://www.w3.org/1999/xlink" width="900.35" height="844.035" class="st12" color-interpolation-filters="sRGB" viewBox="0 0 675.263 633.026" xml:space="preserve"><style type="text/css">.st1,.st2{fill:#fff;stroke:none;stroke-width:.25}.st2{fill:#385723}.st3{fill:#feffff;font-family:Segoe UI;font-size:1.16666em}.st4{fill:#4472c4;stroke:none;stroke-width:.25}.st5{font-size:1em}.st6{fill:#b4c7e7;stroke:none;stroke-width:.25}.st7{fill:#000;font-family:Segoe UI;font-size:1.16666em}.st8,.st9{stroke:#000}.st8{marker-end:url(#mrkr4-36);stroke-linecap:round;stroke-linejoin:round;stroke-width:1}.st9{fill:#000;fill-opacity:1;stroke-opacity:1;stroke-width:.28409090909091}.st10{marker-end:url(#mrkr4-36);stroke:#000;stroke-width:1}.st11{fill:none;stroke:none;stroke-width:.25}.st12{fill:none;fill-rule:evenodd;font-size:12px;overflow:visible;stroke-linecap:square;stroke-miterlimit:3}</style><defs id="Markers"><g id="lend4"><path d="M 2 1 L 0 0 L 2 -1 L 2 1" style="stroke:none"/></g><marker id="mrkr4-36" class="st9" markerUnits="strokeWidth" orient="auto" overflow="visible" refX="-7.04"><use transform="scale(-3.52,-3.52)" xlink:href="#lend4"/></marker></defs><g><title>背景-1</title><g id="shape1-1"><title>实心</title><rect width="675.263" height="633.026" x="0" y="0" class="st1"/></g></g><g><title>页-1</title><g id="shape1-3" transform="translate(18.25,-570.839)"><title>Sheet.1</title><desc>Start</desc><rect width="147.402" height="43.937" x="0" y="589.089" class="st2" rx="11.339" ry="11.339"/><text x="59.24" y="615.26" class="st3">Start</text></g><g id="shape2-6" transform="translate(18.25,-442.43)"><title>Sheet.2</title><desc>Azure Virtual WAN topology</desc><rect width="147.402" height="78.803" x="0" y="554.223" class="st4" rx="11.339" ry="11.339"/><text x="15.77" y="589.42" class="st3">Azure Virtual WAN <tspan x="45.7" class="st5" dy="1.2em">topology</tspan></text></g><g id="shape3-10" transform="translate(18.25,-314.02)"><title>Sheet.3</title><desc>Traffic analysis with NVA or Azure Firewall</desc><rect width="147.402" height="78.803" x="0" y="554.223" class="st4" rx="11.339" ry="11.339"/><text x="29.01" y="581.03" class="st3">Traffic analysis <tspan x="16.49" class="st5" dy="1.2em">with NVA or Azure </tspan><tspan x="50.48" class="st5" dy="1.2em">Firewall</tspan></text></g><g id="shape4-15" transform="translate(18.25,-185.611)"><title>Sheet.4</title><desc>Private endpoint access from on-premises</desc><rect width="147.402" height="78.803" x="0" y="554.223" class="st4" rx="11.339" ry="11.339"/><text x="22.8" y="581.03" class="st3">Private endpoint <tspan x="37.4" class="st5" dy="1.2em">access from </tspan><tspan x="35.3" class="st5" dy="1.2em">on</tspan>-premises</text></g><g id="shape5-20" transform="translate(485.967,-459.863)"><title>Sheet.5</title><desc>Spoke</desc><rect width="113.386" height="43.937" x="0" y="589.089" class="st6" rx="11.339" ry="11.339"/><text x="37.62" y="615.26" class="st7">Spoke</text></g><g id="shape7-23" transform="translate(485.967,-331.453)"><title>Sheet.7</title><desc>Hub</desc><rect width="113.386" height="43.937" x="0" y="589.089" class="st6" rx="11.339" ry="11.339"/><text x="43.65" y="615.26" class="st7">Hub</text></g><g id="shape8-26" transform="translate(250.124,-59.7526)"><title>Sheet.8</title><desc>Single application access</desc><rect width="147.402" height="78.803" x="0" y="554.223" class="st4" rx="11.339" ry="11.339"/><text x="54.85" y="581.03" class="st3">Single <tspan x="39.59" class="st5" dy="1.2em">application </tspan><tspan x="54.07" class="st5" dy="1.2em">access</tspan></text></g><g id="shape9-31" transform="translate(722.142,62.187) rotate(90)"><title>Sheet.9</title><path d="M0 633.03 L42.57 633.03" class="st8"/></g><g id="shape10-37" transform="translate(722.142,190.596) rotate(90)"><title>Sheet.10</title><path d="M0 633.03 L42.57 633.03" class="st8"/></g><g id="shape11-42" transform="translate(722.142,319.006) rotate(90)"><title>Sheet.11</title><path d="M0 633.03 L42.57 633.03" class="st8"/></g><g id="shape12-47" transform="translate(89.1161,-98.8708)"><title>Sheet.12</title><path d="M0 550.82 L0 633.03 L153.97 633.03" class="st10"/></g><g id="shape13-52" transform="translate(165.652,-484.383)"><title>Sheet.13</title><path d="M0 633.03 L313.27 633.03" class="st8"/></g><g id="shape14-57" transform="translate(165.652,-351.154)"><title>Sheet.14</title><path d="M0 633.03 L313.27 633.03" class="st8"/></g><g id="shape16-62" transform="translate(165.652,-223.595)"><title>Sheet.16</title><path d="M0 633.03 L354.33 633.03 L354.33 532.21" class="st10"/></g><g id="shape17-67" transform="translate(397.526,-98.8708)"><title>Sheet.17</title><path d="M0 633.03 L165.92 633.03 L165 407.48" class="st10"/></g><g id="shape18-72" transform="translate(321.557,-28.666)"><title>Sheet.18</title><path d="M0 601.94 L0 633.03 L325.04 633.03 L325.04 180.24 L284.84 180.16" class="st10"/></g><g id="shape20-77" transform="translate(186.911,-483.957)"><title>Sheet.20</title><desc>Yes</desc><rect width="51.024" height="19.843" x="0" y="613.184" class="st11"/><text x="15.01" y="627.31" class="st7">Yes</text></g><g id="shape22-80" transform="translate(181.417,-355.548)"><title>Sheet.22</title><desc>Yes</desc><rect width="51.024" height="19.843" x="0" y="613.184" class="st11"/><text x="15.01" y="627.31" class="st7">Yes</text></g><g id="shape23-83" transform="translate(184.252,-227.138)"><title>Sheet.23</title><desc>Yes</desc><rect width="51.024" height="19.843" x="0" y="613.184" class="st11"/><text x="15.01" y="627.31" class="st7">Yes</text></g><g id="shape24-86" transform="translate(89.1161,-98.8708)"><title>Sheet.24</title><desc>No</desc><rect width="51.024" height="19.843" x="0" y="613.184" class="st11"/><text x="16.17" y="627.31" class="st7">No</text></g><g id="shape25-89" transform="translate(397.526,-98.8708)"><title>Sheet.25</title><desc>No</desc><rect width="51.024" height="19.843" x="0" y="613.184" class="st11"/><text x="16.17" y="627.31" class="st7">No</text></g><g id="shape26-92" transform="translate(90.7087,-410.257)"><title>Sheet.26</title><desc>No</desc><rect width="51.024" height="19.843" x="0" y="613.184" class="st11"/><text x="16.17" y="627.31" class="st7">No</text></g><g id="shape27-95" transform="translate(90.7087,-276.745)"><title>Sheet.27</title><desc>No</desc><rect width="51.024" height="19.843" x="0" y="613.184" class="st11"/><text x="16.17" y="627.31" class="st7">No</text></g><g id="shape28-98" transform="translate(396.85,-28.666)"><title>Sheet.28</title><desc>Yes</desc><rect width="51.024" height="19.843" x="0" y="613.184" class="st11"/><text x="15.01" y="627.31" class="st7">Yes</text></g></g></svg>