<svg xmlns="http://www.w3.org/2000/svg" xmlns:xlink="http://www.w3.org/1999/xlink" version="1.1" viewBox="0 0 1192.077 547.314"><defs><linearGradient id="linear-gradient" x1="108.955" x2="116.99" y1="231.809" y2="209.734" gradientTransform="translate(-123.02005 144.54606) rotate(-45)" gradientUnits="userSpaceOnUse"><stop offset="0" stop-color="#155ea1"/><stop offset=".16" stop-color="#155ea1"/><stop offset=".684" stop-color="#238cd9"/><stop offset=".93" stop-color="#46a0de"/></linearGradient><linearGradient id="linear-gradient1" x2="116.99" y1="304.566" y2="282.49" gradientTransform="translate(-174.46671 165.85597) rotate(-45)" xlink:href="#linear-gradient"/><linearGradient id="linear-gradient2" x1="318.083" x2="326.118" gradientTransform="translate(-61.76793 292.42176) rotate(-45)" xlink:href="#linear-gradient"/><linearGradient id="linear-gradient3" x1="481.993" x2="490.028" y1="261.348" y2="239.272" gradientTransform="translate(-34.6468 416.97562) rotate(-45)" xlink:href="#linear-gradient"/><linearGradient id="linear-gradient4" x1="563.739" x2="571.774" y1="261.348" y2="239.272" gradientTransform="translate(-10.70399 474.77867) rotate(-45)" xlink:href="#linear-gradient"/><linearGradient id="linear-gradient5" x1="318.083" x2="326.118" y1="304.566" y2="282.49" gradientTransform="translate(-113.21458 313.73167) rotate(-45)" xlink:href="#linear-gradient"/><linearGradient id="linear-gradient6" x1="318.083" x2="326.118" y1="377.667" y2="355.592" gradientTransform="translate(-164.90531 335.14267) rotate(-45)" xlink:href="#linear-gradient"/><linearGradient id="linear-gradient7" x1="985.3" x2="993.335" y1="312.694" y2="290.618" gradientTransform="translate(76.46137 787.90601) rotate(-45)" gradientUnits="userSpaceOnUse"><stop offset="0" stop-color="#8e8278"/><stop offset=".16" stop-color="#8e8278"/><stop offset=".684" stop-color="#b2aaa1"/><stop offset=".93" stop-color="#b2aaa1"/></linearGradient><linearGradient id="linear-gradient8" x1="1094.585" x2="1102.619" y1="312.694" y2="290.618" gradientTransform="translate(108.47008 865.18188) rotate(-45)" xlink:href="#linear-gradient7"/><linearGradient id="linear-gradient9" x1="877.355" x2="885.39" y1="312.694" y2="290.618" gradientTransform="translate(44.84516 711.57773) rotate(-45)" xlink:href="#linear-gradient7"/><linearGradient id="linear-gradient10" x1="877.355" x2="885.39" y1="157.269" y2="135.193" gradientTransform="translate(154.74723 666.0548) rotate(-45)" xlink:href="#linear-gradient7"/><linearGradient id="linear-gradient11" x1="877.355" x2="885.39" y1="245.619" y2="223.543" gradientTransform="translate(92.27434 691.93191) rotate(-45)" xlink:href="#linear-gradient7"/><linearGradient id="linear-gradient12" x2="116.99" y1="377.667" y2="355.592" gradientTransform="translate(-226.15743 187.26696) rotate(-45)" xlink:href="#linear-gradient"/></defs><g id="Shapes"><rect width="1192.077" height="547.314" fill="#fff"/><g><line x1="112.973" x2="112.973" y1="109.181" y2="127.999" fill="none" stroke="#3c3c41" stroke-miterlimit="10"/><polygon fill="#3c3c41" points="109.233 126.905 112.973 133.381 116.712 126.905 109.233 126.905"/></g><g><rect width="137.601" height="23.338" x="44.172" y="84.843" fill="#fff"/><rect width="137.601" height="23.338" x="44.172" y="84.843" fill="#d3ec8e" opacity=".8"/><rect width="137.601" height="23.338" x="44.172" y="84.843" fill="none" stroke="#8bc63f" stroke-width=".25" opacity=".7"/></g><rect width="114.4" height="39.6" x="203.838" y="32.459" fill="#fff" stroke="#4e4f4f" stroke-width=".25"/><rect width="196.4" height="39.6" x="340.173" y="32.459" fill="#fff" stroke="#4e4f4f" stroke-width=".25"/><rect width="136.4" height="39.6" x="564.573" y="32.459" fill="#fff" stroke="#4e4f4f" stroke-width=".25"/><g><rect width="184.8" height="61.878" x="788.973" y="10.181" fill="#fff"/><rect width="184.8" height="61.878" x="788.973" y="10.181" fill="#fff1cc" opacity=".35"/><rect width="184.8" height="61.878" x="788.973" y="10.181" fill="none" stroke="#dfa626" stroke-width=".25" opacity=".5"/></g><g><rect width="154" height="39.6" x="546.973" y="133.381" fill="#fff"/><rect width="154" height="39.6" x="546.973" y="133.381" fill="#53b1e0" opacity=".2"/><rect width="154" height="39.6" x="546.973" y="133.381" fill="none" stroke="#53b1e0" stroke-width=".25"/></g><g><rect width="137.601" height="39.6" x="44.172" y="133.271" fill="#fff"/><rect width="137.601" height="39.6" x="44.172" y="133.271" fill="#53b1e0" opacity=".2"/><rect width="137.601" height="39.6" x="44.172" y="133.271" fill="none" stroke="#53b1e0" stroke-width=".25"/></g><g><rect width="136.4" height="39.6" x="203.773" y="133.271" fill="#fff"/><rect width="136.4" height="39.6" x="203.773" y="133.271" fill="#53b1e0" opacity=".2"/><rect width="136.4" height="39.6" x="203.773" y="133.271" fill="none" stroke="#53b1e0" stroke-width=".25"/></g><g><rect width="137.601" height="39.6" x="360.972" y="133.271" fill="#fff"/><rect width="137.601" height="39.6" x="360.972" y="133.271" fill="#53b1e0" opacity=".2"/><rect width="137.601" height="39.6" x="360.972" y="133.271" fill="none" stroke="#53b1e0" stroke-width=".25"/></g><g><rect width="158.4" height="39.6" x="243.373" y="445.781" fill="#fff"/><rect width="158.4" height="39.6" x="243.373" y="445.781" fill="#e1ddd8" opacity=".6"/><rect width="158.4" height="39.6" x="243.373" y="445.781" fill="none" stroke="#8e8278" stroke-width=".25"/></g><g><rect width="180.4" height="39.6" x="441.373" y="498.581" fill="#fff"/><rect width="180.4" height="39.6" x="441.373" y="498.581" fill="#e1ddd8" opacity=".6"/><rect width="180.4" height="39.6" x="441.373" y="498.581" fill="none" stroke="#8e8278" stroke-width=".25"/></g><g><rect width="180.4" height="39.6" x="23.078" y="498.581" fill="#fff"/><rect width="180.4" height="39.6" x="23.078" y="498.581" fill="#e1ddd8" opacity=".6"/><rect width="180.4" height="39.6" x="23.078" y="498.581" fill="none" stroke="#8e8278" stroke-width=".25"/></g><g><rect width="114.053" height="30.831" x="265.427" y="502.965" fill="#fff"/><rect width="114.053" height="30.831" x="265.427" y="502.965" fill="#cae4dd" opacity=".6"/><rect width="114.053" height="30.831" x="265.427" y="502.965" fill="none" stroke="#9dd6c9" stroke-width=".25"/></g><g><rect width="136.4" height="30.831" x="652.573" y="208.15" fill="#fff"/><rect width="136.4" height="30.831" x="652.573" y="208.15" fill="#53b1e0" opacity=".07"/><rect width="136.4" height="30.831" x="652.573" y="208.15" fill="none" stroke="#53b1e0" stroke-width=".25"/></g><g><line x1="112.973" x2="112.973" y1="172.871" y2="202.689" fill="none" stroke="#3c3c41" stroke-miterlimit="10"/><polygon fill="#3c3c41" points="109.233 201.595 112.973 208.071 116.712 201.595 109.233 201.595"/></g><g><line x1="112.973" x2="112.973" y1="232.271" y2="275.289" fill="none" stroke="#3c3c41" stroke-miterlimit="10"/><polygon fill="#3c3c41" points="109.233 274.195 112.973 280.671 116.712 274.195 109.233 274.195"/></g><rect width="17.678" height="17.678" x="104.134" y="211.933" fill="url(#linear-gradient)" transform="translate(189.19781 -15.22119) rotate(45)"/><g><rect width="26.4" height="22" x="99.773" y="238.981" fill="#fff"/><rect width="26.4" height="22" x="99.773" y="238.981" fill="#f3354c" opacity=".07"/><rect width="26.4" height="22" x="99.773" y="238.981" fill="none" stroke="#8e8278" stroke-width=".25"/></g><g><line x1="112.973" x2="112.973" y1="304.515" y2="349.533" fill="none" stroke="#3c3c41" stroke-miterlimit="10"/><polygon fill="#3c3c41" points="109.233 348.439 112.973 354.915 116.712 348.439 109.233 348.439"/></g><g><rect width="26.4" height="22" x="99.773" y="312.618" fill="#fff"/><rect width="26.4" height="22" x="99.773" y="312.618" fill="#f3354c" opacity=".07"/><rect width="26.4" height="22" x="99.773" y="312.618" fill="none" stroke="#8e8278" stroke-width=".25"/></g><g><line x1="203.773" x2="259.991" y1="518.381" y2="518.381" fill="none" stroke="#3c3c41" stroke-miterlimit="10"/><polygon fill="#3c3c41" points="258.896 522.121 265.373 518.381 258.896 514.641 258.896 522.121"/></g><g><line x1="441.373" x2="385.155" y1="518.381" y2="518.381" fill="none" stroke="#3c3c41" stroke-miterlimit="10"/><polygon fill="#3c3c41" points="386.249 514.641 379.773 518.381 386.249 522.121 386.249 514.641"/></g><g><line x1="112.973" x2="112.973" y1="377.781" y2="493.199" fill="none" stroke="#3c3c41" stroke-miterlimit="10"/><polygon fill="#3c3c41" points="109.233 492.105 112.973 498.581 116.712 492.105 109.233 492.105"/></g><g><rect width="26.4" height="22" x="99.773" y="388.581" fill="#fff"/><rect width="26.4" height="22" x="99.773" y="388.581" fill="#f3354c" opacity=".07"/><rect width="26.4" height="22" x="99.773" y="388.581" fill="none" stroke="#8e8278" stroke-width=".25"/></g><path fill="none" stroke="#3c3c41" stroke-miterlimit="10" d="M124.57294,220.38097h89.3882c2.2,0,4-1.8,4-4v-30.20963"/><rect width="17.678" height="17.678" x="104.134" y="284.689" fill="url(#linear-gradient1)" transform="translate(240.64447 6.08871) rotate(45)"/><g><path fill="none" stroke="#3c3c41" stroke-miterlimit="10" d="M124.57294,293.44903h88.3882c2.75,0,5-2.25,5-5v-110.08589"/><polygon fill="#3c3c41" points="221.701 179.457 217.961 172.981 214.221 179.457 221.701 179.457"/></g><g><rect width="26.4" height="22" x="137.773" y="208.181" fill="#fff"/><rect width="26.4" height="22" x="137.773" y="208.181" fill="#d3ec8e" opacity=".3"/><rect width="26.4" height="22" x="137.773" y="208.181" fill="none" stroke="#8bc63f" stroke-width=".25" opacity=".7"/></g><g><rect width="26.4" height="22" x="137.773" y="282.981" fill="#fff"/><rect width="26.4" height="22" x="137.773" y="282.981" fill="#d3ec8e" opacity=".3"/><rect width="26.4" height="22" x="137.773" y="282.981" fill="none" stroke="#8bc63f" stroke-width=".25" opacity=".7"/></g><g><path fill="none" stroke="#3c3c41" stroke-miterlimit="10" d="M124.57294,366.58098h60.12137c2.75,0,5,2.25,5,5v24.24722"/><polygon fill="#3c3c41" points="185.955 394.734 189.694 401.21 193.434 394.734 185.955 394.734"/></g><g><rect width="26.4" height="22" x="137.773" y="356.864" fill="#fff"/><rect width="26.4" height="22" x="137.773" y="356.864" fill="#d3ec8e" opacity=".3"/><rect width="26.4" height="22" x="137.773" y="356.864" fill="none" stroke="#8bc63f" stroke-width=".25" opacity=".7"/></g><g><line x1="322.1" x2="322.1" y1="172.981" y2="202.689" fill="none" stroke="#3c3c41" stroke-miterlimit="10"/><polygon fill="#3c3c41" points="318.361 201.595 322.1 208.071 325.84 201.595 318.361 201.595"/></g><g><line x1="679.43" x2="679.43" y1="172.981" y2="202.799" fill="none" stroke="#3c3c41" stroke-miterlimit="10"/><polygon fill="#3c3c41" points="675.69 201.705 679.43 208.181 683.17 201.705 675.69 201.705"/></g><g><rect width="136.4" height="30.831" x="652.573" y="282.981" fill="#fff"/><rect width="136.4" height="30.831" x="652.573" y="282.981" fill="#53b1e0" opacity=".07"/><rect width="136.4" height="30.831" x="652.573" y="282.981" fill="none" stroke="#53b1e0" stroke-width=".25"/></g><g><line x1="679.43" x2="679.43" y1="238.981" y2="277.877" fill="none" stroke="#3c3c41" stroke-miterlimit="10"/><polygon fill="#3c3c41" points="675.69 276.782 679.43 283.259 683.17 276.782 675.69 276.782"/></g><g><rect width="136.4" height="30.831" x="652.573" y="362.15" fill="#fff"/><rect width="136.4" height="30.831" x="652.573" y="362.15" fill="#53b1e0" opacity=".07"/><rect width="136.4" height="30.831" x="652.573" y="362.15" fill="none" stroke="#53b1e0" stroke-width=".25"/></g><g><rect width="105.6" height="30.831" x="136.352" y="401.565" fill="#fff"/><rect width="105.6" height="30.831" x="136.352" y="401.565" fill="#53b1e0" opacity=".07"/><rect width="105.6" height="30.831" x="136.352" y="401.565" fill="none" stroke="#53b1e0" stroke-width=".25"/></g><g><line x1="679.43" x2="679.43" y1="313.812" y2="356.799" fill="none" stroke="#3c3c41" stroke-miterlimit="10"/><polygon fill="#3c3c41" points="675.69 355.705 679.43 362.181 683.17 355.705 675.69 355.705"/></g><g><line x1="322.1" x2="322.1" y1="230.181" y2="273.199" fill="none" stroke="#3c3c41" stroke-miterlimit="10"/><polygon fill="#3c3c41" points="318.361 272.105 322.1 278.581 325.84 272.105 318.361 272.105"/></g><rect width="17.678" height="17.678" x="313.262" y="211.933" fill="url(#linear-gradient2)" transform="translate(250.44993 -163.09689) rotate(45)"/><g><rect width="26.4" height="22" x="308.9" y="238.981" fill="#fff"/><rect width="26.4" height="22" x="308.9" y="238.981" fill="#f3354c" opacity=".07"/><rect width="26.4" height="22" x="308.9" y="238.981" fill="none" stroke="#8e8278" stroke-width=".25"/></g><g><line x1="485.73" x2="485.73" y1="261.81" y2="493.199" fill="none" stroke="#3c3c41" stroke-miterlimit="10"/><polygon fill="#3c3c41" points="481.99 492.105 485.73 498.581 489.47 492.105 481.99 492.105"/></g><g><rect width="26.4" height="22" x="472.63" y="281.61" fill="#fff"/><rect width="26.4" height="22" x="472.63" y="281.61" fill="#f3354c" opacity=".07"/><rect width="26.4" height="22" x="472.63" y="281.61" fill="none" stroke="#8e8278" stroke-width=".25"/></g><g><line x1="567.757" x2="567.757" y1="261.81" y2="493.199" fill="none" stroke="#3c3c41" stroke-miterlimit="10"/><polygon fill="#3c3c41" points="564.017 492.105 567.757 498.581 571.496 492.105 564.017 492.105"/></g><g><rect width="26.4" height="22" x="554.557" y="281.61" fill="#fff"/><rect width="26.4" height="22" x="554.557" y="281.61" fill="#f3354c" opacity=".07"/><rect width="26.4" height="22" x="554.557" y="281.61" fill="none" stroke="#8e8278" stroke-width=".25"/></g><g><line x1="486.011" x2="486.011" y1="172.981" y2="232.228" fill="none" stroke="#3c3c41" stroke-miterlimit="10"/><polygon fill="#3c3c41" points="482.271 231.134 486.011 237.61 489.75 231.134 482.271 231.134"/></g><g><line x1="494.173" x2="550.391" y1="250.496" y2="250.496" fill="none" stroke="#3c3c41" stroke-miterlimit="10"/><polygon fill="#3c3c41" points="549.296 254.236 555.773 250.496 549.296 246.756 549.296 254.236"/></g><rect width="17.678" height="17.678" x="477.172" y="241.471" fill="url(#linear-gradient3)" transform="translate(319.34528 -270.34731) rotate(45)"/><rect width="17.678" height="17.678" x="558.918" y="241.471" fill="url(#linear-gradient4)" transform="translate(343.28808 -328.15035) rotate(45)"/><g><line x1="322.1" x2="322.1" y1="304.425" y2="347.442" fill="none" stroke="#3c3c41" stroke-miterlimit="10"/><polygon fill="#3c3c41" points="318.361 346.348 322.1 352.825 325.84 346.348 318.361 346.348"/></g><g><line x1="322.1" x2="322.1" y1="376.495" y2="440.399" fill="none" stroke="#3c3c41" stroke-miterlimit="10"/><polygon fill="#3c3c41" points="318.361 439.305 322.1 445.781 325.84 439.305 318.361 439.305"/></g><g><rect width="26.4" height="22" x="308.9" y="388.581" fill="#fff"/><rect width="26.4" height="22" x="308.9" y="388.581" fill="#f3354c" opacity=".07"/><rect width="26.4" height="22" x="308.9" y="388.581" fill="none" stroke="#8e8278" stroke-width=".25"/></g><path fill="none" stroke="#3c3c41" stroke-miterlimit="10" d="M334.97294,220.38097h59.3882c2.2,0,4-1.8,4-4v-30.20963"/><path fill="none" stroke="#3c3c41" stroke-miterlimit="10" d="M334.97294,293.44903h59.3882c2.2,0,4-1.8,4-4v-30.17769"/><rect width="17.678" height="17.678" x="313.262" y="284.689" fill="url(#linear-gradient5)" transform="translate(301.89659 -141.78699) rotate(45)"/><rect width="17.678" height="17.678" x="313.262" y="357.791" fill="url(#linear-gradient6)" transform="translate(353.58731 -120.37599) rotate(45)"/><g><rect width="26.4" height="22" x="348.816" y="206.336" fill="#fff"/><rect width="26.4" height="22" x="348.816" y="206.336" fill="#d3ec8e" opacity=".3"/><rect width="26.4" height="22" x="348.816" y="206.336" fill="none" stroke="#8bc63f" stroke-width=".25" opacity=".7"/></g><g><path fill="none" stroke="#3c3c41" stroke-miterlimit="10" d="M580.42764,250.31019h58.38821c2.75,0,5-2.25,5-5v-66.35046"/><polygon fill="#3c3c41" points="647.556 180.054 643.816 173.578 640.076 180.054 647.556 180.054"/></g><g><rect width="26.4" height="22" x="594.271" y="237.965" fill="#fff"/><rect width="26.4" height="22" x="594.271" y="237.965" fill="#d3ec8e" opacity=".3"/><rect width="26.4" height="22" x="594.271" y="237.965" fill="none" stroke="#8bc63f" stroke-width=".25" opacity=".7"/></g><g><rect width="26.4" height="22" x="511.827" y="239.496" fill="#fff"/><rect width="26.4" height="22" x="511.827" y="239.496" fill="#d3ec8e" opacity=".3"/><rect width="26.4" height="22" x="511.827" y="239.496" fill="none" stroke="#8bc63f" stroke-width=".25" opacity=".7"/></g><g><rect width="26.4" height="22" x="348.816" y="281.774" fill="#fff"/><rect width="26.4" height="22" x="348.816" y="281.774" fill="#d3ec8e" opacity=".3"/><rect width="26.4" height="22" x="348.816" y="281.774" fill="none" stroke="#8bc63f" stroke-width=".25" opacity=".7"/></g><g><path fill="none" stroke="#3c3c41" stroke-miterlimit="10" d="M334.97294,366.58098h58.38821c2.75,0,5-2.25,5-5v-183.21783"/><polygon fill="#3c3c41" points="402.101 179.457 398.361 172.981 394.621 179.457 402.101 179.457"/></g><g><rect width="26.4" height="22" x="348.816" y="357.134" fill="#fff"/><rect width="26.4" height="22" x="348.816" y="357.134" fill="#d3ec8e" opacity=".3"/><rect width="26.4" height="22" x="348.816" y="357.134" fill="none" stroke="#8bc63f" stroke-width=".25" opacity=".7"/></g><g><path fill="none" stroke="#b2aaa1" stroke-miterlimit="10" d="M113.34648,84.8434v-27.12094c0-2.75,2.25-5,5-5h79.61603"/><polygon fill="#b2aaa1" points="196.868 56.462 203.345 52.722 196.868 48.983 196.868 56.462"/></g><g><line x1="318.634" x2="334.791" y1="52.722" y2="52.722" fill="none" stroke="#b2aaa1" stroke-miterlimit="10"/><polygon fill="#b2aaa1" points="333.696 56.462 340.173 52.722 333.696 48.983 333.696 56.462"/></g><g><line x1="536.773" x2="559.191" y1="52.722" y2="52.722" fill="none" stroke="#b2aaa1" stroke-miterlimit="10"/><polygon fill="#b2aaa1" points="558.096 56.462 564.573 52.722 558.096 48.983 558.096 56.462"/></g><g><rect width="184.8" height="26.678" x="788.973" y="89.381" fill="#fff"/><rect width="184.8" height="26.678" x="788.973" y="89.381" fill="#fff1cc" opacity=".65"/><rect width="184.8" height="26.678" x="788.973" y="89.381" fill="none" stroke="#dfa626" stroke-width=".25" opacity=".5"/></g><g><line x1="700.973" x2="783.591" y1="54.181" y2="54.181" fill="none" stroke="#b2aaa1" stroke-miterlimit="10"/><polygon fill="#b2aaa1" points="782.496 57.921 788.973 54.181 782.496 50.441 782.496 57.921"/></g><g><line x1="881.373" x2="881.373" y1="71.781" y2="84.272" fill="none" stroke="#b2aaa1" stroke-miterlimit="10"/><polygon fill="#b2aaa1" points="877.633 83.178 881.373 89.654 885.113 83.178 877.633 83.178"/></g><g><line x1="813.173" x2="862.791" y1="146.231" y2="146.231" fill="none" stroke="#3c3c41" stroke-miterlimit="10"/><polygon fill="#3c3c41" points="861.696 149.971 868.173 146.231 861.696 142.491 861.696 149.971"/></g><g><line x1="881.373" x2="881.373" y1="155.381" y2="215.999" fill="none" stroke="#3c3c41" stroke-miterlimit="10"/><polygon fill="#3c3c41" points="877.633 214.905 881.373 221.381 885.113 214.905 877.633 214.905"/></g><g><line x1="881.373" x2="881.373" y1="244.781" y2="283.399" fill="none" stroke="#3c3c41" stroke-miterlimit="10"/><polygon fill="#3c3c41" points="877.633 282.305 881.373 288.781 885.113 282.305 877.633 282.305"/></g><g><line x1="881.373" x2="881.373" y1="309.381" y2="356.799" fill="none" stroke="#3c3c41" stroke-miterlimit="10"/><polygon fill="#3c3c41" points="877.633 355.705 881.373 362.181 885.113 355.705 877.633 355.705"/></g><g><line x1="989.317" x2="989.317" y1="309.381" y2="356.799" fill="none" stroke="#3c3c41" stroke-miterlimit="10"/><polygon fill="#3c3c41" points="985.578 355.705 989.317 362.181 993.057 355.705 985.578 355.705"/></g><g><rect width="83.651" height="30.831" x="1057.322" y="362.15" fill="#fff"/><rect width="83.651" height="30.831" x="1057.322" y="362.15" fill="#53b1e0" opacity=".07"/><rect width="83.651" height="30.831" x="1057.322" y="362.15" fill="none" stroke="#53b1e0" stroke-width=".25"/></g><g><rect width="83.651" height="30.831" x="947.373" y="362.15" fill="#fff"/><rect width="83.651" height="30.831" x="947.373" y="362.15" fill="#53b1e0" opacity=".07"/><rect width="83.651" height="30.831" x="947.373" y="362.15" fill="none" stroke="#53b1e0" stroke-width=".25"/></g><g><rect width="83.651" height="30.831" x="839.548" y="362.15" fill="#fff"/><rect width="83.651" height="30.831" x="839.548" y="362.15" fill="#53b1e0" opacity=".07"/><rect width="83.651" height="30.831" x="839.548" y="362.15" fill="none" stroke="#53b1e0" stroke-width=".25"/></g><g><line x1="1098.602" x2="1098.602" y1="309.381" y2="356.799" fill="none" stroke="#3c3c41" stroke-miterlimit="10"/><polygon fill="#3c3c41" points="1094.862 355.705 1098.602 362.181 1102.342 355.705 1094.862 355.705"/></g><g><path fill="none" stroke="#3c3c41" stroke-miterlimit="10" d="M788.97288,375.38097h19.20001c2.75,0,5-2.25001,5-5.00001V121.16313"/><polygon fill="#3c3c41" points="816.913 122.257 813.173 115.781 809.433 122.257 816.913 122.257"/></g><rect width="17.6" height="35.2" x="804.373" y="322.581" fill="#fff"/><g><rect width="70.4" height="22" x="846.173" y="172.981" fill="#fff"/><rect width="70.4" height="22" x="846.173" y="172.981" fill="#e1ddd8" opacity=".6"/><rect width="70.4" height="22" x="846.173" y="172.981" fill="none" stroke="#8e8278" stroke-width=".25"/></g><line x1="892.817" x2="1099.344" y1="301.656" y2="301.656" fill="none" stroke="#3c3c41" stroke-miterlimit="10"/><rect width="17.678" height="17.678" x="980.479" y="292.817" fill="url(#linear-gradient7)" transform="translate(503.06733 -611.20003) rotate(45)"/><rect width="17.678" height="17.678" x="1089.763" y="292.817" fill="url(#linear-gradient8)" transform="translate(535.07605 -688.47591) rotate(45)"/><rect width="17.678" height="17.678" x="872.534" y="292.817" fill="url(#linear-gradient9)" transform="translate(471.45112 -534.87175) rotate(45)"/><rect width="17.678" height="17.678" x="872.534" y="137.392" fill="url(#linear-gradient10)" transform="translate(361.54905 -580.39468) rotate(45)"/><rect width="17.678" height="17.678" x="872.534" y="225.742" fill="url(#linear-gradient11)" transform="translate(424.02193 -554.51756) rotate(45)"/><rect width="17.678" height="17.678" x="104.134" y="357.791" fill="url(#linear-gradient12)" transform="translate(292.33519 27.49971) rotate(45)"/></g><g id="Text"><text fill="#2f2f2f" font-family="SegoeUI-Bold, 'Segoe UI'" font-size="12" font-weight="700" transform="translate(99.32334 100.98098)"><tspan x="0" y="0">Start</tspan></text><text fill="#2f2f2f" font-family="SegoeUI, 'Segoe UI'" font-size="12" transform="translate(104.9686 254.58098)"><tspan x="0" y="0">No</tspan></text><text fill="#2f2f2f" font-family="SegoeUI, 'Segoe UI'" font-size="12" transform="translate(104.9686 328.21815)"><tspan x="0" y="0">No</tspan></text><text fill="#2f2f2f" font-family="SegoeUI, 'Segoe UI'" font-size="12" transform="translate(104.96845 404.18141)"><tspan x="0" y="0">No</tspan></text><text fill="#2f2f2f" font-family="SegoeUI, 'Segoe UI'" font-size="12" transform="translate(142.51653 223.7809)"><tspan x="0" y="0">Yes</tspan></text><text fill="#2f2f2f" font-family="SegoeUI, 'Segoe UI'" font-size="12" transform="translate(141.87295 298.58089)"><tspan x="0" y="0">Yes</tspan></text><text fill="#2f2f2f" font-family="SegoeUI, 'Segoe UI'" font-size="12" transform="translate(141.87295 372.46345)"><tspan x="0" y="0">Yes</tspan></text><text fill="#2f2f2f" font-size="12" transform="translate(70.60923 156.95158)"><tspan x="0" y="0" font-family="SegoeUI, 'Segoe UI'">Filter by </tspan><tspan x="45.621" y="0" font-family="SegoeUI-Bold, 'Segoe UI'" font-weight="700">task fit</tspan></text><text fill="#2f2f2f" font-family="SegoeUI, 'Segoe UI'" font-size="12" transform="translate(284.98998 522.66368)"><tspan x="0" y="0">Restart search.</tspan></text><text fill="#2f2f2f" font-family="SegoeUI, 'Segoe UI'" font-size="12" transform="translate(668.07774 227.52764)"><tspan x="0" y="0">Explore benchmarks.</tspan></text><text fill="#2f2f2f" font-family="SegoeUI, 'Segoe UI'" font-size="12" transform="translate(682.69688 302.35878)"><tspan x="0" y="0">Use evaluators.</tspan></text><text fill="#2f2f2f" font-family="SegoeUI, 'Segoe UI'" font-size="12" transform="translate(672.56602 381.52765)"><tspan x="0" y="0">Try on playground.</tspan></text><text fill="#2f2f2f" font-family="SegoeUI, 'Segoe UI'" font-size="12" transform="translate(148.23269 420.94319)"><tspan x="0" y="0">Use fine-tuning.</tspan></text><text fill="#2f2f2f" font-family="SegoeUI, 'Segoe UI'" font-size="12" transform="translate(892.8173 280.86368)"><tspan x="0" y="0">Can it work </tspan><tspan x="0" y="14.4">with others?</tspan></text><text fill="#2f2f2f" font-family="SegoeUI, 'Segoe UI'" font-size="12" transform="translate(858.35422 381.53818)"><tspan x="0" y="0">Extend it.</tspan></text><text fill="#2f2f2f" font-family="SegoeUI, 'Segoe UI'" font-size="12" transform="translate(1001.77677 280.86368)"><tspan x="0" y="0">Is the model </tspan><tspan x="0" y="14.4">swappable?</tspan></text><text fill="#2f2f2f" font-family="SegoeUI, 'Segoe UI'" font-size="12" transform="translate(963.5189 381.53818)"><tspan x="0" y="0">Replace it.</tspan></text><text fill="#2f2f2f" font-family="SegoeUI, 'Segoe UI'" font-size="12" transform="translate(1111.06132 280.86368)"><tspan x="0" y="0">Is the model </tspan><tspan x="0" y="14.4">fine-tunable?</tspan></text><text fill="#2f2f2f" font-family="SegoeUI, 'Segoe UI'" font-size="12" transform="translate(1065.79557 381.53818)"><tspan x="0" y="0">Customize it.</tspan></text><text fill="#2f2f2f" font-family="SegoeUI, 'Segoe UI'" font-size="12" transform="translate(273.36494 461.82542)"><tspan x="0" y="0">No match for your </tspan><tspan x="-16.705" y="14.4">budget. Use new criteria.</tspan></text><text fill="#2f2f2f" font-family="SegoeUI, 'Segoe UI'" font-size="12" transform="translate(458.3278 515.0435)"><tspan x="0" y="0">No match for requirements. </tspan><tspan x="27.267" y="14.4">Retry new criteria.</tspan></text><text fill="#2f2f2f" font-family="SegoeUI, 'Segoe UI'" font-size="12" transform="translate(40.03246 515.0435)"><tspan x="0" y="0">No match for requirements. </tspan><tspan x="27.267" y="14.4">Retry new criteria.</tspan></text><text fill="#2f2f2f" font-family="SegoeUI, 'Segoe UI'" font-size="12" transform="translate(23.20929 216.06369)"><tspan x="0" y="0">Standard task </tspan><tspan x="38.59" y="14.4">types?</tspan></text><text fill="#2f2f2f" font-family="SegoeUI, 'Segoe UI'" font-size="12" transform="translate(12.11749 287.46593)"><tspan x="0" y="0">Specialized task </tspan><tspan x="49.682" y="14.4">types?</tspan></text><text fill="#2f2f2f" font-family="SegoeUI, 'Segoe UI'" font-size="12" transform="translate(30.21124 360.56766)"><tspan x="0" y="0">Custom task </tspan><tspan x="5.156" y="14.4">or domain?</tspan></text><text fill="#2f2f2f" font-family="SegoeUI, 'Segoe UI'" font-size="12" transform="translate(314.09651 254.58089)"><tspan x="0" y="0">No</tspan></text><text fill="#2f2f2f" font-family="SegoeUI, 'Segoe UI'" font-size="12" transform="translate(477.7261 297.21011)"><tspan x="0" y="0">No</tspan></text><text fill="#2f2f2f" font-family="SegoeUI, 'Segoe UI'" font-size="12" transform="translate(559.753 297.21011)"><tspan x="0" y="0">No</tspan></text><text fill="#2f2f2f" font-family="SegoeUI, 'Segoe UI'" font-size="12" transform="translate(314.09651 404.18101)"><tspan x="0" y="0">No</tspan></text><text fill="#2f2f2f" font-family="SegoeUI, 'Segoe UI'" font-size="12" transform="translate(352.91653 221.93614)"><tspan x="0" y="0">Yes</tspan></text><text fill="#2f2f2f" font-family="SegoeUI, 'Segoe UI'" font-size="12" transform="translate(598.37122 253.56537)"><tspan x="0" y="0">Yes</tspan></text><text fill="#2f2f2f" font-family="SegoeUI, 'Segoe UI'" font-size="12" transform="translate(516.02685 253.12971)"><tspan x="0" y="0">Yes</tspan></text><text fill="#2f2f2f" font-family="SegoeUI, 'Segoe UI'" font-size="12" transform="translate(352.91653 297.37407)"><tspan x="0" y="0">Yes</tspan></text><text fill="#2f2f2f" font-family="SegoeUI, 'Segoe UI'" font-size="12" transform="translate(352.91653 372.73399)"><tspan x="0" y="0">Yes</tspan></text><text fill="#2f2f2f" font-family="SegoeUI, 'Segoe UI'" font-size="12" transform="translate(252.49017 216.06369)"><tspan x="0" y="0">Serverless </tspan><tspan x="7.031" y="14.4">options?</tspan></text><text fill="#2f2f2f" font-family="SegoeUI, 'Segoe UI'" font-size="12" transform="translate(432.06318 244.29291)"><tspan x="0" y="0">Region </tspan><tspan x="-23.654" y="14.4">availability?</tspan></text><text fill="#2f2f2f" font-family="SegoeUI, 'Segoe UI'" font-size="12" transform="translate(541.95487 212.66418)"><tspan x="0" y="0">With data </tspan><tspan x="-7.787" y="14.4">governance?</tspan></text><text fill="#2f2f2f" font-family="SegoeUI, 'Segoe UI'" font-size="12" transform="translate(687.77268 333.52554)"><tspan x="0" y="0">Custom </tspan><tspan x="0" y="14.4">safety</tspan></text><text fill="#2f2f2f" font-family="SegoeUI, 'Segoe UI'" font-size="12" transform="translate(687.77268 255.89017)"><tspan x="0" y="0">Cost</tspan><tspan x="0" y="14.4">quality</tspan></text><text fill="#2f2f2f" font-family="SegoeUI, 'Segoe UI'" font-size="12" transform="translate(254.68743 287.46544)"><tspan x="0" y="0">Managed </tspan><tspan x="-2.291" y="14.4">compute?</tspan></text><text fill="#2f2f2f" font-family="SegoeUI, 'Segoe UI'" font-size="12" transform="translate(254.68743 360.56717)"><tspan x="0" y="0">Managed </tspan><tspan x="-22.635" y="14.4">compute with?</tspan></text><text fill="#2f2f2f" font-size="12" transform="translate(237.0396 157.66369)"><tspan x="0" y="0" font-family="SegoeUI, 'Segoe UI'">Filter by </tspan><tspan x="45.621" y="0" font-family="SegoeUI-Bold, 'Segoe UI'" font-weight="700">cost</tspan></text><text fill="#2f2f2f" font-family="SegoeUI, 'Segoe UI'" font-size="12" transform="translate(234.35445 48.90722)"><tspan x="0" y="0">Start from the </tspan><tspan x="-11.18" y="14.4">model catalog.</tspan></text><text fill="#2f2f2f" font-size="12" transform="translate(376.21516 157.66369)"><tspan x="0" y="0" font-family="SegoeUI, 'Segoe UI'">Filter by </tspan><tspan x="45.621" y="0" font-family="SegoeUI-Bold, 'Segoe UI'" font-weight="700">availability</tspan></text><text fill="#2f2f2f" font-size="12" transform="translate(566.72678 157.66369)"><tspan x="0" y="0" font-family="SegoeUI, 'Segoe UI'">Select by </tspan><tspan x="50.877" y="0" font-family="SegoeUI-Bold, 'Segoe UI'" font-weight="700">comparison</tspan></text><g><g><circle cx="204.323" cy="32.731" r="8.25" fill="#fff"/><circle cx="204.323" cy="32.731" r="8.25" fill="#4e4f4f" opacity=".25"/><circle cx="204.323" cy="32.731" r="8.25" fill="none" stroke="#4e4f4f" stroke-miterlimit="10" stroke-width=".15"/></g><text fill="#4e4f4f" font-family="SegoeUI-Semibold, 'Segoe UI'" font-size="12" font-weight="600" letter-spacing="-.01em" transform="translate(201.90881 36.98196)"><tspan x="0" y="0">1</tspan></text></g><text fill="#2f2f2f" font-family="SegoeUI, 'Segoe UI'" font-size="12" transform="translate(356.26231 48.90722)"><tspan x="0" y="0">Navigate the decision tree </tspan><tspan x="-6.141" y="14.4">until you have several choices.</tspan></text><g><g><circle cx="339.623" cy="32.731" r="8.25" fill="#fff"/><circle cx="339.623" cy="32.731" r="8.25" fill="#4e4f4f" opacity=".25"/><circle cx="339.623" cy="32.731" r="8.25" fill="none" stroke="#4e4f4f" stroke-miterlimit="10" stroke-width=".15"/></g><text fill="#4e4f4f" font-family="SegoeUI-Semibold, 'Segoe UI'" font-size="12" font-weight="600" letter-spacing="-.01em" transform="translate(336.29182 36.98196)"><tspan x="0" y="0">2</tspan></text></g><text fill="#2f2f2f" font-family="SegoeUI, 'Segoe UI'" font-size="12" transform="translate(577.12644 48.90722)"><tspan x="0" y="0">Compare the choices </tspan><tspan x="21.595" y="14.4">and decide.</tspan></text><text fill="#2f2f2f" font-family="SegoeUI-Bold, 'Segoe UI'" font-size="12" font-weight="700" transform="translate(840.8812 27.86368)"><tspan x="0" y="0">Model catalog</tspan></text><text fill="#2f2f2f" font-family="SegoeUI, 'Segoe UI'" font-size="12" transform="translate(834.64408 45.26366)"><tspan x="0" y="0">Filter to a few models. </tspan><tspan x="-8.736" y="14.4">Compare to choose.</tspan></text><text fill="#2f2f2f" font-family="SegoeUI-Bold, 'Segoe UI'" font-size="12" font-weight="700" transform="translate(843.64976 107.06368)"><tspan x="0" y="0">Model choice</tspan></text><g><g><circle cx="563.523" cy="32.731" r="8.25" fill="#fff"/><circle cx="563.523" cy="32.731" r="8.25" fill="#4e4f4f" opacity=".25"/><circle cx="563.523" cy="32.731" r="8.25" fill="none" stroke="#4e4f4f" stroke-miterlimit="10" stroke-width=".15"/></g><text fill="#4e4f4f" font-family="SegoeUI-Semibold, 'Segoe UI'" font-size="12" font-weight="600" letter-spacing="-.01em" transform="translate(560.19183 36.98196)"><tspan x="0" y="0">3</tspan></text></g><text fill="#2f2f2f" font-family="SegoeUI, 'Segoe UI'" font-size="12" transform="translate(787.91918 333.52573)"><tspan x="0" y="0">Start with </tspan><tspan x="-2.625" y="14.4">this model.</tspan></text><text fill="#2f2f2f" font-family="SegoeUI, 'Segoe UI'" font-size="12" transform="translate(896.4997 142.2639)"><tspan x="0" y="0">Is it good </tspan><tspan x="0" y="14.4">enough?</tspan></text><text fill="#2f2f2f" font-family="SegoeUI, 'Segoe UI'" font-size="12" transform="translate(898.4997 230.2639)"><tspan x="0" y="0">Models evolve or </tspan><tspan x="0" y="14.4">changes are required?</tspan></text><text fill="#2f2f2f" font-family="SegoeUI, 'Segoe UI'" font-size="12" transform="translate(859.62315 188.38089)"><tspan x="0" y="0">What if?</tspan></text></g></svg>