<svg xmlns="http://www.w3.org/2000/svg" xmlns:ev="http://www.w3.org/2001/xml-events" xmlns:xlink="http://www.w3.org/1999/xlink" width="1010.995" height="451" class="st19" color-interpolation-filters="sRGB" viewBox="0 0 758.25 338.25" xml:space="preserve"><style type="text/css">.st1,.st2{fill:#fff;stroke:none;stroke-width:.75}.st1{stroke-linecap:round;stroke-linejoin:round}.st2{stroke-linecap:butt}.st3{fill:none}.st4,.st5,.st6{stroke:#000}.st4,.st5,.st6,.st7{stroke-linecap:butt;stroke-width:.75}.st5{fill:#000}.st6{fill:#fff}.st7{fill:none;stroke:none}.st8,.st9{fill:#000;font-family:SimSun;font-size:.75em}.st9{font-family:Segoe UI}.st10{font-size:1em}.st11{fill:#dae8fc}.st11,.st12{stroke:#6c8ebf;stroke-linecap:butt;stroke-width:.75}.st13,.st14{fill:#000;font-family:Segoe UI;font-size:.833336em}.st14{font-size:.583328em}.st15,.st16{fill:#fff2cc;stroke:#d6b656;stroke-linecap:butt;stroke-width:.75}.st16{fill:#f5f5f5;stroke:#666}.st17{fill:#000;font-family:Segoe UI;font-size:.499992em}.st18{fill:#333;font-family:SimSun;font-size:.5625em}.st19{fill:none;fill-rule:evenodd;font-size:12px;overflow:visible;stroke-linecap:square;stroke-miterlimit:3}</style><g><title>背景-1</title><g id="shape1-1"><title>实心</title><rect width="758.25" height="338.25" x="0" y="0" class="st1"/></g></g><g><title>concurrent-pattern-example</title><g id="shape1-3" transform="translate(0.375,0.375)"><title>Sheet.1</title><rect width="758.25" height="338.25" x="0" y="0" class="st2"/></g><g id="group2-5" transform="translate(15.375,-15.375)"><title>Sheet.2</title><g id="group3-6" transform="translate(361.875,-255.84)"><title>Sheet.3</title><g id="shape4-7" transform="translate(2.625,-3.9375)"><title>Sheet.4</title><path d="M0 320.53 L0 335.53 L0 328.03 L0 338.25 L0 320.53 Z" class="st3"/><path d="M0 320.53 L0 335.53 L0 328.03 L0 338.25" class="st4"/></g><g id="shape5-10"><title>Sheet.5</title><path d="M2.63 338.25 L0 333 L2.63 334.31 L5.25 333 L2.63 338.25 Z" class="st5"/></g></g><g id="group6-12" transform="translate(342,-277.5)"><title>Sheet.6</title><desc>Ticker symbol</desc><g id="shape7-13"><title>Sheet.7</title><path d="M-0 333.75 A4.5001 4.5001 -180 0 0 4.5 338.25 L40.5 338.25 A4.5001 4.5001 -180 0 0 45 333.75 L45 312.75 A4.5001 4.5001 -180 0 0 40.5 308.25 L4.5 308.25 A4.5001 4.5001 -180 0 0 -0 312.75 L0 333.75 Z" class="st6"/></g><g id="shape8-15" transform="translate(321.35,-302.175)"><title>Sheet.8</title><desc>Ticker sym...</desc><rect width="117.05" height="10.8" x="0" y="327.45" class="st7"/><text x="29.27" y="335.55" class="st8">Ticker sym...</text></g><g id="shape6-18"><text x="10.82" y="320.55" class="st9">Ticker <tspan x="8.17" class="st10" dy="1.2em">symbol</tspan></text></g></g><g id="group9-21" transform="translate(195,-154.875)"><title>Sheet.9</title><g id="shape10-22" transform="translate(2.19824E-14,-2.625)"><title>Sheet.10</title><path d="M0 338.25 L15 338.25 L0 338.25 L10.22 338.25 L0 338.25 Z" class="st3"/><path d="M0 338.25 L15 338.25 L0 338.25 L10.22 338.25" class="st4"/></g><g id="shape11-25" transform="translate(8.91,1.13687E-13)"><title>Sheet.11</title><path d="M5.25 335.63 L0 338.25 L1.31 335.63 L0 333 L5.25 335.63 Z" class="st5"/></g></g><g id="group12-27" transform="translate(94.875,-105.84)"><title>Sheet.12</title><g id="shape13-28" transform="translate(2.625,-3.9375)"><title>Sheet.13</title><path d="M52.5 313.03 L52.5 328.03 L0 328.03 L0 338.25 L52.5 313.03 Z" class="st3"/><path d="M52.5 313.03 L52.5 328.03 L0 328.03 L0 338.25" class="st4"/></g><g id="shape14-31"><title>Sheet.14</title><path d="M2.63 338.25 L0 333 L2.63 334.31 L5.25 333 L2.63 338.25 Z" class="st5"/></g></g><g id="group15-33" transform="translate(150,-105.84)"><title>Sheet.15</title><g id="shape16-34" transform="translate(3.35731E-13,-3.9375)"><title>Sheet.16</title><path d="M0 313.03 L0 328.03 L52.5 328.03 L52.5 338.25 L0 313.03 Z" class="st3"/><path d="M0 313.03 L0 328.03 L52.5 328.03 L52.5 338.25" class="st4"/></g><g id="shape17-37" transform="translate(49.875,5.68434E-14)"><title>Sheet.17</title><path d="M2.62 338.25 L0 333 L2.62 334.31 L5.25 333 L2.62 338.25 Z" class="st5"/></g></g><g id="shape18-39" transform="translate(90,-157.5)"><title>Sheet.18</title><path d="M15 338.25 L0 338.25 L15 338.25 L0 338.25 L15 338.25 Z" class="st3"/><path d="M15 338.25 L0 338.25 L15 338.25 L0 338.25" class="st4"/></g><g id="group19-42" transform="translate(105,-135)"><title>Sheet.19</title><desc>Fundamental analysis agent</desc><g id="group20-43"><title>Sheet.20</title><g id="shape21-44"><title>Sheet.21</title><rect width="90" height="45" x="0" y="293.25" class="st11"/></g><g id="shape22-46" transform="translate(9,6.82121E-13)"><title>Sheet.22</title><path d="M0 293.25 L0 338.25 L0 293.25 ZM72 293.25 L72 338.25 L72 293.25 Z" class="st3"/><path d="M0 293.25 L0 338.25M72 293.25 L72 338.25" class="st12"/></g></g><g id="shape19-49"><text x="19.09" y="313.05" class="st9">Fundamental <tspan x="17.1" class="st10" dy="1.2em">analysis agent</tspan></text></g></g><g id="shape24-52" transform="translate(307.5,-120)"><title>Sheet.24</title><path d="M0 323.25 L0 338.25 L0 323.25 L0 338.25 L0 323.25 Z" class="st3"/><path d="M0 323.25 L0 338.25 L0 323.25 L0 338.25" class="st4"/></g><g id="group25-55" transform="translate(352.5,-154.875)"><title>Sheet.25</title><g id="shape26-56" transform="translate(4.29656E-14,-2.625)"><title>Sheet.26</title><path d="M0 338.25 L15 338.25 L0 338.25 L10.22 338.25 L0 338.25 Z" class="st3"/><path d="M0 338.25 L15 338.25 L0 338.25 L10.22 338.25" class="st4"/></g><g id="shape27-59" transform="translate(8.91,1.13687E-13)"><title>Sheet.27</title><path d="M5.25 335.63 L0 338.25 L1.31 335.63 L0 333 L5.25 335.63 Z" class="st5"/></g></g><g id="group28-61" transform="translate(262.5,-135)"><title>Sheet.28</title><desc>Technical analysis agent</desc><g id="group29-62"><title>Sheet.29</title><g id="shape30-63"><title>Sheet.30</title><rect width="90" height="45" x="0" y="293.25" class="st11"/></g><g id="shape31-65" transform="translate(9,6.82121E-13)"><title>Sheet.31</title><path d="M0 293.25 L0 338.25 L0 293.25 ZM72 293.25 L72 338.25 L72 293.25 Z" class="st3"/><path d="M0 293.25 L0 338.25M72 293.25 L72 338.25" class="st12"/></g></g><g id="shape28-68"><text x="26.57" y="313.05" class="st9">Technical <tspan x="17.1" class="st10" dy="1.2em">analysis agent</tspan></text></g></g><g id="shape33-71" transform="translate(622.5,-120)"><title>Sheet.33</title><path d="M0 323.25 L0 338.25 L0 323.25 Z" class="st3"/><path d="M0 323.25 L0 338.25" class="st4"/></g><g id="group34-74" transform="translate(667.5,-154.875)"><title>Sheet.34</title><g id="shape35-75" transform="translate(6.99441E-15,-2.625)"><title>Sheet.35</title><path d="M0 338.25 L15 338.25 L0.75 338.25 L10.97 338.25 L0 338.25 Z" class="st3"/><path d="M0 338.25 L15 338.25 L0.75 338.25 L10.97 338.25" class="st4"/></g><g id="shape36-78" transform="translate(9.66,1.13687E-13)"><title>Sheet.36</title><path d="M5.25 335.63 L0 338.25 L1.31 335.63 L0 333 L5.25 335.63 Z" class="st5"/></g></g><g id="group37-80" transform="translate(577.5,-135)"><title>Sheet.37</title><desc>ESG agent</desc><g id="group38-81"><title>Sheet.38</title><g id="shape39-82"><title>Sheet.39</title><rect width="90" height="45" x="0" y="293.25" class="st11"/></g><g id="shape40-84" transform="translate(9,6.82121E-13)"><title>Sheet.40</title><path d="M0 293.25 L0 338.25 L0 293.25 ZM72 293.25 L72 338.25 L72 293.25 Z" class="st3"/><path d="M0 293.25 L0 338.25M72 293.25 L72 338.25" class="st12"/></g></g><g id="shape41-87" transform="translate(597.35,-167.175)"><title>Sheet.41</title><desc>ESG agent</desc><rect width="81.05" height="10.8" x="0" y="327.45" class="st7"/><text x="20.27" y="335.55" class="st8">ESG agent</text></g><g id="shape37-90"><text x="22.39" y="318.75" class="st13">ESG agent</text></g></g><g id="group42-92" transform="translate(432,-210)"><title>Sheet.42</title><desc>Decision with supporting evidence based on combined intermedi...</desc><g id="shape43-93"><title>Sheet.43</title><path d="M0 331.5 A6.75016 6.75016 -180 0 0 6.75 338.25 L86.25 338.25 A6.75016 6.75016 -180 0 0 93 331.5 L93 300 A6.75016 6.75016 -180 0 0 86.25 293.25 L6.75 293.25 A6.75016 6.75016 -180 0 0 -0 300 L0 331.5 Z" class="st6"/></g><g id="shape42-95"><text x="8" y="305.25" class="st14">Decision with supporting <tspan x="32.83" class="st10" dy="1.2em">evidence</tspan><tspan x="15.88" class="st10" dy="1.2em">based on combined </tspan><tspan x="15.9" class="st10" dy="1.2em">intermediate results</tspan></text></g></g><g id="group45-100" transform="translate(52.5,5.68434E-14)"><title>Sheet.45</title><desc>Model, reported financials knowledge</desc><g id="shape46-101"><title>Sheet.46</title><path d="M0 331.5 A6.75016 6.75016 -180 0 0 6.75 338.25 L83.25 338.25 A6.75016 6.75016 -180 0 0 90 331.5 L90 300 A6.75016 6.75016 -180 0 0 83.25 293.25 L6.75 293.25 A6.75016 6.75016 -180 0 0 -0 300 L0 331.5 Z" class="st15"/></g><g id="shape45-103"><text x="29.73" y="306.75" class="st13">Model,<tspan x="4.04" class="st10" dy="1.2em">reported financials </tspan><tspan x="20.81" class="st10" dy="1.2em">knowledge</tspan></text></g></g><g id="group48-107" transform="translate(262.5,-75)"><title>Sheet.48</title><desc>Fine-tuned model, market APIs</desc><g id="shape49-108"><title>Sheet.49</title><path d="M0 331.5 A6.75016 6.75016 -180 0 0 6.75 338.25 L83.25 338.25 A6.75016 6.75016 -180 0 0 90 331.5 L90 300 A6.75016 6.75016 -180 0 0 83.25 293.25 L6.75 293.25 A6.75016 6.75016 -180 0 0 -0 300 L0 331.5 Z" class="st15"/></g><g id="shape48-110"><text x="4.53" y="312.75" class="st13">Fine-tuned model,<tspan x="18.77" class="st10" dy="1.2em">market APIs</tspan></text></g></g><g id="group51-113" transform="translate(577.5,-75)"><title>Sheet.51</title><desc>Model, ESG knowledge</desc><g id="shape52-114"><title>Sheet.52</title><path d="M0 331.5 A6.75016 6.75016 -180 0 0 6.75 338.25 L83.25 338.25 A6.75016 6.75016 -180 0 0 90 331.5 L90 300 A6.75016 6.75016 -180 0 0 83.25 293.25 L6.75 293.25 A6.75016 6.75016 -180 0 0 -0 300 L0 331.5 Z" class="st15"/></g><g id="shape53-116" transform="translate(597.35,-107.175)"><title>Sheet.53</title><desc>Model,...</desc><rect width="81.05" height="10.8" x="0" y="327.45" class="st7"/><text x="20.27" y="335.55" class="st8">Model,...</text></g><g id="shape51-119"><text x="29.73" y="312.75" class="st13">Model,<tspan x="10.83" class="st10" dy="1.2em">ESG knowledge</tspan></text></g></g><g id="group54-122" transform="translate(147.375,-180.84)"><title>Sheet.54</title><g id="shape55-123" transform="translate(2.625,-3.9375)"><title>Sheet.55</title><path d="M214.5 313.03 L214.5 328.03 L0 328.03 L0 338.25 L214.5 313.03 Z" class="st3"/><path d="M214.5 313.03 L214.5 328.03 L0 328.03 L0 338.25" class="st4"/></g><g id="shape56-126"><title>Sheet.56</title><path d="M2.62 338.25 L0 333 L2.62 334.31 L5.25 333 L2.62 338.25 Z" class="st5"/></g></g><g id="group57-128" transform="translate(304.875,-180.84)"><title>Sheet.57</title><g id="shape58-129" transform="translate(2.625,-3.9375)"><title>Sheet.58</title><path d="M57 313.03 L57 328.03 L0 328.03 L0 338.25 L57 313.03 Z" class="st3"/><path d="M57 313.03 L57 328.03 L0 328.03 L0 338.25" class="st4"/></g><g id="shape59-132"><title>Sheet.59</title><path d="M2.62 338.25 L0 333 L2.62 334.31 L5.25 333 L2.62 338.25 Z" class="st5"/></g></g><g id="group60-134" transform="translate(409.5,-229.875)"><title>Sheet.60</title><g id="shape61-135" transform="translate(1.86851E-13,-2.625)"><title>Sheet.61</title><path d="M0 338.25 L15 338.25 L7.5 338.25 L17.72 338.25 L0 338.25 Z" class="st3"/><path d="M0 338.25 L15 338.25 L7.5 338.25 L17.72 338.25" class="st4"/></g><g id="shape62-138" transform="translate(16.41,1.13687E-13)"><title>Sheet.62</title><path d="M5.25 335.63 L0 338.25 L1.31 335.63 L0 333 L5.25 335.63 Z" class="st5"/></g></g><g id="group63-140" transform="translate(364.5,-180.84)"><title>Sheet.63</title><g id="shape64-141" transform="translate(4.95604E-13,-3.9375)"><title>Sheet.64</title><path d="M0 313.03 L0 328.03 L101.25 328.03 L101.25 338.25 L0 313.03 Z" class="st3"/><path d="M0 313.03 L0 328.03 L101.25 328.03 L101.25 338.25" class="st4"/></g><g id="shape65-144" transform="translate(98.625,5.68434E-14)"><title>Sheet.65</title><path d="M2.63 338.25 L0 333 L2.63 334.31 L5.25 333 L2.63 338.25 Z" class="st5"/></g></g><g id="group66-146" transform="translate(364.5,-180.84)"><title>Sheet.66</title><g id="shape67-147" transform="translate(-4.31655E-13,-3.9375)"><title>Sheet.67</title><path d="M0 313.03 L0 328.03 L258 328.03 L258 338.25 L0 313.03 Z" class="st3"/><path d="M0 313.03 L0 328.03 L258 328.03 L258 338.25" class="st4"/></g><g id="shape68-150" transform="translate(255.375,5.68434E-14)"><title>Sheet.68</title><path d="M2.62 338.25 L0 333 L2.62 334.31 L5.25 333 L2.62 338.25 Z" class="st5"/></g></g><g id="shape69-152" transform="translate(307.5,-232.5)"><title>Sheet.69</title><path d="M12 338.25 L0 338.25 L12 338.25 Z" class="st3"/><path d="M12 338.25 L0 338.25" class="st4"/></g><g id="group70-155" transform="translate(319.5,-210)"><title>Sheet.70</title><desc>Stock analysis agent</desc><g id="group71-156"><title>Sheet.71</title><g id="shape72-157"><title>Sheet.72</title><rect width="90" height="45" x="0" y="293.25" class="st11"/></g><g id="shape73-159" transform="translate(9,6.82121E-13)"><title>Sheet.73</title><path d="M0 293.25 L0 338.25 L0 293.25 ZM72 293.25 L72 338.25 L72 293.25 Z" class="st3"/><path d="M0 293.25 L0 338.25M72 293.25 L72 338.25" class="st12"/></g></g><g id="shape70-162"><text x="17.6" y="313.05" class="st9">Stock analysis<tspan x="33.64" class="st10" dy="1.2em">agent</tspan></text></g></g><g id="group75-165" transform="translate(210,-142.5)"><title>Sheet.75</title><desc>Intermediate result</desc><g id="shape76-166"><title>Sheet.76</title><path d="M0 333.75 A4.5001 4.5001 -180 0 0 4.5 338.25 L40.5 338.25 A4.5001 4.5001 -180 0 0 45 333.75 L45 312.75 A4.5001 4.5001 -180 0 0 40.5 308.25 L4.5 308.25 A4.5001 4.5001 -180 0 0 0 312.75 L0 333.75 Z" class="st16"/></g><g id="shape75-168"><text x="5.62" y="321.45" class="st17">Intermediate <tspan x="15.17" class="st10" dy="1.2em">result</tspan></text></g></g><g id="group78-171" transform="translate(367.5,-142.5)"><title>Sheet.78</title><desc>Intermediate result</desc><g id="shape79-172"><title>Sheet.79</title><path d="M0 333.75 A4.5001 4.5001 -180 0 0 4.5 338.25 L40.5 338.25 A4.5001 4.5001 -180 0 0 45 333.75 L45 312.75 A4.5001 4.5001 -180 0 0 40.5 308.25 L4.5 308.25 A4.5001 4.5001 -180 0 0 0 312.75 L0 333.75 Z" class="st16"/></g><g id="shape78-174"><text x="5.62" y="321.45" class="st17">Intermediate <tspan x="15.17" class="st10" dy="1.2em">result</tspan></text></g></g><g id="group81-177" transform="translate(683.25,-142.5)"><title>Sheet.81</title><desc>Intermediate result</desc><g id="shape82-178"><title>Sheet.82</title><path d="M0 333.75 A4.5001 4.5001 -180 0 0 4.5 338.25 L39.75 338.25 A4.5001 4.5001 -180 0 0 44.25 333.75 L44.25 312.75 A4.5001 4.5001 -180 0 0 39.75 308.25 L4.5 308.25 A4.5001 4.5001 -180 0 0 0 312.75 L0 333.75 Z" class="st16"/></g><g id="shape83-180" transform="translate(670.475,-168.6)"><title>Sheet.83</title><desc>Intermediate...</desc><rect width="101.3" height="8.1" x="0" y="330.15" class="st7"/><text x="25.34" y="336.22" class="st18">Intermediate...</text></g><g id="shape81-183"><text x="5.24" y="321.45" class="st17">Intermediate <tspan x="14.8" class="st10" dy="1.2em">result</tspan></text></g></g><g id="shape84-186" transform="translate(97.5,-45)"><title>Sheet.84</title><path d="M0 323.25 L0 338.25 L0 323.25 L0 338.25 L0 323.25 Z" class="st3"/><path d="M0 323.25 L0 338.25 L0 323.25 L0 338.25" class="st4"/></g><g id="group85-189" transform="translate(52.5,-60)"><title>Sheet.85</title><desc>Financials and revenue analysis agent</desc><g id="group86-190"><title>Sheet.86</title><g id="shape87-191"><title>Sheet.87</title><rect width="90" height="45" x="0" y="293.25" class="st11"/></g><g id="shape88-193" transform="translate(9,6.82121E-13)"><title>Sheet.88</title><path d="M0 293.25 L0 338.25 L0 293.25 ZM72 293.25 L72 338.25 L72 293.25 Z" class="st3"/><path d="M0 293.25 L0 338.25M72 293.25 L72 338.25" class="st12"/></g></g><g id="shape85-196"><text x="17.15" y="307.65" class="st9">Financials and <tspan x="12.59" class="st10" dy="1.2em">revenue analysis </tspan><tspan x="33.64" class="st10" dy="1.2em">agent</tspan></text></g></g><g id="shape90-200" transform="translate(202.5,-45)"><title>Sheet.90</title><path d="M0 323.25 L0 338.25 L0 323.25 L0 338.25 L0 323.25 Z" class="st3"/><path d="M0 323.25 L0 338.25 L0 323.25 L0 338.25" class="st4"/></g><g id="group91-203" transform="translate(157.5,-60)"><title>Sheet.91</title><desc>Competitive analysis agent</desc><g id="group92-204"><title>Sheet.92</title><g id="shape93-205"><title>Sheet.93</title><rect width="90" height="45" x="0" y="293.25" class="st11"/></g><g id="shape94-207" transform="translate(9,6.82121E-13)"><title>Sheet.94</title><path d="M0 293.25 L0 338.25 L0 293.25 ZM72 293.25 L72 338.25 L72 293.25 Z" class="st3"/><path d="M0 293.25 L0 338.25M72 293.25 L72 338.25" class="st12"/></g></g><g id="shape91-210"><text x="20.96" y="313.05" class="st9">Competitive <tspan x="17.1" class="st10" dy="1.2em">analysis agent</tspan></text></g></g><g id="group96-213" transform="translate(157.5,5.68434E-14)"><title>Sheet.96</title><desc>Model, competitive knowledge</desc><g id="shape97-214"><title>Sheet.97</title><path d="M0 331.5 A6.75016 6.75016 -180 0 0 6.75 338.25 L83.25 338.25 A6.75016 6.75016 -180 0 0 90 331.5 L90 300 A6.75016 6.75016 -180 0 0 83.25 293.25 L6.75 293.25 A6.75016 6.75016 -180 0 0 -0 300 L0 331.5 Z" class="st15"/></g><g id="shape96-216"><text x="29.73" y="306.75" class="st13">Model,<tspan x="19.08" class="st10" dy="1.2em">competitive </tspan><tspan x="20.81" class="st10" dy="1.2em">knowledge</tspan></text></g></g><g id="group99-220" transform="translate(217.5,-210)"><title>Sheet.99</title><desc>Model, Exchange symbol mapping knowledge</desc><g id="shape100-221"><title>Sheet.100</title><path d="M0 331.5 A6.75016 6.75016 -180 0 0 6.75 338.25 L83.25 338.25 A6.75016 6.75016 -180 0 0 90 331.5 L90 300 A6.75016 6.75016 -180 0 0 83.25 293.25 L6.75 293.25 A6.75016 6.75016 -180 0 0 -0 300 L0 331.5 Z" class="st15"/></g><g id="shape99-223"><text x="31.25" y="307.65" class="st9">Model,<tspan x="10.63" class="st10" dy="1.2em">Exchange symbol </tspan><tspan x="4.26" class="st10" dy="1.2em">mapping knowledge</tspan></text></g></g><g id="group102-227" transform="translate(1.67866E-13,-135)"><title>Sheet.102</title><desc>Model</desc><g id="shape103-228"><title>Sheet.103</title><path d="M0 331.5 A6.75016 6.75016 -180 0 0 6.75 338.25 L83.25 338.25 A6.75016 6.75016 -180 0 0 90 331.5 L90 300 A6.75016 6.75016 -180 0 0 83.25 293.25 L6.75 293.25 A6.75016 6.75016 -180 0 0 -0 300 L0 331.5 Z" class="st15"/></g><g id="shape102-230"><text x="30.81" y="318.75" class="st13">Model</text></g></g><g id="shape105-232" transform="translate(465.75,-120)"><title>Sheet.105</title><path d="M0 323.25 L0 338.25 L0 323.25 L0 338.25 L0 323.25 Z" class="st3"/><path d="M0 323.25 L0 338.25 L0 323.25 L0 338.25" class="st4"/></g><g id="group106-235" transform="translate(510,-154.875)"><title>Sheet.106</title><g id="shape107-236" transform="translate(-1.72862E-13,-2.625)"><title>Sheet.107</title><path d="M0.75 338.25 L15.75 338.25 L0 338.25 L10.22 338.25 L0.75 338.25 Z" class="st3"/><path d="M0.75 338.25 L15.75 338.25 L0 338.25 L10.22 338.25" class="st4"/></g><g id="shape108-239" transform="translate(8.91,1.13687E-13)"><title>Sheet.108</title><path d="M5.25 335.63 L0 338.25 L1.31 335.63 L0 333 L5.25 335.63 Z" class="st5"/></g></g><g id="group109-241" transform="translate(420.75,-135)"><title>Sheet.109</title><desc>Sentiment analysis agent</desc><g id="group110-242"><title>Sheet.110</title><g id="shape111-243"><title>Sheet.111</title><rect width="90" height="45" x="0" y="293.25" class="st11"/></g><g id="shape112-245" transform="translate(9,6.82121E-13)"><title>Sheet.112</title><path d="M0 293.25 L0 338.25 L0 293.25 ZM72 293.25 L72 338.25 L72 293.25 Z" class="st3"/><path d="M0 293.25 L0 338.25M72 293.25 L72 338.25" class="st12"/></g></g><g id="shape109-248"><text x="24.79" y="313.05" class="st9">Sentiment <tspan x="17.1" class="st10" dy="1.2em">analysis agent</tspan></text></g></g><g id="group114-251" transform="translate(420.75,-75)"><title>Sheet.114</title><desc>Model, social APIs, news APIs</desc><g id="shape115-252"><title>Sheet.115</title><path d="M0 331.5 A6.75016 6.75016 -180 0 0 6.75 338.25 L83.25 338.25 A6.75016 6.75016 -180 0 0 90 331.5 L90 300 A6.75016 6.75016 -180 0 0 83.25 293.25 L6.75 293.25 A6.75016 6.75016 -180 0 0 -0 300 L0 331.5 Z" class="st15"/></g><g id="shape114-254"><text x="29.73" y="306.75" class="st13">Model,<tspan x="20.74" class="st10" dy="1.2em">social APIs,</tspan><tspan x="22.97" class="st10" dy="1.2em">news APIs</tspan></text></g></g><g id="group117-258" transform="translate(525,-142.5)"><title>Sheet.117</title><desc>Intermediate result</desc><g id="shape118-259"><title>Sheet.118</title><path d="M0 333.75 A4.5001 4.5001 -180 0 0 4.5 338.25 L40.5 338.25 A4.5001 4.5001 -180 0 0 45 333.75 L45 312.75 A4.5001 4.5001 -180 0 0 40.5 308.25 L4.5 308.25 A4.5001 4.5001 -180 0 0 -0 312.75 L0 333.75 Z" class="st16"/></g><g id="shape119-261" transform="translate(512.225,-168.6)"><title>Sheet.119</title><desc>Intermediate...</desc><rect width="101.3" height="8.1" x="0" y="330.15" class="st7"/><text x="25.34" y="336.22" class="st18">Intermediate...</text></g><g id="shape117-264"><text x="5.62" y="321.45" class="st17">Intermediate <tspan x="15.17" class="st10" dy="1.2em">result</tspan></text></g></g></g></g></svg>