<svg xmlns="http://www.w3.org/2000/svg" xmlns:ev="http://www.w3.org/2001/xml-events" xmlns:xlink="http://www.w3.org/1999/xlink" width="951" height="501" class="st17" color-interpolation-filters="sRGB" viewBox="0 0 713.25 375.75" xml:space="preserve"><style type="text/css">.st1,.st2{fill:#fff;stroke:none;stroke-width:.25}.st2{stroke-linecap:butt;stroke-width:.75}.st3{fill:none}.st4,.st5,.st6{stroke:#000;stroke-linecap:butt;stroke-width:.75}.st5{fill:#000}.st6{fill:#fff}.st7{fill:#000;font-family:Segoe UI;font-size:.833336em}.st8{fill:#dae8fc}.st8,.st9{stroke:#6c8ebf;stroke-linecap:butt;stroke-width:.75}.st10{fill:#000;font-family:Segoe UI;font-size:1.00001em}.st11{font-size:1em;font-style:italic}.st12{fill:#000;font-family:Segoe UI;font-size:.666664em}.st13{font-size:1em}.st14,.st15{fill:#fff2cc;stroke:#d6b656;stroke-linecap:butt;stroke-width:.75}.st15{fill:#f5f5f5;stroke:#666}.st16{fill:#000;font-family:Segoe UI;font-size:.499992em}.st17{fill:none;fill-rule:evenodd;font-size:12px;overflow:visible;stroke-linecap:square;stroke-miterlimit:3}</style><g><title>背景-1</title><g id="shape1-1"><title>实心</title><rect width="713.25" height="375.75" x="0" y="0" class="st1"/></g></g><g><title>页-1</title><g id="group1-3" transform="translate(18.75,-18.75)"><title>Sheet.1</title><g id="shape2-4"><title>Sheet.2</title><rect width="675.75" height="338.25" x="0" y="37.5" class="st2"/></g><g id="group3-6" transform="translate(15,-15.75)"><title>Sheet.3</title><g id="group4-7" transform="translate(310.875,-255.84)"><title>Sheet.4</title><g id="shape5-8" transform="translate(1.125,-3.9375)"><title>Sheet.5</title><path d="M0 358.03 L0 373.03 L1.5 373.03 L1.5 375.75 L0 358.03 Z" class="st3"/><path d="M0 358.03 L0 373.03 L1.5 373.03 L1.5 375.75" class="st4"/></g><g id="shape6-11"><title>Sheet.6</title><path d="M2.63 375.75 L0 370.5 L2.63 371.81 L5.25 370.5 L2.63 375.75 Z" class="st5"/></g></g><g id="group7-13" transform="translate(289.5,-277.5)"><title>Sheet.7</title><desc>Input</desc><g id="shape8-14"><title>Sheet.8</title><path d="M-0 371.25 A4.5001 4.5001 -180 0 0 4.5 375.75 L40.5 375.75 A4.5001 4.5001 -180 0 0 45 371.25 L45 350.25 A4.5001 4.5001 -180 0 0 40.5 345.75 L4.5 345.75 A4.5001 4.5001 -180 0 0 -0 350.25 L0 371.25 Z" class="st6"/></g><g id="shape7-16"><text x="10.88" y="363.75" class="st7">Input</text></g></g><g id="group10-18" transform="translate(142.5,-154.875)"><title>Sheet.10</title><g id="shape11-19" transform="translate(-1.21902E-13,-2.625)"><title>Sheet.11</title><path d="M0 375.75 L15 375.75 L0 375.75 L10.22 375.75 L0 375.75 Z" class="st3"/><path d="M0 375.75 L15 375.75 L0 375.75 L10.22 375.75" class="st4"/></g><g id="shape12-22" transform="translate(8.91,1.13687E-13)"><title>Sheet.12</title><path d="M5.25 373.12 L0 375.75 L1.31 373.12 L0 370.5 L5.25 373.12 Z" class="st5"/></g></g><g id="group13-24" transform="translate(42.375,-105.84)"><title>Sheet.13</title><g id="shape14-25" transform="translate(2.625,-3.9375)"><title>Sheet.14</title><path d="M52.5 350.53 L52.5 365.53 L0 365.53 L0 375.75 L52.5 350.53 Z" class="st3"/><path d="M52.5 350.53 L52.5 365.53 L0 365.53 L0 375.75" class="st4"/></g><g id="shape15-28"><title>Sheet.15</title><path d="M2.62 375.75 L0 370.5 L2.62 371.81 L5.25 370.5 L2.62 375.75 Z" class="st5"/></g></g><g id="group16-30" transform="translate(97.5,-105.84)"><title>Sheet.16</title><g id="shape17-31" transform="translate(2.8777E-13,-3.9375)"><title>Sheet.17</title><path d="M0 350.53 L0 365.53 L52.5 365.53 L52.5 375.75 L0 350.53 Z" class="st3"/><path d="M0 350.53 L0 365.53 L52.5 365.53 L52.5 375.75" class="st4"/></g><g id="shape18-34" transform="translate(49.875,0)"><title>Sheet.18</title><path d="M2.63 375.75 L0 370.5 L2.63 371.81 L5.25 370.5 L2.63 375.75 Z" class="st5"/></g></g><g id="group19-36" transform="translate(52.5,-135)"><title>Sheet.19</title><desc>Agent 1</desc><g id="group20-37"><title>Sheet.20</title><g id="shape21-38"><title>Sheet.21</title><rect width="90" height="45" x="0" y="330.75" class="st8"/></g><g id="shape22-40" transform="translate(9,6.82121E-13)"><title>Sheet.22</title><path d="M0 330.75 L0 375.75 L0 330.75 ZM72 330.75 L72 375.75 L72 330.75 Z" class="st3"/><path d="M0 330.75 L0 375.75M72 330.75 L72 375.75" class="st9"/></g></g><g id="shape19-43"><text x="24.15" y="356.85" class="st10">Agent 1</text></g></g><g id="shape24-45" transform="translate(255,-120)"><title>Sheet.24</title><path d="M0 360.75 L0 375.75 L0 360.75 L0 375.75 L0 360.75 Z" class="st3"/><path d="M0 360.75 L0 375.75 L0 360.75 L0 375.75" class="st4"/></g><g id="group25-48" transform="translate(300,-154.875)"><title>Sheet.25</title><g id="shape26-49" transform="translate(-1.00919E-13,-2.625)"><title>Sheet.26</title><path d="M0 375.75 L15 375.75 L0 375.75 L10.22 375.75 L0 375.75 Z" class="st3"/><path d="M0 375.75 L15 375.75 L0 375.75 L10.22 375.75" class="st4"/></g><g id="shape27-52" transform="translate(8.91,1.13687E-13)"><title>Sheet.27</title><path d="M5.25 373.12 L0 375.75 L1.31 373.12 L0 370.5 L5.25 373.12 Z" class="st5"/></g></g><g id="group28-54" transform="translate(210,-135)"><title>Sheet.28</title><desc>Agent 2</desc><g id="group29-55"><title>Sheet.29</title><g id="shape30-56"><title>Sheet.30</title><rect width="90" height="45" x="0" y="330.75" class="st8"/></g><g id="shape31-58" transform="translate(9,6.82121E-13)"><title>Sheet.31</title><path d="M0 330.75 L0 375.75 L0 330.75 ZM72 330.75 L72 375.75 L72 330.75 Z" class="st3"/><path d="M0 330.75 L0 375.75M72 330.75 L72 375.75" class="st9"/></g></g><g id="shape28-61"><text x="24.15" y="356.85" class="st10">Agent 2</text></g></g><g id="shape33-63" transform="translate(532.5,-120)"><title>Sheet.33</title><path d="M0 360.75 L0 375.75 L0 360.75 Z" class="st3"/><path d="M0 360.75 L0 375.75" class="st4"/></g><g id="group34-66" transform="translate(577.5,-154.875)"><title>Sheet.34</title><g id="shape35-67" transform="translate(1.39888E-14,-2.625)"><title>Sheet.35</title><path d="M0 375.75 L15 375.75 L4.5 375.75 L14.72 375.75 L0 375.75 Z" class="st3"/><path d="M0 375.75 L15 375.75 L4.5 375.75 L14.72 375.75" class="st4"/></g><g id="shape36-70" transform="translate(13.41,1.13687E-13)"><title>Sheet.36</title><path d="M5.25 373.12 L0 375.75 L1.31 373.12 L0 370.5 L5.25 373.12 Z" class="st5"/></g></g><g id="group37-72" transform="translate(487.5,-135)"><title>Sheet.37</title><desc>Agent n</desc><g id="group38-73"><title>Sheet.38</title><g id="shape39-74"><title>Sheet.39</title><rect width="90" height="45" x="0" y="330.75" class="st8"/></g><g id="shape40-76" transform="translate(9,6.82121E-13)"><title>Sheet.40</title><path d="M0 330.75 L0 375.75 L0 330.75 ZM72 330.75 L72 375.75 L72 330.75 Z" class="st3"/><path d="M0 330.75 L0 375.75M72 330.75 L72 375.75" class="st9"/></g></g><g id="shape37-79"><text x="24.01" y="356.85" class="st10">Agent <tspan class="st11">n</tspan></text></g></g><g id="group42-82" transform="translate(379.5,-210)"><title>Sheet.42</title><desc>Aggregated result based on combined, compared, and selected r...</desc><g id="shape43-83"><title>Sheet.43</title><path d="M0 369 A6.75016 6.75016 -180 0 0 6.75 375.75 L116.25 375.75 A6.75016 6.75016 -180 0 0 123 369 L123 337.5 A6.75016 6.75016 -180 0 0 116.25 330.75 L6.75 330.75 A6.75016 6.75016 -180 0 0 -0 337.5 L0 369 Z" class="st6"/></g><g id="shape42-85"><text x="12.34" y="346.05" class="st12">Aggregated result based on <tspan x="15.39" class="st13" dy="1.2em">combined, compared, and </tspan><tspan x="34.44" class="st13" dy="1.2em">selected results</tspan></text></g></g><g id="group45-89"><title>Sheet.45</title><desc>Model, knowledge, and tools</desc><g id="shape46-90"><title>Sheet.46</title><path d="M0 369 A6.75016 6.75016 -180 0 0 6.75 375.75 L83.25 375.75 A6.75016 6.75016 -180 0 0 90 369 L90 337.5 A6.75016 6.75016 -180 0 0 83.25 330.75 L6.75 330.75 A6.75016 6.75016 -180 0 0 -0 337.5 L0 369 Z" class="st14"/></g><g id="shape45-92"><text x="29.73" y="344.25" class="st7">Model,<tspan x="19.73" class="st13" dy="1.2em">knowledge,</tspan><tspan x="24.43" class="st13" dy="1.2em">and tools</tspan></text></g></g><g id="group48-96" transform="translate(210,-75)"><title>Sheet.48</title><desc>Model, knowledge, and tools</desc><g id="shape49-97"><title>Sheet.49</title><path d="M0 369 A6.75016 6.75016 -180 0 0 6.75 375.75 L83.25 375.75 A6.75016 6.75016 -180 0 0 90 369 L90 337.5 A6.75016 6.75016 -180 0 0 83.25 330.75 L6.75 330.75 A6.75016 6.75016 -180 0 0 -0 337.5 L0 369 Z" class="st14"/></g><g id="shape48-99"><text x="29.73" y="344.25" class="st7">Model,<tspan x="19.73" class="st13" dy="1.2em">knowledge,</tspan><tspan x="24.43" class="st13" dy="1.2em">and tools</tspan></text></g></g><g id="group51-103" transform="translate(487.5,-75)"><title>Sheet.51</title><desc>Model, knowledge, and tools</desc><g id="shape52-104"><title>Sheet.52</title><path d="M0 369 A6.75016 6.75016 -180 0 0 6.75 375.75 L83.25 375.75 A6.75016 6.75016 -180 0 0 90 369 L90 337.5 A6.75016 6.75016 -180 0 0 83.25 330.75 L6.75 330.75 A6.75016 6.75016 -180 0 0 -0 337.5 L0 369 Z" class="st14"/></g><g id="shape51-106"><text x="29.73" y="344.25" class="st7">Model,<tspan x="19.73" class="st13" dy="1.2em">knowledge,</tspan><tspan x="24.43" class="st13" dy="1.2em">and tools</tspan></text></g></g><g id="group54-110" transform="translate(412.5,-154.875)"><title>Sheet.54</title><g id="shape55-111" transform="translate(-1.00919E-13,-2.625)"><title>Sheet.55</title><path d="M0 375.75 L15 375.75 L0 375.75 L10.22 375.75 L0 375.75 Z" class="st3"/><path d="M0 375.75 L15 375.75 L0 375.75 L10.22 375.75" class="st4"/></g><g id="shape56-114" transform="translate(8.91,1.13687E-13)"><title>Sheet.56</title><path d="M5.25 373.12 L0 375.75 L1.31 373.12 L0 370.5 L5.25 373.12 Z" class="st5"/></g></g><g id="group57-116" transform="translate(367.5,-135)"><title>Sheet.57</title><desc>...</desc><g id="group58-117"><title>Sheet.58</title><g id="shape59-118"><title>Sheet.59</title><rect width="45" height="45" x="0" y="330.75" class="st8"/></g><g id="shape60-120" transform="translate(4.5,6.82121E-13)"><title>Sheet.60</title><path d="M0 330.75 L0 375.75 L0 330.75 ZM36 330.75 L36 375.75 L36 330.75 Z" class="st3"/><path d="M0 330.75 L0 375.75M36 330.75 L36 375.75" class="st9"/></g></g><g id="shape57-123"><text x="18.6" y="356.85" class="st10">...</text></g></g><g id="group62-125" transform="translate(94.875,-180.84)"><title>Sheet.62</title><g id="shape63-126" transform="translate(2.625,-3.9375)"><title>Sheet.63</title><path d="M216 350.53 L216 365.53 L0 365.53 L0 375.75 L216 350.53 Z" class="st3"/><path d="M216 350.53 L216 365.53 L0 365.53 L0 375.75" class="st4"/></g><g id="shape64-129"><title>Sheet.64</title><path d="M2.63 375.75 L0 370.5 L2.63 371.81 L5.25 370.5 L2.63 375.75 Z" class="st5"/></g></g><g id="group65-131" transform="translate(252.375,-180.84)"><title>Sheet.65</title><g id="shape66-132" transform="translate(2.625,-3.9375)"><title>Sheet.66</title><path d="M58.5 350.53 L58.5 365.53 L0 365.53 L0 375.75 L58.5 350.53 Z" class="st3"/><path d="M58.5 350.53 L58.5 365.53 L0 365.53 L0 375.75" class="st4"/></g><g id="shape67-135"><title>Sheet.67</title><path d="M2.63 375.75 L0 370.5 L2.63 371.81 L5.25 370.5 L2.63 375.75 Z" class="st5"/></g></g><g id="group68-137" transform="translate(357,-229.875)"><title>Sheet.68</title><g id="shape69-138" transform="translate(-1.79856E-13,-2.625)"><title>Sheet.69</title><path d="M0 375.75 L15 375.75 L7.5 375.75 L17.72 375.75 L0 375.75 Z" class="st3"/><path d="M0 375.75 L15 375.75 L7.5 375.75 L17.72 375.75" class="st4"/></g><g id="shape70-141" transform="translate(16.41,1.13687E-13)"><title>Sheet.70</title><path d="M5.25 373.12 L0 375.75 L1.31 373.12 L0 370.5 L5.25 373.12 Z" class="st5"/></g></g><g id="group71-143" transform="translate(313.5,-180.84)"><title>Sheet.71</title><g id="shape72-144" transform="translate(-4.63629E-13,-3.9375)"><title>Sheet.72</title><path d="M0 350.53 L0 365.53 L76.5 365.53 L76.5 375.75 L0 350.53 Z" class="st3"/><path d="M0 350.53 L0 365.53 L76.5 365.53 L76.5 375.75" class="st4"/></g><g id="shape73-147" transform="translate(73.875,-5.68434E-14)"><title>Sheet.73</title><path d="M2.63 375.75 L0 370.5 L2.63 371.81 L5.25 370.5 L2.63 375.75 Z" class="st5"/></g></g><g id="group74-149" transform="translate(313.5,-180.84)"><title>Sheet.74</title><g id="shape75-150" transform="translate(4.31655E-13,-3.9375)"><title>Sheet.75</title><path d="M0 350.53 L0 365.53 L219 365.53 L219 375.75 L0 350.53 Z" class="st3"/><path d="M0 350.53 L0 365.53 L219 365.53 L219 375.75" class="st4"/></g><g id="shape76-153" transform="translate(216.375,-5.68434E-14)"><title>Sheet.76</title><path d="M2.62 375.75 L0 370.5 L2.62 371.81 L5.25 370.5 L2.62 375.75 Z" class="st5"/></g></g><g id="group77-155" transform="translate(270,-210)"><title>Sheet.77</title><desc>Initiator and collector agent</desc><g id="group78-156"><title>Sheet.78</title><g id="shape79-157"><title>Sheet.79</title><rect width="87" height="45" x="0" y="330.75" class="st8"/></g><g id="shape80-159" transform="translate(9,6.82121E-13)"><title>Sheet.80</title><path d="M0 330.75 L0 375.75 L0 330.75 ZM69 330.75 L69 375.75 L69 330.75 Z" class="st3"/><path d="M0 330.75 L0 375.75M69 330.75 L69 375.75" class="st9"/></g></g><g id="shape77-162"><text x="16.63" y="350.25" class="st7">Initiator and <tspan x="10.56" class="st13" dy="1.2em">collector agent</tspan></text></g></g><g id="group82-165" transform="translate(157.5,-142.5)"><title>Sheet.82</title><desc>Intermediate result</desc><g id="shape83-166"><title>Sheet.83</title><path d="M0 371.25 A4.5001 4.5001 -180 0 0 4.5 375.75 L40.5 375.75 A4.5001 4.5001 -180 0 0 45 371.25 L45 350.25 A4.5001 4.5001 -180 0 0 40.5 345.75 L4.5 345.75 A4.5001 4.5001 -180 0 0 0 350.25 L0 371.25 Z" class="st15"/></g><g id="shape82-168"><text x="5.62" y="358.95" class="st16">Intermediate <tspan x="15.17" class="st13" dy="1.2em">result</tspan></text></g></g><g id="group85-171" transform="translate(315,-142.5)"><title>Sheet.85</title><desc>Intermediate result</desc><g id="shape86-172"><title>Sheet.86</title><path d="M0 371.25 A4.5001 4.5001 -180 0 0 4.5 375.75 L40.5 375.75 A4.5001 4.5001 -180 0 0 45 371.25 L45 350.25 A4.5001 4.5001 -180 0 0 40.5 345.75 L4.5 345.75 A4.5001 4.5001 -180 0 0 0 350.25 L0 371.25 Z" class="st15"/></g><g id="shape85-174"><text x="5.62" y="358.95" class="st16">Intermediate <tspan x="15.17" class="st13" dy="1.2em">result</tspan></text></g></g><g id="group88-177" transform="translate(427.5,-142.5)"><title>Sheet.88</title><desc>Intermediate result(s)</desc><g id="shape89-178"><title>Sheet.89</title><path d="M0 371.25 A4.5001 4.5001 -180 0 0 4.5 375.75 L40.5 375.75 A4.5001 4.5001 -180 0 0 45 371.25 L45 350.25 A4.5001 4.5001 -180 0 0 40.5 345.75 L4.5 345.75 A4.5001 4.5001 -180 0 0 0 350.25 L0 371.25 Z" class="st15"/></g><g id="shape88-180"><text x="5.62" y="358.95" class="st16">Intermediate <tspan x="12.09" class="st13" dy="1.2em">result(s)</tspan></text></g></g><g id="group91-183" transform="translate(597,-142.5)"><title>Sheet.91</title><desc>Intermediate result</desc><g id="shape92-184"><title>Sheet.92</title><path d="M0 371.25 A4.5001 4.5001 -180 0 0 4.5 375.75 L43.5 375.75 A4.5001 4.5001 -180 0 0 48 371.25 L48 350.25 A4.5001 4.5001 -180 0 0 43.5 345.75 L4.5 345.75 A4.5001 4.5001 -180 0 0 0 350.25 L0 371.25 Z" class="st15"/></g><g id="shape91-186"><text x="7.12" y="358.95" class="st16">Intermediate <tspan x="16.67" class="st13" dy="1.2em">result</tspan></text></g></g><g id="shape94-189" transform="translate(45,-45)"><title>Sheet.94</title><path d="M0 360.75 L0 375.75 L0 360.75 L0 375.75 L0 360.75 Z" class="st3"/><path d="M0 360.75 L0 375.75 L0 360.75 L0 375.75" class="st4"/></g><g id="group95-192" transform="translate(-4.79616E-14,-60)"><title>Sheet.95</title><desc>Sub agent 1.1</desc><g id="group96-193"><title>Sheet.96</title><g id="shape97-194"><title>Sheet.97</title><rect width="90" height="45" x="0" y="330.75" class="st8"/></g><g id="shape98-196" transform="translate(9,6.82121E-13)"><title>Sheet.98</title><path d="M0 330.75 L0 375.75 L0 330.75 ZM72 330.75 L72 375.75 L72 330.75 Z" class="st3"/><path d="M0 330.75 L0 375.75M72 330.75 L72 375.75" class="st9"/></g></g><g id="shape95-199"><text x="14.73" y="356.25" class="st7">Sub agent 1.1</text></g></g><g id="shape100-201" transform="translate(150,-45)"><title>Sheet.100</title><path d="M0 360.75 L0 375.75 L0 360.75 L0 375.75 L0 360.75 Z" class="st3"/><path d="M0 360.75 L0 375.75 L0 360.75 L0 375.75" class="st4"/></g><g id="group101-204" transform="translate(105,-60)"><title>Sheet.101</title><desc>Sub agent 1.2</desc><g id="group102-205"><title>Sheet.102</title><g id="shape103-206"><title>Sheet.103</title><rect width="90" height="45" x="0" y="330.75" class="st8"/></g><g id="shape104-208" transform="translate(9,6.82121E-13)"><title>Sheet.104</title><path d="M0 330.75 L0 375.75 L0 330.75 ZM72 330.75 L72 375.75 L72 330.75 Z" class="st3"/><path d="M0 330.75 L0 375.75M72 330.75 L72 375.75" class="st9"/></g></g><g id="shape101-211"><text x="14.73" y="356.25" class="st7">Sub agent 1.2</text></g></g><g id="group106-213" transform="translate(105,0)"><title>Sheet.106</title><desc>Model, knowledge, and tools</desc><g id="shape107-214"><title>Sheet.107</title><path d="M0 369 A6.75016 6.75016 -180 0 0 6.75 375.75 L83.25 375.75 A6.75016 6.75016 -180 0 0 90 369 L90 337.5 A6.75016 6.75016 -180 0 0 83.25 330.75 L6.75 330.75 A6.75016 6.75016 -180 0 0 -0 337.5 L0 369 Z" class="st14"/></g><g id="shape106-216"><text x="29.73" y="344.25" class="st7">Model,<tspan x="19.73" class="st13" dy="1.2em">knowledge,</tspan><tspan x="24.43" class="st13" dy="1.2em">and tools</tspan></text></g></g></g></g></g></svg>