<svg xmlns="http://www.w3.org/2000/svg" xmlns:ev="http://www.w3.org/2001/xml-events" xmlns:xlink="http://www.w3.org/1999/xlink" width="701" height="521" class="st15" color-interpolation-filters="sRGB" viewBox="0 0 525.75 390.75" xml:space="preserve"><style type="text/css">.st1{fill:#fff;stroke:none;stroke-linecap:butt;stroke-width:.75}.st2{fill:none}.st3,.st4,.st5{stroke:#000;stroke-linecap:butt;stroke-width:.75}.st4{fill:#000}.st5{fill:#fff}.st6{fill:#000;font-family:Segoe UI;font-size:.833336em}.st7{fill:#dae8fc}.st7,.st8{stroke:#6c8ebf;stroke-linecap:butt;stroke-width:.75}.st9{fill:#000;font-family:Segoe UI;font-size:.75em}.st10{font-size:1em}.st11{fill:#fff2cc;stroke:#d6b656;stroke-linecap:butt;stroke-width:.75}.st12{fill:#000;font-family:Segoe UI;font-size:.666664em}.st13{fill:#f5f5f5}.st13,.st14{stroke:#666;stroke-linecap:butt;stroke-width:.75}.st15{fill:none;fill-rule:evenodd;font-size:12px;overflow:visible;stroke-linecap:square;stroke-miterlimit:3}</style><g><title>handoff-pattern-example</title><g id="shape1-1" transform="translate(0.375,0.375)"><title>Sheet.1</title><rect width="525.75" height="390.75" x="0" y="0" class="st1"/></g><g id="group2-3" transform="translate(15.375,-15.375)"><title>Sheet.2</title><g id="group3-4" transform="translate(192.375,-322.5)"><title>Sheet.3</title><g id="shape4-5" transform="translate(2.625,-5.68434E-14)"><title>Sheet.4</title><path d="M0 375.75 L0 390.75 L0 375.75 L0 385.97 L0 375.75 Z" class="st2"/><path d="M0 375.75 L0 390.75 L0 375.75 L0 385.97" class="st3"/></g><g id="shape5-8" transform="translate(1.02918E-13,-0.84)"><title>Sheet.5</title><path d="M2.63 390.75 L0 385.5 L2.63 386.81 L5.25 385.5 L2.63 390.75 Z" class="st4"/></g></g><g id="group6-10" transform="translate(172.478,-337.5)"><title>Sheet.6</title><desc>Input</desc><g id="shape7-11"><title>Sheet.7</title><path d="M0 387.37 A3.37508 3.37508 -180 0 0 3.37 390.75 L41.63 390.75 A3.37508 3.37508 -180 0 0 45 387.37 L45 371.62 A3.37508 3.37508 -180 0 0 41.63 368.25 L3.37 368.25 A3.37508 3.37508 -180 0 0 0 371.62 L0 387.37 Z" class="st5"/></g><g id="shape6-13"><text x="10.88" y="382.5" class="st6">Input</text></g></g><g id="shape9-15" transform="translate(105,-165)"><title>Sheet.9</title><path d="M0 375.75 L0 390.75 L0 375.75 L0 390.75 L0 375.75 Z" class="st2"/><path d="M0 375.75 L0 390.75 L0 375.75 L0 390.75" class="st3"/></g><g id="group10-18" transform="translate(45,-199.875)"><title>Sheet.10</title><g id="shape11-19" transform="translate(-7.89369E-14,-2.625)"><title>Sheet.11</title><path d="M14.98 390.75 L0 390.75 L15 390.75 L4.78 390.75 L14.98 390.75 Z" class="st2"/><path d="M14.98 390.75 L0 390.75 L15 390.75 L4.78 390.75" class="st3"/></g><g id="shape12-22" transform="translate(0.84,1.13687E-13)"><title>Sheet.12</title><path d="M0 388.13 L5.25 385.5 L3.94 388.13 L5.25 390.75 L0 388.13 Z" class="st4"/></g></g><g id="group13-24" transform="translate(59.9775,-180)"><title>Sheet.13</title><g id="group14-25"><title>Sheet.14</title><desc>Technical infrastructure agent</desc><g id="shape15-26"><title>Sheet.15</title><rect width="90" height="45" x="0" y="345.75" class="st7"/></g><g id="shape16-28" transform="translate(9,0)"><title>Sheet.16</title><path d="M0 345.75 L0 390.75 L0 345.75 ZM72 345.75 L72 390.75 L72 345.75 Z" class="st2"/><path d="M0 345.75 L0 390.75M72 345.75 L72 390.75" class="st8"/></g><g id="shape14-31"><text x="26.57" y="360.15" class="st9">Technical <tspan x="18.49" class="st10" dy="1.2em">infrastructure </tspan><tspan x="33.64" class="st10" dy="1.2em">agent</tspan></text></g></g></g><g id="shape18-35" transform="translate(232.477,-165)"><title>Sheet.18</title><path d="M0 375.75 L0.02 390.75 L0.02 375.75 L0.02 390.75 L0 375.75 Z" class="st2"/><path d="M0 375.75 L0.02 390.75 L0.02 375.75 L0.02 390.75" class="st3"/></g><g id="group19-38" transform="translate(323.34,-64.875)"><title>Sheet.19</title><g id="shape20-39" transform="translate(3.9375,-2.625)"><title>Sheet.20</title><path d="M55.22 304.5 C55.22 362 36.81 390.75 0 390.75 L55.22 304.5 Z" class="st2"/><path d="M55.22 304.5 C55.22 362 36.81 390.75 0 390.75" class="st3"/></g><g id="shape21-42"><title>Sheet.21</title><path d="M0 388.12 L5.25 385.5 L3.94 388.12 L5.25 390.75 L0 388.12 Z" class="st4"/></g></g><g id="shape22-44" transform="translate(408.75,-135)"><title>Sheet.22</title><path d="M0 372 L0 383.25 L0 390.75 L0 372 Z" class="st2"/><path d="M0 372 L0 383.25 L0 390.75" class="st3"/></g><g id="group23-47" transform="translate(427.5,-173.625)"><title>Sheet.23</title><g id="shape24-48" transform="translate(1.3689E-13,-2.625)"><title>Sheet.24</title><path d="M0 390.75 L15 390.75 L7.5 390.75 L17.72 390.75 L0 390.75 Z" class="st2"/><path d="M0 390.75 L15 390.75 L7.5 390.75 L17.72 390.75" class="st3"/></g><g id="shape25-51" transform="translate(16.41,1.13687E-13)"><title>Sheet.25</title><path d="M5.25 388.13 L0 390.75 L1.31 388.13 L0 385.5 L5.25 388.13 Z" class="st4"/></g></g><g id="group26-53" transform="translate(337.5,-153.75)"><title>Sheet.26</title><desc>Account access agent</desc><g id="group27-54"><title>Sheet.27</title><g id="shape28-55"><title>Sheet.28</title><rect width="90" height="45" x="0" y="345.75" class="st7"/></g><g id="shape29-57" transform="translate(9,0)"><title>Sheet.29</title><path d="M0 345.75 L0 390.75 L0 345.75 ZM72 345.75 L72 390.75 L72 345.75 Z" class="st2"/><path d="M0 345.75 L0 390.75M72 345.75 L72 390.75" class="st8"/></g></g><g id="shape26-60"><text x="14.83" y="365.55" class="st9">Account access <tspan x="33.64" class="st10" dy="1.2em">agent</tspan></text></g></g><g id="group31-63" transform="translate(194.992,-120)"><title>Sheet.31</title><desc>Model, billing account knowledge, and billing API access</desc><g id="shape32-64"><title>Sheet.32</title><path d="M0 384 A6.75016 6.75016 -180 0 0 6.75 390.75 L68.23 390.75 A6.75016 6.75016 -180 0 0 74.98 384 L74.98 352.5 A6.75016 6.75016 -180 0 0 68.23 345.75 L6.75 345.75 A6.75016 6.75016 -180 0 0 0 352.5 L0 384 Z" class="st11"/></g><g id="shape31-66"><text x="25.27" y="356.25" class="st12">Model,<tspan x="11.59" class="st10" dy="1.2em">billing account </tspan><tspan x="9.52" class="st10" dy="1.2em">knowledge, and </tspan><tspan x="7.35" class="st10" dy="1.2em">billing API access</tspan></text></g></g><g id="group34-71" transform="translate(390,-97.5)"><title>Sheet.34</title><desc>Model and customer knowledge</desc><g id="shape35-72"><title>Sheet.35</title><path d="M0 385.12 A5.62513 5.62513 -180 0 0 5.63 390.75 L61.85 390.75 A5.62513 5.62513 -180 0 0 67.48 385.12 L67.48 358.87 A5.62513 5.62513 -180 0 0 61.85 353.25 L5.63 353.25 A5.62513 5.62513 -180 0 0 0 358.87 L0 385.12 Z" class="st11"/></g><g id="shape34-74"><text x="12.25" y="363.9" class="st9">Model and<tspan x="15.25" class="st10" dy="1.2em">customer </tspan><tspan x="11.97" class="st10" dy="1.2em">knowledge</tspan></text></g></g><g id="shape37-78" transform="translate(135,-300)"><title>Sheet.37</title><path d="M14.98 390.75 L0 390.75 L15 390.75 L0 390.75 L14.98 390.75 Z" class="st2"/><path d="M14.98 390.75 L0 390.75 L15 390.75 L0 390.75" class="st3"/></g><g id="group38-81" transform="translate(102.375,-225.84)"><title>Sheet.38</title><g id="shape39-82" transform="translate(2.625,-3.9375)"><title>Sheet.39</title><path d="M90 343.03 C90 360.53 75 369.28 45 369.28 C15 369.28 0 376.43 0 390.75 L90 343.03 Z" class="st2"/><path d="M90 343.03 C90 360.53 75 369.28 45 369.28 C15 369.28 0 376.43 0 390.75" class="st3"/></g><g id="shape40-85"><title>Sheet.40</title><path d="M2.62 390.75 L0 385.5 L2.62 386.81 L5.25 385.5 L2.62 390.75 Z" class="st4"/></g></g><g id="group41-87" transform="translate(195,-225.84)"><title>Sheet.41</title><g id="shape42-88" transform="translate(7.19425E-14,-3.9375)"><title>Sheet.42</title><path d="M0 343.03 C0 360.53 6.25 369.28 18.75 369.28 C31.25 369.28 37.5 376.43 37.5 390.75 L0 343.03 Z" class="st2"/><path d="M0 343.03 C0 360.53 6.25 369.28 18.75 369.28 C31.25 369.28 37.5 376.43 37.5 390.75" class="st3"/></g><g id="shape43-91" transform="translate(34.875,0)"><title>Sheet.43</title><path d="M2.63 390.75 L0 385.5 L2.63 386.81 L5.25 385.5 L2.63 390.75 Z" class="st4"/></g></g><g id="group44-93" transform="translate(239.978,-297.375)"><title>Sheet.44</title><g id="shape45-94" transform="translate(-1.00919E-13,-2.625)"><title>Sheet.45</title><path d="M0 390.75 L15.02 390.75 L7.52 390.75 L17.74 390.75 L0 390.75 Z" class="st2"/><path d="M0 390.75 L15.02 390.75 L7.52 390.75 L17.74 390.75" class="st3"/></g><g id="shape46-97" transform="translate(16.4325,0)"><title>Sheet.46</title><path d="M5.25 388.12 L0 390.75 L1.31 388.12 L0 385.5 L5.25 388.12 Z" class="st4"/></g></g><g id="group47-99" transform="translate(195,-199.59)"><title>Sheet.47</title><g id="shape48-100" transform="translate(6.39488E-14,-3.9375)"><title>Sheet.48</title><path d="M0 316.78 C0 336.78 31.25 346.78 93.75 346.78 C156.25 346.78 187.5 361.43 187.5 390.75 L0 316.78 Z" class="st2"/><path d="M0 316.78 C0 336.78 31.25 346.78 93.75 346.78 C156.25 346.78 187.5 361.43 187.5 390.75" class="st3"/></g><g id="shape49-103" transform="translate(184.875,-5.68434E-14)"><title>Sheet.49</title><path d="M2.62 390.75 L0 385.5 L2.62 386.81 L5.25 385.5 L2.62 390.75 Z" class="st4"/></g></g><g id="group50-105" transform="translate(149.978,-277.5)"><title>Sheet.50</title><desc>Triage support agent</desc><g id="group51-106"><title>Sheet.51</title><g id="shape52-107"><title>Sheet.52</title><rect width="90" height="45" x="0" y="345.75" class="st7"/></g><g id="shape53-109" transform="translate(9,0)"><title>Sheet.53</title><path d="M0 345.75 L0 390.75 L0 345.75 ZM72 345.75 L72 390.75 L72 345.75 Z" class="st2"/><path d="M0 345.75 L0 390.75M72 345.75 L72 390.75" class="st8"/></g></g><g id="shape50-112"><text x="15.99" y="365.55" class="st9">Triage support <tspan x="33.64" class="st10" dy="1.2em">agent</tspan></text></g></g><g id="group55-115" transform="translate(274.875,-23.34)"><title>Sheet.55</title><g id="shape56-116" transform="translate(2.625,-3.9375)"><title>Sheet.56</title><path d="M0 373.03 L0 388.03 L0 380.53 L0 390.75 L0 373.03 Z" class="st2"/><path d="M0 373.03 L0 388.03 L0 380.53 L0 390.75" class="st3"/></g><g id="shape57-119"><title>Sheet.57</title><path d="M2.63 390.75 L0 385.5 L2.63 386.81 L5.25 385.5 L2.63 390.75 Z" class="st4"/></g></g><g id="group58-121" transform="translate(232.5,-45)"><title>Sheet.58</title><desc>Customer support employee</desc><g id="group59-122"><title>Sheet.59</title><g id="shape60-123"><title>Sheet.60</title><rect width="90" height="45" x="0" y="345.75" class="st13"/></g><g id="shape61-125" transform="translate(9,0)"><title>Sheet.61</title><path d="M0 345.75 L0 390.75 L0 345.75 ZM72 345.75 L72 390.75 L72 345.75 Z" class="st2"/><path d="M0 345.75 L0 390.75M72 345.75 L72 390.75" class="st14"/></g></g><g id="shape58-128"><text x="25.8" y="360.15" class="st9">Customer <tspan x="29.53" class="st10" dy="1.2em">support </tspan><tspan x="25.51" class="st10" dy="1.2em">employee</tspan></text></g></g><g id="group63-132" transform="translate(67.4925,-120)"><title>Sheet.63</title><desc>Model, infrastructure knowledge, and tools</desc><g id="shape64-133"><title>Sheet.64</title><path d="M0 384 A6.75016 6.75016 -180 0 0 6.75 390.75 L68.23 390.75 A6.75016 6.75016 -180 0 0 74.98 384 L74.98 352.5 A6.75016 6.75016 -180 0 0 68.23 345.75 L6.75 345.75 A6.75016 6.75016 -180 0 0 -0 352.5 L0 384 Z" class="st11"/></g><g id="shape63-135"><text x="25.27" y="356.25" class="st12">Model,<tspan x="13.92" class="st10" dy="1.2em">infrastructure </tspan><tspan x="9.52" class="st10" dy="1.2em">knowledge, and </tspan><tspan x="28.78" class="st10" dy="1.2em">tools</tspan></text></g></g><g id="group66-140" transform="translate(232.5,-154.59)"><title>Sheet.66</title><g id="shape67-141" transform="translate(-7.19425E-13,-3.9375)"><title>Sheet.67</title><path d="M0 369.28 L0 376.78 L75 376.78 L75 390.75 L0 369.28 Z" class="st2"/><path d="M0 369.28 L0 376.78 L75 376.78 L75 390.75" class="st3"/></g><g id="shape68-144" transform="translate(72.375,-5.68434E-14)"><title>Sheet.68</title><path d="M2.62 390.75 L0 385.5 L2.62 386.81 L5.25 385.5 L2.62 390.75 Z" class="st4"/></g></g><g id="group69-146" transform="translate(172.5,-64.875)"><title>Sheet.69</title><g id="shape70-147" transform="translate(-1.67866E-13,-2.625)"><title>Sheet.70</title><path d="M14.98 255.75 C4.99 255.75 0 278.25 0 323.25 C0 368.25 18.41 390.75 55.22 390.75 L14.98 255.75 Z" class="st2"/><path d="M14.98 255.75 C4.99 255.75 0 278.25 0 323.25 C0 368.25 18.41 390.75 55.22 390.75" class="st3"/></g><g id="shape71-150" transform="translate(53.91,-5.68434E-14)"><title>Sheet.71</title><path d="M5.25 388.12 L0 390.75 L1.31 388.12 L0 385.5 L5.25 388.12 Z" class="st4"/></g></g><g id="group72-152" transform="translate(277.478,-173.625)"><title>Sheet.72</title><g id="shape73-153" transform="translate(8.71303E-13,-2.625)"><title>Sheet.73</title><path d="M0 364.5 C20.02 364.5 30.02 368.88 30.02 377.63 C30.02 386.37 38.43 390.75 55.25 390.75 L0 364.5 Z" class="st2"/><path d="M0 364.5 C20.02 364.5 30.02 368.88 30.02 377.63 C30.02 386.37 38.43 390.75 55.25 390.75" class="st3"/></g><g id="shape74-156" transform="translate(53.9325,0)"><title>Sheet.74</title><path d="M5.25 388.13 L0 390.75 L1.31 388.13 L0 385.5 L5.25 388.13 Z" class="st4"/></g></g><g id="group75-158" transform="translate(187.478,-180)"><title>Sheet.75</title><desc>Financial resolution agent</desc><g id="group76-159"><title>Sheet.76</title><g id="shape77-160"><title>Sheet.77</title><rect width="90" height="45" x="0" y="345.75" class="st7"/></g><g id="shape78-162" transform="translate(9,0)"><title>Sheet.78</title><path d="M0 345.75 L0 390.75 L0 345.75 ZM72 345.75 L72 390.75 L72 345.75 Z" class="st2"/><path d="M0 345.75 L0 390.75M72 345.75 L72 390.75" class="st8"/></g></g><g id="shape75-165"><text x="27.78" y="365.55" class="st9">Financial <tspan x="12.5" class="st10" dy="1.2em">resolution agent</tspan></text></g></g><g id="group80-168" transform="translate(60,-277.5)"><title>Sheet.80</title><desc>Model and general knowledge</desc><g id="shape81-169"><title>Sheet.81</title><path d="M0 384 A6.75016 6.75016 -180 0 0 6.75 390.75 L68.25 390.75 A6.75016 6.75016 -180 0 0 75 384 L75 352.5 A6.75016 6.75016 -180 0 0 68.25 345.75 L6.75 345.75 A6.75016 6.75016 -180 0 0 0 352.5 L0 384 Z" class="st11"/></g><g id="shape80-171"><text x="16.01" y="360.15" class="st9">Model and <tspan x="22.65" class="st10" dy="1.2em">general </tspan><tspan x="15.73" class="st10" dy="1.2em">knowledge</tspan></text></g></g><g id="group83-175" transform="translate(-2.31815E-13,-191.25)"><title>Sheet.83</title><desc>Result</desc><g id="shape84-176"><title>Sheet.84</title><path d="M0 387.37 A3.37508 3.37508 -180 0 0 3.37 390.75 L41.63 390.75 A3.37508 3.37508 -180 0 0 45 387.37 L45 371.62 A3.37508 3.37508 -180 0 0 41.63 368.25 L3.37 368.25 A3.37508 3.37508 -180 0 0 0 371.62 L0 387.37 Z" class="st5"/></g><g id="shape83-178"><text x="9.04" y="382.5" class="st6">Result</text></g></g><g id="group86-180" transform="translate(285,-131.25)"><title>Sheet.86</title><desc>Result</desc><g id="shape87-181"><title>Sheet.87</title><path d="M0 387.37 A3.37508 3.37508 -180 0 0 3.37 390.75 L41.63 390.75 A3.37508 3.37508 -180 0 0 45 387.37 L45 371.62 A3.37508 3.37508 -180 0 0 41.63 368.25 L3.37 368.25 A3.37508 3.37508 -180 0 0 0 371.62 L0 387.37 Z" class="st5"/></g><g id="shape86-183"><text x="9.04" y="382.5" class="st6">Result</text></g></g><g id="group89-185" transform="translate(450,-165)"><title>Sheet.89</title><desc>Result</desc><g id="shape90-186"><title>Sheet.90</title><path d="M0 387.37 A3.37508 3.37508 -180 0 0 3.37 390.75 L41.63 390.75 A3.37508 3.37508 -180 0 0 45 387.37 L45 371.62 A3.37508 3.37508 -180 0 0 41.63 368.25 L3.37 368.25 A3.37508 3.37508 -180 0 0 0 371.62 L0 387.37 Z" class="st5"/></g><g id="shape89-188"><text x="9.04" y="382.5" class="st6">Result</text></g></g><g id="group92-190" transform="translate(262.5,-288.75)"><title>Sheet.92</title><desc>Result</desc><g id="shape93-191"><title>Sheet.93</title><path d="M0 387.37 A3.37508 3.37508 -180 0 0 3.37 390.75 L41.63 390.75 A3.37508 3.37508 -180 0 0 45 387.37 L45 371.62 A3.37508 3.37508 -180 0 0 41.63 368.25 L3.37 368.25 A3.37508 3.37508 -180 0 0 0 371.62 L0 387.37 Z" class="st5"/></g><g id="shape92-193"><text x="9.04" y="382.5" class="st6">Result</text></g></g><g id="group95-195" transform="translate(255,0)"><title>Sheet.95</title><desc>Result</desc><g id="shape96-196"><title>Sheet.96</title><path d="M0 387.37 A3.37508 3.37508 -180 0 0 3.37 390.75 L41.63 390.75 A3.37508 3.37508 -180 0 0 45 387.37 L45 371.62 A3.37508 3.37508 -180 0 0 41.63 368.25 L3.37 368.25 A3.37508 3.37508 -180 0 0 0 371.62 L0 387.37 Z" class="st5"/></g><g id="shape95-198"><text x="9.04" y="382.5" class="st6">Result</text></g></g></g></g></svg>