<svg xmlns="http://www.w3.org/2000/svg" xmlns:ev="http://www.w3.org/2001/xml-events" xmlns:xlink="http://www.w3.org/1999/xlink" width="811" height="541" class="st15" color-interpolation-filters="sRGB" viewBox="0 0 608.25 405.75" xml:space="preserve"><style type="text/css">.st1{fill:#fff;stroke:none;stroke-linecap:butt;stroke-width:.75}.st2{fill:none}.st3,.st4,.st5{stroke:#000;stroke-linecap:butt;stroke-width:.75}.st4{fill:#000}.st5{fill:#fff}.st6{fill:#000;font-family:Segoe UI;font-size:.833336em}.st7{fill:#dae8fc}.st7,.st8{stroke:#6c8ebf;stroke-linecap:butt;stroke-width:.75}.st9{font-size:1em;font-style:italic}.st10{fill:#fff2cc;stroke:#d6b656;stroke-linecap:butt;stroke-width:.75}.st11{fill:#000;font-family:Segoe UI;font-size:.75em}.st12{font-size:1em}.st13{fill:#f5f5f5}.st13,.st14{stroke:#666;stroke-linecap:butt;stroke-width:.75}.st15{fill:none;fill-rule:evenodd;font-size:12px;overflow:visible;stroke-linecap:square;stroke-miterlimit:3}</style><g><title>handoff-pattern</title><g id="shape1-1" transform="translate(0.375,0.375)"><title>Sheet.1</title><rect width="608.25" height="405.75" x="0" y="0" class="st1"/></g><g id="group2-3" transform="translate(15.375,-15.375)"><title>Sheet.2</title><g id="group3-4" transform="translate(192.375,-337.5)"><title>Sheet.3</title><g id="shape4-5" transform="translate(2.625,5.68434E-14)"><title>Sheet.4</title><path d="M0 390.75 L0 405.75 L0 390.75 L0 400.97 L0 390.75 Z" class="st2"/><path d="M0 390.75 L0 405.75 L0 390.75 L0 400.97" class="st3"/></g><g id="shape5-8" transform="translate(7.99361E-15,-0.84)"><title>Sheet.5</title><path d="M2.63 405.75 L0 400.5 L2.63 401.81 L5.25 400.5 L2.63 405.75 Z" class="st4"/></g></g><g id="group6-10" transform="translate(172.478,-352.5)"><title>Sheet.6</title><desc>Input</desc><g id="shape7-11"><title>Sheet.7</title><path d="M0 402.37 A3.37508 3.37508 -180 0 0 3.37 405.75 L41.63 405.75 A3.37508 3.37508 -180 0 0 45 402.37 L45 386.62 A3.37508 3.37508 -180 0 0 41.63 383.25 L3.37 383.25 A3.37508 3.37508 -180 0 0 0 386.62 L0 402.37 Z" class="st5"/></g><g id="shape6-13"><text x="10.88" y="397.5" class="st6">Input</text></g></g><g id="shape9-15" transform="translate(105,-180)"><title>Sheet.9</title><path d="M0 390.75 L0 405.75 L0 390.75 L0 405.75 L0 390.75 Z" class="st2"/><path d="M0 390.75 L0 405.75 L0 390.75 L0 405.75" class="st3"/></g><g id="group10-18" transform="translate(45,-214.875)"><title>Sheet.10</title><g id="shape11-19" transform="translate(6.99441E-15,-2.625)"><title>Sheet.11</title><path d="M14.98 405.75 L0 405.75 L15 405.75 L4.78 405.75 L14.98 405.75 Z" class="st2"/><path d="M14.98 405.75 L0 405.75 L15 405.75 L4.78 405.75" class="st3"/></g><g id="shape12-22" transform="translate(0.84,5.68434E-14)"><title>Sheet.12</title><path d="M0 403.12 L5.25 400.5 L3.94 403.12 L5.25 405.75 L0 403.12 Z" class="st4"/></g></g><g id="group13-24" transform="translate(59.9775,-195)"><title>Sheet.13</title><desc>Agent 2</desc><g id="group14-25"><title>Sheet.14</title><g id="shape15-26"><title>Sheet.15</title><rect width="90" height="45" x="0" y="360.75" class="st7"/></g><g id="shape16-28" transform="translate(9,5.68434E-14)"><title>Sheet.16</title><path d="M0 360.75 L0 405.75 L0 360.75 ZM72 360.75 L72 405.75 L72 360.75 Z" class="st2"/><path d="M0 360.75 L0 405.75M72 360.75 L72 405.75" class="st8"/></g></g><g id="shape13-31"><text x="27.63" y="386.25" class="st6">Agent 2</text></g></g><g id="shape18-33" transform="translate(232.477,-180)"><title>Sheet.18</title><path d="M0 390.75 L0.02 405.75 L0.02 390.75 L0.02 405.75 L0 390.75 Z" class="st2"/><path d="M0 390.75 L0.02 405.75 L0.02 390.75 L0.02 405.75" class="st3"/></g><g id="group19-36" transform="translate(375.84,-56.625)"><title>Sheet.19</title><g id="shape20-37" transform="translate(3.9375,-2.625)"><title>Sheet.20</title><path d="M43.97 307.5 C27.72 307.5 19.6 323.87 19.6 356.62 C19.6 389.37 13.07 405.75 0 405.75 L43.97 307.5 Z" class="st2"/><path d="M43.97 307.5 C27.72 307.5 19.6 323.87 19.6 356.62 C19.6 389.37 13.07 405.75 0 405.75" class="st3"/></g><g id="shape21-40"><title>Sheet.21</title><path d="M0 403.12 L5.25 400.5 L3.94 403.12 L5.25 405.75 L0 403.12 Z" class="st4"/></g></g><g id="shape22-42" transform="translate(468.75,-120)"><title>Sheet.22</title><path d="M0 390.75 L0 405.75 L0 390.75 L0 405.75 L0 390.75 Z" class="st2"/><path d="M0 390.75 L0 405.75 L0 390.75 L0 405.75" class="st3"/></g><g id="group23-45" transform="translate(513.75,-154.875)"><title>Sheet.23</title><g id="shape24-46" transform="translate(9.29257E-14,-2.625)"><title>Sheet.24</title><path d="M0 405.75 L15 405.75 L3.75 405.75 L13.97 405.75 L0 405.75 Z" class="st2"/><path d="M0 405.75 L15 405.75 L3.75 405.75 L13.97 405.75" class="st3"/></g><g id="shape25-49" transform="translate(12.66,5.68434E-14)"><title>Sheet.25</title><path d="M5.25 403.12 L0 405.75 L1.31 403.12 L0 400.5 L5.25 403.12 Z" class="st4"/></g></g><g id="group26-51" transform="translate(423.75,-135)"><title>Sheet.26</title><desc>Agent n</desc><g id="group27-52"><title>Sheet.27</title><g id="shape28-53"><title>Sheet.28</title><rect width="90" height="45" x="0" y="360.75" class="st7"/></g><g id="shape29-55" transform="translate(9,5.68434E-14)"><title>Sheet.29</title><path d="M0 360.75 L0 405.75 L0 360.75 ZM72 360.75 L72 405.75 L72 360.75 Z" class="st2"/><path d="M0 360.75 L0 405.75M72 360.75 L72 405.75" class="st8"/></g></g><g id="shape26-58"><text x="27.51" y="386.25" class="st6">Agent <tspan class="st9">n</tspan></text></g></g><g id="group31-61" transform="translate(194.993,-135)"><title>Sheet.31</title><desc>Model, knowledge, and tools</desc><g id="shape32-62"><title>Sheet.32</title><path d="M0 399 A6.75016 6.75016 -180 0 0 6.75 405.75 L68.23 405.75 A6.75016 6.75016 -180 0 0 74.98 399 L74.98 367.5 A6.75016 6.75016 -180 0 0 68.23 360.75 L6.75 360.75 A6.75016 6.75016 -180 0 0 0 367.5 L0 399 Z" class="st10"/></g><g id="shape31-64"><text x="23.74" y="375.15" class="st11">Model,<tspan x="6.03" class="st12" dy="1.2em">knowledge, and </tspan><tspan x="27.69" class="st12" dy="1.2em">tools</tspan></text></g></g><g id="group34-68" transform="translate(435.008,-82.5)"><title>Sheet.34</title><desc>Model and knowledge</desc><g id="shape35-69"><title>Sheet.35</title><path d="M0 400.12 A5.62513 5.62513 -180 0 0 5.63 405.75 L61.85 405.75 A5.62513 5.62513 -180 0 0 67.48 400.12 L67.48 373.87 A5.62513 5.62513 -180 0 0 61.85 368.25 L5.63 368.25 A5.62513 5.62513 -180 0 0 -0 373.87 L0 400.12 Z" class="st10"/></g><g id="shape34-71"><text x="12.25" y="384.3" class="st11">Model and<tspan x="11.97" class="st12" dy="1.2em">knowledge</tspan></text></g></g><g id="shape37-74" transform="translate(135,-315)"><title>Sheet.37</title><path d="M14.98 405.75 L0 405.75 L15 405.75 L0 405.75 L14.98 405.75 Z" class="st2"/><path d="M14.98 405.75 L0 405.75 L15 405.75 L0 405.75" class="st3"/></g><g id="group38-77" transform="translate(102.375,-240.84)"><title>Sheet.38</title><g id="shape39-78" transform="translate(2.625,-3.9375)"><title>Sheet.39</title><path d="M90 358.03 C90 375.53 75 384.28 45 384.28 C15 384.28 0 391.43 0 405.75 L90 358.03 Z" class="st2"/><path d="M90 358.03 C90 375.53 75 384.28 45 384.28 C15 384.28 0 391.43 0 405.75" class="st3"/></g><g id="shape40-81"><title>Sheet.40</title><path d="M2.62 405.75 L0 400.5 L2.62 401.81 L5.25 400.5 L2.62 405.75 Z" class="st4"/></g></g><g id="group41-83" transform="translate(195,-240.84)"><title>Sheet.41</title><g id="shape42-84" transform="translate(-4.39648E-14,-3.9375)"><title>Sheet.42</title><path d="M0 358.03 C0 375.53 6.25 384.28 18.75 384.28 C31.25 384.28 37.5 391.43 37.5 405.75 L0 358.03 Z" class="st2"/><path d="M0 358.03 C0 375.53 6.25 384.28 18.75 384.28 C31.25 384.28 37.5 391.43 37.5 405.75" class="st3"/></g><g id="shape43-87" transform="translate(34.875,5.68434E-14)"><title>Sheet.43</title><path d="M2.63 405.75 L0 400.5 L2.63 401.81 L5.25 400.5 L2.63 405.75 Z" class="st4"/></g></g><g id="group44-89" transform="translate(239.977,-312.375)"><title>Sheet.44</title><g id="shape45-90" transform="translate(-1.65867E-13,-2.625)"><title>Sheet.45</title><path d="M0 405.75 L15.02 405.75 L7.52 405.75 L17.74 405.75 L0 405.75 Z" class="st2"/><path d="M0 405.75 L15.02 405.75 L7.52 405.75 L17.74 405.75" class="st3"/></g><g id="shape46-93" transform="translate(16.4325,1.13687E-13)"><title>Sheet.46</title><path d="M5.25 403.12 L0 405.75 L1.31 403.12 L0 400.5 L5.25 403.12 Z" class="st4"/></g></g><g id="group47-95" transform="translate(195,-180.84)"><title>Sheet.47</title><g id="shape48-96" transform="translate(1.15108E-12,-3.9375)"><title>Sheet.48</title><path d="M0 298.03 C0 318.03 45.62 328.03 136.87 328.03 C228.12 328.03 273.75 353.93 273.75 405.75 L0 298.03 Z" class="st2"/><path d="M0 298.03 C0 318.03 45.62 328.03 136.87 328.03 C228.12 328.03 273.75 353.93 273.75 405.75" class="st3"/></g><g id="shape49-99" transform="translate(271.125,5.68434E-14)"><title>Sheet.49</title><path d="M2.63 405.75 L0 400.5 L2.63 401.81 L5.25 400.5 L2.63 405.75 Z" class="st4"/></g></g><g id="group50-101" transform="translate(149.978,-292.5)"><title>Sheet.50</title><g id="group51-102"><title>Sheet.51</title><desc>Agent 1</desc><g id="shape52-103"><title>Sheet.52</title><rect width="90" height="45" x="0" y="360.75" class="st7"/></g><g id="shape53-105" transform="translate(9,5.68434E-14)"><title>Sheet.53</title><path d="M0 360.75 L0 405.75 L0 360.75 ZM72 360.75 L72 405.75 L72 360.75 Z" class="st2"/><path d="M0 360.75 L0 405.75M72 360.75 L72 405.75" class="st8"/></g><g id="shape51-108"><text x="27.63" y="386.25" class="st6">Agent 1</text></g></g></g><g id="group55-110" transform="translate(327.375,-21.75)"><title>Sheet.55</title><g id="shape56-111" transform="translate(2.625,5.68434E-14)"><title>Sheet.56</title><path d="M0 390.75 L0 405.75 L0 390 L0 400.22 L0 390.75 Z" class="st2"/><path d="M0 390.75 L0 405.75 L0 390 L0 400.22" class="st3"/></g><g id="shape57-114" transform="translate(4.44644E-14,-1.59)"><title>Sheet.57</title><path d="M2.62 405.75 L0 400.5 L2.62 401.81 L5.25 400.5 L2.62 405.75 Z" class="st4"/></g></g><g id="group58-116" transform="translate(285,-36.75)"><title>Sheet.58</title><desc>Customer support employee</desc><g id="group59-117"><title>Sheet.59</title><g id="shape60-118"><title>Sheet.60</title><rect width="90" height="45" x="0" y="360.75" class="st13"/></g><g id="shape61-120" transform="translate(9,5.68434E-14)"><title>Sheet.61</title><path d="M0 360.75 L0 405.75 L0 360.75 ZM72 360.75 L72 405.75 L72 360.75 Z" class="st2"/><path d="M0 360.75 L0 405.75M72 360.75 L72 405.75" class="st14"/></g></g><g id="shape58-123"><text x="25.8" y="375.15" class="st11">Customer <tspan x="29.53" class="st12" dy="1.2em">support </tspan><tspan x="25.51" class="st12" dy="1.2em">employee</tspan></text></g></g><g id="group63-127" transform="translate(67.4925,-135)"><title>Sheet.63</title><desc>Model and knowledge</desc><g id="shape64-128"><title>Sheet.64</title><path d="M0 399 A6.75016 6.75016 -180 0 0 6.75 405.75 L68.23 405.75 A6.75016 6.75016 -180 0 0 74.98 399 L74.98 367.5 A6.75016 6.75016 -180 0 0 68.23 360.75 L6.75 360.75 A6.75016 6.75016 -180 0 0 -0 367.5 L0 399 Z" class="st10"/></g><g id="shape63-130"><text x="13.61" y="380.25" class="st6">Model and<tspan x="13.3" class="st12" dy="1.2em">knowledge</tspan></text></g></g><g id="group66-133" transform="translate(277.477,-180.84)"><title>Sheet.66</title><g id="shape67-134" transform="translate(1.00719E-12,-3.9375)"><title>Sheet.67</title><path d="M0 373.03 C127.52 373.03 191.27 383.93 191.27 405.75 L0 373.03 Z" class="st2"/><path d="M0 373.03 C127.52 373.03 191.27 383.93 191.27 405.75" class="st3"/></g><g id="shape68-137" transform="translate(188.648,5.68434E-14)"><title>Sheet.68</title><path d="M2.63 405.75 L0 400.5 L2.63 401.81 L5.25 400.5 L2.63 405.75 Z" class="st4"/></g></g><g id="group69-139" transform="translate(277.478,-180.84)"><title>Sheet.69</title><g id="shape70-140" transform="translate(3.35731E-13,-3.9375)"><title>Sheet.70</title><path d="M0 373.03 C55.02 373.03 82.52 383.93 82.52 405.75 L0 373.03 Z" class="st2"/><path d="M0 373.03 C55.02 373.03 82.52 383.93 82.52 405.75" class="st3"/></g><g id="shape71-143" transform="translate(79.8975,5.68434E-14)"><title>Sheet.71</title><path d="M2.63 405.75 L0 400.5 L2.63 401.81 L5.25 400.5 L2.63 405.75 Z" class="st4"/></g></g><g id="group72-145" transform="translate(232.5,-169.59)"><title>Sheet.72</title><g id="shape73-146" transform="translate(-1.51079E-12,-3.9375)"><title>Sheet.73</title><path d="M0 384.28 L0 391.78 L75 391.78 L75 405.75 L0 384.28 Z" class="st2"/><path d="M0 384.28 L0 391.78 L75 391.78 L75 405.75" class="st3"/></g><g id="shape74-149" transform="translate(72.375,0)"><title>Sheet.74</title><path d="M2.62 405.75 L0 400.5 L2.62 401.81 L5.25 400.5 L2.62 405.75 Z" class="st4"/></g></g><g id="group75-151" transform="translate(172.5,-56.625)"><title>Sheet.75</title><g id="shape76-152" transform="translate(-3.19744E-13,-2.625)"><title>Sheet.76</title><path d="M14.98 247.5 C4.99 247.5 0 273.88 0 326.63 C0 379.38 35.91 405.75 107.72 405.75 L14.98 247.5 Z" class="st2"/><path d="M14.98 247.5 C4.99 247.5 0 273.88 0 326.63 C0 379.38 35.91 405.75 107.72 405.75" class="st3"/></g><g id="shape77-155" transform="translate(106.41,1.13687E-13)"><title>Sheet.77</title><path d="M5.25 403.12 L0 405.75 L1.31 403.12 L0 400.5 L5.25 403.12 Z" class="st4"/></g></g><g id="group78-157" transform="translate(187.477,-195)"><title>Sheet.78</title><desc>Agent 3</desc><g id="group79-158"><title>Sheet.79</title><g id="shape80-159"><title>Sheet.80</title><rect width="90" height="45" x="0" y="360.75" class="st7"/></g><g id="shape81-161" transform="translate(9,5.68434E-14)"><title>Sheet.81</title><path d="M0 360.75 L0 405.75 L0 360.75 ZM72 360.75 L72 405.75 L72 360.75 Z" class="st2"/><path d="M0 360.75 L0 405.75M72 360.75 L72 405.75" class="st8"/></g></g><g id="shape78-164"><text x="27.63" y="386.25" class="st6">Agent 3</text></g></g><g id="group83-166" transform="translate(357.375,-120)"><title>Sheet.83</title><g id="shape84-167" transform="translate(2.625,5.68434E-14)"><title>Sheet.84</title><path d="M0 390.75 L0 405.75 L0 390.75 L0 400.97 L0 390.75 Z" class="st2"/><path d="M0 390.75 L0 405.75 L0 390.75 L0 400.97" class="st3"/></g><g id="shape85-170" transform="translate(-6.04516E-14,-0.84)"><title>Sheet.85</title><path d="M2.62 405.75 L0 400.5 L2.62 401.81 L5.25 400.5 L2.62 405.75 Z" class="st4"/></g></g><g id="group86-172" transform="translate(337.5,-135)"><title>Sheet.86</title><desc>...</desc><g id="group87-173"><title>Sheet.87</title><g id="shape88-174"><title>Sheet.88</title><rect width="45" height="45" x="0" y="360.75" class="st7"/></g><g id="shape89-176" transform="translate(4.5,5.68434E-14)"><title>Sheet.89</title><path d="M0 360.75 L0 405.75 L0 360.75 ZM36 360.75 L36 405.75 L36 360.75 Z" class="st2"/><path d="M0 360.75 L0 405.75M36 360.75 L36 405.75" class="st8"/></g></g><g id="shape86-179"><text x="19.25" y="386.25" class="st6">...</text></g></g><g id="group91-181" transform="translate(60,-292.5)"><title>Sheet.91</title><desc>Model and general knowledge</desc><g id="shape92-182"><title>Sheet.92</title><path d="M0 399 A6.75016 6.75016 -180 0 0 6.75 405.75 L68.25 405.75 A6.75016 6.75016 -180 0 0 75 399 L75 367.5 A6.75016 6.75016 -180 0 0 68.25 360.75 L6.75 360.75 A6.75016 6.75016 -180 0 0 0 367.5 L0 399 Z" class="st10"/></g><g id="shape91-184"><text x="16.01" y="375.15" class="st11">Model and <tspan x="22.65" class="st12" dy="1.2em">general </tspan><tspan x="15.73" class="st12" dy="1.2em">knowledge</tspan></text></g></g><g id="group94-188" transform="translate(0,-206.25)"><title>Sheet.94</title><desc>Result</desc><g id="shape95-189"><title>Sheet.95</title><path d="M0 402.37 A3.37508 3.37508 -180 0 0 3.37 405.75 L41.63 405.75 A3.37508 3.37508 -180 0 0 45 402.37 L45 386.62 A3.37508 3.37508 -180 0 0 41.63 383.25 L3.37 383.25 A3.37508 3.37508 -180 0 0 0 386.62 L0 402.37 Z" class="st5"/></g><g id="shape94-191"><text x="10.38" y="397.2" class="st11">Result</text></g></g><g id="group97-193" transform="translate(285,-146.25)"><title>Sheet.97</title><desc>Result</desc><g id="shape98-194"><title>Sheet.98</title><path d="M0 402.37 A3.37508 3.37508 -180 0 0 3.37 405.75 L41.63 405.75 A3.37508 3.37508 -180 0 0 45 402.37 L45 386.62 A3.37508 3.37508 -180 0 0 41.63 383.25 L3.37 383.25 A3.37508 3.37508 -180 0 0 0 386.62 L0 402.37 Z" class="st5"/></g><g id="shape97-196"><text x="10.38" y="397.2" class="st11">Result</text></g></g><g id="group100-198" transform="translate(337.5,-97.5)"><title>Sheet.100</title><desc>Result</desc><g id="shape101-199"><title>Sheet.101</title><path d="M0 402.37 A3.37508 3.37508 -180 0 0 3.37 405.75 L41.63 405.75 A3.37508 3.37508 -180 0 0 45 402.37 L45 386.62 A3.37508 3.37508 -180 0 0 41.63 383.25 L3.37 383.25 A3.37508 3.37508 -180 0 0 0 386.62 L0 402.37 Z" class="st5"/></g><g id="shape100-201"><text x="10.38" y="397.2" class="st11">Result</text></g></g><g id="group103-203" transform="translate(532.5,-146.25)"><title>Sheet.103</title><desc>Result</desc><g id="shape104-204"><title>Sheet.104</title><path d="M0 402.37 A3.37508 3.37508 -180 0 0 3.38 405.75 L41.63 405.75 A3.37508 3.37508 -180 0 0 45 402.37 L45 386.62 A3.37508 3.37508 -180 0 0 41.63 383.25 L3.38 383.25 A3.37508 3.37508 -180 0 0 -0 386.62 L0 402.37 Z" class="st5"/></g><g id="shape103-206"><text x="10.38" y="397.2" class="st11">Result</text></g></g><g id="group106-208" transform="translate(262.5,-303.75)"><title>Sheet.106</title><desc>Result</desc><g id="shape107-209"><title>Sheet.107</title><path d="M0 402.37 A3.37508 3.37508 -180 0 0 3.37 405.75 L41.63 405.75 A3.37508 3.37508 -180 0 0 45 402.37 L45 386.62 A3.37508 3.37508 -180 0 0 41.63 383.25 L3.37 383.25 A3.37508 3.37508 -180 0 0 0 386.62 L0 402.37 Z" class="st5"/></g><g id="shape106-211"><text x="10.38" y="397.2" class="st11">Result</text></g></g><g id="group109-213" transform="translate(307.5,5.68434E-14)"><title>Sheet.109</title><desc>Result</desc><g id="shape110-214"><title>Sheet.110</title><path d="M0 402.37 A3.37508 3.37508 -180 0 0 3.37 405.75 L41.63 405.75 A3.37508 3.37508 -180 0 0 45 402.37 L45 386.62 A3.37508 3.37508 -180 0 0 41.63 383.25 L3.37 383.25 A3.37508 3.37508 -180 0 0 0 386.62 L0 402.37 Z" class="st5"/></g><g id="shape109-216"><text x="10.38" y="397.2" class="st11">Result</text></g></g></g></g></svg>