<svg xmlns="http://www.w3.org/2000/svg" xmlns:ev="http://www.w3.org/2001/xml-events" xmlns:xlink="http://www.w3.org/1999/xlink" width="652" height="414" class="st26" color-interpolation-filters="sRGB" viewBox="0 0 489 310.5" xml:space="preserve"><style type="text/css">.st1{fill:#fff;stroke:none;stroke-linecap:butt;stroke-width:.75}.st2{fill:none}.st3,.st4,.st5{stroke:#000}.st3,.st4,.st5,.st6{stroke-linecap:butt;stroke-width:.75}.st4{fill:#000}.st5{fill:#fff}.st6{fill:none;stroke:none}.st7,.st8{fill:#000;font-family:Segoe UI;font-size:.499992em}.st8{font-size:.75em}.st9{fill:#dae8fc}.st10,.st9{stroke:#6c8ebf;stroke-linecap:butt;stroke-width:.75}.st11{font-size:1em;font-style:italic}.st12{fill:#fff2cc;stroke:#d6b656;stroke-linecap:butt;stroke-width:.75}.st13{font-size:1em}.st14{fill:#f5f5f5}.st14,.st15{stroke:#666;stroke-linecap:butt;stroke-width:.75}.st16{fill:#333;font-family:Segoe UI;font-size:.75em}.st17,.st18,.st19{fill:none;stroke:#000;stroke-linecap:butt;stroke-width:.75}.st18,.st19{fill:#01a88d;stroke:none}.st19{fill:#ed7100}.st20,.st21{fill:#000;font-family:Segoe UI;font-size:.666664em}.st21{font-size:.687492em}.st22{fill:#515151;stroke:none;stroke-width:.75}.st22,.st23{stroke-linecap:butt}.st23,.st24,.st25{stroke:none;stroke-width:.75}.st23{fill:#0079d6}.st24,.st25{fill:#fff;stroke-linecap:round;stroke-linejoin:round}.st25{fill:none}.st26{fill:none;fill-rule:evenodd;font-size:12px;overflow:visible;stroke-linecap:square;stroke-miterlimit:3}</style><g><title>magentic-pattern</title><g id="shape1-1" transform="translate(0.375,0.375)"><title>Sheet.1</title><rect width="489" height="310.5" x="0" y="0" class="st1"/></g><g id="group2-3" transform="translate(15.3525,-23.625)"><title>Sheet.2</title><g id="group3-4" transform="translate(162.398,-234)"><title>Sheet.3</title><g id="shape4-5" transform="translate(2.625,5.68434E-14)"><title>Sheet.4</title><path d="M0 295.5 L0 310.5 L0 295.5 L0 305.72 L0 295.5 Z" class="st2"/><path d="M0 295.5 L0 310.5 L0 295.5 L0 305.72" class="st3"/></g><g id="shape5-8" transform="translate(8.09353E-14,-0.84)"><title>Sheet.5</title><path d="M2.63 310.5 L0 305.25 L2.63 306.56 L5.25 305.25 L2.63 310.5 Z" class="st4"/></g></g><g id="group6-10" transform="translate(142.5,-249)"><title>Sheet.6</title><desc>Input</desc><g id="shape7-11"><title>Sheet.7</title><path d="M0 307.12 A3.37508 3.37508 -180 0 0 3.37 310.5 L41.62 310.5 A3.37508 3.37508 -180 0 0 45 307.12 L45 291.37 A3.37508 3.37508 -180 0 0 41.62 288 L3.37 288 A3.37508 3.37508 -180 0 0 -0 291.37 L0 307.12 Z" class="st5"/></g><g id="shape8-13" transform="translate(157.85,-278.175)"><title>Sheet.8</title><desc>Input</desc><rect width="45.05" height="10.8" x="0" y="299.7" class="st6"/><text x="15.55" y="306.9" class="st7">Input</text></g><g id="shape6-16"><text x="12.04" y="301.95" class="st8">Input</text></g></g><g id="shape9-18" transform="translate(45.0225,-45)"><title>Sheet.9</title><path d="M0 295.5 L0 310.5 L0 295.5 L0 310.5 L0 295.5 Z" class="st2"/><path d="M0 295.5 L0 310.5 L0 295.5 L0 310.5" class="st3"/></g><g id="group10-21" transform="translate(0,-60)"><title>Sheet.10</title><g id="group11-22"><title>Sheet.11</title><g id="shape12-23"><title>Sheet.12</title><rect width="90" height="45" x="0" y="265.5" class="st9"/></g><g id="shape13-25" transform="translate(9,1.13687E-13)"><title>Sheet.13</title><path d="M0 265.5 L0 310.5 L0 265.5 ZM72 265.5 L72 310.5 L72 265.5 Z" class="st2"/><path d="M0 265.5 L0 310.5M72 265.5 L72 310.5" class="st10"/></g></g><g id="shape14-28" transform="translate(11.5975,-18.975)"><title>Sheet.14</title><desc>Agent 1</desc><rect width="63.05" height="10.8" x="0" y="299.7" class="st6"/><text x="15.89" y="307.8" class="st8">Agent 1</text></g></g><g id="shape15-31" transform="translate(165,-45)"><title>Sheet.15</title><path d="M0 295.5 L0.02 310.5 L0.02 295.5 L0.02 310.5 L0 295.5 Z" class="st2"/><path d="M0 295.5 L0.02 310.5 L0.02 295.5 L0.02 310.5" class="st3"/></g><g id="shape16-34" transform="translate(360,-45)"><title>Sheet.16</title><path d="M0.02 295.5 L0.02 310.5 L0.02 295.5 L0 310.5 L0.02 295.5 Z" class="st2"/><path d="M0.02 295.5 L0.02 310.5 L0.02 295.5 L0 310.5" class="st3"/></g><g id="group17-37" transform="translate(315,-60)"><title>Sheet.17</title><g id="group18-38"><title>Sheet.18</title><g id="shape19-39"><title>Sheet.19</title><rect width="90" height="45" x="0" y="265.5" class="st9"/></g><g id="shape20-41" transform="translate(9,1.13687E-13)"><title>Sheet.20</title><path d="M0 265.5 L0 310.5 L0 265.5 ZM72 265.5 L72 310.5 L72 265.5 Z" class="st2"/><path d="M0 265.5 L0 310.5M72 265.5 L72 310.5" class="st10"/></g></g><g id="shape21-44" transform="translate(11.6475,-18.975)"><title>Sheet.21</title><desc>Agent n</desc><rect width="63.05" height="10.8" x="0" y="299.7" class="st6"/><text x="15.79" y="307.8" class="st8">Agent <tspan class="st11">n</tspan></text></g></g><g id="group22-48" transform="translate(127.545,-1.13687E-13)"><title>Sheet.22</title><desc>Model, knowledge, and tools</desc><g id="shape23-49"><title>Sheet.23</title><path d="M0 303.75 A6.75016 6.75016 -180 0 0 6.75 310.5 L68.23 310.5 A6.75016 6.75016 -180 0 0 74.98 303.75 L74.98 272.25 A6.75016 6.75016 -180 0 0 68.23 265.5 L6.75 265.5 A6.75016 6.75016 -180 0 0 -0 272.25 L0 303.75 Z" class="st12"/></g><g id="shape22-51"><text x="23.74" y="279.9" class="st8">Model,<tspan x="6.03" class="st13" dy="1.2em">knowledge, and </tspan><tspan x="27.69" class="st13" dy="1.2em">tools</tspan></text></g></g><g id="group25-55" transform="translate(322.508,-1.13687E-13)"><title>Sheet.25</title><desc>Model and tools</desc><g id="shape26-56"><title>Sheet.26</title><path d="M0 303.75 A6.75016 6.75016 -180 0 0 6.75 310.5 L68.23 310.5 A6.75016 6.75016 -180 0 0 74.98 303.75 L74.98 272.25 A6.75016 6.75016 -180 0 0 68.23 265.5 L6.75 265.5 A6.75016 6.75016 -180 0 0 0 272.25 L0 303.75 Z" class="st12"/></g><g id="shape25-58"><text x="4.97" y="290.7" class="st8">Model and tools</text></g></g><g id="group28-60" transform="translate(42.3975,-105.84)"><title>Sheet.28</title><g id="shape29-61" transform="translate(2.625,-3.9375)"><title>Sheet.29</title><path d="M119.98 231.28 L97.5 231.28 L97.5 298.78 L0 298.78 L0 310.5 L119.98 231.28 Z" class="st2"/><path d="M119.98 231.28 L97.5 231.28 L97.5 298.78 L0 298.78 L0 310.5" class="st3"/></g><g id="shape30-64"><title>Sheet.30</title><path d="M2.62 310.5 L0 305.25 L2.62 306.56 L5.25 305.25 L2.62 310.5 Z" class="st4"/></g></g><g id="group31-66" transform="translate(142.522,-105.84)"><title>Sheet.31</title><g id="shape32-67" transform="translate(4.31655E-13,-3.9375)"><title>Sheet.32</title><path d="M22.48 231.28 L0 231.28 L0 298.78 L217.5 298.78 L217.49 310.5 L22.48 231.28 Z" class="st2"/><path d="M22.48 231.28 L0 231.28 L0 298.78 L217.5 298.78 L217.49 310.5" class="st3"/></g><g id="shape33-70" transform="translate(214.86,0)"><title>Sheet.33</title><path d="M2.62 310.5 L0 305.25 L2.62 306.56 L5.25 305.26 L2.62 310.5 Z" class="st4"/></g></g><g id="group34-72" transform="translate(142.523,-105.84)"><title>Sheet.34</title><g id="shape35-73" transform="translate(-1.35891E-13,-3.9375)"><title>Sheet.35</title><path d="M22.48 231.28 L0 231.28 L0 298.78 L120 298.78 L119.98 310.5 L22.48 231.28 Z" class="st2"/><path d="M22.48 231.28 L0 231.28 L0 298.78 L120 298.78 L119.98 310.5" class="st3"/></g><g id="shape36-76" transform="translate(117.36,0)"><title>Sheet.36</title><path d="M2.62 310.5 L0 305.25 L2.62 306.56 L5.25 305.26 L2.62 310.5 Z" class="st4"/></g></g><g id="group37-78" transform="translate(139.898,-105.84)"><title>Sheet.37</title><g id="group38-79"><title>Sheet.38</title><g id="shape39-80" transform="translate(2.625,-3.9375)"><title>Sheet.39</title><path d="M0 231.28 L0 291.28 L0 310.5 L0 231.28 Z" class="st2"/><path d="M0 231.28 L0 291.28 L0 310.5" class="st3"/></g><g id="shape40-83"><title>Sheet.40</title><path d="M2.63 310.5 L0 305.25 L2.63 306.56 L5.25 305.25 L2.63 310.5 Z" class="st4"/></g></g></g><g id="shape42-85" transform="translate(90,-211.5)"><title>Sheet.42</title><path d="M30 310.5 L0 310.5 L30 310.5 Z" class="st2"/><path d="M30 310.5 L0 310.5" class="st3"/></g><g id="group43-88" transform="translate(120,-189)"><title>Sheet.43</title><g id="group44-89"><title>Sheet.44</title><g id="shape45-90"><title>Sheet.45</title><rect width="90" height="45" x="0" y="265.5" class="st9"/></g><g id="shape46-92" transform="translate(9,1.13687E-13)"><title>Sheet.46</title><path d="M0 265.5 L0 310.5 L0 265.5 ZM72 265.5 L72 310.5 L72 265.5 Z" class="st2"/><path d="M0 265.5 L0 310.5M72 265.5 L72 310.5" class="st10"/></g></g><g id="shape47-95" transform="translate(-13.8775,-15.975)"><title>Sheet.47</title><desc>Manager agent</desc><rect width="117.05" height="10.8" x="0" y="299.7" class="st6"/><text x="28.19" y="307.8" class="st8">Manager agent</text></g></g><g id="group48-98" transform="translate(367.522,-189)"><title>Sheet.48</title><g id="group49-99"><title>Sheet.49</title><g id="shape50-100"><title>Sheet.50</title><rect width="90" height="45" x="0" y="265.5" class="st14"/></g><g id="shape51-102" transform="translate(9,1.13687E-13)"><title>Sheet.51</title><path d="M0 265.5 L0 310.5 L0 265.5 ZM72 265.5 L72 310.5 L72 265.5 Z" class="st2"/><path d="M0 265.5 L0 310.5M72 265.5 L72 310.5" class="st15"/></g></g><g id="shape52-105" transform="translate(-31.875,-17.6008)"><title>Sheet.52</title><desc>Human participant</desc><rect width="153.05" height="10.8" x="0" y="299.7" class="st6"/><text x="62.07" y="302.4" class="st16">Human <tspan x="55.24" class="st13" dy="1.2em">participant</tspan></text></g></g><g id="group53-109" transform="translate(7.5075,-1.13687E-13)"><title>Sheet.53</title><desc>Model and knowledge</desc><g id="shape54-110"><title>Sheet.54</title><path d="M0 303.75 A6.75016 6.75016 -180 0 0 6.75 310.5 L68.23 310.5 A6.75016 6.75016 -180 0 0 74.98 303.75 L74.98 272.25 A6.75016 6.75016 -180 0 0 68.23 265.5 L6.75 265.5 A6.75016 6.75016 -180 0 0 -0 272.25 L0 303.75 Z" class="st12"/></g><g id="shape53-112"><text x="16" y="285.3" class="st8">Model and<tspan x="15.72" class="st13" dy="1.2em">knowledge</tspan></text></g></g><g id="group56-115" transform="translate(120,-60)"><title>Sheet.56</title><desc>Agent 2</desc><g id="group57-116"><title>Sheet.57</title><g id="shape58-117"><title>Sheet.58</title><rect width="90" height="45" x="0" y="265.5" class="st9"/></g><g id="shape59-119" transform="translate(9,1.13687E-13)"><title>Sheet.59</title><path d="M0 265.5 L0 310.5 L0 265.5 ZM72 265.5 L72 310.5 L72 265.5 Z" class="st2"/><path d="M0 265.5 L0 310.5M72 265.5 L72 310.5" class="st10"/></g></g><g id="shape60-122" transform="translate(148.85,-100.425)"><title>Sheet.60</title><desc>Agent 2</desc><rect width="63.05" height="10.8" x="0" y="299.7" class="st6"/><text x="21.1" y="306.9" class="st7">Agent 2</text></g><g id="shape56-125"><text x="29.36" y="290.7" class="st8">Agent 2</text></g></g><g id="group61-127" transform="translate(240,-60)"><title>Sheet.61</title><desc>...</desc><g id="group62-128"><title>Sheet.62</title><g id="shape63-129"><title>Sheet.63</title><rect width="45" height="45" x="0" y="265.5" class="st9"/></g><g id="shape64-131" transform="translate(4.5,1.13687E-13)"><title>Sheet.64</title><path d="M0 265.5 L0 310.5 L0 265.5 ZM36 265.5 L36 310.5 L36 265.5 Z" class="st2"/><path d="M0 265.5 L0 310.5M36 265.5 L36 310.5" class="st10"/></g></g><g id="shape65-134" transform="translate(264.35,-100.425)"><title>Sheet.65</title><desc>...</desc><rect width="27.05" height="10.8" x="0" y="299.7" class="st6"/><text x="11.57" y="306.9" class="st7">...</text></g><g id="shape61-137"><text x="19.57" y="290.7" class="st8">...</text></g></g><g id="group66-139" transform="translate(45.0225,-189)"><title>Sheet.66</title><g id="shape67-140"><title>Sheet.67</title><path d="M0 303.75 A6.75016 6.75016 -180 0 0 6.75 310.5 L38.23 310.5 A6.75016 6.75016 -180 0 0 44.98 303.75 L44.98 272.25 A6.75016 6.75016 -180 0 0 38.23 265.5 L6.75 265.5 A6.75016 6.75016 -180 0 0 -0 272.25 L0 303.75 Z" class="st12"/></g><g id="shape68-142" transform="translate(-0.278225,-15.975)"><title>Sheet.68</title><desc>Model</desc><rect width="45.05" height="10.8" x="0" y="299.7" class="st6"/><text x="9.75" y="307.8" class="st8">Model</text></g></g><g id="group69-145" transform="translate(241.522,-129)"><title>Sheet.69</title><g id="group70-146"><title>Sheet.70</title><g id="shape73-147"><title>Sheet.73</title><path d="M0 202.5 C0 198.36 3.36 195 7.5 195 L96 195 C100.14 195 103.5 198.36 103.5 202.5 L103.5 303 C103.5 307.14 100.14 310.5 96 310.5 L7.5 310.5 C3.36 310.5 0 307.14 0 303 L0 202.5 Z" class="st17"/></g></g><g id="shape74-149" transform="translate(-58.875,-117.375)"><title>Sheet.74</title><desc>Task and progress ledger</desc><rect width="216.05" height="10.8" x="0" y="299.7" class="st6"/><text x="58.15" y="307.8" class="st8">Task and progress ledger</text></g><g id="group75-152" transform="translate(8.625,-69.4425)"><title>Sheet.75</title><g id="shape76-153"><title>Sheet.76</title><rect width="34.035" height="39.038" x="0" y="271.462" class="st6"/></g><g id="shape77-155" transform="translate(2.81775E-13,-0.1275)"><title>Sheet.77</title><path d="M2.63 271.72 L2.63 276.31 L0 276.31 L0 278.07 L2.63 278.07 L2.63 280.94 L0 280.94 L0 282.71 L2.63 282.71 L2.63 285.63 L0 285.63 L0 287.39 L2.63 287.39 L2.63 290.29 L0 290.29 L0 292.05 L2.63 292.05 L2.63 294.86 L0 294.86 L0 296.63 L2.63 296.63 L2.63 299.48 L0 299.48 L0 301.25 L2.63 301.25 L2.63 304.16 L0 304.16 L0 305.93 L2.63 305.93 L2.63 310.5 L34.04 310.5 L34.04 271.72 L2.63 271.72 ZM4.39 273.48 L32.27 273.48 L32.27 308.73 L4.39 308.73 L4.39 305.93 L7.1 305.93 L7.1 304.16 L4.39 304.16 L4.39 301.25 L7.1 301.25 L7.1 299.48 L4.39 299.48 L4.39 296.63 L7.1 296.63 L7.1 294.86 L4.39 294.86 L4.39 292.05 L7.1 292.05 L7.1 290.29 L4.39 290.29 L4.39 287.39 L7.1 287.39 L7.1 285.63 L4.39 285.63 L4.39 282.71 L7.1 282.71 L7.1 280.94 L4.39 280.94 L4.39 278.07 L7.1 278.07 L7.1 276.31 L4.39 276.31 L4.39 273.48 ZM10.46 278.07 L27.83 278.07 L27.83 276.31 L10.46 276.31 L10.46 278.07 ZM10.46 283.7 L27.83 283.7 L27.83 281.94 L10.46 281.94 L10.46 283.7 ZM10.46 289.29 L27.83 289.29 L27.83 287.53 L10.46 287.53 L10.46 289.29 ZM10.46 294.92 L19.19 294.92 L19.19 293.16 L10.46 293.16 L10.46 294.92 Z" class="st18"/></g></g><g id="group78-157" transform="translate(59.205,-68.7825)"><title>Sheet.78</title><g id="shape79-158"><title>Sheet.79</title><rect width="30.098" height="39.038" x="0" y="271.462" class="st6"/></g><g id="shape80-160" transform="translate(0.1875,3.97904E-13)"><title>Sheet.80</title><path d="M11.76 301.96 L25.73 301.96 L25.73 300.18 L11.76 300.18 L11.76 301.96 ZM11.76 291.09 L25.73 291.09 L25.73 289.31 L11.76 289.31 L11.76 291.09 ZM11.76 280.22 L25.73 280.22 L25.73 278.45 L11.76 278.45 L11.76 280.22 ZM5.66 302.51 L5.66 299.63 L8.54 299.63 L8.54 302.51 L5.66 302.51 ZM4.77 304.29 L9.43 304.29 C9.92 304.29 10.31 303.89 10.31 303.4 L10.31 298.74 C10.31 298.25 9.92 297.86 9.43 297.86 L4.77 297.86 C4.28 297.86 3.89 298.25 3.89 298.74 L3.89 303.4 C3.89 303.89 4.28 304.29 4.77 304.29 ZM5.66 291.65 L5.66 288.76 L8.54 288.76 L8.54 291.65 L5.66 291.65 ZM4.77 293.42 L9.43 293.42 C9.92 293.42 10.31 293.03 10.31 292.53 L10.31 287.87 C10.31 287.39 9.92 286.99 9.43 286.99 L4.77 286.99 C4.28 286.99 3.89 287.39 3.89 287.87 L3.89 292.53 C3.89 293.03 4.28 293.42 4.77 293.42 ZM5.66 280.78 L5.66 277.89 L8.54 277.89 L8.54 280.78 L5.66 280.78 ZM4.77 282.55 L9.43 282.55 C9.92 282.55 10.31 282.15 10.31 281.66 L10.31 277.01 C10.31 276.52 9.92 276.12 9.43 276.12 L4.77 276.12 C4.28 276.12 3.89 276.52 3.89 277.01 L3.89 281.66 C3.89 282.15 4.28 282.55 4.77 282.55 ZM1.78 308.72 L1.78 273.23 L27.95 273.23 L27.95 308.72 L1.78 308.72 ZM28.84 271.46 L0.89 271.46 C0.4 271.46 0 271.86 0 272.35 L0 309.61 C0 310.1 0.4 310.5 0.89 310.5 L28.84 310.5 C29.33 310.5 29.72 310.1 29.72 309.61 L29.72 272.35 C29.72 271.86 29.33 271.46 28.84 271.46 Z" class="st19"/></g></g><g id="group81-162" transform="translate(24.84,-9.8625)"><title>Sheet.81</title><desc>Task complete?</desc><g id="shape82-163"><title>Sheet.82</title><path d="M27.6 256.21 L55.2 283.36 L27.6 310.5 L0 283.36 L27.6 256.21 Z" class="st5"/></g><g id="shape81-165"><text x="19.78" y="280.95" class="st20">Task<tspan x="9.31" class="st13" dy="1.2em">complete?</tspan></text></g></g></g><g id="group84-168" transform="translate(321.562,-163.38)"><title>Sheet.84</title><g id="group85-169"><title>Sheet.85</title><g id="shape86-170" transform="translate(1.83853E-13,-2.625)"><title>Sheet.86</title><path d="M0 310.5 L41.18 310.5 L0 310.5 Z" class="st2"/><path d="M0 310.5 L41.18 310.5" class="st3"/></g><g id="shape87-173" transform="translate(39.87,-5.68434E-14)"><title>Sheet.87</title><path d="M5.25 307.87 L0 310.5 L1.31 307.87 L0 305.25 L5.25 307.87 Z" class="st4"/></g></g><g id="shape88-175" transform="translate(10.685,2.955)"><title>Sheet.88</title><desc>Yes</desc><rect width="24.8" height="9.9" x="0" y="300.6" class="st1"/><text x="6.21" y="308.02" class="st21">Yes</text></g></g><g id="group89-178" transform="translate(184.89,-179.565)"><title>Sheet.89</title><g id="group90-179"><title>Sheet.90</title><g id="shape91-180" transform="translate(2.625,0)"><title>Sheet.91</title><path d="M92.65 310.48 L0.01 310.5 L0 305.84 L92.65 310.48 Z" class="st2"/><path d="M92.65 310.48 L0.01 310.5 L0 305.84" class="st3"/></g><g id="shape92-183" transform="translate(1.9984E-15,-3.3375)"><title>Sheet.92</title><path d="M2.61 305.24 L5.25 310.48 L2.62 309.18 L0 310.5 L2.61 305.24 Z" class="st4"/></g></g><g id="shape93-185" transform="translate(29.693,5.19)"><title>Sheet.93</title><desc>No</desc><rect width="16.55" height="9.9" x="0" y="300.6" class="st1"/><text x="2.77" y="308.02" class="st21">No</text></g></g><g id="group94-188" transform="translate(367.522,-154.755)"><title>Sheet.94</title><g id="shape95-189"><title>Sheet.95</title><path d="M0 307.12 A3.37508 3.37508 -180 0 0 3.37 310.5 L41.62 310.5 A3.37508 3.37508 -180 0 0 45 307.12 L45 291.37 A3.37508 3.37508 -180 0 0 41.62 288 L3.37 288 A3.37508 3.37508 -180 0 0 -0 291.37 L0 307.12 Z" class="st5"/></g><g id="shape96-191" transform="translate(-4.92499,-5.22)"><title>Sheet.96</title><desc>Result</desc><rect width="54.05" height="10.8" x="0" y="299.7" class="st6"/><text x="14.91" y="307.8" class="st8">Result</text></g></g><g id="group97-194" transform="translate(165.022,-163.38)"><title>Sheet.97</title><g id="group98-195"><title>Sheet.98</title><g id="shape99-196" transform="translate(-1.13509E-12,-2.6175)"><title>Sheet.99</title><path d="M0 287.5 L0 310.5 L96.56 310.49 L0 287.5 Z" class="st2"/><path d="M0 287.5 L0 310.5 L96.56 310.49" class="st3"/></g><g id="shape100-199" transform="translate(95.25,5.68434E-14)"><title>Sheet.100</title><path d="M5.25 307.87 L0 310.5 L1.31 307.87 L0 305.25 L5.25 307.87 Z" class="st4"/></g></g><g id="shape101-201" transform="translate(2.23791,2.955)"><title>Sheet.101</title><desc>Evaluate goal loop</desc><rect width="72" height="9.9" x="0" y="300.6" class="st1"/><text x="2.39" y="308.02" class="st21">Evaluate goal loop</text></g></g><g id="shape102-204" transform="translate(345.645,-211.47)"><title>Sheet.102</title><path d="M21.88 310.47 L0 310.5 L21.88 310.47 Z" class="st2"/><path d="M21.88 310.47 L0 310.5" class="st3"/></g><g id="group103-207" transform="translate(210,-208.845)"><title>Sheet.103</title><g id="shape104-208" transform="translate(-1.27898E-13,-2.625)"><title>Sheet.104</title><path d="M0 310.5 L27.58 310.5 L0 310.5 Z" class="st2"/><path d="M0 310.5 L27.58 310.5" class="st3"/></g><g id="shape105-211" transform="translate(26.265,-5.68434E-14)"><title>Sheet.105</title><path d="M5.25 307.87 L0 310.5 L1.31 307.87 L0 305.25 L5.25 307.87 Z" class="st4"/></g></g><g id="group106-213" transform="translate(247.5,-7.5)"><title>Sheet.106</title><g id="group107-214"><title>Sheet.107</title><g id="shape108-215"><title>Sheet.108</title><rect width="22.5" height="24" x="0" y="286.5" class="st6"/></g><g id="shape109-217" transform="translate(0,-1.8075)"><title>Sheet.109</title><path d="M0 310.5 L0 289.75 C0 289.36 0.19 289 0.53 288.73 C0.86 288.46 1.32 288.31 1.8 288.31 L12.42 288.31 C12.9 288.31 13.36 288.46 13.7 288.73 C14.03 289 14.22 289.36 14.22 289.75 L14.22 299.67 C12.92 299.81 11.78 300.1 10.95 300.49 C10.25 300.87 9.88 301.33 9.87 301.78 L9.87 304.19 L2.76 304.19 L2.76 305.18 L9.84 305.18 L9.84 307.08 L2.76 307.08 L2.76 308.07 L9.84 308.07 L9.84 310.5 L0 310.5 ZM2.73 292.21 L11.46 292.21 L11.46 291.22 L2.73 291.22 L2.73 292.21 Z" class="st22"/></g><g id="shape110-219" transform="translate(11.01,0)"><title>Sheet.110</title><path d="M0.06 301.3 C0.89 301.89 3.17 302.29 5.75 302.29 C8.32 302.29 10.61 301.89 11.43 301.3 L11.43 308.83 C11.43 309.21 11.01 309.58 10.23 309.87 C9.17 310.24 7.6 310.47 5.94 310.47 C4.16 310.5 2.44 310.27 1.29 309.87 C0.5 309.58 0.07 309.21 0.06 308.83 L0.06 301.3 ZM0 300.05 C0 299.35 2.57 298.78 5.75 298.78 C8.92 298.78 11.49 299.35 11.49 300.05 C11.49 300.92 8.92 301.63 5.75 301.63 C2.57 301.63 0 300.92 0 300.05 Z" class="st23"/></g></g></g><g id="group112-221" transform="translate(255,-21)"><title>Sheet.112</title><g id="shape113-222"><title>Sheet.113</title><rect width="22.5" height="24" x="0" y="286.5" class="st6"/></g><g id="shape114-224"><title>Sheet.114</title><path d="M11.38 305.55 C11.27 305.03 11.27 304.5 11.38 303.98 L9.97 303.44 C9.85 303.37 9.77 303.24 9.79 303.1 L10.36 301.88 C10.47 301.77 10.65 301.73 10.81 301.79 L12.16 302.27 C12.49 301.84 12.9 301.48 13.38 301.18 L12.84 299.94 C12.77 299.77 12.85 299.59 13.02 299.5 L14.26 299.04 C14.43 299.02 14.59 299.08 14.68 299.2 L15.26 300.47 C15.83 300.37 16.42 300.37 16.99 300.47 L17.58 299.23 C17.65 299.1 17.82 299.02 17.98 299.04 L19.31 299.54 C19.42 299.62 19.47 299.74 19.46 299.86 L18.88 301.16 C19.36 301.46 19.77 301.84 20.1 302.27 L21.47 301.77 C21.65 301.72 21.85 301.8 21.93 301.95 L22.42 302.99 C22.5 303.15 22.45 303.34 22.29 303.44 L20.89 303.94 C21 304.48 21 305.02 20.89 305.56 L22.26 306.07 C22.41 306.15 22.49 306.29 22.47 306.44 L21.91 307.62 C21.8 307.74 21.63 307.79 21.47 307.75 L20.11 307.25 C19.78 307.69 19.36 308.08 18.88 308.38 L19.42 309.58 C19.48 309.72 19.44 309.88 19.31 309.98 L17.91 310.5 C17.77 310.49 17.65 310.42 17.58 310.31 L17.02 309.08 C16.44 309.17 15.85 309.17 15.28 309.08 L14.68 310.29 C14.59 310.42 14.42 310.5 14.26 310.47 L12.92 309.98 C12.82 309.9 12.78 309.79 12.79 309.67 L13.38 308.38 C12.89 308.08 12.47 307.69 12.14 307.25 L10.83 307.74 C10.66 307.81 10.45 307.76 10.33 307.62 L9.84 306.47 C9.79 306.31 9.86 306.15 10.02 306.07 L11.38 305.55 ZM12.75 304.76 C12.76 306.44 14.27 307.8 16.12 307.81 C17.98 307.8 19.48 306.44 19.5 304.76 C19.48 303.08 17.98 301.72 16.12 301.71 C14.27 301.72 12.76 303.08 12.75 304.76 ZM0 308.96 L0 287.63 C0.19 286.98 0.85 286.53 1.6 286.54 L11.38 286.5 C12.19 286.6 12.79 287.24 12.76 287.99 L12.76 298.84 C12.24 299.05 12 299.59 12.2 300.06 L12.63 300.85 L11.86 301.53 L10.76 301.12 C10.36 301.05 9.94 301.2 9.7 301.51 L9.19 302.61 L2.44 302.61 L2.44 303.58 L9.25 303.58 C9.4 303.8 9.64 303.97 9.91 304.03 L10.63 304.27 L10.63 305.18 L9.86 305.47 L2.44 305.47 L2.44 306.46 L9.04 306.46 L9.65 307.9 C9.88 308.25 10.33 308.44 10.76 308.36 L11.86 307.95 L12.49 308.57 L12.36 308.98 L0 308.96 ZM2.42 290.49 L10.24 290.49 L10.24 289.48 L2.42 289.48 L2.42 290.49 Z" class="st14"/></g></g><g id="group115-226" transform="translate(202.523,-16.875)"><title>Sheet.115</title><g id="shape116-227" transform="translate(-1.9984E-14,-2.625)"><title>Sheet.116</title><path d="M0 310.5 L15 310.5 L40.2 310.5 L0 310.5 Z" class="st2"/><path d="M0 310.5 L15 310.5 L40.2 310.5" class="st3"/></g><g id="shape117-230" transform="translate(38.8875,-5.68434E-14)"><title>Sheet.117</title><path d="M5.25 307.87 L0 310.5 L1.31 307.87 L0 305.25 L5.25 307.87 Z" class="st4"/></g></g><g id="group118-232" transform="translate(278.34,-25.8225)"><title>Sheet.118</title><g id="shape119-233" transform="translate(3.9375,-2.625)"><title>Sheet.119</title><path d="M40.23 310.45 L32.75 310.45 L0 310.5 L40.23 310.45 Z" class="st2"/><path d="M40.23 310.45 L32.75 310.45 L0 310.5" class="st3"/></g><g id="shape120-236"><title>Sheet.120</title><path d="M0 307.88 L5.24 305.25 L3.94 307.87 L5.25 310.5 L0 307.88 Z" class="st4"/></g></g></g><g id="shape123-238" transform="translate(138.484,-159.821)"><title>Sheet.123</title><desc>Invoke agents</desc><rect width="37.632" height="22.358" x="0" y="288.142" class="st24"/><text x="5.69" y="296.62" class="st8">Invoke<tspan x="5.54" class="st13" dy="1.2em">agents</tspan></text></g><g id="shape124-242" transform="translate(238.5,-15.48)"><title>Sheet.124</title><desc>External systems</desc><rect width="76.5" height="9" x="0" y="301.5" class="st25"/><text x="9.27" y="308.4" class="st20">External systems</text></g></g></svg>