<svg xmlns="http://www.w3.org/2000/svg" xmlns:ev="http://www.w3.org/2001/xml-events" xmlns:xlink="http://www.w3.org/1999/xlink" width="741" height="221" class="st15" color-interpolation-filters="sRGB" viewBox="0 0 555.75 165.75" xml:space="preserve"><style type="text/css">.st1{fill:#fff;stroke:none;stroke-linecap:butt;stroke-width:.75}.st2{fill:none}.st3,.st4,.st5{stroke:#000;stroke-linecap:butt;stroke-width:.75}.st4{fill:#000}.st5{fill:#fff}.st6{fill:#000;font-family:Segoe UI;font-size:.833336em}.st7{fill:#dae8fc}.st7,.st8{stroke:#6c8ebf;stroke-linecap:butt;stroke-width:.75}.st9{font-size:1em;font-style:italic}.st10{fill:#fff2cc;stroke:#d6b656;stroke-linecap:butt;stroke-width:.75}.st11{font-size:1em}.st12,.st13{fill:#ffe6cc;stroke:#d79b00;stroke-linecap:butt;stroke-width:.75}.st13{fill:none;stroke:none}.st14{fill:#000;font-family:Segoe UI;font-size:.666664em}.st15{fill:none;fill-rule:evenodd;font-size:12px;overflow:visible;stroke-linecap:square;stroke-miterlimit:3}</style><g><title>sequential-pattern</title><g id="shape1-1" transform="translate(0.375,0.375)"><title>Sheet.1</title><rect width="555.75" height="165.75" x="0" y="0" class="st1"/></g><g id="group2-3" transform="translate(15.375,-15.375)"><title>Sheet.2</title><g id="group3-4" transform="translate(45,-109.875)"><title>Sheet.3</title><g id="shape4-5" transform="translate(1.21902E-13,-2.625)"><title>Sheet.4</title><path d="M0 165.75 L17.72 165.75 L0 165.75 Z" class="st2"/><path d="M0 165.75 L17.72 165.75" class="st3"/></g><g id="shape5-8" transform="translate(16.41,2.84217E-14)"><title>Sheet.5</title><path d="M5.25 163.12 L0 165.75 L1.31 163.12 L0 160.5 L5.25 163.12 Z" class="st4"/></g></g><g id="group6-10" transform="translate(7.99361E-14,-97.5)"><title>Sheet.6</title><desc>Input</desc><g id="shape7-11"><title>Sheet.7</title><path d="M0 161.25 A4.5001 4.5001 -180 0 0 4.5 165.75 L40.5 165.75 A4.5001 4.5001 -180 0 0 45 161.25 L45 140.25 A4.5001 4.5001 -180 0 0 40.5 135.75 L4.5 135.75 A4.5001 4.5001 -180 0 0 0 140.25 L0 161.25 Z" class="st5"/></g><g id="shape6-13"><text x="10.88" y="153.75" class="st6">Input</text></g></g><g id="group9-15" transform="translate(157.5,-109.875)"><title>Sheet.9</title><g id="shape10-16" transform="translate(1.14908E-13,-2.625)"><title>Sheet.10</title><path d="M0 165.75 L17.72 165.75 L0 165.75 Z" class="st2"/><path d="M0 165.75 L17.72 165.75" class="st3"/></g><g id="shape11-19" transform="translate(16.41,2.84217E-14)"><title>Sheet.11</title><path d="M5.25 163.12 L0 165.75 L1.31 163.12 L0 160.5 L5.25 163.12 Z" class="st4"/></g></g><g id="shape12-21" transform="translate(112.5,-75)"><title>Sheet.12</title><path d="M0 150.75 L0 165.75 L0 150.75 Z" class="st2"/><path d="M0 150.75 L0 165.75" class="st3"/></g><g id="group13-24" transform="translate(67.5,-90)"><title>Sheet.13</title><desc>Agent 1</desc><g id="group14-25"><title>Sheet.14</title><g id="shape15-26"><title>Sheet.15</title><rect width="90" height="45" x="0" y="120.75" class="st7"/></g><g id="shape16-28" transform="translate(9,2.55795E-13)"><title>Sheet.16</title><path d="M0 120.75 L0 165.75 L0 120.75 ZM72 120.75 L72 165.75 L72 120.75 Z" class="st2"/><path d="M0 120.75 L0 165.75M72 120.75 L72 165.75" class="st8"/></g></g><g id="shape13-31"><text x="27.63" y="146.25" class="st6">Agent 1</text></g></g><g id="shape18-33" transform="translate(225,-75)"><title>Sheet.18</title><path d="M0 150.75 L0 165.75 L0 150.75 L0 165.75 L0 150.75 Z" class="st2"/><path d="M0 150.75 L0 165.75 L0 150.75 L0 165.75" class="st3"/></g><g id="group19-36" transform="translate(270,-109.875)"><title>Sheet.19</title><g id="shape20-37" transform="translate(1.3689E-13,-2.625)"><title>Sheet.20</title><path d="M0 165.75 L17.72 165.75 L0 165.75 Z" class="st2"/><path d="M0 165.75 L17.72 165.75" class="st3"/></g><g id="shape21-40" transform="translate(16.41,2.84217E-14)"><title>Sheet.21</title><path d="M5.25 163.12 L0 165.75 L1.31 163.12 L0 160.5 L5.25 163.12 Z" class="st4"/></g></g><g id="group22-42" transform="translate(180,-90)"><title>Sheet.22</title><desc>Agent 2</desc><g id="group23-43"><title>Sheet.23</title><g id="shape24-44"><title>Sheet.24</title><rect width="90" height="45" x="0" y="120.75" class="st7"/></g><g id="shape25-46" transform="translate(9,2.55795E-13)"><title>Sheet.25</title><path d="M0 120.75 L0 165.75 L0 120.75 ZM72 120.75 L72 165.75 L72 120.75 Z" class="st2"/><path d="M0 120.75 L0 165.75M72 120.75 L72 165.75" class="st8"/></g></g><g id="shape22-49"><text x="27.63" y="146.25" class="st6">Agent 2</text></g></g><g id="group27-51" transform="translate(450,-109.875)"><title>Sheet.27</title><g id="shape28-52" transform="translate(1.14908E-13,-2.625)"><title>Sheet.28</title><path d="M0 165.75 L15 165.75 L7.5 165.75 L17.72 165.75 L0 165.75 Z" class="st2"/><path d="M0 165.75 L15 165.75 L7.5 165.75 L17.72 165.75" class="st3"/></g><g id="shape29-55" transform="translate(16.41,2.84217E-14)"><title>Sheet.29</title><path d="M5.25 163.12 L0 165.75 L1.31 163.12 L0 160.5 L5.25 163.12 Z" class="st4"/></g></g><g id="shape30-57" transform="translate(405,-75)"><title>Sheet.30</title><path d="M0 150.75 L0 165.75 L0 150.75 Z" class="st2"/><path d="M0 150.75 L0 165.75" class="st3"/></g><g id="group31-60" transform="translate(360,-90)"><title>Sheet.31</title><desc>Agent n</desc><g id="group32-61"><title>Sheet.32</title><g id="shape33-62"><title>Sheet.33</title><rect width="90" height="45" x="0" y="120.75" class="st7"/></g><g id="shape34-64" transform="translate(9,2.55795E-13)"><title>Sheet.34</title><path d="M0 120.75 L0 165.75 L0 120.75 ZM72 120.75 L72 165.75 L72 120.75 Z" class="st2"/><path d="M0 120.75 L0 165.75M72 120.75 L72 165.75" class="st8"/></g></g><g id="shape31-67"><text x="27.51" y="146.25" class="st6">Agent <tspan class="st9">n</tspan></text></g></g><g id="group36-70" transform="translate(472.5,-97.5)"><title>Sheet.36</title><desc>Result</desc><g id="shape37-71"><title>Sheet.37</title><path d="M0 161.25 A4.5001 4.5001 -180 0 0 4.5 165.75 L48 165.75 A4.5001 4.5001 -180 0 0 52.5 161.25 L52.5 140.25 A4.5001 4.5001 -180 0 0 48 135.75 L4.5 135.75 A4.5001 4.5001 -180 0 0 -0 140.25 L0 161.25 Z" class="st5"/></g><g id="shape36-73"><text x="12.79" y="153.75" class="st6">Result</text></g></g><g id="group39-75" transform="translate(67.5,-30)"><title>Sheet.39</title><desc>Model, knowledge, and tools</desc><g id="shape40-76"><title>Sheet.40</title><path d="M0 159 A6.75016 6.75016 -180 0 0 6.75 165.75 L83.25 165.75 A6.75016 6.75016 -180 0 0 90 159 L90 127.5 A6.75016 6.75016 -180 0 0 83.25 120.75 L6.75 120.75 A6.75016 6.75016 -180 0 0 -0 127.5 L0 159 Z" class="st10"/></g><g id="shape39-78"><text x="29.73" y="134.25" class="st6">Model,<tspan x="19.73" class="st11" dy="1.2em">knowledge,</tspan><tspan x="24.43" class="st11" dy="1.2em">and tools</tspan></text></g></g><g id="group42-82" transform="translate(180,-30)"><title>Sheet.42</title><desc>Model, knowledge, and tools</desc><g id="shape43-83"><title>Sheet.43</title><path d="M0 159 A6.75016 6.75016 -180 0 0 6.75 165.75 L83.25 165.75 A6.75016 6.75016 -180 0 0 90 159 L90 127.5 A6.75016 6.75016 -180 0 0 83.25 120.75 L6.75 120.75 A6.75016 6.75016 -180 0 0 -0 127.5 L0 159 Z" class="st10"/></g><g id="shape42-85"><text x="29.73" y="134.25" class="st6">Model,<tspan x="19.73" class="st11" dy="1.2em">knowledge,</tspan><tspan x="24.43" class="st11" dy="1.2em">and tools</tspan></text></g></g><g id="group45-89" transform="translate(360,-30)"><title>Sheet.45</title><desc>Model, knowledge, and tools</desc><g id="shape46-90"><title>Sheet.46</title><path d="M0 159 A6.75016 6.75016 -180 0 0 6.75 165.75 L83.25 165.75 A6.75016 6.75016 -180 0 0 90 159 L90 127.5 A6.75016 6.75016 -180 0 0 83.25 120.75 L6.75 120.75 A6.75016 6.75016 -180 0 0 -0 127.5 L0 159 Z" class="st10"/></g><g id="shape45-92"><text x="29.73" y="134.25" class="st6">Model,<tspan x="19.73" class="st11" dy="1.2em">knowledge,</tspan><tspan x="24.43" class="st11" dy="1.2em">and tools</tspan></text></g></g><g id="group48-96" transform="translate(67.5,5.68434E-14)"><title>Sheet.48</title><desc>Common state</desc><g id="shape49-97"><title>Sheet.49</title><path d="M0 162.37 A3.37508 3.37508 -180 0 0 3.37 165.75 L379.13 165.75 A3.37508 3.37508 -180 0 0 382.5 162.37 L382.5 146.62 A3.37508 3.37508 -180 0 0 379.13 143.25 L3.37 143.25 A3.37508 3.37508 -180 0 0 0 146.62 L0 162.37 Z" class="st12"/></g><g id="shape48-99"><text x="158.81" y="157.5" class="st6">Common state</text></g></g><g id="group51-101" transform="translate(337.5,-109.875)"><title>Sheet.51</title><g id="shape52-102" transform="translate(1.14908E-13,-2.625)"><title>Sheet.52</title><path d="M0 165.75 L15 165.75 L7.5 165.75 L17.72 165.75 L0 165.75 Z" class="st2"/><path d="M0 165.75 L15 165.75 L7.5 165.75 L17.72 165.75" class="st3"/></g><g id="shape53-105" transform="translate(16.41,2.84217E-14)"><title>Sheet.53</title><path d="M5.25 163.12 L0 165.75 L1.31 163.12 L0 160.5 L5.25 163.12 Z" class="st4"/></g></g><g id="group54-107" transform="translate(292.5,-90)"><title>Sheet.54</title><desc>...</desc><g id="group55-108"><title>Sheet.55</title><g id="shape56-109"><title>Sheet.56</title><rect width="45" height="45" x="0" y="120.75" class="st7"/></g><g id="shape57-111" transform="translate(4.5,2.55795E-13)"><title>Sheet.57</title><path d="M0 120.75 L0 165.75 L0 120.75 ZM36 120.75 L36 165.75 L36 120.75 Z" class="st2"/><path d="M0 120.75 L0 165.75M36 120.75 L36 165.75" class="st8"/></g></g><g id="shape58-114" transform="translate(316.475,-122.55)"><title>Sheet.58</title><desc>...</desc><rect width="27.05" height="10.8" x="0" y="154.95" class="st13"/><text x="10.92" y="162.75" class="st14">...</text></g><g id="shape54-117"><text x="19.25" y="146.25" class="st6">...</text></g></g></g></g></svg>