<svg xmlns="http://www.w3.org/2000/svg" xmlns:ev="http://www.w3.org/2001/xml-events" xmlns:xlink="http://www.w3.org/1999/xlink" width="881" height="221" class="st15" color-interpolation-filters="sRGB" viewBox="0 0 660.75 165.75" xml:space="preserve"><style type="text/css">.st1{fill:#fff;stroke:none;stroke-linecap:butt;stroke-width:.75}.st2{fill:none}.st3,.st4,.st5{stroke:#000;stroke-linecap:butt;stroke-width:.75}.st4{fill:#000}.st5{fill:#fff}.st6{fill:#000;font-family:Segoe UI;font-size:.75em}.st7{font-size:1em}.st8{fill:#dae8fc}.st10,.st8,.st9{stroke-linecap:butt;stroke-width:.75}.st8,.st9{stroke:#6c8ebf}.st10{fill:none;stroke:none}.st11{fill:#000;font-family:Segoe UI;font-size:.499992em}.st12{fill:#fff2cc;stroke:#d6b656;stroke-linecap:butt;stroke-width:.75}.st13{fill:#000;font-family:Segoe UI;font-size:.666664em}.st14{fill:#ffe6cc;stroke:#d79b00;stroke-linecap:butt;stroke-width:.75}.st15{fill:none;fill-rule:evenodd;font-size:12px;overflow:visible;stroke-linecap:square;stroke-miterlimit:3}</style><g><title>sequential-pattern-example</title><g id="shape1-1" transform="translate(0.375,0.375)"><title>Sheet.1</title><rect width="660.75" height="165.75" x="0" y="0" class="st1"/></g><g id="group2-3" transform="translate(15.375,-15.375)"><title>Sheet.2</title><g id="group3-4" transform="translate(90,-109.875)"><title>Sheet.3</title><g id="shape4-5" transform="translate(-2.09832E-13,-2.625)"><title>Sheet.4</title><path d="M0 165.75 L25.22 165.75 L0 165.75 Z" class="st2"/><path d="M0 165.75 L25.22 165.75" class="st3"/></g><g id="shape5-8" transform="translate(23.91,2.84217E-14)"><title>Sheet.5</title><path d="M5.25 163.12 L0 165.75 L1.31 163.12 L0 160.5 L5.25 163.12 Z" class="st4"/></g></g><g id="group6-10" transform="translate(-2.71783E-13,-97.5)"><title>Sheet.6</title><desc>Document creation requirements</desc><g id="shape7-11"><title>Sheet.7</title><path d="M0 161.25 A4.5001 4.5001 -180 0 0 4.5 165.75 L85.5 165.75 A4.5001 4.5001 -180 0 0 90 161.25 L90 140.25 A4.5001 4.5001 -180 0 0 85.5 135.75 L4.5 135.75 A4.5001 4.5001 -180 0 0 0 140.25 L0 161.25 Z" class="st5"/></g><g id="shape6-13"><text x="6.97" y="148.05" class="st6">Document creation <tspan x="18.67" class="st7" dy="1.2em">requirements</tspan></text></g></g><g id="group9-16" transform="translate(210,-109.875)"><title>Sheet.9</title><g id="shape10-17" transform="translate(-1.39888E-14,-2.625)"><title>Sheet.10</title><path d="M0 165.75 L17.72 165.75 L0 165.75 Z" class="st2"/><path d="M0 165.75 L17.72 165.75" class="st3"/></g><g id="shape11-20" transform="translate(16.41,2.84217E-14)"><title>Sheet.11</title><path d="M5.25 163.12 L0 165.75 L1.31 163.12 L0 160.5 L5.25 163.12 Z" class="st4"/></g></g><g id="shape12-22" transform="translate(165,-75)"><title>Sheet.12</title><path d="M0 150.75 L0 165.75 L0 150.75 Z" class="st2"/><path d="M0 150.75 L0 165.75" class="st3"/></g><g id="group13-25" transform="translate(120,-90)"><title>Sheet.13</title><desc>Template selection agent</desc><g id="group14-26"><title>Sheet.14</title><g id="shape15-27"><title>Sheet.15</title><rect width="90" height="45" x="0" y="120.75" class="st8"/></g><g id="shape16-29" transform="translate(9,2.55795E-13)"><title>Sheet.16</title><path d="M0 120.75 L0 165.75 L0 120.75 ZM72 120.75 L72 165.75 L72 120.75 Z" class="st2"/><path d="M0 120.75 L0 165.75M72 120.75 L72 165.75" class="st9"/></g></g><g id="shape13-32"><text x="26.51" y="140.55" class="st6">Template <tspan x="14.82" class="st7" dy="1.2em">selection agent</tspan></text></g></g><g id="group18-35" transform="translate(322.5,-109.875)"><title>Sheet.18</title><g id="shape19-36" transform="translate(-1.39888E-14,-2.625)"><title>Sheet.19</title><path d="M0 165.75 L17.72 165.75 L0 165.75 Z" class="st2"/><path d="M0 165.75 L17.72 165.75" class="st3"/></g><g id="shape20-39" transform="translate(16.41,2.84217E-14)"><title>Sheet.20</title><path d="M5.25 163.12 L0 165.75 L1.31 163.12 L0 160.5 L5.25 163.12 Z" class="st4"/></g></g><g id="shape21-41" transform="translate(277.5,-75)"><title>Sheet.21</title><path d="M0 150.75 L0 165.75 L0 150.75 L0 165.75 L0 150.75 Z" class="st2"/><path d="M0 150.75 L0 165.75 L0 150.75 L0 165.75" class="st3"/></g><g id="group22-44" transform="translate(232.5,-90)"><title>Sheet.22</title><desc>Clause customization agent</desc><g id="group23-45"><title>Sheet.23</title><g id="shape24-46"><title>Sheet.24</title><rect width="90" height="45" x="0" y="120.75" class="st8"/></g><g id="shape25-48" transform="translate(9,2.55795E-13)"><title>Sheet.25</title><path d="M0 120.75 L0 165.75 L0 120.75 ZM72 120.75 L72 165.75 L72 120.75 Z" class="st2"/><path d="M0 120.75 L0 165.75M72 120.75 L72 165.75" class="st9"/></g></g><g id="shape22-51"><text x="32.03" y="135.15" class="st6">Clause <tspan x="17.22" class="st7" dy="1.2em">customization </tspan><tspan x="33.64" class="st7" dy="1.2em">agent</tspan></text></g></g><g id="group27-55" transform="translate(435,-109.875)"><title>Sheet.27</title><g id="shape28-56" transform="translate(-1.39888E-14,-2.625)"><title>Sheet.28</title><path d="M0 165.75 L15 165.75 L7.5 165.75 L17.72 165.75 L0 165.75 Z" class="st2"/><path d="M0 165.75 L15 165.75 L7.5 165.75 L17.72 165.75" class="st3"/></g><g id="shape29-59" transform="translate(16.41,2.84217E-14)"><title>Sheet.29</title><path d="M5.25 163.12 L0 165.75 L1.31 163.12 L0 160.5 L5.25 163.12 Z" class="st4"/></g></g><g id="shape30-61" transform="translate(390,-75)"><title>Sheet.30</title><path d="M0 150.75 L0 165.75 L0 150.75 Z" class="st2"/><path d="M0 150.75 L0 165.75" class="st3"/></g><g id="group31-64" transform="translate(345,-90)"><title>Sheet.31</title><desc>Regulatory compliance agent</desc><g id="group32-65"><title>Sheet.32</title><g id="shape33-66"><title>Sheet.33</title><rect width="90" height="45" x="0" y="120.75" class="st8"/></g><g id="shape34-68" transform="translate(9,2.55795E-13)"><title>Sheet.34</title><path d="M0 120.75 L0 165.75 L0 120.75 ZM72 120.75 L72 165.75 L72 120.75 Z" class="st2"/><path d="M0 120.75 L0 165.75M72 120.75 L72 165.75" class="st9"/></g></g><g id="shape31-71"><text x="23.48" y="135.15" class="st6">Regulatory <tspan x="22.32" class="st7" dy="1.2em">compliance </tspan><tspan x="33.64" class="st7" dy="1.2em">agent</tspan></text></g></g><g id="group36-75" transform="translate(577.5,-97.5)"><title>Sheet.36</title><desc>Proposed document</desc><g id="shape37-76"><title>Sheet.37</title><path d="M-0 161.25 A4.5001 4.5001 -180 0 0 4.5 165.75 L48 165.75 A4.5001 4.5001 -180 0 0 52.5 161.25 L52.5 140.25 A4.5001 4.5001 -180 0 0 48 135.75 L4.5 135.75 A4.5001 4.5001 -180 0 0 0 140.25 L0 161.25 Z" class="st5"/></g><g id="shape38-78" transform="translate(555.725,-122.55)"><title>Sheet.38</title><desc>Proposed do...</desc><rect width="126.05" height="10.8" x="0" y="154.95" class="st10"/><text x="44.12" y="162.15" class="st11">Proposed do...</text></g><g id="shape36-81"><text x="7.33" y="148.05" class="st6">Proposed <tspan x="6.04" class="st7" dy="1.2em">document</tspan></text></g></g><g id="group39-84" transform="translate(120,-30)"><title>Sheet.39</title><desc>Model, template library, and research tools</desc><g id="shape40-85"><title>Sheet.40</title><path d="M0 159 A6.75016 6.75016 -180 0 0 6.75 165.75 L83.25 165.75 A6.75016 6.75016 -180 0 0 90 159 L90 127.5 A6.75016 6.75016 -180 0 0 83.25 120.75 L6.75 120.75 A6.75016 6.75016 -180 0 0 -0 127.5 L0 159 Z" class="st12"/></g><g id="shape39-87"><text x="32.78" y="136.05" class="st13">Model,<tspan x="16.3" class="st7" dy="1.2em">template library,</tspan><tspan x="12.64" class="st7" dy="1.2em">and research tools</tspan></text></g></g><g id="group42-91" transform="translate(232.5,-30)"><title>Sheet.42</title><desc>Fine-tuned model</desc><g id="shape43-92"><title>Sheet.43</title><path d="M0 159 A6.75016 6.75016 -180 0 0 6.75 165.75 L83.25 165.75 A6.75016 6.75016 -180 0 0 90 159 L90 127.5 A6.75016 6.75016 -180 0 0 83.25 120.75 L6.75 120.75 A6.75016 6.75016 -180 0 0 -0 127.5 L0 159 Z" class="st12"/></g><g id="shape42-94"><text x="13.49" y="145.65" class="st13">Fine-tuned model</text></g></g><g id="group45-96" transform="translate(345,-30)"><title>Sheet.45</title><desc>Model, regulatory knowledge</desc><g id="shape46-97"><title>Sheet.46</title><path d="M0 159 A6.75016 6.75016 -180 0 0 6.75 165.75 L83.25 165.75 A6.75016 6.75016 -180 0 0 90 159 L90 127.5 A6.75016 6.75016 -180 0 0 83.25 120.75 L6.75 120.75 A6.75016 6.75016 -180 0 0 -0 127.5 L0 159 Z" class="st12"/></g><g id="shape45-99"><text x="32.78" y="140.85" class="st13">Model,<tspan x="6.42" class="st7" dy="1.2em">regulatory knowledge</tspan></text></g></g><g id="group48-102" transform="translate(232.5,5.68434E-14)"><title>Sheet.48</title><desc>Document state</desc><g id="shape49-103"><title>Sheet.49</title><path d="M0 162.37 A3.37508 3.37508 -180 0 0 3.37 165.75 L394.12 165.75 A3.37508 3.37508 -180 0 0 397.5 162.37 L397.5 146.62 A3.37508 3.37508 -180 0 0 394.12 143.25 L3.37 143.25 A3.37508 3.37508 -180 0 0 -0 146.62 L0 162.37 Z" class="st14"/></g><g id="shape48-105"><text x="167.2" y="157.2" class="st6">Document state</text></g></g><g id="group51-107" transform="translate(547.5,-109.875)"><title>Sheet.51</title><g id="shape52-108" transform="translate(-2.09832E-13,-2.625)"><title>Sheet.52</title><path d="M0 165.75 L25.22 165.75 L0 165.75 Z" class="st2"/><path d="M0 165.75 L25.22 165.75" class="st3"/></g><g id="shape53-111" transform="translate(23.91,2.84217E-14)"><title>Sheet.53</title><path d="M5.25 163.12 L0 165.75 L1.31 163.12 L0 160.5 L5.25 163.12 Z" class="st4"/></g></g><g id="shape54-113" transform="translate(502.5,-75)"><title>Sheet.54</title><path d="M0 150.75 L0 165.75 L0 150.75 Z" class="st2"/><path d="M0 150.75 L0 165.75" class="st3"/></g><g id="group55-116" transform="translate(457.5,-90)"><title>Sheet.55</title><desc>Risk assessment agent</desc><g id="group56-117"><title>Sheet.56</title><g id="shape57-118"><title>Sheet.57</title><rect width="90" height="45" x="0" y="120.75" class="st8"/></g><g id="shape58-120" transform="translate(9,2.55795E-13)"><title>Sheet.58</title><path d="M0 120.75 L0 165.75 L0 120.75 ZM72 120.75 L72 165.75 L72 120.75 Z" class="st2"/><path d="M0 120.75 L0 165.75M72 120.75 L72 165.75" class="st9"/></g></g><g id="shape55-123"><text x="13.26" y="140.55" class="st6">Risk assessment <tspan x="33.64" class="st7" dy="1.2em">agent</tspan></text></g></g><g id="group60-126" transform="translate(457.5,-30)"><title>Sheet.60</title><desc>Model, liability knowledge, and persistence tools</desc><g id="shape61-127"><title>Sheet.61</title><path d="M0 159 A6.75016 6.75016 -180 0 0 6.75 165.75 L83.25 165.75 A6.75016 6.75016 -180 0 0 90 159 L90 127.5 A6.75016 6.75016 -180 0 0 83.25 120.75 L6.75 120.75 A6.75016 6.75016 -180 0 0 -0 127.5 L0 159 Z" class="st12"/></g><g id="shape60-129"><text x="32.78" y="136.05" class="st13">Model,<tspan x="11.17" class="st7" dy="1.2em">liability knowledge,</tspan><tspan x="7.6" class="st7" dy="1.2em">and persistence tools</tspan></text></g></g></g></g></svg>