<svg xmlns="http://www.w3.org/2000/svg" xmlns:svg="http://www.w3.org/2000/svg" id="Layer_1" width="806" height="373.13" data-name="Layer 1" version="1.1" viewBox="0 0 806 373.13" style="background-color:#fff"><defs id="defs1"><style id="style1">text{font-family:segoe-ui_normal,Segoe UI,Segoe,Segoe WP,Helvetica Neue,Helvetica,sans-serif}.cls-1,.cls-3{fill:none;stroke:#afafaf;stroke-width:6px}.cls-1{stroke-miterlimit:10}.cls-2{fill:#afafaf}.cls-3{stroke-linejoin:bevel}.cls-4{fill:#3fa0ec}.cls-5{font-size:18.04px}.cls-5,.cls-7{fill:#fff}.cls-6{letter-spacing:-.04em}.cls-11,.cls-7{font-size:18px}.cls-8{letter-spacing:-.03em}.cls-9{letter-spacing:-.04em}.cls-10{fill:#8fb6cc}.cls-11{fill:#213d47}</style></defs><title id="title1">n-tier-logical</title><line id="line1" x1="571.76" x2="691" y1="221.38" y2="221.38" class="cls-1"/><polygon id="polygon1" points="551 209.38 563.95 201.9 563.95 216.86" class="cls-2" transform="translate(10,12)"/><line id="line2" x1="548" x2="680.24" y1="48.38" y2="48.38" class="cls-1"/><polygon id="polygon2" points="681 36.38 668.05 28.9 668.05 43.86" class="cls-2" transform="translate(10,12)"/><line id="line3" x1="547" x2="680.24" y1="121.38" y2="122.31" class="cls-1"/><polygon id="polygon3" points="681 110.38 668.1 102.81 668 117.77" class="cls-2" transform="translate(10,12)"/><line id="line4" x1="547" x2="681.23" y1="284.87" y2="284.7" class="cls-3"/><polygon id="polygon4" points="682 272.68 669.04 265.22 669.05 280.18" class="cls-2" transform="translate(10,12)"/><line id="line5" x1="571.76" x2="691" y1="155.38" y2="155.38" class="cls-1"/><polygon id="polygon5" points="551 143.38 563.95 135.9 563.95 150.86" class="cls-2" transform="translate(10,12)"/><line id="line6" x1="300" x2="474.24" y1="284.38" y2="284.38" class="cls-1"/><polygon id="polygon6" points="475 272.38 462.05 264.9 462.05 279.86" class="cls-2" transform="translate(10,12)"/><rect id="rect6" width="76" height="352.75" x="224.5" y="12.38" class="cls-4" rx="8" ry="8"/><rect id="rect6-4" width="71.115" height="346.977" x="12.054" y="14.529" class="cls-4" rx="7.486" ry="7.869" style="fill:#fff;fill-opacity:1;stroke-width:.959382"/><text id="text8" x="244.45" y="181.75" class="cls-5"><tspan id="tspan6" class="cls-6">W</tspan><tspan id="tspan7" x="260.59" y="181.75">eb</tspan><tspan id="tspan8" x="247.78" y="203.4">tier</tspan></text><rect id="rect8" width="76" height="186" x="484.75" y="12" class="cls-4" rx="8" ry="8"/><text id="text9" x="495" y="98.01" class="cls-7">Middle<tspan id="tspan9" x="500.7" y="119.61">tier 1</tspan></text><rect id="rect9" width="76" height="158" x="484.75" y="205.78" class="cls-4" rx="8" ry="8"/><text id="text10" x="495" y="278.59" class="cls-7">Middle<tspan id="tspan10" x="500.7" y="300.19">tier 2</tspan></text><rect id="rect10" width="115.75" height="60.1" x="334.75" y="254.73" class="cls-4" rx="8" ry="8"/><text id="text11" x="349.75" y="288.59" class="cls-7">Messaging</text><rect id="rect11" width="61.75" height="109" x="595" y="133.38" class="cls-4" rx="8" ry="8"/><text id="text12" x="601.77" y="191.69" class="cls-7">Cache</text><line id="line12" x1="300" x2="474.24" y1="84.38" y2="85.32" class="cls-1"/><polygon id="polygon12" points="475 73.38 462.09 65.83 462.01 80.79" class="cls-2" transform="translate(10,12)"/><rect id="rect12" width="105" height="73" x="691" y="12" class="cls-4" rx="8" ry="8"/><text id="text14" x="712.89" y="41.51" class="cls-7"><tspan id="tspan12" class="cls-8">R</tspan><tspan id="tspan13" x="723.13" y="41.51">emote</tspan><tspan id="tspan14" x="715.53" y="63.11">service</tspan></text><rect id="rect14" width="105" height="270" x="691" y="93.78" class="cls-4" rx="8" ry="8"/><text id="text15" x="724.98" y="232.58" class="cls-7">Data<tspan id="tspan15" x="728.77" y="254.18">tier</tspan></text><rect id="rect15" width="98" height="185.75" x="107.25" y="95.88" class="cls-4" rx="8" ry="8"/><text id="text17" x="112.99" y="159.71" class="cls-7"><tspan id="tspan16" class="cls-9">Web</tspan><tspan id="tspan17" x="112.99" y="181.71">application</tspan><tspan id="tspan18" x="112.99" y="203.71">framework</tspan><tspan id="tspan19" x="112.99" y="225.71">(WAF)</tspan></text><line id="line17" x1="205" x2="213.24" y1="188.76" y2="188.76" class="cls-1"/><polygon id="polygon17" points="214 176.76 201.05 169.28 201.05 184.24" class="cls-2" transform="translate(10,12)"/><path id="path17" d="m 78,16.38 a 4,4 0 0 1 4,4 v 335 a 4,4 0 0 1 -4,4 H 18 a 4,4 0 0 1 -4,-4 v -335 a 4,4 0 0 1 4,-4 h 60 m 0,-4 H 18 a 8,8 0 0 0 -8,8 v 335 a 8,8 0 0 0 8,8 h 60 a 8,8 0 0 0 8,-8 v -335 a 8,8 0 0 0 -8,-8 z" class="cls-10"/><text id="text18" x="25.22" y="191.83" class="cls-11">Client</text><line id="line18" x1="86" x2="93.24" y1="188.76" y2="188.76" class="cls-1"/><polygon id="polygon18" points="97 176.76 84.05 169.28 84.05 184.24" class="cls-2" transform="translate(10,12)"/><metadata id="metadata1"/></svg>