<svg xmlns="http://www.w3.org/2000/svg" xmlns:ev="http://www.w3.org/2001/xml-events" xmlns:xlink="http://www.w3.org/1999/xlink" width="848" height="373.43" class="st14" color-interpolation-filters="sRGB" viewBox="0 0 636 280.073" xml:space="preserve"><style type="text/css">.st1{fill:#fff;stroke:none;stroke-linecap:round;stroke-linejoin:round;stroke-width:.75}.st2{fill:none}.st3{stroke:#333;stroke-width:3}.st3,.st4,.st5,.st6{stroke-linecap:butt}.st4{fill:#333}.st4,.st5,.st6{stroke:none;stroke-width:.749999}.st5{fill:#09f}.st6{fill:none}.st7{fill:#fff;font-family:&apos;Segoe UI&apos;;font-size:.833336em}.st8{fill:#aedfff;stroke:none;stroke-linecap:butt;stroke-width:.749999}.st9{fill:#000;font-family:&apos;Segoe UI&apos;;font-size:.833336em}.st10,.st11{stroke:none;stroke-linecap:butt;stroke-width:.749999}.st11{fill:#333;stroke:#333}.st12{font-size:1em}.st13{stroke:#333;stroke-linecap:round;stroke-linejoin:round;stroke-width:3}.st14{fill:none;fill-rule:evenodd;font-size:12px;overflow:visible;stroke-linecap:square;stroke-miterlimit:3}</style><g><title>VBackground-1</title><g id="shape1-1"><title>Solid</title><rect width="636" height="280.073" x="0" y="0" class="st1"/></g></g><g transform="translate(18,18)"><title>web-queue-worker-logical</title><g id="shape1-3" transform="translate(432.57,-127.128)"><title>Sheet.1</title><path d="M0 244.07 L92.43 244.07 L0 244.07 Z" class="st2"/><path d="M0 244.07 L92.43 244.07" class="st3"/></g><g id="shape2-6" transform="translate(424.5,-121.518)"><title>Sheet.2</title><path d="M9.71 244.07 L0 238.46 L9.71 232.85 L9.71 244.07 Z" class="st4"/></g><g id="shape3-8" transform="translate(248.82,-23.688)"><title>Sheet.3</title><path d="M0 244.07 L278.43 244.07 L0 244.07 Z" class="st2"/><path d="M0 244.07 L278.43 244.07" class="st3"/></g><g id="shape4-11" transform="translate(240.75,-18.078)"><title>Sheet.4</title><path d="M9.71 244.07 L0 238.46 L9.71 232.85 L9.71 244.07 Z" class="st4"/></g><g id="shape5-13" transform="translate(423,-112.878)"><title>Sheet.5</title><path d="M0 244.07 L93.93 244.07 L0 244.07 Z" class="st2"/><path d="M0 244.07 L93.93 244.07" class="st3"/></g><g id="shape6-16" transform="translate(515.287,-107.268)"><title>Sheet.6</title><path d="M0 244.07 L9.71 238.46 L0 232.85 L0 244.07 Z" class="st4"/></g><g id="shape7-18" transform="translate(248.82,-177.753)"><title>Sheet.7</title><path d="M0 244.07 L280.69 244.07 L0 244.07 Z" class="st2"/><path d="M0 244.07 L280.69 244.07" class="st3"/></g><g id="shape8-21" transform="translate(240.743,-172.143)"><title>Sheet.8</title><path d="M9.72 244.07 L0 238.46 L9.72 232.85 L9.72 244.07 Z" class="st4"/></g><g id="shape9-23" transform="translate(240.75,-192.378)"><title>Sheet.9</title><path d="M0 244.07 L276.18 244.07 L0 244.07 Z" class="st2"/><path d="M0 244.07 L276.18 244.07" class="st3"/></g><g id="shape10-26" transform="translate(515.287,-186.768)"><title>Sheet.10</title><path d="M0 244.07 L9.71 238.46 L0 232.85 L0 244.07 Z" class="st4"/></g><g id="shape11-28" transform="translate(240.743,-225.73)"><title>Sheet.11</title><path d="M0 244.07 L277.69 244.07 L0 244.07 Z" class="st2"/><path d="M0 244.07 L277.69 244.07" class="st3"/></g><g id="shape12-31" transform="translate(516.788,-220.12)"><title>Sheet.12</title><path d="M0 244.07 L9.72 238.46 L0 232.85 L0 244.07 Z" class="st4"/></g><g id="shape13-33" transform="translate(141,-195.018)"><title>Sheet.13</title><path d="M0 244.07 L17.43 244.07 L0 244.07 Z" class="st2"/><path d="M0 244.07 L17.43 244.07" class="st3"/></g><g id="shape14-36" transform="translate(156.788,-189.408)"><title>Sheet.14</title><path d="M0 244.07 L9.71 238.46 L0 232.86 L0 244.07 Z" class="st4"/></g><g id="shape15-38" transform="translate(367.163,-56.598)"><title>Sheet.15</title><path d="M-0 238.07 A6.00014 6.00014 -180 0 0 6 244.07 L51 244.07 A6.00014 6.00014 -180 0 0 57 238.07 L57 141.29 A6.00014 6.00014 -180 0 0 51 135.29 L6 135.29 A6.00014 6.00014 -180 0 0 0 141.29 L0 238.07 Z" class="st5"/></g><g id="shape16-40" transform="translate(378,-117)"><title>Sheet.16</title><desc>Worker</desc><rect width="45" height="12" x="0" y="232.073" class="st6"/><text x="0" y="241.07" class="st7">Worker</text></g><g id="shape17-43" transform="translate(0.000125828,-1.2855)"><title>Sheet.17</title><path d="M51 5.57 A3 3 0 0 1 54 8.57 L54 238.07 A3 3 0 0 1 51 241.07 L6 241.07 A3 3 0 0 1 3 238.07 L3 8.57 A3 3 0 0 1 6 5.57 L51 5.57 ZM51 2.57 L6 2.57 A6 6 -180 0 0 -0 8.57 L0 238.07 A6 6 -180 0 0 6 244.07 L51 244.07 A6 6 -180 0 0 57 238.07 L57 8.57 A6 6 -180 0 0 51 2.57 Z" class="st8"/></g><g id="shape18-45" transform="translate(11.3901,-120.435)"><title>Sheet.18</title><desc>Client</desc><rect width="60.05" height="12" x="0" y="232.073" class="st6"/><text x="-.01" y="241.07" class="st9">Client</text></g><g id="shape19-48" transform="translate(55.5001,-195.018)"><title>Sheet.19</title><path d="M0 244.07 L18.18 244.07 L0 244.07 Z" class="st2"/><path d="M0 244.07 L18.18 244.07" class="st10"/></g><g id="shape20-51" transform="translate(72.0376,-189.408)"><title>Sheet.20</title><path d="M0 244.07 L9.71 238.46 L0 232.86 L0 244.07 Z" class="st4"/></g><g id="shape21-53" transform="translate(240.75,-82.8629)"><title>Sheet.21</title><path d="M0 244.07 L16.68 244.07 L0 244.07 Z" class="st2"/><path d="M0 244.07 L16.68 244.07" class="st3"/></g><g id="shape22-56" transform="translate(255.788,-77.2529)"><title>Sheet.22</title><path d="M0 244.07 L9.71 238.46 L0 232.85 L0 244.07 Z" class="st4"/></g><g id="shape23-58" transform="translate(525,-207.378)"><title>Sheet.23</title><path d="M-0 238.07 A6.00014 6.00014 -180 0 0 6 244.07 L69 244.07 A6.00014 6.00014 -180 0 0 75 238.07 L75 213.38 A6.00014 6.00014 -180 0 0 69 207.38 L6 207.38 A6.00014 6.00014 -180 0 0 0 213.38 L0 238.07 Z" class="st5"/></g><g id="shape24-60" transform="translate(528.975,-219)"><title>Sheet.24</title><desc>Remote service</desc><rect width="74.025" height="12" x="0" y="232.073" class="st6"/><text x="0" y="241.07" class="st7">Remote service</text></g><g id="shape25-63" transform="translate(525,-0.003)"><title>Sheet.25</title><path d="M-0 238.07 A6.00014 6.00014 -180 0 0 6 244.07 L69 244.07 A6.00014 6.00014 -180 0 0 75 238.07 L75 205.07 A6.00014 6.00014 -180 0 0 69 199.07 L6 199.07 A6.00014 6.00014 -180 0 0 0 205.07 L0 238.07 Z" class="st5"/></g><g id="shape26-65" transform="translate(533.475,-18)"><title>Sheet.26</title><desc>Static content</desc><rect width="67.05" height="12" x="0" y="232.073" class="st6"/><text x="0" y="241.07" class="st7">Static content</text></g><g id="shape27-68" transform="translate(525,-49.6905)"><title>Sheet.27</title><path d="M0 238.07 A6.00014 6.00014 -180 0 0 6 244.07 L69 244.07 A6.00014 6.00014 -180 0 0 75 238.07 L75 97.07 A6.00014 6.00014 -180 0 0 69 91.07 L6 91.07 A6.00014 6.00014 -180 0 0 -0 97.07 L0 238.07 Z" class="st5"/></g><g id="shape28-70" transform="translate(534.793,-114.788)"><title>Sheet.28</title><desc>Database</desc><rect width="54.708" height="12" x="0" y="232.073" class="st6"/><text x="0" y="241.07" class="st7">Database</text></g><g id="shape29-73" transform="translate(265.635,-60.348)"><title>Sheet.29</title><path d="M-0 238.07 A6.00014 6.00014 -180 0 0 6 244.07 L70.98 244.07 A6.00014 6.00014 -180 0 0 76.98 238.07 L76.98 205.07 A6.00014 6.00014 -180 0 0 70.98 199.07 L6 199.07 A6.00014 6.00014 -180 0 0 -0 205.07 L0 238.07 Z" class="st5"/></g><g id="shape30-75" transform="translate(288,-77.9999)"><title>Sheet.30</title><desc>Queue</desc><rect width="50.05" height="12" x="0" y="232.073" class="st6"/><text x="-.01" y="241.07" class="st7">Queue</text></g><g id="shape31-78" transform="translate(166.088,-49.878)"><title>Sheet.31</title><path d="M0 238.07 A6.00014 6.00014 -180 0 0 6 244.07 L69 244.07 A6.00014 6.00014 -180 0 0 75 238.07 L75 57.07 A6.00014 6.00014 -180 0 0 69 51.07 L6 51.07 A6.00014 6.00014 -180 0 0 0 57.07 L0 238.07 Z" class="st5"/></g><g id="shape32-80" transform="translate(174.013,-187.5)"><title>Sheet.32</title><desc>Web front end</desc><rect width="63.65" height="12" x="0" y="232.073" class="st6"/><text x="0" y="241.07" class="st7">Web front end</text></g><g id="shape33-83" transform="translate(166.088,-1.188)"><title>Sheet.33</title><path d="M-0 238.07 A6.00014 6.00014 -180 0 0 6 244.07 L69 244.07 A6.00014 6.00014 -180 0 0 75 238.07 L75 205.07 A6.00014 6.00014 -180 0 0 69 199.07 L6 199.07 A6.00014 6.00014 -180 0 0 -0 205.07 L0 238.07 Z" class="st5"/></g><g id="shape34-85" transform="translate(192.425,-18)"><title>Sheet.34</title><desc>Content delivery network</desc><rect width="29.15" height="12" x="0" y="232.073" class="st6"/><text x="14.5" y="230" class="st7" text-anchor="middle"><tspan x="14.5" dy="0">Content</tspan><tspan x="14.5" dy="12">delivery</tspan><tspan x="14.5" dy="12">network</tspan></text></g><g id="shape35-88" transform="translate(81.5476,-171.138)"><title>Sheet.35</title><path d="M0 238.07 A6.00014 6.00014 -180 0 0 6 244.07 L54 244.07 A6.00014 6.00014 -180 0 0 60 238.07 L60 202.33 A6.00014 6.00014 -180 0 0 54 196.33 L6 196.33 A6.00014 6.00014 -180 0 0 -0 202.33 L0 238.07 Z" class="st5"/></g><g id="shape36-90" transform="translate(342.75,-82.8479)"><title>Sheet.36</title><path d="M0 244.07 L16.68 244.07 L0 244.07 Z" class="st2"/><path d="M0 244.07 L16.68 244.07" class="st3"/></g><g id="shape37-93" transform="translate(357.788,-77.2379)"><title>Sheet.37</title><path d="M0 244.07 L9.71 238.46 L0 232.85 L0 244.07 Z" class="st11"/></g><g id="shape38-95" transform="translate(65.0701,-23.688)"><title>Sheet.38</title><path d="M0 244.07 L100.68 244.07 L0 244.07 Z" class="st2"/><path d="M0 244.07 L100.68 244.07" class="st3"/></g><g id="shape39-98" transform="translate(57.0001,-18.078)"><title>Sheet.39</title><path d="M9.71 244.07 L0 238.46 L9.71 232.85 L9.71 244.07 Z" class="st4"/></g><g id="shape40-100" transform="translate(457.5,-118.128)"><title>Sheet.40</title><path d="M-0 238.07 A6.00014 6.00014 -180 0 0 6 244.07 L40.31 244.07 A6.00014 6.00014 -180 0 0 46.31 238.07 L46.31 181.07 A6.00014 6.00014 -180 0 0 40.31 175.07 L6 175.07 A6.00014 6.00014 -180 0 0 -0 181.07 L0 238.07 Z" class="st5"/></g><g id="shape41-102" transform="translate(465.9,-150)"><title>Sheet.41</title><desc>Cache</desc><rect width="31.5" height="12" x="0" y="232.073" class="st6"/><text x="0" y="241.07" class="st7">Cache</text></g><g id="shape42-105" transform="translate(94.5,-178.995)"><title>Sheet.42</title><desc>Identity provider</desc><rect width="37.099" height="32.505" x="0" y="211.568" class="st6"/><text x="0" y="224.82" class="st7">Identity <tspan x="0" class="st12" dy="1.2em">provider</tspan></text></g><g id="shape43-109" transform="translate(56.9988,-195.014)"><title>Dynamic connector</title><path d="M15.04 244.07 L0 244.07 L15.04 244.07 Z" class="st2"/><path d="M15.04 244.07 L0 244.07" class="st13"/></g></g></svg>