<svg xmlns="http://www.w3.org/2000/svg" xmlns:ev="http://www.w3.org/2001/xml-events" xmlns:xlink="http://www.w3.org/1999/xlink" width="687.026" height="733.189" class="st40" color-interpolation-filters="sRGB" viewBox="0 0 515.27 549.892" xml:space="preserve" style="background:#fff"><style type="text/css">.st1,.st2{stroke:none}.st1{fill:#f2f2f2;stroke-width:.25}.st2{fill:url(#grad0-9)}.st2,.st3,.st4,.st5{stroke-linecap:butt;stroke-width:.75}.st3{fill:#0078d4;stroke:none}.st4,.st5{fill:#000}.st4{fill-opacity:.5;stroke:none}.st5{fill-opacity:.25}.st5,.st6,.st7{stroke:none}.st6{fill:url(#grad0-25);stroke-linecap:butt;stroke-width:.75}.st7{fill:none;stroke-width:.25}.st8{fill:#7f7f7f;font-family:Segoe UI Semibold;font-size:1.00001em}.st9{font-size:1em}.st10{fill:none;stroke:#4472c4;stroke-dasharray:4.5,4.5;stroke-width:1.5}.st11,.st12{fill:#fff;stroke:none;stroke-linecap:butt;stroke-width:.75}.st12{fill:#4d81b8}.st13{fill:#000;font-family:Segoe UI;font-size:.916672em}.st14{fill:url(#grad0-44)}.st14,.st15,.st16,.st17{stroke:none;stroke-linecap:butt;stroke-width:.75}.st15{fill:#821010}.st16{fill:#e62323}.st17{fill:#ff7381}.st18{fill:#000;font-family:Segoe UI;font-size:.916672em;font-weight:700}.st19{fill:none;stroke:#000;stroke-width:.75}.st20{fill:#000;font-family:Segoe UI Semibold;font-size:.75em}.st21{fill:#feffff;stroke:none;stroke-width:.25}.st22{fill:url(#grad0-86);stroke:none;stroke-linecap:butt}.st22,.st23,.st24{stroke-width:34.0001}.st23,.st24,.st25,.st26,.st27{stroke:none;stroke-linecap:butt}.st23{fill:#50e6ff}.st24{fill:#1490df}.st25{fill:#6bb9f2}.st25,.st26,.st27{stroke-width:.75}.st26{fill:url(#grad0-107)}.st27{fill:#50e6ff}.st28{marker-start:url(#mrkr4-118);stroke:#000;stroke-linecap:round;stroke-linejoin:round;stroke-width:1.5}.st29{fill:#000;fill-opacity:1;stroke:#000;stroke-opacity:1;stroke-width:.37313432835821}.st30{fill:#c3f1ff}.st30,.st31,.st32{stroke:none;stroke-linecap:butt;stroke-width:.75}.st31{fill:#9cebff}.st32{fill:url(#grad0-151)}.st33{fill:#000;font-family:Segoe UI Semibold;font-size:.75em;font-weight:700}.st34{marker-end:url(#mrkr4-246);stroke:#000;stroke-linecap:round;stroke-linejoin:round;stroke-width:1.5}.st35,.st36{fill:#70ad47;font-family:Wingdings;font-size:1.5em}.st36{font-family:Segoe UI;font-size:.916672em}.st37{stroke:#000;stroke-dasharray:0,7.5;stroke-linecap:round;stroke-linejoin:round;stroke-width:1.5}.st38{fill:#fff;stroke:none;stroke-linecap:butt;stroke-width:7.2}.st39{fill:#3d64ac;font-family:Calibri;font-size:.666664em}.st40{fill:none;fill-rule:evenodd;font-size:12px;overflow:visible;stroke-linecap:square;stroke-miterlimit:3}</style><defs id="Patterns_And_Gradients"><linearGradient id="grad0-9" x1="0" x2="1" y1="0" y2="0" gradientTransform="rotate(116.95960434515 0.5 0.5)"><stop offset="0" stop-color="#114a8b" stop-opacity="1"/><stop offset="1" stop-color="#0669bc" stop-opacity="1"/></linearGradient><linearGradient id="grad0-25" x1="0" x2="1" y1="0" y2="0" gradientTransform="rotate(61.849084498542 0.5 0.5)"><stop offset="0" stop-color="#3ccbf4" stop-opacity="1"/><stop offset="1" stop-color="#2892df" stop-opacity="1"/></linearGradient><linearGradient id="grad0-44" x1="0" x2="1" y1="0" y2="0" gradientTransform="rotate(-90 0.5 0.5)"><stop offset="0" stop-color="#0078d4" stop-opacity="1"/><stop offset=".82" stop-color="#5ea0ef" stop-opacity="1"/></linearGradient><linearGradient id="grad0-86" x1="0" x2="1" y1="0" y2="0" gradientTransform="rotate(-90 0.5 0.5)"><stop offset="0" stop-color="#5e9624" stop-opacity="1"/><stop offset=".24" stop-color="#6fb02a" stop-opacity="1"/><stop offset=".5" stop-color="#7cc52f" stop-opacity="1"/><stop offset=".755" stop-color="#83d232" stop-opacity="1"/><stop offset="1" stop-color="#86d633" stop-opacity="1"/></linearGradient><linearGradient id="grad0-107" x1="0" x2="1" y1="0" y2="0" gradientTransform="rotate(90 0.5 0.5)"><stop offset="0" stop-color="#5ea0ef" stop-opacity="1"/><stop offset=".18" stop-color="#559cec" stop-opacity="1"/><stop offset=".47" stop-color="#3c91e5" stop-opacity="1"/><stop offset=".84" stop-color="#1380da" stop-opacity="1"/><stop offset="1" stop-color="#0078d4" stop-opacity="1"/></linearGradient><linearGradient id="grad0-151" x1="0" x2="1" y1="0" y2="0" gradientTransform="rotate(-90 0.5 0.5)"><stop offset=".15" stop-color="#ccc" stop-opacity="1"/><stop offset="1" stop-color="#707070" stop-opacity="1"/></linearGradient></defs><defs id="Markers"><g id="lend4"><path d="M 2 1 L 0 0 L 2 -1 L 2 1" style="stroke:none"/></g><marker id="mrkr4-118" class="st29" markerUnits="strokeWidth" orient="auto" overflow="visible" refX="5.12"><use transform="scale(2.68)" xlink:href="#lend4"/></marker><marker id="mrkr4-246" class="st29" markerUnits="strokeWidth" orient="auto" overflow="visible" refX="-5.36"><use transform="scale(-2.68,-2.68)" xlink:href="#lend4"/></marker></defs><g><title>wsus-vnet</title><g id="shape1155-1" transform="translate(46.051,-299.12)"><title>Sheet.1155</title><ellipse cx="54.563" cy="495.048" class="st1" rx="54.563" ry="54.844"/></g><g id="group1024-3" transform="translate(36,-48.1082)"><title>logo.1359</title><g id="group1025-4" transform="translate(0,-4.5)"><title>Azure.1002</title><g id="group1026-5" transform="translate(0,-7.36693)"><title>Sheet.1026</title><g id="shape1027-6"><title>Sheet.1027</title><path d="M9.51 521.26 L18.04 521.26 L9.2 548.93 A1.33611 1.411 0 0 1 7.94 549.89 L1.27 549.89 A1.33545 1.41031 0 0 1 0 548.03 L8.25 522.22 A1.33414 1.40893 0 0 1 9.51 521.26 Z" class="st2"/></g><g id="shape1028-10" transform="translate(7.27079,0)"><title>Sheet.1028</title><path d="M14.02 539.29 L0.58 539.29 a0.621946 0.65681 -180 0 0 -0.424441 1.13612 L9.37 549.51 A1.33611 1.411 -180 0 0 10.29 549.89 L17.9 549.89 L14.02 539.29 Z" class="st3"/></g><g id="group1029-12" transform="translate(10.303,0)"><title>Sheet.1029</title><g id="shape1030-13" transform="translate(5.87088,0)"><title>Sheet.1030</title><path d="M2.73 549.89 L8.99 549.89 L5.11 539.29 L0 539.29 L2.96 548.53 A1.35049 1.4262 0 0 1 2.73 549.89 Z" class="st4"/></g><g id="shape1031-15" transform="translate(7.49401E-14,-16.6951)"><title>Sheet.1031</title><path d="M3.93 549.89 L7.74 537.95 L0 537.95 A1.35245 1.42827 0 0 1 0.26 538.43 L3.93 549.89 Z" class="st4"/></g></g><g id="group1032-17" transform="translate(9.81969,0)"><title>Sheet.1032</title><g id="shape1033-18" transform="translate(0,-15.9092)"><title>Sheet.1033</title><path d="M0 537.17 L4.16 549.89 L4.74 548.08 L1.25 537.17 L0 537.17 Z" class="st5"/></g><g id="shape1034-20" transform="translate(5.8238,0)"><title>Sheet.1034</title><path d="M2.06 549.89 L3.85 549.89 A1.84426 1.94764 -180 0 0 3.96 548.36 L1.06 539.29 L0 539.29 L3.01 548.7 a0.854767 0.902683 0 0 1 -0.807026 1.19414 L2.06 549.89 Z" class="st5"/></g></g><g id="shape1035-22" transform="translate(9.61433,0)"><title>Sheet.1035</title><path d="M10.77 522.22 A1.33414 1.40893 -180 0 0 9.5 521.26 L0 521.26 A1.35572 1.43172 0 0 1 1.28 522.23 L9.52 548 A1.35507 1.43103 0 0 1 8.23 549.89 L17.75 549.89 A1.33545 1.41031 -180 0 0 19.02 548.03 L10.77 522.22 Z" class="st6"/></g></g></g><g id="shape1036-26" transform="translate(15.6774,-2.90323)"><title>Sheet.1036</title><desc>Microsoft Azure</desc><rect width="72" height="45" x="0" y="504.892" class="st7"/><text x="9.86" y="523.79" class="st8">Microsoft<tspan x="20.28" class="st9" dy="1.2em">Azure</tspan></text></g></g><g id="shape1038-30" transform="translate(32.2297,-245.964)"><title>Sheet.1038</title><rect width="427.5" height="197.156" x="0" y="352.736" class="st10" rx="4.5" ry="4.5"/></g><g id="group1045-32" transform="translate(74.4407,-474.892)"><title>Globe; Internet.1045</title><g id="shape1046-33"><title>Sheet.1046</title><ellipse cx="28.125" cy="521.767" class="st11" rx="28.125" ry="28.125"/></g><g id="shape1047-35" transform="translate(1.5,-1.5)"><title>Sheet.1047</title><path d="M26.63 496.64 C11.94 496.64 0 508.59 0 523.27 C-0 537.95 11.94 549.89 26.63 549.89 C41.31 549.89 53.25 537.95 53.25 523.27 C53.25 508.59 41.31 496.64 26.63 496.64 ZM26.63 548.39 C22.93 548.39 19.62 543.17 17.85 535.6 C20.68 535.14 23.67 534.89 26.63 534.89 C29.58 534.89 32.57 535.14 35.4 535.59 C33.63 543.17 30.32 548.39 26.63 548.39 ZM26.63 533.39 C23.57 533.39 20.47 533.66 17.53 534.14 C16.9 530.93 16.52 527.37 16.5 523.64 L36.75 523.64 C36.73 527.37 36.36 530.93 35.72 534.13 C32.78 533.65 29.69 533.39 26.63 533.39 ZM26.63 498.14 C30.2 498.14 33.41 503.02 35.22 510.19 C32.47 510.65 29.57 510.89 26.63 510.89 C23.68 510.89 20.78 510.65 18.03 510.19 C19.84 503.02 23.05 498.14 26.63 498.14 ZM26.63 512.39 C29.68 512.39 32.7 512.13 35.56 511.65 C36.25 514.83 36.67 518.4 36.74 522.14 L16.51 522.14 C16.58 518.39 17 514.83 17.69 511.65 C20.55 512.13 23.57 512.39 26.63 512.39 ZM15.01 522.14 L1.53 522.14 C1.76 516.9 3.6 512.08 6.57 508.15 C9.29 509.56 12.58 510.65 16.19 511.37 C15.49 514.62 15.08 518.26 15.01 522.14 ZM15 523.64 C15.03 527.5 15.39 531.14 16.03 534.4 C12.21 535.14 8.72 536.25 6.04 537.64 C3.25 533.66 1.59 528.84 1.51 523.64 L15 523.64 ZM38.25 523.64 L51.74 523.64 C51.66 528.83 50.01 533.64 47.23 537.62 C44.54 536.23 41.05 535.13 37.22 534.39 C37.86 531.13 38.23 527.5 38.25 523.64 ZM38.24 522.14 C38.17 518.26 37.76 514.62 37.07 511.37 C40.67 510.65 43.96 509.56 46.68 508.15 C49.65 512.08 51.49 516.9 51.72 522.14 L38.24 522.14 ZM45.71 506.95 C43.15 508.24 40.08 509.24 36.73 509.91 C35.45 504.76 33.44 500.74 31 498.53 C36.84 499.56 42 502.62 45.71 506.95 ZM22.25 498.53 C19.81 500.74 17.8 504.76 16.52 509.91 C13.16 509.24 10.1 508.24 7.54 506.95 C11.25 502.62 16.4 499.56 22.25 498.53 ZM6.95 538.86 C9.49 537.58 12.76 536.56 16.34 535.87 C17.61 541.38 19.69 545.69 22.25 548 C16.09 546.92 10.69 543.58 6.95 538.86 ZM31 548 C33.56 545.69 35.64 541.38 36.91 535.86 C40.51 536.54 43.77 537.56 46.32 538.84 C42.58 543.56 37.17 546.91 31 548 Z" class="st12"/></g></g><g id="shape1068-37" transform="translate(49.2136,-461.465)"><title>Sheet.1068</title><desc>Internet</desc><rect width="103.5" height="18.233" x="0" y="531.659" class="st7"/><text x="32.67" y="544.08" class="st13">Internet</text></g><g id="group1069-40" transform="translate(69.3547,-340.12)"><title>Icon-networking-84</title><g id="shape1070-41" transform="translate(0,-8.52965)"><title>Sheet.1070</title><path d="M62.52 535.98 A14.1012 14.1012 -180 0 0 50.33 522.47 A17.7133 17.7133 -180 0 0 32.09 505.56 A18.1648 18.1648 -180 0 0 14.73 517.4 A16.7408 16.7408 -180 0 0 0 533.52 A17.0187 17.0187 -180 0 0 17.61 549.88 L19.14 549.88 L47.65 549.88 A5.07087 5.07087 -180 0 0 48.42 549.88 A14.2401 14.2401 -180 0 0 62.52 535.98 Z" class="st14"/></g><g id="shape1071-45" transform="translate(12.8856,0)"><title>Sheet.1071</title><path d="M36.75 531.1 A1.45874 1.45874 -180 0 0 35.29 529.68 L1.46 529.68 A1.45874 1.45874 -180 0 0 -0 531.1 L0 548.47 A1.45874 1.45874 -180 0 0 1.46 549.89 L35.29 549.89 A1.45874 1.45874 -180 0 0 36.75 548.47 L36.75 531.1 Z" class="st15"/></g><g id="shape1072-47" transform="translate(14.9347,-13.7886)"><title>Sheet.1072</title><rect width="9.968" height="4.411" x="0" y="545.481" class="st16"/></g><g id="shape1073-49" transform="translate(26.3963,-13.7886)"><title>Sheet.1073</title><rect width="9.968" height="4.411" x="0" y="545.481" class="st17"/></g><g id="shape1074-51" transform="translate(37.8578,-13.7886)"><title>Sheet.1074</title><rect width="9.968" height="4.411" x="0" y="545.481" class="st16"/></g><g id="shape1075-53" transform="translate(14.9347,-7.88416)"><title>Sheet.1075</title><rect width="4.133" height="4.411" x="0" y="545.481" class="st16"/></g><g id="shape1076-55" transform="translate(43.6928,-7.88416)"><title>Sheet.1076</title><rect width="4.133" height="4.411" x="0" y="545.481" class="st17"/></g><g id="shape1077-57" transform="translate(20.5613,-7.88416)"><title>Sheet.1077</title><rect width="9.968" height="4.411" x="0" y="545.481" class="st17"/></g><g id="shape1078-59" transform="translate(32.0576,-7.88416)"><title>Sheet.1078</title><rect width="9.968" height="4.411" x="0" y="545.481" class="st16"/></g><g id="shape1079-61" transform="translate(14.9347,-1.97972)"><title>Sheet.1079</title><rect width="9.968" height="4.411" x="0" y="545.481" class="st16"/></g><g id="shape1080-63" transform="translate(26.3963,-1.97972)"><title>Sheet.1080</title><rect width="9.968" height="4.411" x="0" y="545.481" class="st17"/></g><g id="shape1081-65" transform="translate(37.8578,-1.97972)"><title>Sheet.1081</title><rect width="9.968" height="4.411" x="0" y="545.481" class="st16"/></g></g><g id="shape1085-67" transform="translate(194.631,-145.063)"><title>Sheet.1085</title><desc>snet-workload</desc><rect width="83.214" height="18.233" x="0" y="531.659" class="st7"/><text x="4" y="544.08" class="st18">snet-workload</text></g><g id="shape1086-70" transform="translate(194.595,-60.2703)"><title>Sheet.1086</title><rect width="238" height="102.938" x="0" y="446.955" class="st19"/></g><g id="shape1122-72" transform="translate(405.151,-171.192)"><title>Sheet.1122</title><desc>nsg-ms</desc><rect width="56.25" height="16.766" x="0" y="533.126" class="st7"/><text x="13.11" y="544.21" class="st20">nsg-ms</text></g><g id="group1008-75" transform="translate(436.378,-52.0001)"><title>VNet WhiteBCK2.1342</title><g id="shape1009-76" transform="translate(2.84562,-1.06711)"><title>Sheet.1009</title><rect width="20.809" height="14.406" x="0" y="535.486" class="st21"/></g><g id="group1010-78"><title>Sheet.1010</title><g id="group1011-79"><title>Page-1</title><g id="group1012-80"><title>Virtual Network.16823</title><g id="group1013-81"><title>Sheet.1013</title><g id="group1014-82" transform="translate(6.74292,-6.83735)"><title>Sheet.1014</title><g id="shape1015-83"><title>Sheet.1015</title><path d="M14.02 548.65 A1.73372 1.72998 90 1 1 12.29 546.92 A1.73222 1.72848 90 0 1 14.02 548.65 ZM6.75 546.93 A1.73372 1.72998 -90 1 0 8.48 548.66 A1.73222 1.72848 -90 0 0 6.75 546.93 ZM1.22 546.93 A1.73372 1.72998 -90 1 0 2.95 548.67 A1.73372 1.72998 -90 0 0 1.22 546.94 L1.22 546.93 Z" class="st22"/></g></g><g id="group1016-87" transform="translate(0.00597543,0)"><title>Sheet.1016</title><g id="shape1017-88"><title>Sheet.1017</title><path d="M9.23 548.77 L8.24 549.76 a0.44915 0.448181 90 0 1 -0.633431 0 L0.26 542.43 a0.898301 0.896361 90 0 1 1.44329E-15 -1.27104 L1.25 540.17 L9.23 548.13 a0.44915 0.448181 90 0 1 5.32907E-15 0.636295 L9.23 548.77 Z" class="st23"/></g></g><g id="group1018-90" transform="translate(0,-6.48539)"><title>Sheet.1018</title><g id="shape1019-91"><title>Sheet.1019</title><path d="M8.09 540.38 L9.09 541.38 a0.44915 0.448181 90 0 1 1.77636E-15 0.636295 L1.26 549.89 L0.26 548.9 a0.898301 0.896361 90 0 1 -3.33067E-16 -1.27104 L7.47 540.39 a0.44915 0.448181 90 0 1 0.634925 1.13687E-13 L8.09 540.38 Z" class="st24"/></g></g><g id="group1020-93" transform="translate(17.5205,-0.00299433)"><title>Sheet.1020</title><g id="shape1021-94"><title>Sheet.1021</title><path d="M8.1 540.17 L9.09 541.16 a0.898301 0.896361 90 0 1 0 1.27104 L1.75 549.76 a0.44915 0.448181 90 0 1 -0.633431 0 L0.13 548.76 a0.44915 0.448181 90 0 1 -4.16334E-15 -0.634797 L8.1 540.17 Z" class="st23"/></g></g><g id="group1022-96" transform="translate(17.6639,-6.48985)"><title>Sheet.1022</title><g id="shape1023-97"><title>Sheet.1023</title><path d="M8.96 548.9 L7.97 549.89 L0.13 542.02 a0.44915 0.448181 90 0 1 -8.10463E-15 -0.634797 L1.13 540.38 a0.44915 0.448181 90 0 1 0.633431 0 L8.97 547.62 a0.898301 0.896361 90 0 1 -0.0047427 1.27104 L8.96 548.9 Z" class="st24"/></g></g></g></g></g></g></g><g id="group1123-99" transform="translate(423.94,-149.956)"><title>Network Security Groups.1123</title><g id="shape1124-100"><title>Sheet.1124</title><path d="M18.67 537.94 C18.67 543.97 11.25 548.82 9.64 549.81 a0.583475 0.572661 0 0 1 -0.608844 0 C7.42 548.82 0 543.97 0 537.94 L0 530.7 a0.583475 0.572661 0 0 1 0.570791 -0.572661 C6.34 529.98 5.01 527.49 9.34 527.49 C13.66 527.49 12.33 529.98 18.1 530.13 a0.583475 0.572661 0 0 1 0.570791 0.572661 L18.67 537.94 Z" class="st3"/></g><g id="shape1125-102" transform="translate(0.773739,-0.92999)"><title>Sheet.1125</title><path d="M17.12 538.94 C17.12 544.46 10.32 548.9 8.84 549.82 a0.545422 0.535313 0 0 1 -0.558107 0 C6.8 548.92 0 544.46 0 538.94 L0 532.29 a0.532738 0.522864 0 0 1 0.520054 -0.522864 C5.81 531.63 4.59 529.35 8.56 529.35 C12.53 529.35 11.31 531.63 16.6 531.77 a0.532738 0.522864 0 0 1 0.520054 0.522864 L17.12 538.94 Z" class="st25"/></g><g id="shape1126-104" transform="translate(0.811791,-0.930663)"><title>Sheet.1126</title><path d="M8.52 539.62 L8.52 529.35 C12.49 529.35 11.28 531.63 16.57 531.77 a0.545422 0.535313 0 0 1 0.520054 0.535313 L17.09 538.95 A6.20259 6.08763 0 0 1 17.09 539.62 L8.52 539.62 ZM8.52 539.62 L0 539.62 C0.51 544.83 6.82 548.96 8.24 549.82 a0.494685 0.485517 -180 0 0 0.228316 0.0746949 L8.52 549.89 L8.52 539.62 Z" class="st26"/></g><g id="shape1127-108" transform="translate(0.802329,-0.930663)"><title>Sheet.1127</title><path d="M0.49 531.77 C5.78 531.63 4.56 529.35 8.53 529.35 L8.53 539.62 L0.01 539.62 A6.20259 6.08763 0 0 1 0.01 538.95 L0.01 532.3 a0.545422 0.535313 0 0 1 0.482001 -0.535313 ZM17.06 539.62 L8.53 539.62 L8.53 549.89 a0.494685 0.485517 -180 0 0 0.228316 -0.0746949 C10.23 548.96 16.55 544.83 17.06 539.62 Z" class="st27"/></g></g><g id="shape1148-110" transform="translate(37.9023,-306.432)"><title>Sheet.1148</title><desc>Azure Firewall</desc><rect width="123.281" height="34.011" x="0" y="515.881" class="st7"/><text x="27.96" y="536.19" class="st13">Azure Firewall</text></g><g id="shape1149-113" transform="translate(651.037,90.75) rotate(90)"><title>Directed line 1.1000</title><path d="M7.68 549.89 L8.04 549.89 L62.71 549.89" class="st28"/></g><g id="shape1150-119" transform="translate(871.247,255.073) rotate(90)"><title>Directed line 1.1150</title><path d="M7.68 549.89 L8.04 549.89 L157.68 549.89" class="st28"/></g><g id="shape1151-124" transform="translate(856.724,96.1589) rotate(73.1807)"><title>Directed line 1.1151</title><path d="M7.68 549.89 L8.04 549.89 L167.18 549.89" class="st28"/></g><g id="shape1152-129" transform="translate(845.171,395.017) rotate(104.783)"><title>Directed line 1.1152</title><path d="M7.68 549.89 L8.04 549.89 L167.55 549.89" class="st28"/></g><g id="group1000-134" transform="translate(299.252,-332.862)"><title>Virtual Machine.1111</title><g id="shape1001-135" transform="translate(0,-12.9636)"><title>Sheet.1001</title><path d="M0 548.21 A1.55212 1.67998 -180 0 0 1.55 549.89 L45.01 549.89 A1.55212 1.67998 -180 0 0 46.56 548.21 L46.56 517.97 A1.55212 1.67998 -180 0 0 45.01 516.29 L1.55 516.29 A1.55212 1.67998 -180 0 0 -0 517.97 L0 548.21 Z" class="st14"/></g><g id="shape1002-138" transform="translate(23.2813,-19.9634)"><title>Sheet.1002</title><path d="M7.76 535.19 L7.76 544.96 L0 549.89 L0 540.09 L7.76 535.19 Z" class="st27"/></g><g id="shape1003-140" transform="translate(15.5208,-29.735)"><title>Sheet.1003</title><path d="M15.52 544.96 L7.76 549.89 L0 544.96 L7.76 540.06 L15.52 544.96 Z" class="st30"/></g><g id="shape1004-142" transform="translate(15.5208,-19.9634)"><title>Sheet.1004</title><path d="M7.76 540.12 L7.76 549.89 L0 544.96 L0 535.19 L7.76 540.12 Z" class="st31"/></g><g id="shape1005-144" transform="translate(15.5208,-19.9634)"><title>Sheet.1005</title><path d="M0 544.96 L7.76 540.09 L7.76 549.89 L0 544.96 Z" class="st30"/></g><g id="shape1006-146" transform="translate(23.2813,-19.9634)"><title>Sheet.1006</title><path d="M7.76 544.96 L0 540.09 L0 549.89 L7.76 544.96 Z" class="st31"/></g><g id="shape1007-148" transform="translate(11.6406,0)"><title>Sheet.1007</title><path d="M20.98 547.09 C16.37 546.31 16.19 542.72 16.19 536.93 L7.06 536.93 C7.06 542.72 6.91 546.31 2.3 547.09 A2.58681 2.79991 -180 0 0 0 549.89 L23.28 549.89 A2.58681 2.79991 -180 0 0 20.98 547.09 Z" class="st32"/></g></g><g id="shape1082-152" transform="translate(216.73,-270.432)"><title>Sheet.1082</title><rect width="212.125" height="138.938" x="0" y="410.955" class="st19"/></g><g id="shape1083-154" transform="translate(255.923,-295.981)"><title>Sheet.1083</title><desc>Windows Server Update Service virtual machine</desc><rect width="136.703" height="34.011" x="0" y="515.881" class="st7"/><text x="10.06" y="529.59" class="st13">Windows Server Update <tspan x="12.75" class="st9" dy="1.2em">Service virtual machine</tspan></text></g><g id="shape1084-158" transform="translate(217.601,-389.465)"><title>Sheet.1084</title><desc>snet-wsus</desc><rect width="81" height="18.233" x="0" y="531.659" class="st7"/><text x="4" y="544.08" class="st18">snet-wsus</text></g><g id="group1115-161" transform="translate(416.39,-397.013)"><title>Network Security Groups.1115</title><g id="shape1116-162"><title>Sheet.1116</title><path d="M18.67 537.94 C18.67 543.97 11.25 548.82 9.64 549.81 a0.583475 0.572661 0 0 1 -0.608844 0 C7.42 548.82 0 543.97 0 537.94 L0 530.7 a0.583475 0.572661 0 0 1 0.570791 -0.572661 C6.34 529.98 5.01 527.49 9.34 527.49 C13.66 527.49 12.33 529.98 18.1 530.13 a0.583475 0.572661 0 0 1 0.570791 0.572661 L18.67 537.94 Z" class="st3"/></g><g id="shape1117-164" transform="translate(0.773739,-0.92999)"><title>Sheet.1117</title><path d="M17.12 538.94 C17.12 544.46 10.32 548.9 8.84 549.82 a0.545422 0.535313 0 0 1 -0.558107 0 C6.8 548.92 0 544.46 0 538.94 L0 532.29 a0.532738 0.522864 0 0 1 0.520054 -0.522864 C5.81 531.63 4.59 529.35 8.56 529.35 C12.53 529.35 11.31 531.63 16.6 531.77 a0.532738 0.522864 0 0 1 0.520054 0.522864 L17.12 538.94 Z" class="st25"/></g><g id="shape1118-166" transform="translate(0.811791,-0.930663)"><title>Sheet.1118</title><path d="M8.52 539.62 L8.52 529.35 C12.49 529.35 11.28 531.63 16.57 531.77 a0.545422 0.535313 0 0 1 0.520054 0.535313 L17.09 538.95 A6.20259 6.08763 0 0 1 17.09 539.62 L8.52 539.62 ZM8.52 539.62 L0 539.62 C0.51 544.83 6.82 548.96 8.24 549.82 a0.494685 0.485517 -180 0 0 0.228316 0.0746949 L8.52 549.89 L8.52 539.62 Z" class="st26"/></g><g id="shape1119-169" transform="translate(0.802329,-0.930663)"><title>Sheet.1119</title><path d="M0.49 531.77 C5.78 531.63 4.56 529.35 8.53 529.35 L8.53 539.62 L0.01 539.62 A6.20259 6.08763 0 0 1 0.01 538.95 L0.01 532.3 a0.545422 0.535313 0 0 1 0.482001 -0.535313 ZM17.06 539.62 L8.53 539.62 L8.53 549.89 a0.494685 0.485517 -180 0 0 0.228316 -0.0746949 C10.23 548.96 16.55 544.83 17.06 539.62 Z" class="st27"/></g></g><g id="shape1037-171" transform="translate(397.601,-417.395)"><title>Sheet.1037</title><desc>nsg-ds</desc><rect width="56.25" height="20.023" x="0" y="529.869" class="st7"/><text x="14.39" y="542.58" class="st33">nsg-ds</text></g><g id="group1153-174" transform="translate(230.05,-78.8691)"><title>Sheet.1153</title><g id="group1144-175"><title>Sheet.1144</title><g id="group1087-176" transform="translate(11.1875,-27.1081)"><title>Virtual Machine.1087</title><g id="shape1088-177" transform="translate(0,-8.59599)"><title>Sheet.1088</title><path d="M0 548.78 A1.02919 1.11398 -180 0 0 1.03 549.89 L29.85 549.89 A1.02919 1.11398 -180 0 0 30.88 548.78 L30.88 528.73 A1.02919 1.11398 -180 0 0 29.85 527.61 L1.03 527.61 A1.02919 1.11398 -180 0 0 -0 528.73 L0 548.78 Z" class="st14"/></g><g id="shape1089-180" transform="translate(15.4375,-13.2375)"><title>Sheet.1089</title><path d="M5.15 540.15 L5.15 546.62 L0 549.89 L0 543.39 L5.15 540.15 Z" class="st27"/></g><g id="shape1090-182" transform="translate(10.2917,-19.7169)"><title>Sheet.1090</title><path d="M10.29 546.62 L5.15 549.89 L0 546.62 L5.15 543.38 L10.29 546.62 Z" class="st30"/></g><g id="shape1091-184" transform="translate(10.2917,-13.2375)"><title>Sheet.1091</title><path d="M5.15 543.41 L5.15 549.89 L0 546.62 L0 540.15 L5.15 543.41 Z" class="st31"/></g><g id="shape1092-186" transform="translate(10.2917,-13.2375)"><title>Sheet.1092</title><path d="M0 546.62 L5.15 543.39 L5.15 549.89 L0 546.62 Z" class="st30"/></g><g id="shape1093-188" transform="translate(15.4375,-13.2375)"><title>Sheet.1093</title><path d="M5.15 546.62 L0 543.39 L0 549.89 L5.15 546.62 Z" class="st31"/></g><g id="shape1094-190" transform="translate(7.71875,0)"><title>Sheet.1094</title><path d="M13.91 548.04 C10.86 547.52 10.74 545.14 10.74 541.3 L4.68 541.3 C4.68 545.14 4.58 547.52 1.53 548.04 A1.71528 1.85658 -180 0 0 -0 549.89 L15.44 549.89 A1.71528 1.85658 -180 0 0 13.91 548.04 Z" class="st32"/></g></g><g id="shape1111-193"><title>Sheet.1111</title><desc>Virtual machine</desc><rect width="53.25" height="18.233" x="0" y="531.659" class="st7"/><text x="10.86" y="537.48" class="st13">Virtual <tspan x="6.12" class="st9" dy="1.2em">machine</tspan></text></g></g><g id="group1145-197" transform="translate(64.6354,0)"><title>Sheet.1145</title><g id="shape1112-198"><title>Sheet.1112</title><desc>Virtual machine</desc><rect width="56.7" height="18.233" x="0" y="531.659" class="st7"/><text x="12.58" y="537.48" class="st13">Virtual <tspan x="7.84" class="st9" dy="1.2em">machine</tspan></text></g><g id="group1128-202" transform="translate(12.9125,-27.1081)"><title>Virtual Machine.1128</title><g id="shape1129-203" transform="translate(0,-8.59599)"><title>Sheet.1129</title><path d="M0 548.78 A1.02919 1.11398 -180 0 0 1.03 549.89 L29.85 549.89 A1.02919 1.11398 -180 0 0 30.88 548.78 L30.88 528.73 A1.02919 1.11398 -180 0 0 29.85 527.61 L1.03 527.61 A1.02919 1.11398 -180 0 0 -0 528.73 L0 548.78 Z" class="st14"/></g><g id="shape1130-206" transform="translate(15.4375,-13.2375)"><title>Sheet.1130</title><path d="M5.15 540.15 L5.15 546.62 L0 549.89 L0 543.39 L5.15 540.15 Z" class="st27"/></g><g id="shape1131-208" transform="translate(10.2917,-19.7169)"><title>Sheet.1131</title><path d="M10.29 546.62 L5.15 549.89 L0 546.62 L5.15 543.38 L10.29 546.62 Z" class="st30"/></g><g id="shape1132-210" transform="translate(10.2917,-13.2375)"><title>Sheet.1132</title><path d="M5.15 543.41 L5.15 549.89 L0 546.62 L0 540.15 L5.15 543.41 Z" class="st31"/></g><g id="shape1133-212" transform="translate(10.2917,-13.2375)"><title>Sheet.1133</title><path d="M0 546.62 L5.15 543.39 L5.15 549.89 L0 546.62 Z" class="st30"/></g><g id="shape1134-214" transform="translate(15.4375,-13.2375)"><title>Sheet.1134</title><path d="M5.15 546.62 L0 543.39 L0 549.89 L5.15 546.62 Z" class="st31"/></g><g id="shape1135-216" transform="translate(7.71875,0)"><title>Sheet.1135</title><path d="M13.91 548.04 C10.86 547.52 10.74 545.14 10.74 541.3 L4.68 541.3 C4.68 545.14 4.58 547.52 1.53 548.04 A1.71528 1.85658 -180 0 0 -0 549.89 L15.44 549.89 A1.71528 1.85658 -180 0 0 13.91 548.04 Z" class="st32"/></g></g></g><g id="group1146-219" transform="translate(132.721,-1.13687E-13)"><title>Sheet.1146</title><g id="shape1113-220"><title>Sheet.1113</title><desc>Virtual machine</desc><rect width="56.7" height="18.233" x="0" y="531.659" class="st7"/><text x="12.58" y="537.48" class="st13">Virtual <tspan x="7.84" class="st9" dy="1.2em">machine</tspan></text></g><g id="group1136-224" transform="translate(12.9125,-27.1081)"><title>Virtual Machine.1136</title><g id="shape1137-225" transform="translate(0,-8.59599)"><title>Sheet.1137</title><path d="M0 548.78 A1.02919 1.11398 -180 0 0 1.03 549.89 L29.85 549.89 A1.02919 1.11398 -180 0 0 30.88 548.78 L30.88 528.73 A1.02919 1.11398 -180 0 0 29.85 527.61 L1.03 527.61 A1.02919 1.11398 -180 0 0 -0 528.73 L0 548.78 Z" class="st14"/></g><g id="shape1138-228" transform="translate(15.4375,-13.2375)"><title>Sheet.1138</title><path d="M5.15 540.15 L5.15 546.62 L0 549.89 L0 543.39 L5.15 540.15 Z" class="st27"/></g><g id="shape1139-230" transform="translate(10.2917,-19.7169)"><title>Sheet.1139</title><path d="M10.29 546.62 L5.15 549.89 L0 546.62 L5.15 543.38 L10.29 546.62 Z" class="st30"/></g><g id="shape1140-232" transform="translate(10.2917,-13.2375)"><title>Sheet.1140</title><path d="M5.15 543.41 L5.15 549.89 L0 546.62 L0 540.15 L5.15 543.41 Z" class="st31"/></g><g id="shape1141-234" transform="translate(10.2917,-13.2375)"><title>Sheet.1141</title><path d="M0 546.62 L5.15 543.39 L5.15 549.89 L0 546.62 Z" class="st30"/></g><g id="shape1142-236" transform="translate(15.4375,-13.2375)"><title>Sheet.1142</title><path d="M5.15 546.62 L0 543.39 L0 549.89 L5.15 546.62 Z" class="st31"/></g><g id="shape1143-238" transform="translate(7.71875,0)"><title>Sheet.1143</title><path d="M13.91 548.04 C10.86 547.52 10.74 545.14 10.74 541.3 L4.68 541.3 C4.68 545.14 4.58 547.52 1.53 548.04 A1.71528 1.85658 -180 0 0 -0 549.89 L15.44 549.89 A1.71528 1.85658 -180 0 0 13.91 548.04 Z" class="st32"/></g></g></g></g><g id="shape1154-241" transform="translate(212.956,732.384) rotate(180)"><title>Directed line 1.1154</title><path d="M0 549.89 L74.99 549.89" class="st34"/></g><g id="shape1156-247" transform="translate(98.5684,-397.013)"><title>Sheet.1156</title><desc>ü</desc><rect width="33.75" height="18.563" x="0" y="531.33" class="st7"/><text x="9.8" y="546.01" class="st35">ü</text></g><g id="shape1157-250" transform="translate(120.052,-389.465)"><title>Sheet.1157</title><desc>Windows Update</desc><rect width="94.427" height="36" x="0" y="513.892" class="st7"/><text x="5.57" y="535.28" class="st36">Windows Update</text></g><g id="shape1158-253" transform="translate(168.324,-50.5406)"><title>Sheet.1158</title><rect width="296.088" height="136.551" x="0" y="413.341" class="st10" rx="4.5" ry="4.5"/></g><g id="shape1159-255" transform="translate(33.5676,-426.108)"><title>Sheet.1159</title><desc>Hub</desc><rect width="81" height="18.233" x="0" y="531.659" class="st7"/><text x="4" y="544.08" class="st18">Hub</text></g><g id="shape1160-258" transform="translate(168.811,-169.73)"><title>Sheet.1160</title><desc>Spoke</desc><rect width="81" height="18.233" x="0" y="531.659" class="st7"/><text x="4" y="544.08" class="st18">Spoke</text></g><g id="shape1163-261" transform="translate(795.872,303.085) rotate(90)"><title>Directed line 1.1163</title><desc>Peered</desc><path d="M0 549.89 L62.72 549.89" class="st37"/><rect width="23.066" height="9.6" x="-42.892" y="-572.294" class="st38" transform="rotate(180)"/><text x="-42.89" y="-565.09" class="st39" transform="rotate(180)">Peered</text></g><g id="group1164-266" transform="translate(431.027,-249.081)"><title>VNet WhiteBCK2.1164</title><g id="shape1165-267" transform="translate(2.84562,-1.06711)"><title>Sheet.1165</title><rect width="20.809" height="14.406" x="0" y="535.486" class="st21"/></g><g id="group1166-269"><title>Sheet.1166</title><g id="group1167-270"><title>Page-1</title><g id="group1168-271"><title>Virtual Network.16823</title><g id="group1169-272"><title>Sheet.1169</title><g id="group1170-273" transform="translate(6.74292,-6.83735)"><title>Sheet.1170</title><g id="shape1171-274"><title>Sheet.1171</title><path d="M14.02 548.65 A1.73372 1.72998 90 1 1 12.29 546.92 A1.73222 1.72848 90 0 1 14.02 548.65 ZM6.75 546.93 A1.73372 1.72998 -90 1 0 8.48 548.66 A1.73222 1.72848 -90 0 0 6.75 546.93 ZM1.22 546.93 A1.73372 1.72998 -90 1 0 2.95 548.67 A1.73372 1.72998 -90 0 0 1.22 546.94 L1.22 546.93 Z" class="st22"/></g></g><g id="group1172-277" transform="translate(0.00597543,0)"><title>Sheet.1172</title><g id="shape1173-278"><title>Sheet.1173</title><path d="M9.23 548.77 L8.24 549.76 a0.44915 0.448181 90 0 1 -0.633431 0 L0.26 542.43 a0.898301 0.896361 90 0 1 1.44329E-15 -1.27104 L1.25 540.17 L9.23 548.13 a0.44915 0.448181 90 0 1 5.32907E-15 0.636295 L9.23 548.77 Z" class="st23"/></g></g><g id="group1174-280" transform="translate(0,-6.48539)"><title>Sheet.1174</title><g id="shape1175-281"><title>Sheet.1175</title><path d="M8.09 540.38 L9.09 541.38 a0.44915 0.448181 90 0 1 1.77636E-15 0.636295 L1.26 549.89 L0.26 548.9 a0.898301 0.896361 90 0 1 -3.33067E-16 -1.27104 L7.47 540.39 a0.44915 0.448181 90 0 1 0.634925 1.13687E-13 L8.09 540.38 Z" class="st24"/></g></g><g id="group1176-283" transform="translate(17.5205,-0.00299433)"><title>Sheet.1176</title><g id="shape1177-284"><title>Sheet.1177</title><path d="M8.1 540.17 L9.09 541.16 a0.898301 0.896361 90 0 1 0 1.27104 L1.75 549.76 a0.44915 0.448181 90 0 1 -0.633431 0 L0.13 548.76 a0.44915 0.448181 90 0 1 -4.16334E-15 -0.634797 L8.1 540.17 Z" class="st23"/></g></g><g id="group1178-286" transform="translate(17.6639,-6.48985)"><title>Sheet.1178</title><g id="shape1179-287"><title>Sheet.1179</title><path d="M8.96 548.9 L7.97 549.89 L0.13 542.02 a0.44915 0.448181 90 0 1 -8.10463E-15 -0.634797 L1.13 540.38 a0.44915 0.448181 90 0 1 0.633431 0 L8.97 547.62 a0.898301 0.896361 90 0 1 -0.0047427 1.27104 L8.96 548.9 Z" class="st24"/></g></g></g></g></g></g></g></g></svg>