<svg xmlns="http://www.w3.org/2000/svg" xmlns:svg="http://www.w3.org/2000/svg" xmlns:xlink="http://www.w3.org/1999/xlink" id="svg48" width="400" height="235pt" class="st14" color-interpolation-filters="sRGB" version="1.1" viewBox="0 0 300 235" xml:space="preserve" style="background-color:#fff"><style id="style1" type="text/css">.st1{fill:none;stroke:none;stroke-linecap:round;stroke-linejoin:round;stroke-width:1}.st2{fill:#0070c0;font-family:Segoe UI Semibold;font-size:1.33333em}.st3{fill:#fff;stroke:#595959;stroke-linecap:round;stroke-linejoin:round;stroke-width:1.5}.st4{fill:#e00}.st4,.st5{stroke:#0c0c0c;stroke-linecap:round;stroke-linejoin:round;stroke-width:1}.st5,.st6{fill:#fff}.st7,.st8{stroke-linecap:round;stroke-linejoin:round;stroke-width:1.5}.st7{stroke:#0070c0}.st8{fill:#fff}.st10,.st8,.st9{stroke:#0070c0}.st9{marker-start:url(#mrkr4-87);stroke-linecap:round;stroke-linejoin:round;stroke-width:1.5}.st10{fill:#0070c0;fill-opacity:1;stroke-opacity:1;stroke-width:.37313432835821}.st11{fill:#0070c0;stroke:none;stroke-linecap:round;stroke-linejoin:round;stroke-width:1}.st12{fill:#fff;font-family:Segoe UI Semibold;font-size:1.08334em}.st13{marker-end:url(#mrkr4-96);stroke:#0070c0;stroke-linecap:round;stroke-linejoin:round;stroke-width:1.5}.st14{fill:none;fill-rule:evenodd;font-size:12px;overflow:visible;stroke-linecap:square;stroke-miterlimit:3}</style><defs id="Markers"><g id="lend4"><path style="stroke:none" id="path1" d="M 2,1 0,0 2,-1 v 2"/></g><marker id="mrkr4-87" class="st10" markerUnits="strokeWidth" orient="auto" overflow="visible" refX="5.12"><use id="use1" transform="scale(2.68)" xlink:href="#lend4"/></marker><marker id="mrkr4-96" class="st10" markerUnits="strokeWidth" orient="auto" overflow="visible" refX="-5.36"><use id="use2" transform="scale(-2.68)" xlink:href="#lend4"/></marker></defs><g id="g48" transform="matrix(0.75247366,0,0,0.75247366,-37.347485,12.989537)"><title id="title2">Page-1</title><g id="shape31-1" transform="translate(230.518,-0.5)"><title id="title3">Sheet.31</title><desc id="desc3">Data store</desc><rect id="rect3" width="245.699" height="32.329" x="0" y="252.769" class="st1"/><text id="text3" x="85.34" y="273.73" class="st2">Data store</text></g><g id="shape33-4" transform="translate(72.5461,-56.5368)"><title id="title4">Round Corner Rectangle.33</title><path id="path4" d="m 10.16,285.1 h 81.29 a 10.1605,10.1605 -180 0 0 10.16,-10.16 V 209 A 10.1605,10.1605 -180 0 0 91.45,198.84 H 10.16 A 10.1605,10.1605 -180 0 0 0,209 v 65.94 a 10.1605,10.1605 -180 0 0 10.16,10.16 z" class="st3"/></g><g id="shape34-6" transform="translate(81.5039,-113.014)"><title id="title5">Round Corner Rectangle.34</title><path id="path5" d="m 1.85,285.1 h 14.81 a 1.85111,1.85111 -180 0 0 1.85,-1.85 v -8.37 a 1.85111,1.85111 -180 0 0 -1.85,-1.85 H 1.85 A 1.85111,1.85111 -180 0 0 0,274.88 v 8.37 a 1.85111,1.85111 -180 0 0 1.85,1.85 z" class="st4"/></g><g id="shape35-8" transform="translate(103.498,-113.014)"><title id="title6">Round Corner Rectangle.35</title><path id="path6" d="m 1.85,285.1 h 14.81 a 1.85111,1.85111 -180 0 0 1.85,-1.85 v -8.37 a 1.85111,1.85111 -180 0 0 -1.85,-1.85 H 1.85 A 1.85111,1.85111 -180 0 0 0,274.88 v 8.37 a 1.85111,1.85111 -180 0 0 1.85,1.85 z" class="st5"/></g><g id="shape36-10" transform="translate(125.491,-113.014)"><title id="title7">Round Corner Rectangle.36</title><path id="path7" d="m 1.85,285.1 h 14.81 a 1.85111,1.85111 -180 0 0 1.85,-1.85 v -8.37 a 1.85111,1.85111 -180 0 0 -1.85,-1.85 H 1.85 A 1.85111,1.85111 -180 0 0 0,274.88 v 8.37 a 1.85111,1.85111 -180 0 0 1.85,1.85 z" class="st5"/></g><g id="shape37-12" transform="translate(147.485,-113.014)"><title id="title8">Round Corner Rectangle.37</title><path id="path8" d="m 1.85,285.1 h 14.81 a 1.85111,1.85111 -180 0 0 1.85,-1.85 v -8.37 a 1.85111,1.85111 -180 0 0 -1.85,-1.85 H 1.85 A 1.85111,1.85111 -180 0 0 0,274.88 v 8.37 a 1.85111,1.85111 -180 0 0 1.85,1.85 z" class="st5"/></g><g id="shape38-14" transform="translate(81.7162,-97.339)"><title id="title9">Round Corner Rectangle.38</title><path id="path9" d="m 1.85,285.1 h 14.81 a 1.85111,1.85111 -180 0 0 1.85,-1.85 v -8.37 a 1.85111,1.85111 -180 0 0 -1.85,-1.85 H 1.85 A 1.85111,1.85111 -180 0 0 0,274.88 v 8.37 a 1.85111,1.85111 -180 0 0 1.85,1.85 z" class="st5"/></g><g id="shape39-16" transform="translate(103.71,-97.339)"><title id="title10">Round Corner Rectangle.39</title><path id="path10" d="m 1.85,285.1 h 14.81 a 1.85111,1.85111 -180 0 0 1.85,-1.85 v -8.37 a 1.85111,1.85111 -180 0 0 -1.85,-1.85 H 1.85 A 1.85111,1.85111 -180 0 0 0,274.88 v 8.37 a 1.85111,1.85111 -180 0 0 1.85,1.85 z" class="st5"/></g><g id="shape40-18" transform="translate(125.704,-97.339)"><title id="title11">Round Corner Rectangle.40</title><path id="path11" d="m 1.85,285.1 h 14.81 a 1.85111,1.85111 -180 0 0 1.85,-1.85 v -8.37 a 1.85111,1.85111 -180 0 0 -1.85,-1.85 H 1.85 A 1.85111,1.85111 -180 0 0 0,274.88 v 8.37 a 1.85111,1.85111 -180 0 0 1.85,1.85 z" class="st5"/></g><g id="shape41-20" transform="translate(147.697,-97.339)"><title id="title12">Round Corner Rectangle.41</title><path id="path12" d="m 1.85,285.1 h 14.81 a 1.85111,1.85111 -180 0 0 1.85,-1.85 v -8.37 a 1.85111,1.85111 -180 0 0 -1.85,-1.85 H 1.85 A 1.85111,1.85111 -180 0 0 0,274.88 v 8.37 a 1.85111,1.85111 -180 0 0 1.85,1.85 z" class="st5"/></g><g id="shape42-22" transform="translate(81.7162,-80.4578)"><title id="title13">Round Corner Rectangle.42</title><path id="path13" d="m 1.85,285.1 h 14.81 a 1.85111,1.85111 -180 0 0 1.85,-1.85 v -8.37 a 1.85111,1.85111 -180 0 0 -1.85,-1.85 H 1.85 A 1.85111,1.85111 -180 0 0 0,274.88 v 8.37 a 1.85111,1.85111 -180 0 0 1.85,1.85 z" class="st5"/></g><g id="shape43-24" transform="translate(103.71,-80.4578)"><title id="title14">Round Corner Rectangle.43</title><path id="path14" d="m 1.85,285.1 h 14.81 a 1.85111,1.85111 -180 0 0 1.85,-1.85 v -8.37 a 1.85111,1.85111 -180 0 0 -1.85,-1.85 H 1.85 A 1.85111,1.85111 -180 0 0 0,274.88 v 8.37 a 1.85111,1.85111 -180 0 0 1.85,1.85 z" class="st5"/></g><g id="shape44-26" transform="translate(125.704,-80.4578)"><title id="title15">Round Corner Rectangle.44</title><path id="path15" d="m 1.85,285.1 h 14.81 a 1.85111,1.85111 -180 0 0 1.85,-1.85 v -8.37 a 1.85111,1.85111 -180 0 0 -1.85,-1.85 H 1.85 A 1.85111,1.85111 -180 0 0 0,274.88 v 8.37 a 1.85111,1.85111 -180 0 0 1.85,1.85 z" class="st5"/></g><g id="shape45-28" transform="translate(147.697,-80.4578)"><title id="title16">Round Corner Rectangle.45</title><path id="path16" d="m 1.85,285.1 h 14.81 a 1.85111,1.85111 -180 0 0 1.85,-1.85 v -8.37 a 1.85111,1.85111 -180 0 0 -1.85,-1.85 H 1.85 A 1.85111,1.85111 -180 0 0 0,274.88 v 8.37 a 1.85111,1.85111 -180 0 0 1.85,1.85 z" class="st5"/></g><g id="shape46-30" transform="translate(81.9284,-64.7824)"><title id="title17">Round Corner Rectangle.46</title><path id="path17" d="m 1.85,285.1 h 14.81 a 1.85111,1.85111 -180 0 0 1.85,-1.85 v -8.37 a 1.85111,1.85111 -180 0 0 -1.85,-1.85 H 1.85 A 1.85111,1.85111 -180 0 0 0,274.88 v 8.37 a 1.85111,1.85111 -180 0 0 1.85,1.85 z" class="st5"/></g><g id="shape47-32" transform="translate(103.922,-64.7824)"><title id="title18">Round Corner Rectangle.47</title><path id="path18" d="m 1.85,285.1 h 14.81 a 1.85111,1.85111 -180 0 0 1.85,-1.85 v -8.37 a 1.85111,1.85111 -180 0 0 -1.85,-1.85 H 1.85 A 1.85111,1.85111 -180 0 0 0,274.88 v 8.37 a 1.85111,1.85111 -180 0 0 1.85,1.85 z" class="st5"/></g><g id="shape48-34" transform="translate(125.916,-64.7824)"><title id="title19">Round Corner Rectangle.48</title><path id="path19" d="m 1.85,285.1 h 14.81 a 1.85111,1.85111 -180 0 0 1.85,-1.85 v -8.37 a 1.85111,1.85111 -180 0 0 -1.85,-1.85 H 1.85 A 1.85111,1.85111 -180 0 0 0,274.88 v 8.37 a 1.85111,1.85111 -180 0 0 1.85,1.85 z" class="st5"/></g><g id="shape49-36" transform="translate(147.91,-64.7824)"><title id="title20">Round Corner Rectangle.49</title><path id="path20" d="m 1.85,285.1 h 14.81 a 1.85111,1.85111 -180 0 0 1.85,-1.85 v -8.37 a 1.85111,1.85111 -180 0 0 -1.85,-1.85 H 1.85 A 1.85111,1.85111 -180 0 0 0,274.88 v 8.37 a 1.85111,1.85111 -180 0 0 1.85,1.85 z" class="st5"/></g><g id="shape50-38" transform="translate(0.5,-23.6647)"><title id="title21">Sheet.50</title><desc id="desc21">Cache</desc><rect id="rect21" width="245.699" height="32.329" x="0" y="252.769" class="st1"/><text id="text21" x="101.04" y="273.73" class="st2">Cache</text></g><g id="shape51-41" transform="translate(281.872,-34.6465)"><title id="title22">Datastore</title><path id="path22" d="m 0,139.84 v 127.38 a 71.495,17.873775 -180 1 0 142.99,0 V 139.84 A 71.495,17.873775 -180 0 0 0,139.84 Z" class="st6"/><path id="path23" d="m 0,139.84 v 127.38 a 71.495,17.873775 -180 1 0 142.99,0 V 139.84 A 71.495,17.873775 -180 0 0 0,139.84" class="st7"/><path id="path24" d="m 0,139.84 a 71.495,17.873775 -180 0 0 142.99,0" class="st7"/></g><g id="shape52-45" transform="translate(302.564,-58.8278)"><title id="title24">Round Corner Rectangle.5</title><path id="path25" d="m 10.16,285.1 h 81.29 a 10.1605,10.1605 -180 0 0 10.16,-10.16 V 209 A 10.1605,10.1605 -180 0 0 91.45,198.84 H 10.16 A 10.1605,10.1605 -180 0 0 0,209 v 65.94 a 10.1605,10.1605 -180 0 0 10.16,10.16 z" class="st8"/></g><g id="shape53-47" transform="translate(311.522,-115.305)"><title id="title25">Round Corner Rectangle.6</title><path id="path26" d="m 1.85,285.1 h 14.81 a 1.85111,1.85111 -180 0 0 1.85,-1.85 v -8.37 a 1.85111,1.85111 -180 0 0 -1.85,-1.85 H 1.85 A 1.85111,1.85111 -180 0 0 0,274.88 v 8.37 a 1.85111,1.85111 -180 0 0 1.85,1.85 z" class="st4"/></g><g id="shape54-49" transform="translate(333.516,-115.305)"><title id="title26">Round Corner Rectangle.7</title><path id="path27" d="m 1.85,285.1 h 14.81 a 1.85111,1.85111 -180 0 0 1.85,-1.85 v -8.37 a 1.85111,1.85111 -180 0 0 -1.85,-1.85 H 1.85 A 1.85111,1.85111 -180 0 0 0,274.88 v 8.37 a 1.85111,1.85111 -180 0 0 1.85,1.85 z" class="st5"/></g><g id="shape55-51" transform="translate(355.509,-115.305)"><title id="title27">Round Corner Rectangle.8</title><path id="path28" d="m 1.85,285.1 h 14.81 a 1.85111,1.85111 -180 0 0 1.85,-1.85 v -8.37 a 1.85111,1.85111 -180 0 0 -1.85,-1.85 H 1.85 A 1.85111,1.85111 -180 0 0 0,274.88 v 8.37 a 1.85111,1.85111 -180 0 0 1.85,1.85 z" class="st5"/></g><g id="shape56-53" transform="translate(377.503,-115.305)"><title id="title28">Round Corner Rectangle.9</title><path id="path29" d="m 1.85,285.1 h 14.81 a 1.85111,1.85111 -180 0 0 1.85,-1.85 v -8.37 a 1.85111,1.85111 -180 0 0 -1.85,-1.85 H 1.85 A 1.85111,1.85111 -180 0 0 0,274.88 v 8.37 a 1.85111,1.85111 -180 0 0 1.85,1.85 z" class="st5"/></g><g id="shape57-55" transform="translate(311.734,-99.6299)"><title id="title29">Round Corner Rectangle.18</title><path id="path30" d="m 1.85,285.1 h 14.81 a 1.85111,1.85111 -180 0 0 1.85,-1.85 v -8.37 a 1.85111,1.85111 -180 0 0 -1.85,-1.85 H 1.85 A 1.85111,1.85111 -180 0 0 0,274.88 v 8.37 a 1.85111,1.85111 -180 0 0 1.85,1.85 z" class="st5"/></g><g id="shape58-57" transform="translate(333.728,-99.6299)"><title id="title30">Round Corner Rectangle.19</title><path id="path31" d="m 1.85,285.1 h 14.81 a 1.85111,1.85111 -180 0 0 1.85,-1.85 v -8.37 a 1.85111,1.85111 -180 0 0 -1.85,-1.85 H 1.85 A 1.85111,1.85111 -180 0 0 0,274.88 v 8.37 a 1.85111,1.85111 -180 0 0 1.85,1.85 z" class="st5"/></g><g id="shape59-59" transform="translate(355.722,-99.6299)"><title id="title31">Round Corner Rectangle.20</title><path id="path32" d="m 1.85,285.1 h 14.81 a 1.85111,1.85111 -180 0 0 1.85,-1.85 v -8.37 a 1.85111,1.85111 -180 0 0 -1.85,-1.85 H 1.85 A 1.85111,1.85111 -180 0 0 0,274.88 v 8.37 a 1.85111,1.85111 -180 0 0 1.85,1.85 z" class="st5"/></g><g id="shape60-61" transform="translate(377.715,-99.6299)"><title id="title32">Round Corner Rectangle.21</title><path id="path33" d="m 1.85,285.1 h 14.81 a 1.85111,1.85111 -180 0 0 1.85,-1.85 v -8.37 a 1.85111,1.85111 -180 0 0 -1.85,-1.85 H 1.85 A 1.85111,1.85111 -180 0 0 0,274.88 v 8.37 a 1.85111,1.85111 -180 0 0 1.85,1.85 z" class="st5"/></g><g id="shape61-63" transform="translate(311.734,-82.7488)"><title id="title33">Round Corner Rectangle.22</title><path id="path34" d="m 1.85,285.1 h 14.81 a 1.85111,1.85111 -180 0 0 1.85,-1.85 v -8.37 a 1.85111,1.85111 -180 0 0 -1.85,-1.85 H 1.85 A 1.85111,1.85111 -180 0 0 0,274.88 v 8.37 a 1.85111,1.85111 -180 0 0 1.85,1.85 z" class="st5"/></g><g id="shape62-65" transform="translate(333.728,-82.7488)"><title id="title34">Round Corner Rectangle.23</title><path id="path35" d="m 1.85,285.1 h 14.81 a 1.85111,1.85111 -180 0 0 1.85,-1.85 v -8.37 a 1.85111,1.85111 -180 0 0 -1.85,-1.85 H 1.85 A 1.85111,1.85111 -180 0 0 0,274.88 v 8.37 a 1.85111,1.85111 -180 0 0 1.85,1.85 z" class="st5"/></g><g id="shape63-67" transform="translate(355.722,-82.7488)"><title id="title35">Round Corner Rectangle.24</title><path id="path36" d="m 1.85,285.1 h 14.81 a 1.85111,1.85111 -180 0 0 1.85,-1.85 v -8.37 a 1.85111,1.85111 -180 0 0 -1.85,-1.85 H 1.85 A 1.85111,1.85111 -180 0 0 0,274.88 v 8.37 a 1.85111,1.85111 -180 0 0 1.85,1.85 z" class="st5"/></g><g id="shape64-69" transform="translate(377.715,-82.7488)"><title id="title36">Round Corner Rectangle.25</title><path id="path37" d="m 1.85,285.1 h 14.81 a 1.85111,1.85111 -180 0 0 1.85,-1.85 v -8.37 a 1.85111,1.85111 -180 0 0 -1.85,-1.85 H 1.85 A 1.85111,1.85111 -180 0 0 0,274.88 v 8.37 a 1.85111,1.85111 -180 0 0 1.85,1.85 z" class="st5"/></g><g id="shape65-71" transform="translate(311.946,-67.0734)"><title id="title37">Round Corner Rectangle.26</title><path id="path38" d="m 1.85,285.1 h 14.81 a 1.85111,1.85111 -180 0 0 1.85,-1.85 v -8.37 a 1.85111,1.85111 -180 0 0 -1.85,-1.85 H 1.85 A 1.85111,1.85111 -180 0 0 0,274.88 v 8.37 a 1.85111,1.85111 -180 0 0 1.85,1.85 z" class="st5"/></g><g id="shape66-73" transform="translate(333.94,-67.0734)"><title id="title38">Round Corner Rectangle.27</title><path id="path39" d="m 1.85,285.1 h 14.81 a 1.85111,1.85111 -180 0 0 1.85,-1.85 v -8.37 a 1.85111,1.85111 -180 0 0 -1.85,-1.85 H 1.85 A 1.85111,1.85111 -180 0 0 0,274.88 v 8.37 a 1.85111,1.85111 -180 0 0 1.85,1.85 z" class="st5"/></g><g id="shape67-75" transform="translate(355.934,-67.0734)"><title id="title39">Round Corner Rectangle.28</title><path id="path40" d="m 1.85,285.1 h 14.81 a 1.85111,1.85111 -180 0 0 1.85,-1.85 v -8.37 a 1.85111,1.85111 -180 0 0 -1.85,-1.85 H 1.85 A 1.85111,1.85111 -180 0 0 0,274.88 v 8.37 a 1.85111,1.85111 -180 0 0 1.85,1.85 z" class="st5"/></g><g id="shape68-77" transform="translate(377.927,-67.0734)"><title id="title40">Round Corner Rectangle.29</title><path id="path41" d="m 1.85,285.1 h 14.81 a 1.85111,1.85111 -180 0 0 1.85,-1.85 v -8.37 a 1.85111,1.85111 -180 0 0 -1.85,-1.85 H 1.85 A 1.85111,1.85111 -180 0 0 0,274.88 v 8.37 a 1.85111,1.85111 -180 0 0 1.85,1.85 z" class="st5"/></g><g id="shape69-79" transform="translate(72.5461,-239.512)"><title id="title41">Round Corner Rectangle.69</title><desc id="desc41">App</desc><path id="path42" d="m 10.16,285.1 h 81.29 a 10.1605,10.1605 -180 0 0 10.16,-10.16 V 250.42 A 10.1605,10.1605 -180 0 0 91.45,240.26 H 10.16 A 10.1605,10.1605 -180 0 0 0,250.42 v 24.52 a 10.1605,10.1605 -180 0 0 10.16,10.16 z" class="st3"/><text id="text42" x="35.79" y="267.48" class="st2">App</text></g><g id="shape71-82" transform="translate(107.5,-225.274)"><title id="title42">Dynamic connector</title><path id="path43" d="m 7.09,292.78 v 0.36 65.27" class="st9"/></g><g id="shape73-88" transform="translate(77.9299,-180.404)"><title id="title43">Circle</title><desc id="desc43">1</desc><path id="path44" d="m 0,272.73 a 12.3715,12.3715 0 0 1 24.74,0 12.3715,12.3715 0 1 1 -24.74,0 z" class="st11"/><text id="text44" x="9.76" y="276.63" class="st12">1</text></g><g id="shape74-91" transform="translate(312.064,-126.829)"><title id="title44">Dynamic connector.74</title><path id="path45" d="M 0,285.1 -122.58,182.65" class="st13"/></g><g id="shape75-97" transform="translate(125.828,-225.274)"><title id="title45">Dynamic connector.75</title><path id="path46" d="m 7.09,285.1 v 65.27" class="st13"/></g><g id="shape77-102" transform="translate(227.304,-202.364)"><title id="title46">Circle.77</title><desc id="desc46">2</desc><path id="path47" d="m 0,272.73 a 12.3715,12.3715 0 0 1 24.74,0 12.3715,12.3715 0 1 1 -24.74,0 z" class="st11"/><text id="text47" x="8.76" y="276.63" class="st12">2</text></g><g id="shape78-105" transform="translate(143.453,-180.404)"><title id="title47">Circle.78</title><desc id="desc47">3</desc><path id="path48" d="m 0,272.73 a 12.3715,12.3715 0 0 1 24.74,0 12.3715,12.3715 0 1 1 -24.74,0 z" class="st11"/><text id="text48" x="8.76" y="276.63" class="st12">3</text></g></g></svg>